<?xml version="1.0" encoding="UTF-8" standalone="no"?>
<svg width="32px" height="28px" viewBox="0 0 32 28" version="1.1" xmlns="http://www.w3.org/2000/svg" xmlns:xlink="http://www.w3.org/1999/xlink" xmlns:sketch="http://www.bohemiancoding.com/sketch/ns">
    <!-- Generator: Sketch 3.3.2 (12043) - http://www.bohemiancoding.com/sketch -->
    <title>Shape</title>
    <desc>Created with Sketch.</desc>
    <defs></defs>
    <g id="Page-1" stroke="none" stroke-width="1" fill="none" fill-rule="evenodd" sketch:type="MSPage">
        <g id="3" sketch:type="MSArtboardGroup" transform="translate(-245.000000, -46.000000)" fill="#FFFFFF">
            <g id="Warning" sketch:type="MSLayerGroup" transform="translate(245.000000, 46.000000)">
                <path d="M2.50522383,28 L29.1756071,28 C31.037628,28 32.252959,26.0432056 31.4111472,24.4599303 L17.9923318,1.32961672 C17.0557465,-0.443205575 14.4522622,-0.443205575 13.5156768,1.32961672 L0.269683759,24.4543554 C-0.566553175,26.1379791 0.643202923,28 2.50522383,28 Z M17.8975583,22.6815331 C17.8975583,23.8912892 16.960973,24.8278746 15.7512169,24.8278746 C14.5414608,24.8278746 13.6048754,23.8912892 13.6048754,22.6815331 L13.6048754,22.5867596 C13.6048754,21.3770035 14.5414608,20.4404181 15.7512169,20.4404181 C16.960973,20.4404181 17.8975583,21.3825784 17.8975583,22.6815331 Z M14.5358858,7.01602787 L17.0557465,7.01602787 C17.7080113,7.01602787 18.176304,7.57909408 18.0815304,8.32055749 L16.960973,17.7421603 C16.8661994,18.3944251 16.3979068,18.8627178 15.7512169,18.8627178 C15.0989521,18.8627178 14.6306594,18.3944251 14.5414608,17.7421603 L13.5156768,8.32055749 C13.4209033,7.57909408 13.883621,7.01602787 14.5358858,7.01602787 Z" id="Shape" sketch:type="MSShapeGroup"></path>
            </g>
        </g>
    </g>
</svg>