<?xml version="1.0" encoding="UTF-8" standalone="no"?>
<svg width="16px" height="19px" viewBox="0 0 16 19" version="1.1" xmlns="http://www.w3.org/2000/svg" xmlns:xlink="http://www.w3.org/1999/xlink" xmlns:sketch="http://www.bohemiancoding.com/sketch/ns">
    <!-- Generator: Sketch 3.4 (15575) - http://www.bohemiancoding.com/sketch -->
    <title>anti-tracking-on</title>
    <desc>Created with Sketch.</desc>
    <defs></defs>
    <g id="Page-1" stroke="none" stroke-width="1" fill="none" fill-rule="evenodd" sketch:type="MSPage">
        <g id="anti-tracking-on" sketch:type="MSLayerGroup" fill="#13B14A">
            <g id="Page-1" sketch:type="MSShapeGroup">
                <g id="icon">
                    <path d="M8.08914758,0.0150525735 C8.0323175,-0.00501752647 7.97031143,-0.00501752647 7.91348141,0.0150525735 L0.176247156,2.74342402 C0.0706678726,2.78065933 0,2.88048166 0,2.99245169 C0,5.75356907 0.730657218,8.94540136 2.00468595,11.7496167 C3.03808476,14.02435 4.89641744,17.058632 7.88036572,18.595896 C7.91834047,18.6154379 7.95980107,18.6252089 8.0013145,18.6252089 C8.04282787,18.6252089 8.08428852,18.6154379 8.12226322,18.595896 C11.1061587,17.058632 12.9644386,14.02435 13.9978902,11.7496167 C15.2718661,8.94540136 16.0025233,5.75356907 16.0025233,2.99245169 C16.0025233,2.88048166 15.9318555,2.78065933 15.8262762,2.74342402 L8.08914758,0.0150525735 L8.08914758,0.0150525735 Z M11.1715405,9.00890067 C11.2152242,8.79868005 11.237066,8.58026902 11.237066,8.35503263 C11.237066,6.55450665 9.85147488,5.11845415 7.91983794,5.11845415 C5.98820106,5.11845415 4.5889589,6.57771284 4.5889589,8.35503263 C4.5889589,10.1555585 5.97454991,11.5916111 7.90618679,11.5916111 C8.02904711,11.5916111 8.15327252,11.5847857 8.27613283,11.56977 C8.13825627,11.1629795 7.99355416,10.7275224 7.84748689,10.3139066 C6.77996744,10.2770497 6.02642427,9.39931035 6.02642427,8.34684222 L6.02642427,8.33182644 C6.02642427,7.25751721 6.79634879,6.37977787 7.89936125,6.37977787 C9.0023737,6.37977787 9.78458428,7.26707266 9.79277498,8.32773126 C10.2569139,8.56661828 10.7142272,8.79185468 11.1715405,9.00890067 L11.1715405,9.00890067 Z M9.05508548,11.7385464 L9.68436083,10.5112268 L11.0320124,11.7665613 C11.0320124,11.7665613 11.4830859,11.3983655 11.4023382,11.3049825 C11.0027762,10.8727524 10.0546866,10.049648 10.0546866,10.049648 L11.1726249,9.68145225 L7.73806228,8.09260736 L9.05508548,11.7385464 L9.05508548,11.7385464 Z" id="anti-tracking-on"></path>
                </g>
            </g>
        </g>
    </g>
</svg>