<?xml version="1.0" encoding="UTF-8" standalone="no"?>
<svg width="16px" height="19px" viewBox="0 0 16 19" version="1.1" xmlns="http://www.w3.org/2000/svg" xmlns:xlink="http://www.w3.org/1999/xlink" xmlns:sketch="http://www.bohemiancoding.com/sketch/ns">
    <!-- Generator: Sketch 3.4 (15575) - http://www.bohemiancoding.com/sketch -->
    <title>anti-tracking-off</title>
    <desc>Created with Sketch.</desc>
    <defs></defs>
    <g id="Page-1" stroke="none" stroke-width="1" fill="none" fill-rule="evenodd" sketch:type="MSPage">
        <g id="anti-tracking-off" sketch:type="MSLayerGroup" fill="#FF5349">
            <g id="Page-1" sketch:type="MSShapeGroup">
                <g id="icon">
                    <path d="M8.08787206,0.0150502 C8.03105094,-0.00501673529 7.96905465,-0.00501673529 7.91223359,0.0150502 L0.176219365,2.74299142 C0.0706567294,2.78022087 0,2.88002746 0,2.99197983 C0,5.75266182 0.730542006,8.94399082 2.00436984,11.7477639 C3.0376057,14.0221386 4.89564535,17.0559421 7.87912312,18.5929637 C7.91709188,18.6125025 7.95854594,18.622272 8.00005282,18.622272 C8.04155965,18.622272 8.08301376,18.6125025 8.12098247,18.5929637 C11.1044075,17.0559421 12.9623943,14.0221386 13.9956829,11.7477639 C15.269458,8.94399082 16,5.75266182 16,2.99197983 C16,2.88002746 15.9293433,2.78022087 15.8237806,2.74299142 L8.08787206,0.0150502 L8.08787206,0.0150502 Z M9.05365765,11.7366954 L9.68283376,10.5095694 L11.0302729,11.7647059 C11.0302729,11.7647059 11.4812752,11.3965682 11.4005402,11.3031999 C11.0010412,10.8710379 10.0531011,10.0480634 10.0531011,10.0480634 L11.1708631,9.67992565 L7.73684212,8.09133129 L9.05365765,11.7366954 L9.05365765,11.7366954 Z M11.1697789,9.00748012 C11.2134557,8.79729265 11.2352941,8.57891606 11.2352941,8.35371518 C11.2352941,6.55347312 9.84992147,5.11764706 7.91858912,5.11764706 C5.98725682,5.11764706 4.58823529,6.57667565 4.58823529,8.35371518 C4.58823529,10.1539572 5.97360782,11.5897833 7.90494012,11.5897833 C8.02778106,11.5897833 8.15198688,11.582959 8.27482782,11.5679456 C8.136973,11.1612192 7.99229371,10.7258309 7.84624947,10.3122802 C6.77889835,10.2754292 6.025474,9.39782824 6.025474,8.34552606 L6.025474,8.33051265 C6.025474,7.25637282 6.79527712,6.37877188 7.89811565,6.37877188 C9.00095418,6.37877188 9.78304141,7.26592676 9.79123082,8.32641812 C10.2552965,8.56526747 10.7125378,8.79046835 11.1697789,9.00748012 L11.1697789,9.00748012 Z" id="anti-tracking-off"></path>
                </g>
            </g>
        </g>
    </g>
</svg>