<?xml version="1.0" encoding="UTF-8"?>
<svg width="380px" height="303px" viewBox="0 0 380 303" version="1.1" xmlns="http://www.w3.org/2000/svg" xmlns:xlink="http://www.w3.org/1999/xlink">
    <g stroke="none" stroke-width="1" fill="none" fill-rule="evenodd">
        <rect stroke="#000000" stroke-width="0.73" x="0.5" y="0.5" width="378" height="302"></rect>
        <g transform="translate(173.000000, 139.000000)" fill="#000000">
            <path d="M18.270,18.361 C19.489,19.724 20.687,21.0558 21.873,22.399 C22.0567,22.606 22.245,22.690 22.522,22.688 C25.0193,22.679 27.516,22.683 30.0133,22.682 C30.155,22.682 30.297,22.669 30.483,22.661 C30.483,22.102 30.506,21.573 30.471,21.0478 C30.457,20.832 30.370,20.579 30.228,20.420 C29.132,19.191 28.0154,17.981 26.905,16.765 C25.741,15.491 24.576,14.217 23.390,12.918 C21.678,14.738 19.980,16.543 18.270,18.361 L18.270,18.361 Z M21.165,22.667 C17.372,18.431 13.648,14.271 9.896,10.0802 C9.736,10.250 9.602,10.392 9.468,10.535 C6.752,13.451 4.0471,16.376 1.310,19.272 C0.860,19.749 0.609,20.210 0.674,20.877 C0.731,21.464 0.686,22.0605 0.686,22.667 L21.165,22.667 Z M0.700,18.805 C0.737,18.830 0.773,18.856 0.810,18.882 C0.867,18.794 0.913,18.697 0.983,18.622 C3.807,15.586 6.632,12.553 9.457,9.519 C9.856,9.0901 9.972,9.0893 10.370,9.534 C12.745,12.186 15.119,14.840 17.493,17.493 C17.587,17.599 17.686,17.700 17.786,17.807 C17.919,17.675 18.0256,17.576 18.125,17.470 C19.729,15.768 21.331,14.0644 22.934,12.362 C23.340,11.930 23.459,11.931 23.853,12.363 C25.921,14.631 27.990,16.899 30.0586,19.165 C30.170,19.288 30.291,19.402 30.451,19.565 L30.451,0.723 L0.700,0.723 L0.700,18.805 Z M2.39210212e-05,23.3567243 L31.167,23.357 L31.167,0 L2.39210212e-05,0 L2.39210212e-05,23.3567243 Z"></path>
            <path d="M18.0534,9.188 C19.0476,9.195 19.839,8.421 19.844,7.440 C19.849,6.441 19.0573,5.659 18.0410,5.658 C17.0890,5.657 16.304,6.442 16.289,7.410 C16.275,8.384 17.0673,9.182 18.0534,9.188 M18.0577,9.902 C16.686,9.899 15.575,8.785 15.581,7.417 C15.586,6.0555 16.714,4.939 18.0781,4.945 C19.439,4.951 20.562,6.0784 20.559,7.437 C20.557,8.797 19.432,9.906 18.0577,9.902"></path>
        </g>
    </g>
</svg>
