<?xml version="1.0" encoding="UTF-8"?>
<svg width="134px" height="91px" viewBox="0 0 134 91" version="1.1" xmlns="http://www.w3.org/2000/svg" xmlns:xlink="http://www.w3.org/1999/xlink">
    <defs>
      <polygon id="path-1" points="0 0.055 34.852 0.055 34.852 27.679 0 27.679"></polygon>
      <polygon id="path-3" points="0.068 0.007 5.480 0.007 5.480 5.406 0.068 5.406"></polygon>
    </defs>
    <g stroke="none" stroke-width="1" fill="none" fill-rule="evenodd">
      <rect stroke="#000000" stroke-width="0.73" x="0.5" y="0.5" width="132" height="90"></rect>
        <g transform="translate(48.5, 27.039)">
          <mask id="mask-2" fill="white">
            <use xlink:href="#path-1"></use>
          </mask>
          <path d="M9.771,21.599 C9.892,21.606 9.970,21.614 10.0475,21.614 C15.610,21.614 21.172,21.611 26.734,21.623 C27.0678,21.624 27.148,21.463 27.242,21.210 C28.685,17.321 30.136,13.434 31.585,9.547 C31.892,8.722 32.197,7.897 32.517,7.0356 L6.583,7.0356 C7.650,11.911 8.710,16.753 9.771,21.599 M27.962,21.618 C29.250,21.618 30.467,21.613 31.683,21.619 C32.609,21.624 33.428,21.906 34.0443,22.628 C34.852,23.573 35.0937,24.646 34.589,25.802 C34.0493,27.0383 33.0509,27.648 31.708,27.669 C30.696,27.686 29.685,27.673 28.673,27.673 C22.415,27.673 16.156,27.674 9.898,27.670 C9.554,27.669 9.0561,27.781 9.0626,27.245 C9.0685,26.752 9.545,26.847 9.878,26.846 C17.116,26.843 24.355,26.839 31.593,26.849 C32.549,26.851 33.280,26.511 33.752,25.669 C34.507,24.322 33.580,22.544 32.0345,22.472 C30.631,22.407 29.222,22.442 27.816,22.443 C21.795,22.447 15.773,22.452 9.752,22.468 C9.284,22.470 9.0303,22.330 8.925,21.844 C7.849,16.851 6.753,11.862 5.670,6.870 C5.279,5.0670 4.895,3.262 4.539,1.452 C4.451,1.00170 4.292,0.829 3.809,0.850 C2.831,0.893 1.849,0.863 0.870,0.863 C0.775,0.863 0.680,0.863 0.585,0.863 C0.303,0.862 0.00791,0.841 -1.78470212e-05,0.472718157 C-0.00755,0.104 0.280,0.0655 0.567,0.0651 C1.104,0.0644 1.642,0.0647 2.179,0.0647 C2.938,0.0646 3.697,0.0860 4.455,0.0567 C4.908,0.0392 5.104,0.221 5.194,0.653 C5.540,2.322 5.927,3.982 6.261,5.653 C6.350,6.0970 6.523,6.219 6.973,6.219 C15.460,6.203 23.947,6.207 32.434,6.207 C32.577,6.207 32.719,6.205 32.861,6.208 C33.495,6.221 33.622,6.403 33.399,7.00378 C31.772,11.381 30.142,15.757 28.514,20.134 C28.338,20.605 28.163,21.0762 27.962,21.618" fill="#000000" mask="url(#mask-2)"></path>
        </g>
        <circle cx="77.152" cy="59.259" r="2.3" fill="none" stroke-width="0.73" stroke="#000000"/>
        <g transform="translate(60.925, 56.537)">
          <mask id="mask-4" fill="white">
            <use xlink:href="#path-3"></use>
          </mask>
          <path d="M4.651,2.703 C4.648,1.652 3.807,0.827 2.745,0.834 C1.722,0.841 0.877,1.680 0.868,2.697 C0.860,3.722 1.732,4.598 2.763,4.600 C3.803,4.603 4.654,3.747 4.651,2.703 M2.787,5.407 C1.279,5.414 0.0706,4.220 0.0689,2.721 C0.0674,1.230 1.289,0.00379 2.771,0.00796 C4.228,0.0120 5.467,1.235 5.480,2.682 C5.494,4.170 4.278,5.399 2.787,5.407" fill="#000000" mask="url(#mask-4)"></path>
        </g>
      </g>
</svg>
