<?xml version="1.0" encoding="UTF-8"?>
<svg width="265px" height="201px" viewBox="0 0 265 201" version="1.1" xmlns="http://www.w3.org/2000/svg" xmlns:xlink="http://www.w3.org/1999/xlink">
    <defs>
      <polygon id="path-1" points="0 0.019 27.848 0.019 27.848 34.620 0 34.620"></polygon>
      <polygon id="path-3" points="0.033 0.102 5.837 0.102 5.837 18.227 0.033 18.227"></polygon>
    </defs>
    <g stroke="#1D1D1B" fill="none">
        <path d="M260.97,198.35 C252.54,204.64 247.47,189.36 236.95,189.36 C226.43,189.36 226.43,199.34 215.91,199.34 C205.39,199.34 205.39,189.36 194.87,189.36 C184.35,189.36 184.35,199.34 173.83,199.34 C163.31,199.34 163.31,189.36 152.79,189.36 C142.27,189.36 142.27,199.34 131.75,199.34 C121.23,199.34 121.23,189.36 110.71,189.36 C100.19,189.36 100.19,199.34 89.67,199.34 C79.15,199.34 79.15,189.36 68.63,189.36 C58.10,189.36 58.10,199.34 47.58,199.34 C37.059,199.34 37.059,189.36 26.54,189.36 C16.013,189.36 10.94,204.64 2.51,198.35 C-3.78,193.66 10.48,186.51 10.48,178.66 C10.48,170.82 0.50,170.82 0.50,162.97 C0.50,155.12 10.48,155.12 10.48,147.28 C10.48,139.43 0.50,139.43 0.50,131.58 C0.50,123.74 10.48,123.74 10.48,115.89 C10.48,108.045 0.50,108.045 0.50,100.20 C0.50,92.35 10.48,92.35 10.48,84.50 C10.48,76.66 0.50,76.66 0.50,68.81 C0.50,60.96 10.48,60.96 10.48,53.12 C10.48,45.27 0.50,45.27 0.50,37.42 C0.50,29.57 10.48,29.57 10.48,21.72 C10.48,13.87 -3.79,6.71 2.51,2.021 C10.94,-4.27 16.0087,11.0078 26.53,11.0078 C37.048,11.0078 37.048,1.031 47.57,1.031 C58.087,1.031 58.087,11.0078 68.61,11.0078 C79.13,11.0078 79.13,1.031 89.64,1.031 C100.16,1.031 100.16,11.0078 110.68,11.0078 C121.20,11.0078 121.20,1.031 131.72,1.031 C142.25,1.031 142.25,11.0078 152.77,11.0078 C163.29,11.0078 163.29,1.031 173.81,1.031 C184.33,1.031 184.33,11.0078 194.85,11.0078 C205.37,11.0078 205.37,1.031 215.90,1.031 C226.42,1.031 226.42,11.0078 236.94,11.0078 C247.47,11.0078 252.53,-4.27 260.97,2.020 C267.26,6.71 252.0,13.86 252.0,21.71 C252.0,29.55 262.98,29.55 262.98,37.40 C262.98,45.25 252.0,45.25 252.0,53.095 C252.0,60.94 262.98,60.94 262.98,68.79 C262.98,76.63 252.0,76.63 252.0,84.48 C252.0,92.33 262.98,92.33 262.98,100.17 C262.98,108.021 252.0,108.021 252.0,115.87 C252.0,123.71 262.98,123.71 262.98,131.56 C262.98,139.41 252.0,139.41 252.0,147.26 C252.0,155.10 262.98,155.10 262.98,162.95 C262.98,170.80 250.94,172.58 253.21,180.096 C256.31,190.34 267.26,193.66 260.97,198.35 Z"></path>
    </g>
    <g transform="translate(110.500000, 82.000000)">
        <g transform="translate(0.000000, 0.088331)">
            <mask id="mask-2" fill="white">
                <use xlink:href="#path-1"></use>
            </mask>
            <path d="M26.852,0.993 C25.806,0.993 24.820,1.0104 23.835,0.985 C23.416,0.974 23.0870,1.0897 22.751,1.340 C18.113,4.794 13.471,8.242 8.814,11.670 C8.521,11.886 8.103,12.0181 7.738,12.0310 C6.356,12.0797 4.972,12.0536 3.589,12.0750 C2.846,12.0866 2.277,12.469 1.908,13.0830 C1.644,13.523 1.371,14.0133 1.308,14.508 C1.146,15.783 1.0215,17.0741 1.0263,18.358 C1.0303,19.413 1.238,20.465 1.802,21.404 C2.218,22.0960 2.790,22.549 3.621,22.564 C5.00332,22.589 6.387,22.564 7.769,22.611 C8.118,22.623 8.517,22.750 8.796,22.955 C13.467,26.395 18.122,29.856 22.784,33.308 C22.966,33.443 23.179,33.622 23.382,33.628 C24.526,33.659 25.672,33.643 26.852,33.643 L26.852,0.993 Z M27.849,17.372 C27.849,22.817 27.849,28.261 27.849,33.706 C27.848,34.519 27.762,34.607 26.964,34.609 C25.832,34.611 24.698,34.643 23.568,34.591 C23.168,34.573 22.711,34.441 22.392,34.207 C17.733,30.781 13.0950,27.325 8.439,23.894 C8.174,23.699 7.795,23.579 7.465,23.568 C6.173,23.525 4.877,23.570 3.585,23.524 C2.463,23.484 1.622,22.906 1.0263,21.967 C0.372,20.935 0.172,19.773 0.0651,18.583 C-0.0738,17.0307 -0.00812,15.490 0.434,13.991 C0.828,12.655 1.556,11.575 3.00526,11.202 C3.348,11.114 3.715,11.0969 4.0712,11.0924 C5.131,11.0787 6.192,11.0660 7.251,11.0965 C7.763,11.111 8.169,10.977 8.584,10.668 C13.190,7.229 17.806,3.804 22.435,0.397 C22.726,0.183 23.146,0.0590 23.511,0.0456 C24.696,0.00200 25.883,0.0249 27.0686,0.0312 C27.732,0.0347 27.848,0.155 27.848,0.822 C27.849,6.339 27.849,11.856 27.849,17.372 L27.849,17.372 Z" fill="#000000" mask="url(#mask-2)"></path>
        </g>
        <g transform="translate(35.483223, 8.177211)">
            <mask id="mask-4" fill="white">
                <use xlink:href="#path-3"></use>
            </mask>
            <path d="M4.859,9.339 C4.834,6.0180 3.525,3.464 0.994,1.525 C0.794,1.372 0.589,1.226 0.389,1.0738 C0.132,0.879 -0.110,0.655 0.136,0.316 C0.367,-0.00284 0.659,0.0779 0.938,0.282 C2.0882,1.125 3.159,2.0506 3.970,3.240 C7.0799,7.803 6.232,13.806 1.973,17.357 C1.615,17.656 1.259,17.972 0.854,18.194 C0.682,18.288 0.387,18.159 0.147,18.131 C0.203,17.898 0.184,17.592 0.328,17.444 C0.665,17.101 1.0881,16.845 1.460,16.535 C3.741,14.631 4.834,12.173 4.859,9.339" fill="#000000" mask="url(#mask-4)"></path>
        </g>
        <path d="M35.563,17.417 C35.532,18.811 35.113,20.0625 34.285,21.184 C33.543,22.187 32.565,22.906 31.511,23.537 C31.230,23.705 30.901,23.722 30.782,23.397 C30.720,23.225 30.861,22.878 31.0226,22.744 C31.531,22.321 32.129,22.00412 32.628,21.571 C35.255,19.292 35.248,15.498 32.615,13.219 C32.156,12.822 31.629,12.502 31.131,12.152 C30.871,11.969 30.589,11.778 30.798,11.417 C31.0166,11.0414 31.333,11.151 31.635,11.334 C33.513,12.472 34.980,13.932 35.416,16.189 C35.494,16.593 35.515,17.00713 35.563,17.417" fill="#000000"></path>
    </g>
</svg>
