<?xml version="1.0" encoding="UTF-8" standalone="no"?>
<svg width="19px" height="19px" viewBox="0 0 19 19" version="1.1" xmlns="http://www.w3.org/2000/svg" xmlns:xlink="http://www.w3.org/1999/xlink">
    <!-- Generator: Sketch 43.1 (39012) - http://www.bohemiancoding.com/sketch -->
    <title>Page 1 Copy</title>
    <desc>Created with Sketch.</desc>
    <defs></defs>
    <g id="Welcome" stroke="none" stroke-width="1" fill="none" fill-rule="evenodd">
        <g id="History-Tool-Beta-Feedback-form" transform="translate(-625.000000, -1112.000000)">
            <g id="Page-1-Copy" transform="translate(625.710240, 1112.182813)">
                <path d="M18.27,9.135 C18.27,14.180355 14.180355,18.27 9.135,18.27 C4.089645,18.27 0,14.180355 0,9.135 C0,4.089645 4.089645,0 9.135,0 C14.180355,0 18.27,4.089645 18.27,9.135" id="Fill-1" fill="#37BCDB"></path>
                <g id="Group-6" transform="translate(4.500000, 7.150000)" fill="#FFFFFF">
                    <path d="M0.5777694,1.2880476 C0.5735169,0.5880861 1.1592279,0.0023751 1.8572049,0.0080451 C2.5574499,0.0137151 3.1292694,0.5863851 3.1287024,1.2823776 C3.1284189,1.9789371 2.5557489,2.5518906 1.8560709,2.5561431 C1.1620629,2.5601121 0.5820219,1.9846071 0.5777694,1.2880476" id="Fill-3"></path>
                    <path d="M7.46038395,2.5499628 C6.79160745,2.6157348 6.18746895,2.0836053 6.11886195,1.3680513 C6.05790945,0.7338618 6.58323495,0.0957033 7.19928045,0.0211428 C7.98514245,-0.0738297 8.60855895,0.4886343 8.66157345,1.1897298 C8.71345395,1.8709803 8.19266445,2.5159428 7.46038395,2.5499628" id="Fill-5"></path>
                </g>
                <path d="M5.98563,13.3875 C5.98563,13.3875 7.24563,14.6475 9.13563,14.6475 C9.80721,14.6475 10.39941,14.488425 10.883565,14.28336" id="Stroke-7" stroke="#FFFFFF" stroke-width="1.26" stroke-linecap="round"></path>
            </g>
        </g>
    </g>
</svg>