<?xml version="1.0" encoding="UTF-8" standalone="no"?>
<svg width="23px" height="21px" viewBox="0 0 23 21" version="1.1" xmlns="http://www.w3.org/2000/svg" xmlns:xlink="http://www.w3.org/1999/xlink">
    <!-- Generator: Sketch 43.1 (39012) - http://www.bohemiancoding.com/sketch -->
    <title>Home</title>
    <desc>Created with Sketch.</desc>
    <defs></defs>
    <g id="Page-1" stroke="none" stroke-width="1" fill="none" fill-rule="evenodd">
        <g id="Home" transform="translate(-1.000000, 0.000000)" fill-rule="nonzero" fill="#FFFFFF">
            <path d="M4.47301262,7.22198938 L12.3734126,0.821989375 L20.2730126,7.22198938 L20.2730126,20.9395894 L15.5986126,20.9395894 L9.13221262,20.9395894 L4.47301262,20.9395894 L4.47301262,7.22198938 Z M6.27301262,8.08038938 L6.27301262,19.1395894 L9.13221262,19.1395894 L15.5986126,19.1395894 L18.4730126,19.1395894 L18.4730126,8.08038938 L12.3734126,3.13838938 L6.27301262,8.08038938 Z" id="Fill-1"></path>
            <path d="M22.8727326,11.1960294 C22.6747326,11.1960294 22.4759326,11.1312294 22.3099326,10.9980294 L12.3731326,3.02002937 L2.43633262,10.9980294 C2.04953262,11.3080294 1.48313262,11.2476294 1.17113262,10.8592294 C0.860332622,10.4716294 0.921932622,9.90522937 1.30993262,9.59402937 L12.3731326,0.711229375 L23.4363326,9.59402937 C23.8243326,9.90522937 23.8859326,10.4716294 23.5751326,10.8592294 C23.3971326,11.0808294 23.1359326,11.1960294 22.8727326,11.1960294 Z M15.1524526,20.1663494 L13.3524526,20.1663494 L13.3524526,13.0931494 L11.3272526,13.0931494 L11.3272526,20.1663494 L9.52725262,20.1663494 L9.52725262,11.2931494 L15.1524526,11.2931494 L15.1524526,20.1663494 Z" id="Combined-Shape"></path>
        </g>
    </g>
</svg>