<?xml version="1.0" encoding="UTF-8" standalone="no"?>
<svg width="32px" height="32px" viewBox="0 0 32 32" version="1.1" xmlns="http://www.w3.org/2000/svg" xmlns:xlink="http://www.w3.org/1999/xlink" xmlns:sketch="http://www.bohemiancoding.com/sketch/ns">
    <!-- Generator: Sketch 3.4.4 (17249) - http://www.bohemiancoding.com/sketch -->
    <title>plus icon</title>
    <desc>Created with Sketch.</desc>
    <defs></defs>
    <g id="new-layout" stroke="none" stroke-width="1" fill="none" fill-rule="evenodd" sketch:type="MSPage">
        <g id="new-layout-ft-2-rows" sketch:type="MSArtboardGroup" transform="translate(-772.000000, -560.000000)">
            <g id="Browser" sketch:type="MSLayerGroup" transform="translate(284.000000, 200.000000)">
                <g id="Chrome" sketch:type="MSShapeGroup">
                    <g id="plus-icon" transform="translate(489.000000, 361.000000)">
                        <path d="M15,30 C23.2842712,30 30,23.2842712 30,15 C30,6.71572875 23.2842712,0 15,0 C6.71572875,0 0,6.71572875 0,15 C0,23.2842712 6.71572875,30 15,30 Z" id="Oval-1" stroke="#CCCCCC" stroke-width="2"></path>
                        <path d="M9.25058944,7.62712999 L22.238265,20.6148056 L20.6148056,22.238265 L7.62712999,9.25058944 L9.25058944,7.62712999 L9.25058944,7.62712999 Z" id="Rectangle-25" fill="#CCCCCC" transform="translate(14.932698, 14.932698) rotate(-315.000000) translate(-14.932698, -14.932698) "></path>
                        <path d="M7.62712999,20.6148056 L9.25058944,22.238265 L22.238265,9.25058944 L20.6148056,7.62712999 L7.62712999,20.6148056 Z" id="Rectangle-25" fill="#CCCCCC" transform="translate(14.932698, 14.932698) rotate(-315.000000) translate(-14.932698, -14.932698) "></path>
                    </g>
                </g>
            </g>
        </g>
    </g>
</svg>