<?xml version="1.0" encoding="UTF-8"?>
<svg width="103px" height="25px" viewBox="0 0 103 25" version="1.1" xmlns="http://www.w3.org/2000/svg" xmlns:xlink="http://www.w3.org/1999/xlink">
    <!-- Generator: Sketch 55.2 (78181) - https://sketchapp.com -->
    <title>Group</title>
    <desc>Created with Sketch.</desc>
    <g id="Page-1" stroke="none" stroke-width="1" fill="none" fill-rule="evenodd">
        <g id="Group" fill-rule="nonzero">
            <path d="M25.0811688,0.0240863787 L102.961487,0.0240863787 L102.973267,17.8898534 L92.8724736,17.8856737 L92.8775223,24.9410299 L24.9975649,24.9410299 L24.9975649,24.9169435 L3.55271368e-15,24.9169435 L3.55271368e-15,1.77635684e-15 L25.0811688,1.77635684e-15 L25.0811688,0.0240863787 Z" id="Combined-Shape" fill="#E94640"></path>
            <path d="M43.1396104,9.01245847 L45.4253409,9.01245847 C45.8092403,9.01254522 46.1227704,8.70771096 46.1309578,8.32641196 L46.1309578,8.32641196 L46.1309578,4.15282392 C46.1309578,3.37714825 45.498004,2.74833887 44.7172159,2.74833887 L29.762987,2.74833887 C28.9831786,2.74971327 28.3517532,3.37812027 28.3517532,4.15282392 L28.3517532,20.1445183 C28.3517532,20.9192219 28.9831786,21.5476289 29.762987,21.5490033 L44.719724,21.5490033 C45.5005121,21.5490033 46.1334659,20.9201939 46.1334659,20.1445183 L46.1334659,16.2342193 C46.1334659,15.8466108 45.8171762,15.532392 45.427013,15.532392 L43.1396104,15.532392 C42.9521026,15.5321716 42.7721987,15.6060165 42.6395322,15.7376586 C42.5068657,15.8693006 42.4323213,16.0479391 42.4323214,16.2342193 L42.4373377,17.0224252 C42.4354969,17.6667996 41.9096542,18.1884567 41.2610308,18.1893688 L36.4839042,18.1893688 C35.8363892,18.1893792 35.3104404,17.669843 35.3067614,17.0265781 L35.3067614,13.4717608 L32.0946997,10.3156146 L32.0946997,7.2333887 C32.0944768,6.92265911 32.2187431,6.62461683 32.4400671,6.40505366 C32.6613911,6.18549048 32.9615737,6.06246078 33.2743506,6.06312292 L41.263539,6.06312292 C41.9137922,6.0635814 42.440682,6.58739298 42.4406818,7.2333887 L42.4356656,8.31312292 C42.4370414,8.69878771 42.7514037,9.01109166 43.1396104,9.01245847 Z" id="Path" fill="#FFFFFF"></path>
            <path d="M66.8254302,2.75082833 L64.5288312,2.75082833 C64.3417665,2.75105049 64.1624638,2.82514303 64.0304245,2.95678519 C63.8983851,3.08842734 63.8244424,3.2668184 63.8248864,3.45265781 L63.8248864,9.7076412 C63.8262754,10.3516159 63.3026465,10.8751603 62.6544318,10.877907 L54.6050487,10.877907 C53.9517579,10.8788545 53.419738,10.3566191 53.4128571,9.7076412 L53.4128571,3.45265781 C53.4060055,3.06239521 53.0850849,2.74986348 52.6921916,2.75082833 L50.3955925,2.75082833 C50.0056203,2.75128824 49.6896003,3.06523906 49.6891396,3.45265781 L49.718401,20.14701 C49.7181792,20.5194262 49.8669405,20.8766646 50.1319358,21.1400805 C50.3969311,21.4034965 50.756436,21.551495 51.1313068,21.551495 L55.2538149,21.551495 C56.034603,21.551495 56.6675568,20.9226856 56.6675568,20.14701 L56.6675568,15.404485 L56.6951461,15.3380399 C56.6951461,14.6918605 57.2226867,14.2342193 57.873125,14.2342193 L62.6293506,14.2342193 C63.2813473,14.2337518 63.8111731,14.7567677 63.8148539,15.404485 L63.8223782,15.3380399 L63.8148539,20.8471761 C63.8189787,21.2359906 64.1374323,21.5490249 64.5288312,21.5490033 L66.8254302,21.5490033 C67.0127932,21.5490033 67.1924822,21.475061 67.3249678,21.3434429 C67.4574535,21.2118247 67.5318831,21.0333122 67.5318831,20.8471761 L67.5318831,3.45265781 C67.5318831,3.06504932 67.2155934,2.75082833 66.8254302,2.75082833 L66.8254302,2.75082833 Z" id="Path" fill="#FFFFFF"></path>
            <path d="M75.0762987,10.3513289 L75.0762987,3.45265781 C75.0762987,3.06504932 74.760009,2.75082545 74.3698458,2.75082545 L72.0122159,2.75082545 C71.6182835,2.7493687 71.2956397,3.06140657 71.2865341,3.45265781 L71.2865341,20.14701 C71.2825199,20.5175458 71.4276484,20.8743256 71.6896664,21.1380592 C71.9516844,21.4017927 72.3088845,21.5506305 72.6818831,21.551495 L76.8403409,21.551495 C77.2155786,21.5512752 77.5753351,21.4028638 77.8403545,21.1389565 C78.1053739,20.8750493 78.2539125,20.5172985 78.253249,20.1445183 L78.253249,13.5257475 L75.0762987,10.3513289 Z" id="Path" fill="#FFFFFF"></path>
            <path d="M97.9770779,2.75082958 L83.1791883,2.75082958 C82.8044623,2.75038975 82.4449079,2.89785175 82.179623,3.16077656 C81.9143381,3.42370137 81.7650536,3.78055152 81.7646101,4.15282392 L81.7646101,20.1445183 C81.7643886,20.5169345 81.9131499,20.8741729 82.1781452,21.1375888 C82.4431405,21.4010048 82.8026454,21.5490033 83.1775162,21.5490033 L87.357711,21.5490033 C88.1397256,21.5490033 88.7748372,20.9214015 88.7789773,20.1445183 L88.7789773,15.3538206 C88.781714,14.7077661 89.3074869,14.1843245 89.9577922,14.1802326 L97.9762419,14.1802326 C98.7569738,14.1788582 99.3891477,13.5497074 99.3891477,12.7740864 L99.3891477,4.15282392 C99.3882256,3.37857991 98.7564253,2.75128816 97.9770779,2.75082958 Z M95.7883284,10.1171096 C95.7883284,10.5047181 95.4720382,10.8189369 95.081875,10.8189369 L86.1312419,10.8189369 C85.7410787,10.8189369 85.4247885,10.5047181 85.4247885,10.1171096 L85.4247885,6.69518272 C85.4245671,6.5089027 85.4988987,6.33017675 85.6314084,6.19837892 C85.7639181,6.06658109 85.943734,5.99252492 86.1312419,5.99252492 L95.081875,5.99252492 C95.2693829,5.99252492 95.4491988,6.06658109 95.5817085,6.19837892 C95.7142182,6.33017675 95.7885498,6.5089027 95.7883284,6.69518272 L95.7883284,10.1171096 Z" id="Shape" fill="#FFFFFF"></path>
            <path d="M7.90809253,3.94684385 L6.42328734,2.4717608 C3.85516278,4.40448826 2.28681109,7.37300381 2.14443994,10.570598 L4.22032468,10.570598 C4.37073083,7.92015546 5.72812661,5.48208012 7.90809253,3.94684385 L7.90809253,3.94684385 Z M20.7738961,10.570598 L22.8497808,10.570598 C22.6988447,7.37619188 21.1325681,4.41193681 18.5717695,2.47425249 L17.0961607,3.95016611 C19.2674745,5.49038267 20.6199799,7.92452601 20.7747321,10.570598 L20.7738961,10.570598 Z M18.7272727,11.0847176 C18.7272727,7.91694352 17.0242614,5.2666113 14.0563231,4.56395349 L14.0563231,3.86461794 C14.0563231,3.00958574 13.3586141,2.31644518 12.4979464,2.31644518 C11.6372788,2.31644518 10.9395698,3.00958574 10.9395698,3.86461794 L10.9395698,4.56810631 C7.95992695,5.26910299 6.27029221,7.90946844 6.27029221,11.0872093 L6.27029221,16.2450166 L4.18939123,18.307309 L4.18939123,19.3380399 L20.8048295,19.3380399 L20.8048295,18.307309 L18.7272727,16.2450166 L18.7272727,11.0847176 Z M12.4971104,22.4335548 C12.6375642,22.4360606 12.7778379,22.4224038 12.9151299,22.3928571 C13.8852976,22.2045067 14.5806138,21.3532064 14.5663068,20.3712625 L10.4111932,20.3712625 C10.4189917,21.5108977 11.3499397,22.4313018 12.4971104,22.4335548 Z" id="Shape" fill="#FFFFFF"></path>
            <path d="M11.0616315,11.9435216 C10.1380588,12.8606754 8.6410483,12.8606754 7.71747565,11.9435216 C7.27330963,11.5033338 7.02368903,10.9056686 7.02368903,10.282392 C7.02368903,9.65911549 7.27330963,9.06145022 7.71747565,8.62126246 C8.16056464,8.18000473 8.76216907,7.93201858 9.38955357,7.93201858 C10.0169381,7.93201858 10.6185425,8.18000473 11.0616315,8.62126246 C11.9848302,9.53878778 11.9848302,11.0259963 11.0616315,11.9435216 L11.0616315,11.9435216 Z M10.1018588,10.9933555 C10.4433192,10.6544486 10.4962083,10.1230945 10.2281747,9.72431262 C9.96014121,9.32553071 9.44585564,9.17041627 8.99989681,9.35384988 C8.55393799,9.53728348 8.30054412,10.008163 8.39471146,10.4784602 C8.48887879,10.9487575 8.90437356,11.287454 9.38704545,11.2873754 C9.65603528,11.2920168 9.91489888,11.18554 10.1018588,10.9933555 L10.1018588,10.9933555 Z M14.5537662,7.89036545 L15.5160471,7.89036545 L10.3836039,17.2848837 L9.39958604,17.2848837 L14.5537662,7.89036545 Z M17.2357792,16.5398671 C16.307107,17.4260521 14.8354732,17.4113402 13.9249398,16.5067688 C13.0144064,15.6021974 12.9995976,14.1401995 13.8916234,13.217608 C14.8202956,12.331423 16.2919294,12.3461348 17.2024628,13.2507063 C18.1129962,14.1552777 18.127805,15.6172756 17.2357792,16.5398671 L17.2357792,16.5398671 Z M16.2793506,14.1694352 C15.9381655,13.8289072 15.4023002,13.7753842 14.9997088,14.0416226 C14.5971174,14.3078611 14.4400359,14.8196382 14.6245995,15.2637419 C14.809163,15.7078455 15.2839184,15.960467 15.7583112,15.8669998 C16.232704,15.7735325 16.5744813,15.3600337 16.5744724,14.8795681 C16.5789604,14.6125394 16.4721557,14.3555418 16.2793506,14.1694352 L16.2793506,14.1694352 Z" id="Shape" fill="#E94640"></path>
        </g>
    </g>
</svg>