<?xml version="1.0" encoding="UTF-8"?>
<svg width="77px" height="18px" viewBox="0 0 77 18" version="1.1" xmlns="http://www.w3.org/2000/svg" xmlns:xlink="http://www.w3.org/1999/xlink">
    <!-- Generator: Sketch 55 (78076) - https://sketchapp.com -->
    <title>Chip-icon-logo</title>
    <desc>Created with Sketch.</desc>
    <g id="Chip-icon-logo" stroke="none" stroke-width="1" fill="none" fill-rule="evenodd">
        <g id="CHIP_Magazine-Copy" transform="translate(19.642948, -0.141295)">
            <polyline id="Fill-2" fill="#EB443F" points="57.1283496 13.3122467 49.7295668 13.336431 49.7335975 18.5118707 0 18.5118707 0 0.137447425 57.1202882 0.137447425 57.1283496 13.3122467"></polyline>
            <path d="M13.3771412,6.80687213 L15.0595622,6.80687213 C15.3439292,6.80687213 15.5763,6.5827643 15.5823461,6.30021109 L15.5843615,6.30021109 L15.5843615,3.20179948 C15.5843615,2.62701934 15.1196199,2.16026239 14.540809,2.16026239 L3.51297078,2.16026239 C2.93819064,2.16026239 2.47143369,2.62701934 2.47143369,3.20179948 L2.47143369,15.0708482 C2.47143369,15.6456283 2.93819064,16.1123853 3.51297078,16.1123853 L14.540809,16.1123853 C15.1196199,16.1123853 15.5843615,15.6456283 15.5843615,15.0708482 L15.5823461,12.1707478 C15.5823461,11.8803347 15.3479599,11.6459486 15.0595622,11.6459486 L13.3771412,11.6459486 C13.0867281,11.6459486 12.8563727,11.8803347 12.8563727,12.1707478 L12.8604034,12.7513725 C12.8604034,13.2340508 12.469827,13.620798 11.9891641,13.620798 L8.46611649,13.620798 C7.98948429,13.620798 7.59890788,13.2340508 7.59890788,12.7513725 L7.59890788,10.1154856 L5.22945131,7.77243022 L5.22945131,5.48701408 C5.22945131,5.00836652 5.61801236,4.61779011 6.09867528,4.61779011 L11.9891641,4.61779011 C12.469827,4.61779011 12.8604034,5.00836652 12.8604034,5.48701408 L12.8563727,6.28630512 C12.8563727,6.57671823 13.0867281,6.80687213 13.3771412,6.80687213" id="Fill-3" fill="#FFFFFE"></path>
            <path d="M30.8444518,2.16026239 L29.151954,2.16026239 C28.8633547,2.16026239 28.6332008,2.39263319 28.6332008,2.68103094 L28.6332008,7.32582685 C28.6332008,7.80447441 28.2464536,8.19283392 27.7657907,8.19283392 L21.8333824,8.19283392 C21.3527195,8.19283392 20.9540817,7.80447441 20.9540817,7.32582685 L20.9540817,2.68103094 C20.9540817,2.39263319 20.7098203,2.16026239 20.4214225,2.16026239 L18.7289248,2.16026239 C18.440527,2.16026239 18.2081562,2.39263319 18.2081562,2.68103094 L18.2281083,15.0708482 C18.2281083,15.6478452 18.6968806,16.1123853 19.2696454,16.1123853 L22.31203,16.1123853 C22.8868101,16.1123853 23.3535671,15.6478452 23.3535671,15.0708482 L23.3535671,11.5538467 L23.3755345,11.5016489 C23.3755345,11.0250167 23.7620802,10.6846227 24.2407277,10.6846227 L27.7498693,10.6846227 C28.2285169,10.6846227 28.6251394,11.0729822 28.6251394,11.5538467 L28.6311855,11.5016489 L28.6251394,15.5916167 C28.6251394,15.8800145 28.8633547,16.1123853 29.151954,16.1123853 L30.8444518,16.1123853 C31.132648,16.1123853 31.3652203,15.8800145 31.3652203,15.5916167 L31.3652203,2.68103094 C31.3652203,2.39263319 31.132648,2.16026239 30.8444518,2.16026239" id="Fill-4" fill="#FFFFFE"></path>
            <path d="M36.9251904,7.80447441 L36.9251904,2.68506165 C36.9251904,2.39464855 36.692618,2.16429311 36.4044218,2.16429311 L34.663757,2.16429311 C34.3773746,2.16429311 34.1310978,2.39464855 34.1310978,2.68506165 L34.1310978,15.0708482 C34.1310978,15.6478452 34.5839488,16.116416 35.1605428,16.116416 L38.2271117,16.116416 C38.8016903,16.116416 39.2666335,15.6478452 39.2666335,15.0708482 L39.2666335,10.1598235 L36.9251904,7.80447441" id="Fill-5" fill="#FFFFFE"></path>
            <path d="M52.1971713,7.62611521 C52.1971713,7.91652832 51.9648005,8.14889912 51.6804335,8.14889912 L45.0789263,8.14889912 C44.7903271,8.14889912 44.5581578,7.91652832 44.5581578,7.62611521 L44.5581578,5.08857778 C44.5581578,4.79997849 44.7903271,4.56780923 45.0789263,4.56780923 L51.6804335,4.56780923 C51.9648005,4.56780923 52.1971713,4.79997849 52.1971713,5.08857778 L52.1971713,7.62611521 M53.8114732,2.16026239 L42.8997196,2.16026239 C42.3229241,2.16026239 41.8541518,2.62883316 41.8541518,3.20179948 L41.8541518,15.0708482 C41.8541518,15.6478452 42.3229241,16.1123853 42.8997196,16.1123853 L45.9820083,16.1123853 C46.55699,16.1123853 47.0275761,15.6478452 47.0275761,15.0708482 L47.0275761,11.5157564 C47.0275761,11.0350935 47.4221833,10.6443156 47.9028462,10.6443156 L53.8114732,10.6443156 C54.3880671,10.6443156 54.8550256,10.1759463 54.8550256,9.60277848 L54.8550256,3.20179948 C54.8550256,2.62883316 54.3880671,2.16026239 53.8114732,2.16026239" id="Fill-6" fill="#FFFFFE"></path>
        </g>
        <polygon id="Fill-2" fill="#EB443F" points="18.4000003 18.4000003 0 18.4000003 0 0 18.3974038 0"></polygon>
        <g id="Group-2-Copy" transform="translate(0.017220, 1.710313)" fill="#FFFFFF">
            <path d="M4.31655613,3.21247014 L6.25360281,1.01715056 C6.6623432,0.553911456 7.36922225,0.509731515 7.83246136,0.918471905 C7.86737599,0.94927893 7.900333,0.982235935 7.93114002,1.01715056 L9.8681867,3.21247014 C10.3285898,3.73426028 10.5826498,4.40619092 10.5826498,5.10206156 L10.5826498,12.0225221 C10.5826498,12.6403078 10.0818355,13.1411221 9.46404983,13.1411221 L4.72069301,13.1411221 C4.1029073,13.1411221 3.60209304,12.6403078 3.60209304,12.0225221 L3.60209304,5.10206156 C3.60209304,4.40619092 3.85615306,3.73426028 4.31655613,3.21247014 Z M7.09237142,4.54201617 C7.55500202,4.54201617 7.93003823,4.16697996 7.93003823,3.70434936 C7.93003823,3.24171875 7.55500202,2.86668255 7.09237142,2.86668255 C6.62974081,2.86668255 6.25470461,3.24171875 6.25470461,3.70434936 C6.25470461,4.16697996 6.62974081,4.54201617 7.09237142,4.54201617 Z" id="Combined-Shape" transform="translate(7.092371, 6.889875) rotate(-45.000000) translate(-7.092371, -6.889875) "></path>
            <path d="M7.97471173,2.13373026 L9.2047464,2.22391071 C9.88819673,2.27401813 10.5308457,2.5681994 11.0154152,3.05276886 L16.0629767,8.10033044 C16.4998172,8.5371709 16.4998172,9.24542923 16.0629767,9.68226969 L12.708917,13.0363295 C12.2720765,13.4731699 11.5638182,13.4731699 11.1269777,13.0363295 L11.0514151,12.9607668 L14.3299123,9.68226969 C14.7667527,9.24542923 14.7667527,8.5371709 14.3299123,8.10033044 L9.03332172,2.8037399 C8.73212701,2.50254519 8.36986779,2.27491626 7.97471173,2.13373026 Z" id="Combined-Shape"></path>
        </g>
    </g>
</svg>