<?xml version="1.0" encoding="UTF-8"?>
<svg width="246px" height="54px" viewBox="0 0 246 54" version="1.1" xmlns="http://www.w3.org/2000/svg" xmlns:xlink="http://www.w3.org/1999/xlink">
    <!-- Generator: Sketch 55 (78076) - https://sketchapp.com -->
    <title>Group</title>
    <desc>Created with Sketch.</desc>
    <g id="Page-1" stroke="none" stroke-width="1" fill="none" fill-rule="evenodd">
        <g id="Settings" transform="translate(-273.000000, -74.000000)" fill="#CD071E">
            <g id="Group" transform="translate(273.000000, 74.000000)">
                <g id="Group-8">
                    <path d="M35.8603974,47.3745227 C35.8238581,43.9340127 38.6204187,41.1410725 42.1392826,41.1036382 C45.5554886,41.0674948 48.4560122,43.9122837 48.4982064,47.340961 C48.5412705,50.8337498 45.7732019,53.62669 42.221496,53.6735904 C38.6884948,53.7198454 35.8984591,50.957455 35.8603974,47.3745227 M21.2596239,41.1027992 C24.7604357,41.1176438 27.6198526,43.9809347 27.5748309,47.4255323 C27.5300268,50.8677633 24.6777873,53.6372534 21.1889378,53.6264964 C17.7098755,53.6153092 14.8915653,50.7649267 14.9063551,47.272353 C14.9204923,43.8877793 17.8036162,41.0879546 21.2596239,41.1027992 Z M12.661516,6.20320159 L13.4049165,6.20320159 C27.8651225,6.20320159 42.325546,6.20406215 56.7859695,6.20061992 C57.4182297,6.20040478 57.9972034,6.29463586 58.5052735,6.71996653 C59.0814198,7.20187888 59.2786885,7.78705817 59.0927296,8.49120956 C57.3005645,15.2820861 55.5005695,22.0708112 53.7086219,28.8621179 C53.5431076,29.4890343 53.2955975,30.0572175 52.6896543,30.3734725 C52.4588913,30.4939506 52.1802792,30.5821578 51.9229817,30.584094 C50.673251,30.5931299 49.4237378,30.5569865 48.1740072,30.5565562 C37.9540986,30.5535442 27.7339726,30.5548351 17.5138465,30.5548351 L16.7086772,30.5548351 C17.0316584,31.7783331 16.952925,33.0300143 17.6867557,34.0727952 C18.4956224,35.2220701 19.6670546,35.6146996 21.0318406,35.6116876 C24.5833289,35.6037275 28.1350348,35.6088908 31.6869581,35.6088908 C37.8660128,35.6088908 44.0450675,35.6058789 50.2243398,35.6157753 C50.6336668,35.6164207 51.0730082,35.6390104 51.4455785,35.7844446 C52.2529228,36.0991936 52.6394127,36.8663809 52.5326223,37.7441498 C52.4367067,38.5326359 51.9205892,39.0567155 51.0445163,39.2305482 C50.7980936,39.2793849 50.5427536,39.3047713 50.2915459,39.3049865 C40.5242461,39.3084287 30.7573812,39.3105801 20.9902989,39.3067076 C17.3452873,39.3049865 14.3573305,37.0634486 13.5497687,33.660588 C13.2322249,32.3234964 13.0710605,30.9500462 12.8383401,29.5929466 C12.1980325,25.8572653 11.5509826,22.1224446 10.9182874,18.3854725 C10.2795024,14.6125721 9.65594202,10.83709 9.02150687,7.06354422 C8.92667872,6.50009402 8.85099019,5.92846853 8.6911308,5.38222948 C8.38641924,4.3405243 7.525571,3.72350438 6.42917484,3.71683506 C4.94346126,3.7077992 3.45731269,3.7170502 1.97159912,3.71339283 C0.860848241,3.71038088 0.0317543818,2.95136892 0.00108747883,1.91934502 C-0.0308843988,0.844723506 0.697291425,0.0295601593 1.83653425,0.0261179283 C3.75354193,0.0203091633 5.69817157,-0.0876908367 7.58146741,0.184030279 C10.1842392,0.559663745 11.7197593,2.28615777 12.382034,4.77316972 C12.5010041,5.2197992 12.5612505,5.68148845 12.661516,6.20320159 Z" id="Fill-6"></path>
                </g>
                <g id="g26" transform="translate(159.870968, 27.000000) scale(1, -1) translate(-159.870968, -27.000000) translate(72.870968, 0.000000)" fill-rule="nonzero">
                    <g id="g32" transform="translate(135.541986, 43.200000)">
                        <path d="M8.23217176,5.50588235 C8.72610206,4.23608824 8.31723753,2.43979412 7.51460078,1.51067647 C6.65022275,0.395735294 4.89059604,0.0165176471 3.43967577,0.357194118 C2.11223807,0.728841176 1.03176553,1.93669412 0.661317798,3.26842941 C0.383482001,4.8789 0.939153594,6.42742941 2.20485,7.38751765 C3.22358126,8.09984118 5.01407861,8.27740588 6.18716309,7.75159412 C7.36024756,7.22440588 8.04694789,6.44257059 8.23217176,5.50588235" id="path34"></path>
                    </g>
                    <g id="g36" transform="translate(0.595749, 0.000000)">
                        <path d="M42.5328874,52.3058824 C44.5010625,52.2590824 44.7013786,51.9803471 44.8557319,51.3299647 C44.9257053,49.8206647 43.8836496,48.1558235 42.610407,48.1633941 L42.1473474,48.1558235 L27.1359822,48.1709647 C24.9750371,47.9238882 22.8758333,47.3347588 21.3940424,45.6623471 C19.603545,43.5563471 18.5697214,41.6361706 18.3536269,38.7249353 C18.1834954,37.3161176 18.5697214,37.1998059 19.0711979,37.0449529 C20.9234365,37.0064118 21.8495559,37.0449529 23.3697636,37.0525235 C24.0489178,37.0064118 24.2650123,36.4950529 24.3884948,36.1234059 C24.3576242,34.9781824 24.1724003,33.6767294 23.2771517,32.9024647 L22.4978394,32.6161588 L17.5660825,32.6237294 C17.1647641,32.5308176 16.7943164,32.1901412 16.6090925,31.8184941 C14.0159584,22.1866412 11.6389188,12.4315941 9.01491409,2.79905294 C8.70620765,1.90090588 7.99618283,0.754994118 6.88483964,0.724023529 C4.87824778,0.724023529 2.68643205,0.445288235 0.741581472,0.940817647 C0.278521811,1.18858235 0.124168591,1.65314118 0.000686014313,2.05575882 C0.402004387,4.81214118 1.389865,7.28978824 2.06901917,9.92228824 C4.10648168,17.1384353 6.26742676,24.2926412 8.05792412,31.6017 C8.18963887,32.0125765 7.9035709,32.4461647 7.6257351,32.6319882 L6.83064451,32.7324706 C5.29534448,32.7868412 4.60041198,32.7476118 2.90252656,32.7634412 C2.19250174,33.2899412 2.4394669,34.3739118 2.56294947,35.2872 C2.63223692,35.7675882 2.66310756,36.6505941 3.43487366,36.8357294 C5.75840414,37.0449529 9.42377862,36.3484588 9.81000468,38.4386294 C10.3498979,40.1420118 10.5817708,40.9162765 11.2376005,43.1544176 C12.9588104,49.0250647 19.3565799,52.2590824 25.499838,52.2907412 L42.5328874,52.3058824" id="path38"></path>
                    </g>
                    <g id="g40" transform="translate(86.961341, 8.100000)">
                        <path d="M20.5804294,24.0882353 C22.1857029,21.2389412 22.1857029,17.7082941 22.0930909,14.1776471 C22.0313497,14.1776471 22.1548322,11.2430118 22.1239616,11.2120412 L22.1088693,10.2602118 L22.1088693,2.43222353 C22.1088693,-0.0144529412 18.6739956,0.6435 16.2585392,0.612529412 C15.6411263,0.6435 14.8926847,0.914664706 14.6999147,1.90572353 L14.7074609,3.37648235 C14.6608119,5.79218824 14.6608119,4.08880588 14.6532657,9.48594706 L14.6690441,10.9801059 L14.6532657,18.2967353 C14.4989125,19.9381765 13.3566987,21.4867059 12.029261,22.1990294 C10.9796591,22.6016471 9.55960945,22.6635882 8.5408782,22.1370882 C8.01607725,21.8583529 7.2134405,21.2079706 7.15169921,20.4646765 L7.15169921,1.77358235 C7.05908728,-0.0536823529 4.16479289,0.488647059 1.10105297,0.503788235 C0.113192362,0.604958824 0.0356727443,1.30145294 0.0205804294,3.52376471 L0.0205804294,26.8755882 C0.923375265,28.3236353 4.04885647,27.9747 6.05544834,27.8742176 C6.92394246,27.4908706 7.40621052,26.4846706 9.0348085,27.2162647 C11.8502112,28.4812412 16.0424447,28.4550882 18.5429669,26.5349118 C19.4382156,25.8225882 19.9630165,25.0173529 20.5804294,24.0882353" id="path42"></path>
                    </g>
                    <g id="g44" transform="translate(146.337685, 8.100000)">
                        <path d="M20.5804294,24.0882353 C21.7994768,21.1074882 22.0930909,19.0400294 22.8031158,16.5004412 C24.0070709,11.8238824 25.1184141,7.11635294 26.1371453,2.34688235 C26.168016,1.72747059 25.8901802,1.23194118 25.3653792,0.891264706 C24.6169376,0.357194118 22.000479,0.5967 20.3643349,0.5967 C19.4382156,0.720582353 18.6973201,1.54164706 18.4194843,2.40882353 C17.1537879,8.85070588 15.4559025,15.0757941 13.9123703,21.4247647 C13.6194422,22.4233941 12.4998668,23.5073647 11.4118481,23.5307647 C10.0226691,23.7475588 7.71491696,23.2754294 7.60721272,21.6725294 L7.58388823,20.7434118 L7.59966656,2.85755294 C7.59966656,0.821752941 6.82790046,0.550588235 4.52014831,0.543017647 C2.04295062,0.589129412 0.421898802,0.240882353 0.421898802,2.26154118 L0.421898802,2.7495 L0.406806488,26.3724882 C0.402690402,28.5597 4.62785256,28.0951412 5.92098954,28.0910118 C6.93972079,28.0910118 7.36779372,26.9334 8.82283008,27.3133059 C11.5394468,28.6140706 15.3324199,28.6409118 17.925554,26.9994706 C19.0677678,26.1942353 19.9321459,25.2960882 20.5804294,24.0882353" id="path46"></path>
                    </g>
                    <g id="g48" transform="translate(24.886072, 8.100000)">
                        <path d="M14.4063006,26.8411765 C14.4063006,25.4165294 13.5727932,24.2396471 13.0171216,23.1556765 C12.4305794,22.0717059 11.5812936,22.6133471 10.6092113,23.0937353 C9.49786816,23.3105294 8.44826626,23.0937353 7.76911209,22.2575294 L7.77665825,2.79217059 C7.72246312,1.43772353 7.18256986,0.702 6.22557989,0.616658824 L1.56411263,0.640058824 C0.730605243,0.887823529 0.452769447,1.78597059 0.267545582,2.52926471 L0.267545582,26.9340882 C0.314194555,28.6918412 4.28827547,27.9561176 6.37993311,27.7702941 C6.95069702,26.9884588 8.14710598,27.1818529 9.34351494,27.5535 C10.9206618,28.0435235 13.2332161,28.2348529 14.4063006,26.8411765" id="path50"></path>
                    </g>
                    <g id="g52" transform="translate(62.671018, 8.100000)">
                        <path d="M22.6384723,27.5294118 L22.62338,26.4296118 L22.62338,2.86925294 C22.6384723,1.76188235 21.905123,1.33586471 21.0798478,1.31315294 L16.2331567,1.31315294 C14.8823945,2.691 12.6830326,1.10392941 10.738182,0.794223529 C7.28409997,0.244323529 3.54532197,1.15761176 1.84743654,4.09981765 C0.303904341,6.63940588 0.60437861,7.64629412 0.558415651,12.8954647 L0.573507966,26.7083471 C0.60437861,27.8934882 1.34527407,28.3965882 1.99355759,28.4275588 L6.5089038,28.4427 C7.2806699,28.3580471 7.62779315,27.7771765 7.72040508,26.8714588 C7.70462675,20.1886941 7.65660575,16.6270765 7.72040508,11.1459706 C7.74372956,9.15628235 8.42288373,7.72337647 10.0590279,6.82522941 C11.2938536,6.01999412 13.2078336,5.95874118 14.5044006,6.63940588 C14.9674603,6.82522941 15.2679345,7.29804706 15.2837129,8.20376471 L15.2761667,27.5142706 C15.3070374,28.0091118 15.576641,28.3965882 16.5418631,28.5204706 C19.0115147,28.4736706 19.3586379,28.5129 21.2959423,28.5053294 C21.9442258,28.4736706 22.5616387,28.1254235 22.6384723,27.5294118" id="path54"></path>
                    </g>
                    <g id="g56" transform="translate(135.541986, 10.800000)">
                        <path d="M6.17412882,27.5294118 C7.49402035,27.5218412 7.57085396,26.6312647 7.60927076,25.5940941 L7.62504909,2.23401176 C7.60927076,0.422576471 7.30125033,0.229182353 4.25260273,0.143841176 C0.624959039,0.151411765 0.277835797,0.189952941 0.270289639,2.1879 L0.270289639,25.6402059 C0.277835797,27.1343647 1.0880187,27.4206706 1.70543158,27.5142706 L6.17412882,27.5294118" id="path58"></path>
                    </g>
                    <g id="g60" transform="translate(111.251663, 8.100000)">
                        <path d="M24.010501,41.9823529 L24.0221632,40.8405706 L24.0221632,2.46801176 C24.0372555,1.56160588 23.0315585,1.18582941 22.1699246,1.12044706 C20.3327782,0.981423529 17.9406463,0.787341176 16.9603319,1.52306471 C16.010888,1.56160588 15.193159,1.21335882 14.4522635,0.965594118 C10.9947514,-0.335170588 6.88895573,0.655888235 4.45017485,3.07159412 C1.27049851,6.44738824 0.266859568,10.3806529 0.482954076,15.3669176 C0.845855648,20.2988118 2.90664264,25.8040059 7.2902741,27.6003 C9.69818434,28.6842706 11.8975462,28.5218471 14.6759042,28.5218471 C15.6637648,28.5837882 16.7058205,28.5452471 16.7675618,30.5810471 L16.7984325,31.9127824 L16.7984325,41.5528941 C16.7058205,44.1076235 17.7094595,43.7648824 21.1745178,43.8054882 C23.8060687,43.8364588 23.9604219,43.6237941 24.010501,41.9823529 Z M13.3560127,24.0001412 C10.5776547,23.4736412 9.72905499,20.6628882 9.08077146,18.2471824 C8.15465214,13.9732412 8.43248793,8.86309412 11.8591294,6.04477059 C12.8161194,5.27050588 14.328781,4.89885882 15.5018654,5.4873 C16.2118902,5.76603529 16.7058205,6.35447647 16.7984325,7.15971176 L16.7984325,21.3132706 L16.6982744,22.3201588 C15.9882496,24.0235412 14.9304155,24.1701353 13.3560127,24.0001412 L13.3560127,24.0001412 Z" id="path62"></path>
                    </g>
                    <g id="g64" transform="translate(38.380696, 8.100000)">
                        <path d="M23.3244866,23.4 C24.157994,21.4798235 24.7136656,19.4667353 24.5593124,17.1439412 C24.4509221,15.9512294 23.8726121,14.8287176 22.6912954,14.7358059 C16.0390146,14.7130941 14.8426057,14.7130941 8.47570684,14.7282353 C7.54958751,14.6353235 7.4336511,14.0159118 7.33349301,13.1797059 C7.17913978,10.2375 8.59918941,7.85276471 10.9453584,6.27326471 C12.1801841,5.62288235 13.2222399,5.30560588 15.1670904,5.99452941 C17.157904,6.85413529 16.9397514,9.63460588 19.218691,9.83488235 C20.9783177,9.98973529 22.1514022,9.98973529 23.5405811,9.95876471 C24.1271234,9.86585294 24.4975711,9.52517647 24.7136656,8.99867647 C24.8371482,7.66694118 24.1271234,6.67588235 23.6023224,5.59191176 C21.2870241,1.62767647 16.2551091,-0.416382353 11.3775474,0.481764706 C6.12953789,1.287 1.74590643,5.80870588 0.541951307,11.0117647 C-1.03245154,17.4226765 1.25197612,23.8645588 6.25302046,27.4571471 C9.61792067,30.1206176 15.0820247,30.0586765 18.7247607,27.9526765 C20.7004819,26.7757941 22.2440141,25.506 23.3244866,23.4 Z M15.1128953,23.1212647 C13.7854576,23.9884412 11.8330609,23.9650412 10.3121672,23.0978647 C9.07734139,22.2926294 8.18209271,21.4254529 8.12035142,19.8769235 C8.12858359,19.5520765 8.39818722,19.1646 8.79195943,19.1570294 L16.7799101,19.1570294 L17.2120991,19.5286765 C17.5825468,19.9932353 17.2120991,20.5507059 17.0886165,20.9842941 C16.5946862,21.8514706 15.9464027,22.6257353 15.1128953,23.1212647 L15.1128953,23.1212647 Z" id="path66"></path>
                    </g>
                </g>
            </g>
        </g>
    </g>
</svg>