<?xml version="1.0" encoding="UTF-8"?>
<svg width="122px" height="19px" viewBox="0 0 122 19" version="1.1" xmlns="http://www.w3.org/2000/svg" xmlns:xlink="http://www.w3.org/1999/xlink">
    <!-- Generator: Sketch 57.1 (83088) - https://sketch.com -->
    <title>Group 12</title>
    <desc>Created with Sketch.</desc>
    <g id="Page-1" stroke="none" stroke-width="1" fill="none" fill-rule="evenodd">
        <g id="DL-2" transform="translate(-35.000000, -34.000000)" fill="#F67057">
            <g id="Group-3-Copy" transform="translate(35.000000, 34.000000)">
                <g id="Group-12" transform="translate(0.100000, 0.000000)">
                    <path d="M45.234389,0 C47.6468411,0 50.058436,0.922078885 51.8982094,2.76451956 C55.5786135,6.45025946 55.5786135,12.4266013 51.8982094,16.1114826 C50.058436,17.9547819 47.6468411,18.8760022 45.234389,18.8760022 C42.8390829,18.8760022 40.4454914,17.9625088 38.6100045,16.1441074 L38.6100045,16.1441074 L41.9680625,14.0243562 C42.9170975,14.7060421 44.0435943,15.0855196 45.234389,15.0855196 C46.7406713,15.0855196 48.1569367,14.4982739 49.2217077,13.4311006 C51.419834,11.2297875 51.419834,7.64707321 49.2217077,5.44490157 C48.1569367,4.37858688 46.7406713,3.79134111 45.234389,3.79134111 C44.1413269,3.79134111 43.1005604,4.1090033 42.2021063,4.68594651 L42.2021063,4.68594651 L38.826045,2.55503423 C40.6332409,0.868849005 42.9273851,0 45.234389,0 Z M86.5135544,0.520279147 L86.5135544,4.05663197 L76.95462,4.05663197 L76.95462,7.82049959 L85.3784846,7.82049959 L85.3784846,11.3568524 L76.95462,11.3568524 L76.95462,18.2011847 L73.0693203,18.2011847 L73.0693203,0.520279147 L86.5135544,0.520279147 Z M70.5959996,0.520279147 L70.5959996,4.05663197 L61.0370651,4.05663197 L61.0370651,7.82049959 L69.4609297,7.82049959 L69.4609297,11.3568524 L61.0370651,11.3568524 L61.0370651,18.2011847 L57.1526228,18.2011847 L57.1526228,0.520279147 L70.5959996,0.520279147 Z M97.2658555,0.520279147 C99.5102761,0.520279147 101.250602,1.15216933 102.411391,2.31378268 C103.394718,3.299394 103.924532,4.68852215 103.924532,6.35496081 L103.924532,6.40561505 C103.924532,9.26028198 102.385672,11.0537855 100.140394,11.8865756 L104.455203,18.2011847 L99.9140661,18.2011847 L96.1316429,12.5433636 L93.0796423,12.5433636 L93.0796423,18.2011847 L89.1951999,18.2011847 L89.1951999,0.520279147 L97.2658555,0.520279147 Z M120.978014,0.520279147 L120.978014,3.47625457 L111.268194,14.7910382 L120.978014,14.7910382 L120.978014,18.2011847 L106.274401,18.2011847 L106.274401,15.2460678 L115.985078,3.93042564 L106.577029,3.93042564 L106.577029,0.520279147 L120.978014,0.520279147 Z M96.9383655,4.03087557 L93.0796423,4.03087557 L93.0796423,9.10831926 L97.0146655,9.10831926 C98.9058771,9.10831926 99.9903661,8.09781009 99.9903661,6.60823201 L99.9903661,6.55757777 C99.9903661,4.89113911 98.8295771,4.03087557 96.9383655,4.03087557 Z" id="Fill-10"></path>
                    <path d="M4.21041771,0.42900005 L8.87506064,7.86721598 L13.5414274,0.42900005 L17.7501213,0.42900005 L17.7501213,18.0180021 L13.870676,18.0180021 L13.870676,6.53569931 L8.87506064,14.0482205 L8.77421747,14.0482205 L3.82945464,6.61085869 L3.82945464,18.0180021 L0,18.0180021 L0,0.42900005 L4.21041771,0.42900005 Z M24.120479,0.42900005 L28.3550301,7.48971093 L32.666291,0.42900005 L37.1033903,0.42900005 L30.2822551,11.0076822 L30.2822551,18.0180021 L26.3769526,18.0180021 L26.3769526,11.0836956 L19.5566792,0.42900005 L24.120479,0.42900005 Z M37.9368548,4.80276326 L45.0450052,9.19189997 L37.860145,13.6468011 C37.1732048,12.3460315 36.7801751,10.8701747 36.7801751,9.30036862 C36.7801751,7.6707767 37.199924,6.13855034 37.9368548,4.80276326 Z" id="Fill-2"></path>
                </g>
            </g>
        </g>
    </g>
</svg>