<?xml version="1.0" encoding="utf-8"?>
<svg width="13px" height="12px" viewBox="0 0 13 12" version="1.1" xmlns="http://www.w3.org/2000/svg">
  <title>Combined Shape</title>
  <desc>Created with Sketch.</desc>
  <defs>
    <path d="M3.12154019,2.24445386 L6.75633545,-1.36500577 L10.3791839,2.24445386 L10.3791839,9.59445386 L3.12154019,9.59445386 L3.12154019,2.24445386 Z M6.75036206,3.90165227 C7.4611129,3.90165227 8.03729029,3.32547487 8.03729029,2.61472404 C8.03729029,1.90397321 7.4611129,1.32779582 6.75036206,1.32779582 C6.03961123,1.32779582 5.46343384,1.90397321 5.46343384,2.61472404 C5.46343384,3.32547487 6.03961123,3.90165227 6.75036206,3.90165227 Z" id="path-1"/>
  </defs>
  <path d="M 3.601 3.036 L 7.235 -0.573 L 10.858 3.036 L 10.858 10.386 L 3.601 10.386 L 3.601 3.036 Z M 7.229 4.694 C 7.94 4.694 8.516 4.117 8.516 3.407 C 8.516 2.696 7.94 2.12 7.229 2.12 C 6.519 2.12 5.942 2.696 5.942 3.407 C 5.942 4.117 6.519 4.694 7.229 4.694 Z" id="Combined-Shape" stroke="none" stroke-width="1" fill-rule="evenodd" style="fill: rgb(138, 168, 93);" transform="matrix(0.707107, 0.707107, -0.707107, 0.707107, 5.586891, -3.674948)"/>
  <g id="Page-1" stroke="none" stroke-width="1" fill="none" fill-rule="evenodd" transform="matrix(1, 0, 0, 1, -0.114052, 0.045602)">
    <g id="best-offer-icon13x12"/>
  </g>
</svg>