<?xml version="1.0" encoding="UTF-8" standalone="no"?>
<svg width="250px" height="250px" viewBox="0 0 250 250" version="1.1" xmlns="http://www.w3.org/2000/svg" xmlns:xlink="http://www.w3.org/1999/xlink">
    <!-- Generator: Sketch 50.2 (55047) - http://www.bohemiancoding.com/sketch -->
    <title>Artboard 2</title>
    <desc>Created with Sketch.</desc>
    <defs></defs>
    <g id="Artboard-2" stroke="none" stroke-width="1" fill="none" fill-rule="evenodd">
        <path d="M187.25,88.6666667 L176.875,88.6666667 L176.875,67.9047619 C176.875,39.2533333 153.635,16 125,16 C96.365,16 73.125,39.2533333 73.125,67.9047619 L73.125,88.6666667 L62.75,88.6666667 C51.3375,88.6666667 42,98.0095238 42,109.428571 L42,213.238095 C42,224.657143 51.3375,234 62.75,234 L187.25,234 C198.6625,234 208,224.657143 208,213.238095 L208,109.428571 C208,98.0095238 198.6625,88.6666667 187.25,88.6666667 Z M93.875,88.6666667 L93.875,67.9047619 C93.875,50.672381 107.7775,36.7619048 125,36.7619048 C142.2225,36.7619048 156.125,50.672381 156.125,67.9047619 L156.125,88.6666667 L93.875,88.6666667 Z" id="Shape" fill="#FFFFFF" fill-rule="nonzero"></path>
    </g>
</svg>
