<?xml version="1.0" encoding="utf-8"?>
<!-- This Source Code Form is subject to the terms of the Mozilla Public
   - License, v. 2.0. If a copy of the MPL was not distributed with this
   - file, You can obtain one at http://mozilla.org/MPL/2.0/. -->
<svg xmlns="http://www.w3.org/2000/svg" width="1056" height="32" viewBox="0 0 1056 32" class="fieldtext">
<style type="text/css">
  .st0{fill-opacity:0.7;}
  .st1{fill:#4D4D4D;}
  .st2{fill:none;stroke:#4D4D4D;stroke-width:2.25;stroke-linecap:round;stroke-miterlimit:10;}
  .st3{fill:none;stroke:#4D4D4D;stroke-width:2.25;stroke-miterlimit:10;}
  .st4{fill:none;stroke:#4D4D4D;stroke-width:2.5;stroke-linecap:round;stroke-miterlimit:10;}
  .st5{fill:none;stroke:#4D4D4D;stroke-width:2.5;stroke-miterlimit:10;}
  .st6{fill:none;stroke:#4D4D4D;stroke-width:2.15;stroke-linecap:round;stroke-miterlimit:10;}
  .st7{fill:none;stroke:#4D4D4D;stroke-width:2.15;stroke-miterlimit:10;}
  .st8{fill:none;stroke:#4D4D4D;stroke-width:0.5;stroke-miterlimit:10;}
  .st9{fill:none;stroke:#ED1C24;stroke-width:2.25;stroke-miterlimit:10;}
  .st10{fill-rule:evenodd;clip-rule:evenodd;fill:none;stroke:#4D4D4D;stroke-width:2.15;stroke-miterlimit:10;}
  .st11{fill:none;stroke:#4D4D4D;stroke-linecap:round;stroke-miterlimit:10;}
  .st12{fill:none;stroke:#4D4D4D;stroke-width:2;stroke-miterlimit:10;}
  .st13{fill:#ED1C24;}
  .st14{fill:#4D4D4D;stroke:#4D4D4D;stroke-width:2.25;stroke-miterlimit:10;}
  .st15{fill:none;stroke:#4D4D4D;stroke-width:2.0067;stroke-miterlimit:10;}
</style>
<path id="placeholder_1_" class="st0" d="M16,0c8.8,0,16,7.2,16,16s-7.2,16-16,16S0,24.8,0,16S7.2,0,16,0z M8,24V8h16v16H8z M22,22
  L22,22z M19.9,22L16,18.1L12.1,22H19.9L19.9,22z M13.9,16L10,12.1v7.8L13.9,16z M12.1,10l3.9,3.9l3.9-3.9H12.1L12.1,10z M18.1,16
  l3.9,3.9v-7.8L18.1,16z"/>
<g>
  <path class="st1" d="M143.9,7.8l1.9,4.7l0.5,1.3l1.4,0.1l5.1,0.3l-3.9,3.2l-1.1,0.9l0.4,1.4l1.3,4.9l-4.3-2.7l-1.2-0.8l-1.2,0.8
    l-4.3,2.7l1.3-4.9l0.4-1.4l-1.1-0.9l-3.9-3.2l5.1-0.3l1.4-0.1l0.5-1.3L143.9,7.8 M143.9,1.7L140,11.7l-10.8,0.6l8.3,6.9l-2.7,10.5
    l9.1-5.8l9.1,5.8l-2.7-10.5l8.3-6.9l-10.8-0.6L143.9,1.7L143.9,1.7z"/>
</g>
<g>
  <polygon class="st1" points="170.7,18.8 164.1,13.3 172.7,12.8 175.9,4.7 179,12.8 187.7,13.3 181,18.8 183.2,27.2 175.9,22.5 
    168.6,27.2  "/>
  <path class="st1" d="M175.9,7.8l1.9,4.7l0.5,1.3l1.4,0.1l5.1,0.3l-3.9,3.2l-1.1,0.9l0.4,1.4l1.3,4.9l-4.3-2.7l-1.2-0.8l-1.2,0.8
    l-4.3,2.7l1.3-4.9l0.4-1.4l-1.1-0.9l-3.9-3.2L172,14l1.4-0.1l0.5-1.3L175.9,7.8 M175.9,1.7l-3.9,10.1l-10.8,0.6l8.3,6.9l-2.7,10.5
    l9.1-5.8l9.1,5.8l-2.7-10.5l8.3-6.9l-10.8-0.6L175.9,1.7L175.9,1.7z"/>
</g>
<g>
  <path class="st1" d="M111.9,5.4l7.6,6.2v13.8h-3.6h-8.1h-3.6V11.6L111.9,5.4 M111.9,2.5l-9.9,8v17.1h5.8h8.1h5.8V10.5L111.9,2.5
    L111.9,2.5z"/>
</g>
<polyline class="st2" points="98.8,14.4 111.9,3.8 125,14.4 "/>
<polyline class="st3" points="109.5,26.7 109.5,16.7 114.3,16.7 114.3,26.7 "/>
<line class="st4" x1="69.4" y1="5.4" x2="90.2" y2="26.2"/>
<line class="st4" x1="69.4" y1="26.2" x2="90.2" y2="5.4"/>
<polyline class="st3" points="247.7,13.8 239.9,21.6 232,13.8 "/>
<g>
  <polyline class="st5" points="59.8,3.6 59.8,11.9 51.5,11.9  "/>
  <path class="st4" d="M58.9,11.5c-1.7-4.1-5.7-7.1-10.5-7.1c-6.2,0-11.3,5.1-11.3,11.3C37.2,22,42.2,27,48.5,27
    c3.6,0,6.9-1.7,8.9-4.4"/>
</g>
<g>
  <polygon class="st1" points="875.6,10.4 879.3,6.6 879.3,14.1  "/>
  <path class="st1" d="M879.1,7.2v6.3l-3.1-3.1L879.1,7.2 M879.6,6l-0.9,0.9l-3.1,3.1l-0.4,0.4l0.4,0.4l3.1,3.1l0.9,0.9v-1.2V7.2V6
    L879.6,6z"/>
</g>
<path class="st6" d="M877.2,10.8c2.1-1.1,4.8-0.7,6.6,1.1c2.2,2.2,2.2,5.8,0,8c-2.2,2.2-5.8,2.2-8,0c-1.3-1.3-1.8-3.1-1.6-4.7"/>
<g>
  <polyline class="st3" points="367,2.8 371.8,7.6 367,12.5  "/>
  <path class="st2" d="M371,7.8c-3.2-1.3-6.9-0.6-9.5,1.9c-2.7,2.7-3.3,6.8-1.7,10.1"/>
</g>
<g>
  <polyline class="st3" points="368.6,29.3 363.8,24.4 368.6,19.6  "/>
  <path class="st2" d="M364.9,24.3c3.1,1.1,6.7,0.4,9.2-2c2.8-2.8,3.3-6.9,1.6-10.2"/>
</g>
<g>
  <circle class="st3" cx="207.7" cy="15.8" r="11.7"/>
  <line class="st2" x1="207.4" y1="16" x2="207.4" y2="8.8"/>
  <line class="st2" x1="210.9" y1="19.1" x2="207.4" y2="16"/>
</g>
<line class="st2" x1="239.9" y1="3.9" x2="239.9" y2="21.6"/>
<polyline class="st2" points="228.3,23.2 228.3,26.5 251,26.5 251,23.2 "/>
<g>
  <path class="st7" d="M279.1,14.6c-0.6,0-1.2,0.2-1.7,0.5V9.2h-5.8c0.3-0.5,0.5-1.1,0.5-1.8c0-1.9-1.5-3.4-3.4-3.4
    c-1.9,0-3.4,1.5-3.4,3.4c0,0.6,0.2,1.2,0.5,1.8H260v5.9c0.5-0.3,1.1-0.5,1.8-0.5c1.9,0,3.4,1.5,3.4,3.4c0,1.9-1.5,3.4-3.4,3.4
    c-0.6,0-1.3-0.2-1.8-0.5v5.7h5.8c-0.3-0.5-0.4-1-0.4-1.6c0-1.9,1.5-3.4,3.4-3.4c1.9,0,3.4,1.5,3.4,3.4c0,0.6-0.2,1.1-0.4,1.6h5.7
    v-5.7c0.5,0.3,1.1,0.5,1.7,0.5c1.9,0,3.4-1.5,3.4-3.4C282.5,16.1,281,14.6,279.1,14.6z"/>
  <path class="st7" d="M260,20.8c0.5,0.3,1.1,0.5,1.8,0.5c1.9,0,3.4-1.5,3.4-3.4c0-1.9-1.5-3.4-3.4-3.4c-0.6,0-1.3,0.2-1.8,0.5"/>
</g>
<polyline class="st3" points="316.8,13 316.8,26.5 290.6,26.5 290.6,13 "/>
<path class="st3" d="M290.6,14.6V5.1h6.7c0.5,0,1,0.2,1.4,0.6l2.6,2.6c0.4,0.4,0.9,0.6,1.4,0.6h14v5.7"/>
<path class="st8" d="M305.1,9.7"/>
<path class="st9" d="M360.3,32.6"/>
<g>
  <polygon class="st7" points="337.8,4.4 326.1,4.4 326.1,27.2 345.4,27.2 345.4,12.1 337.8,12.1  "/>
  <path class="st7" d="M345.4,12.1"/>
  <path class="st7" d="M337.8,4.4"/>
  <line class="st7" x1="345.7" y1="11.8" x2="338" y2="4.1"/>
</g>
<path class="st5" d="M387.6,5c12.5,0,22.6,10.1,22.6,22.6"/>
<path class="st5" d="M387.6,13.1c8,0,14.5,6.5,14.5,14.5"/>
<g>
  <circle class="st3" cx="438" cy="7.3" r="3.2"/>
  <circle class="st3" cx="424.9" cy="15.8" r="3.2"/>
  <circle class="st3" cx="438" cy="24.3" r="3.2"/>
  <line class="st3" x1="427.1" y1="14.5" x2="435.4" y2="9.1"/>
  <line class="st3" x1="427.1" y1="17.5" x2="435.4" y2="22.9"/>
</g>
<g>
  <polygon class="st1" points="463.7,20.8 462,16.3 463.8,20.8   "/>
  <path class="st1" d="M458.6,5h-2.4l-6.5,17h2.4l1.9-5.1h7.1l2,5.1h2.6L458.6,5L458.6,5z M454.5,15l1.9-5c0.4-1.1,0.7-2.2,0.9-3.2
    c0.3,0.9,0.7,2.1,1.2,3.5l1.8,4.7H454.5L454.5,15z"/>
</g>
<g>
  <path class="st1" d="M476.1,18.2c0,0,0,0.1,0,0.1l0,0C476,18.3,476.1,18.2,476.1,18.2z"/>
  <path class="st1" d="M472.4,9.4c-1.1,0-2,0.1-2.8,0.4c-0.8,0.3-1.4,0.7-1.8,1.2c-0.4,0.5-0.7,1.2-0.9,2.1l2,0.3
    c0.2-0.9,0.6-1.5,1-1.8c0.5-0.3,1.2-0.5,2.2-0.5c1,0,1.8,0.2,2.4,0.7c0.4,0.3,0.6,0.9,0.6,1.8c0,0.1,0,0.3,0,0.5
    c-0.8,0.3-2,0.5-3.7,0.7c-0.8,0.1-1.4,0.2-1.9,0.3c-0.6,0.2-1.1,0.4-1.5,0.7c-0.4,0.3-0.8,0.7-1.1,1.2c-0.3,0.5-0.4,1-0.4,1.6
    c0,1,0.4,1.9,1.1,2.5c0.7,0.7,1.8,1,3.1,1c0.8,0,1.6-0.1,2.3-0.4c0.7-0.3,1.5-0.7,2.2-1.4c0.1,0.6,0.2,1.1,0.4,1.5h2.2
    c-0.3-0.5-0.4-1-0.5-1.5c-0.1-0.5-0.1-1.7-0.1-3.7V14c0-0.9,0-1.6-0.1-1.9c-0.1-0.6-0.3-1-0.6-1.4c-0.3-0.4-0.8-0.7-1.4-0.9
    C474.3,9.5,473.5,9.4,472.4,9.4L472.4,9.4z M471.2,20.6c-0.8,0-1.4-0.2-1.8-0.6c-0.4-0.4-0.6-0.8-0.6-1.4c0-0.4,0.1-0.7,0.3-1
    c0.2-0.3,0.5-0.5,0.8-0.7c0.4-0.2,1-0.3,1.8-0.4c1.5-0.2,2.6-0.5,3.4-0.8v0.8c0,0.9-0.1,1.6-0.3,2.1c-0.3,0.6-0.8,1.1-1.4,1.4
    C472.7,20.4,472,20.6,471.2,20.6L471.2,20.6z"/>
</g>
<g>
  <path class="st1" d="M468.1,7.1c0-0.8,0.2-1.4,0.7-1.9c0.4-0.5,1-0.7,1.7-0.7c0.5,0,1.1,0.2,2,0.6c0.5,0.2,0.8,0.3,1.1,0.3
    c0.2,0,0.4-0.1,0.6-0.2c0.1-0.1,0.2-0.4,0.3-0.8h1.5c0,0.9-0.2,1.5-0.7,2c-0.4,0.4-1,0.7-1.6,0.7c-0.5,0-1.1-0.2-1.9-0.6
    c-0.5-0.3-0.9-0.4-1.1-0.4c-0.3,0-0.5,0.1-0.6,0.3c-0.2,0.2-0.3,0.5-0.2,0.8H468.1z"/>
  <path class="st1" d="M475.9,4.4h-1.5c-0.1,0.4-0.1,0.7-0.3,0.8c-0.1,0.1-0.3,0.2-0.6,0.2c-0.3,0-0.6-0.1-1.1-0.3
    c-0.8-0.4-1.5-0.6-2-0.6c-0.7,0-1.2,0.2-1.7,0.7c-0.4,0.5-0.7,1.1-0.7,1.9h1.5c0-0.4,0.1-0.6,0.2-0.8c0.2-0.2,0.4-0.3,0.6-0.3
    c0.2,0,0.6,0.1,1.1,0.4c0.8,0.4,1.4,0.6,1.9,0.6c0.6,0,1.2-0.2,1.6-0.7S475.9,5.3,475.9,4.4L475.9,4.4z"/>
</g>
<line class="st3" x1="449.6" y1="26.3" x2="477.9" y2="26.3"/>
<rect x="481.8" y="12" class="st7" width="27.5" height="14.4"/>
<polyline class="st7" points="509.3,12.3 509.3,4.9 481.8,4.9 481.8,12.3 "/>
<g>
  <g>
    <rect x="485" y="7.5" class="st1" width="1.9" height="1.9"/>
    <polygon class="st1" points="486.9,7.5 485,7.5 485,9.3 486.9,9.3 486.9,7.5    "/>
  </g>
  <g>
    <rect x="487.9" y="7.5" class="st1" width="1.9" height="1.9"/>
    <polygon class="st1" points="489.8,7.5 487.9,7.5 487.9,9.3 489.8,9.3 489.8,7.5    "/>
  </g>
  <g>
    <rect x="490.8" y="7.5" class="st1" width="1.9" height="1.9"/>
    <polygon class="st1" points="492.6,7.5 490.8,7.5 490.8,9.3 492.6,9.3 492.6,7.5    "/>
  </g>
</g>
<rect x="834" y="12.1" class="st7" width="27.5" height="14.4"/>
<polyline class="st7" points="861.5,12.4 861.5,5 834,5 834,12.4 "/>
<g>
  <g>
    <rect x="837.2" y="7.6" class="st1" width="1.9" height="1.9"/>
  </g>
  <g>
    <rect x="840" y="7.6" class="st1" width="1.9" height="1.9"/>
  </g>
  <g>
    <rect x="842.9" y="7.6" class="st1" width="1.9" height="1.9"/>
  </g>
</g>
<line class="st2" x1="527.8" y1="9.5" x2="527.8" y2="17.8"/>
<line class="st2" x1="523.6" y1="13.6" x2="531.9" y2="13.6"/>
<path class="st3" d="M537.7,17.4V7.5c0-1.4-1.1-2.5-2.5-2.5h-14.8c-1.4,0-2.5,1.1-2.5,2.5v9.9c0,1.4-1.1,2.5-2.5,2.5h-2v6.5h28.8
  v-6.5h-2C538.8,19.9,537.7,18.8,537.7,17.4z"/>
<path class="st3" d="M1017.6,17V7c0-1.1-0.9-2-2-2h-15.8c-1.1,0-2,0.9-2,2V17c0,1.1-0.9,2-2,2h-2.5v7.5h28.8V19h-2.5
  C1018.5,19,1017.6,18.1,1017.6,17z"/>
<g>
  <g>
    <path class="st1" d="M592.8,6.1v5.5h-10.9V6.1H592.8 M595,4h-15.2v9.8H595V4L595,4z"/>
  </g>
</g>
<g>
  <g>
    <path class="st1" d="M601.3,18v7.4h-9.5V18H601.3 M603.4,15.8h-13.8v11.7h13.8V15.8L603.4,15.8z"/>
  </g>
</g>
<g>
  <g>
    <path class="st1" d="M585.2,18v7.4H582V18H585.2 M587.4,15.8h-7.5v11.7h7.5V15.8L587.4,15.8z"/>
  </g>
</g>
<g>
  <g>
    <path class="st1" d="M601.3,6.1v5.5h-1.9V6.1H601.3 M603.4,4h-6.2v9.8h6.2V4L603.4,4z"/>
  </g>
</g>
<g>
  <g>
    <path class="st1" d="M620.9,5.9c3.9,0,7.1,3.2,7.1,7.1s-3.2,7.1-7.1,7.1s-7.1-3.2-7.1-7.1S617,5.9,620.9,5.9 M620.9,3.6
      c-5.2,0-9.4,4.2-9.4,9.4s4.2,9.4,9.4,9.4c5.2,0,9.4-4.2,9.4-9.4S626.1,3.6,620.9,3.6L620.9,3.6z"/>
  </g>
</g>
<g>
  <line class="st4" x1="626.9" y1="19.1" x2="634.7" y2="27"/>
</g>
<line class="st4" x1="690.1" y1="13.4" x2="698.6" y2="4.8"/>
<polyline class="st3" points="691.1,4.1 699.3,4.1 699.3,12.3 "/>
<line class="st4" x1="685.7" y1="17.7" x2="677.2" y2="26.2"/>
<polyline class="st3" points="684.7,27 676.5,27 676.5,18.7 "/>
<polyline class="st10" points="646.6,12.6 646.6,4.4 665.1,4.4 665.1,12.6 "/>
<polyline class="st10" points="665.1,22.1 666.6,27.6 645.1,27.6 646.6,22.1 "/>
<path class="st10" d="M668,22.9h-24.3c-1.4,0-2.5-1.1-2.5-2.5v-4.6c0-1.4,1.1-2.5,2.5-2.5H668c1.4,0,2.5,1.1,2.5,2.5v4.6
  C670.5,21.8,669.3,22.9,668,22.9z"/>
<line class="st11" x1="645.3" y1="16.8" x2="649.2" y2="16.8"/>
<path class="st3" d="M731.8,8l-3.7,3.7c-1.1,1.1-2.9,1.1-4,0v0c-1.1-1.1-1.1-2.9,0-4l3.6-3.6c-0.8-0.3-1.6-0.5-2.5-0.5
  c-3.9,0-7.1,3.2-7.1,7.1c0,0.9,0.2,1.7,0.5,2.5l-9.8,9.7c-1.2,1.2-1.2,3.1,0,4.2c1.2,1.2,3.1,1.2,4.2,0l9.7-9.7
  c0.8,0.3,1.6,0.5,2.5,0.5c3.9,0,7.1-3.2,7.1-7.1C732.3,9.7,732.1,8.8,731.8,8z"/>
<g>
  <circle class="st3" cx="751.7" cy="15.9" r="4.1"/>
  <g>
    <path class="st3" d="M762.1,15.9c0-1.5,0.7-2.9,1.7-3.8c-0.2-0.7-0.5-1.5-0.9-2.2c-1.4,0.1-2.8-0.4-3.9-1.4
      c-1.1-1.1-1.5-2.5-1.4-3.9c-0.7-0.4-1.4-0.7-2.2-0.9c-0.9,1.1-2.3,1.7-3.8,1.7s-2.9-0.7-3.8-1.7c-0.8,0.2-1.5,0.5-2.2,0.9
      c0.1,1.4-0.4,2.8-1.4,3.9c-1.1,1.1-2.5,1.5-3.9,1.4c-0.4,0.7-0.7,1.4-0.9,2.2c1.1,0.9,1.7,2.3,1.7,3.8s-0.7,2.9-1.7,3.8
      c0.2,0.7,0.5,1.5,0.9,2.2c1.4-0.1,2.8,0.4,3.9,1.4c1.1,1.1,1.5,2.5,1.4,3.9c0.7,0.4,1.4,0.7,2.2,0.9c0.9-1.1,2.3-1.7,3.8-1.7
      s2.9,0.7,3.8,1.7c0.8-0.2,1.5-0.5,2.2-0.9c-0.1-1.4,0.4-2.8,1.4-3.9c1.1-1.1,2.5-1.5,3.9-1.4c0.4-0.7,0.7-1.4,0.9-2.2
      C762.8,18.7,762.1,17.4,762.1,15.9z"/>
    <path class="st3" d="M747.9,3.7c0.9,1.1,2.3,1.7,3.8,1.7s2.9-0.7,3.8-1.7"/>
  </g>
</g>
<g>
  <rect x="769.3" y="5.1" class="st3" width="28" height="21.4"/>
  <path class="st3" d="M798.2,4.3"/>
  <polyline class="st3" points="769.3,8.8 783.2,18.6 797.2,8.8  "/>
</g>
<g>
  <path class="st1" d="M815.8,5.3c5.8,0,10.6,4.7,10.6,10.6c0,5.8-4.7,10.6-10.6,10.6s-10.6-4.7-10.6-10.6
    C805.2,10,810,5.3,815.8,5.3 M815.8,3.1c-7.1,0-12.8,5.7-12.8,12.8s5.7,12.8,12.8,12.8s12.8-5.7,12.8-12.8S822.9,3.1,815.8,3.1
    L815.8,3.1z"/>
</g>
<g>
  <g>
    <path class="st1" d="M821.8,14.5c-0.4,0-0.8,0.1-1.1,0.3V11H817c0.2-0.3,0.3-0.7,0.3-1.1c0-1.2-1-2.2-2.2-2.2
      c-1.2,0-2.2,1-2.2,2.2c0,0.4,0.1,0.8,0.3,1.1h-3.7v3.8c0.3-0.2,0.7-0.3,1.1-0.3c1.2,0,2.2,1,2.2,2.2c0,1.2-1,2.2-2.2,2.2
      c-0.4,0-0.8-0.1-1.1-0.3v3.6h3.7c-0.2-0.3-0.3-0.7-0.3-1c0-1.2,1-2.2,2.2-2.2c1.2,0,2.2,1,2.2,2.2c0,0.4-0.1,0.7-0.3,1h3.6v-3.6
      c0.3,0.2,0.7,0.3,1.1,0.3c1.2,0,2.2-1,2.2-2.2C824,15.4,823,14.5,821.8,14.5z"/>
  </g>
</g>
<line class="st7" x1="853.6" y1="11.7" x2="853.6" y2="26.4"/>
<circle class="st7" cx="879.7" cy="15.9" r="11.9"/>
<polyline class="st7" points="916.7,12.5 920.9,16 921.9,26.8 917.7,24.1 "/>
<polyline class="st7" points="906.8,12.5 902.6,16 901.6,26.8 905.8,24.1 "/>
<path class="st7" d="M917.5,26.4c0.1-0.8,0.1-1.3,0.1-2.3c0-19-5.9-21.3-5.9-21.3s-5.9,2.3-5.9,21.3c0,1,0.1,1.5,0.1,2.3H917.5z"/>
<path class="st2" d="M952.7,4.3c2.6,2.5,4.3,6,4.3,9.9c0,7.5-6.1,13.6-13.6,13.6c-3.5,0-6.7-1.3-9.1-3.5"/>
<g>
  <g>
    <path class="st1" d="M943.4,3.9c-1.4,0-2.7,0.3-4,0.8c-0.1,0-0.2,0.1-0.3,0.2l1.7,1.7c0.8-0.3,1.7-0.4,2.6-0.4c4.4,0,8,3.6,8,8
      s-3.6,8-8,8s-8-3.6-8-8c0-0.8,0.1-1.6,0.4-2.4l-1.7-1.7c-0.1,0.2-0.1,0.3-0.2,0.5c-0.4,1.2-0.7,2.4-0.7,3.6
      c0,5.7,4.6,10.3,10.3,10.3s10.3-4.6,10.3-10.3S949,3.9,943.4,3.9z"/>
    <polygon class="st1" points="943.7,12.2 938.9,7.5 938.1,6.6 933.9,2.4 931.5,4.8 941.3,14.6    "/>
  </g>
  <polygon class="st1" points="944.8,13.3 946.8,17.8 942.4,15.7 942.3,15.7 944.7,13.3   "/>
</g>
<g>
  <path class="st1" d="M988.4,6.5v7.7c0,7-5.7,12.6-12.6,12.6s-12.6-5.7-12.6-12.6V6.5H988.4 M988.6,4.2h-25.8c-1.1,0-2,0.9-2,2v8
    c0,8.2,6.7,14.9,14.9,14.9c8.2,0,14.9-6.7,14.9-14.9v-8C990.6,5.1,989.7,4.2,988.6,4.2L988.6,4.2z"/>
</g>
<g>
  <polyline class="st2" points="968.5,12.5 975.8,19.8 983,12.5  "/>
</g>
<path class="st3" d="M985,11.5"/>
<line class="st12" x1="289.6" y1="13.6" x2="317.6" y2="13.6"/>
<g>
  <path class="st1" d="M390.7,23.2c0.6,0,1.2,0.5,1.2,1.2c0,0.6-0.5,1.2-1.2,1.2s-1.2-0.5-1.2-1.2C389.6,23.7,390.1,23.2,390.7,23.2
     M390.7,20.7c-2,0-3.7,1.6-3.7,3.7c0,2,1.6,3.7,3.7,3.7s3.7-1.6,3.7-3.7C394.4,22.4,392.8,20.7,390.7,20.7L390.7,20.7z"/>
</g>
<path class="st3" d="M548.2,26.5h11.7l11.9-16.9c1-1.5,0-3.4-1.8-3.4h-11.7l-11.9,16.9C545.3,24.6,546.4,26.5,548.2,26.5z"/>
<line class="st3" x1="569.1" y1="26.5" x2="560" y2="26.5"/>
<line class="st3" x1="575.2" y1="26.5" x2="571.4" y2="26.5"/>
<g>
  <line class="st13" x1="566.6" y1="17.3" x2="550.7" y2="17.3"/>
  <line class="st14" x1="550" y1="18" x2="565.9" y2="18"/>
</g>
<line class="st15" x1="1035.5" y1="9.1" x2="1043.6" y2="9.1"/>
<line class="st15" x1="1030.3" y1="15.6" x2="1049.6" y2="15.6"/>
<line class="st15" x1="1035.5" y1="19.5" x2="1043.6" y2="19.5"/>
<g>
  <path class="st1" d="M1048.8,5.6v19.9h-18.2V5.6H1048.8 M1050.9,3.6h-22.2v23.9h22.2V3.6L1050.9,3.6z"/>
</g>
</svg>
