<?xml version="1.0" encoding="UTF-8" standalone="no"?>
<svg width="37px" height="36px" viewBox="0 0 37 36" version="1.1" xmlns="http://www.w3.org/2000/svg" xmlns:xlink="http://www.w3.org/1999/xlink" xmlns:sketch="http://www.bohemiancoding.com/sketch/ns">
    <!-- Generator: Sketch 3.4 (15575) - http://www.bohemiancoding.com/sketch -->
    <title>Fill 1</title>
    <desc>Created with Sketch.</desc>
    <defs></defs>
    <g id="Page-1" stroke="none" stroke-width="1" fill="none" fill-rule="evenodd" sketch:type="MSPage">
        <g id="Anti-tracking-Level-2---Tracking-Reactivated" sketch:type="MSArtboardGroup" transform="translate(-20.000000, -54.000000)" fill="#FFFFFF">
            <path d="M55.6451745,75.0670603 C55.8817248,73.9286999 56,72.7459877 56,71.5263158 C56,61.7763324 48.4969198,54 38.0369606,54 C27.5770015,54 20,61.9019956 20,71.5263158 C20,81.2762991 27.5030795,89.0526316 37.9630386,89.0526316 C38.6283364,89.0526316 39.3010264,89.0156718 39.9663241,88.9343604 C39.2197122,86.731559 38.4361393,84.3735266 37.6451742,82.1337655 C31.8644759,81.9341828 27.783983,77.1811583 27.783983,71.4819641 L27.783983,71.4006526 C27.783983,65.5831872 31.9531823,60.8301627 37.9260777,60.8301627 C43.8989731,60.8301627 48.1347021,65.6349309 48.1790553,71.3784768 C50.6924024,72.6720682 53.1687884,73.8917401 55.6451745,75.0670603 Z M44.1844112,89.8482972 L47.5919845,83.2022694 L54.8896194,90 C54.8896194,90 57.3322163,88.0061921 56.8949613,87.5005162 C54.731303,85.1599576 49.5973263,80.7027856 49.5973263,80.7027856 L55.6510462,78.7089777 L37.0526316,70.1052632 L44.1844112,89.8482972 Z" id="Fill-1" sketch:type="MSShapeGroup"></path>
        </g>
    </g>
</svg>
