<?xml version="1.0" encoding="UTF-8" standalone="no"?>
<svg width="20px" height="18px" viewBox="0 0 20 18" version="1.1" xmlns="http://www.w3.org/2000/svg" xmlns:xlink="http://www.w3.org/1999/xlink">
    <!-- Generator: Sketch 46 (44423) - http://www.bohemiancoding.com/sketch -->
    <title>Page 1 Copy 10</title>
    <desc>Created with Sketch.</desc>
    <defs>
        <polygon id="path-1" points="7.12268642e-06 0.00110225596 19.2937865 0.00110225596 19.2937865 17.2380522 7.12268642e-06 17.2380522"></polygon>
        <polygon id="path-3" points="0 17.2675744 19.2937964 17.2675744 19.2937964 0.030618221 0 0.030618221"></polygon>
    </defs>
    <g id="Page-1" stroke="none" stroke-width="1" fill="none" fill-rule="evenodd">
        <g id="Cliqz-Privacy-Center-2" transform="translate(-911.000000, -200.000000)">
            <g id="Page-1-Copy-10" transform="translate(911.643389, 200.682653)">
                <g id="Group-3" transform="translate(0.000000, 0.029516)">
                    <mask id="mask-2" fill="white">
                        <use xlink:href="#path-1"></use>
                    </mask>
                    <g id="Clip-2"></g>
                    <path d="M9.63393446,17.237143 C7.17480142,17.237143 4.71563776,17.2411233 2.25653533,17.2324278 C1.92830801,17.2312643 1.59126263,17.2021463 1.27402724,17.1229676 C0.597088991,16.9538938 0.132181922,16.5415276 0.0208234521,15.8223974 C-0.053578825,15.3421813 0.0786000353,14.8888785 0.303674578,14.4688577 C0.553764208,14.0021748 0.825041646,13.5467594 1.08988926,13.0880372 C3.36910963,9.14024626 5.64649291,5.19132244 7.93388835,1.2482467 C8.09778769,0.965701754 8.30810425,0.696322645 8.54585474,0.473023959 C9.21235217,-0.152996189 10.0723874,-0.156149866 10.7444573,0.463256746 C10.98083,0.681105389 11.1958618,0.941237795 11.3567911,1.21903691 C13.8816003,5.57784686 16.3960911,9.94265798 18.9126026,14.306275 C19.1212352,14.6680905 19.2684782,15.053727 19.2909826,15.4728292 C19.3333582,16.2609422 18.8930682,16.8651928 18.1291742,17.1016267 C17.773911,17.2115768 17.4101359,17.2374491 17.04186,17.2373879 C14.5725617,17.2369286 12.1032328,17.237143 9.63393446,17.237143" id="Fill-1" fill="#FF7E74" mask="url(#mask-2)"></path>
                </g>
                <mask id="mask-4" fill="white">
                    <use xlink:href="#path-3"></use>
                </mask>
                <g id="Clip-5"></g>
                <polygon id="Fill-4" fill="#FEFEFE" mask="url(#mask-4)" points="8.44021881 11.7520081 10.859242 11.7520081 10.859242 4.40936063 8.44021881 4.40936063"></polygon>
                <path d="M10.9858881,14.1017085 C10.9846634,14.8536308 10.4012638,15.4353464 9.65044381,15.4333562 C8.88746835,15.431366 8.3089983,14.847201 8.31331547,14.083062 C8.31754079,13.3339566 8.90329798,12.758579 9.65892505,12.7613347 C10.4090408,12.7640597 10.9870822,13.3479798 10.9858881,14.1017085" id="Fill-6" fill="#FEFEFE" mask="url(#mask-4)"></path>
            </g>
        </g>
    </g>
</svg>
