<?xml version="1.0" encoding="UTF-8" standalone="no"?>
<svg id="Layer_1" data-name="Layer 1" xmlns="http://www.w3.org/2000/svg" width="31.03594" height="30.48624" version="1.1" viewBox="0 0 31.03594 30.48624" xmlns:xlink="http://www.w3.org/1999/xlink">
    <defs>
    <style>
        .cls-1 {
        fill: #4fc120;
        }
    </style>
    </defs>
    <title>cookie_thinner</title>
    <circle class="cls-1" cx="7.31372" cy="8.73948" r="1.5"/>
    <g>
    <path class="cls-1" d="M509.90649,517.82736a1.99581,1.99581,0,0,0,.50367-3.9281l15.30957-13.1225-1.627-1.89843-2.53527,2.17309a15.23589,15.23589,0,0,0-22.8573,19.40113c.02465.04272.05566.07928.08074.12164l-2.68817,2.30414,1.627,1.89843,10.207-8.74884A1.99319,1.99319,0,0,0,509.90649,517.82736Zm-10.245-1.50793a1.72922,1.72922,0,0,0-.07617-3.45307,1.61768,1.61768,0,0,0-.42273.06214,12.72734,12.72734,0,0,1,11.26324-12.76044,2.57363,2.57363,0,0,0-.12884.7688,2.60934,2.60934,0,1,0,5.21868,0,2.56538,2.56538,0,0,0-.03283-.32459,12.84986,12.84986,0,0,1,4.14819,2.09046l-18.91382,16.21185A12.88329,12.88329,0,0,1,499.66144,516.31943Z" transform="translate(-496.09277 -497.58789)"/>
    <path class="cls-1" d="M525.11426,505.20255a15.24051,15.24051,0,0,0-1.12519-1.65632l-1.89166,1.63941a12.37917,12.37917,0,0,1,2.25708,4.85675,5.25711,5.25711,0,0,0-5.69629,6.68164,5.25568,5.25568,0,0,0-1.44824,7.69824,12.5997,12.5997,0,0,1-3.9057,1.07288,2.46731,2.46731,0,0,0,.102-.6676,2.5,2.5,0,0,0-5,0,2.44977,2.44977,0,0,0,.025.24731,12.7694,12.7694,0,0,1-5.53949-3.24432l-1.89575,1.643a15.30692,15.30692,0,0,0,10.93665,4.60059,15.15065,15.15065,0,0,0,7.59765-2.03955c.166-.09571.33008-.19483.49219-.29541a1.24979,1.24979,0,0,0-.03516-2.14161,2.75248,2.75248,0,0,1,.64844-5.0288,1.26947,1.26947,0,0,0,.81153-.78711,1.32847,1.32847,0,0,0-.12793-1.15088,2.75064,2.75064,0,0,1,3.87988-3.68213,1.24948,1.24948,0,0,0,1.92676-1.13037A15.105,15.105,0,0,0,525.11426,505.20255Z" transform="translate(-496.09277 -497.58789)"/>
    </g>
</svg>