<?xml version="1.0" encoding="utf-8"?>
<svg width="16px" height="16px" viewBox="0 0 16 16" version="1.1" xmlns="http://www.w3.org/2000/svg">
  <title>cc-active</title>
  <g transform="matrix(1, 0, 0, 1, -1, -0.044)" stroke="none" stroke-width="1" fill="none" fill-rule="evenodd">
    <path d="M 11.57961654663086 15.130392074584961 L 12.50006103515625 12.456230163574219 L 15.0693941116333 14.956554412841797 L 15.90139389038086 14.146608352661133 L 13.332505226135254 11.646284103393555 L 16.08050537109375 10.75114917755127 L 8.486283302307129 7.741419315338135 Z" id="Fill-1" fill="#BEBEBE"/>
    <mask id="mask-2" fill="white">
      <polygon id="" points="0.96314383 0.053894043 17.0040984 0.053894043 17.0040984 16.0697021 0.96314383 16.0697021" transform="matrix(1, 0, 0, 1, 0, 0)"/>
    </mask>
    <path d="M 9 12.808 C 9.024 12.808 9.047 12.805 9.07 12.804 L 10.343 15.929 C 9.906 16.003 9.458 16.044 9 16.044 C 4.588 16.044 1 12.455 1 8.044 C 1 3.632 4.588 0.044 9 0.044 C 13.412 0.044 17 3.632 17 8.044 C 17 8.507 16.958 8.961 16.882 9.403 L 13.76 8.132 C 13.76 8.102 13.764 8.073 13.764 8.044 C 13.764 5.417 11.627 3.279 9 3.279 C 6.373 3.279 4.236 5.417 4.236 8.044 C 4.236 10.671 6.373 12.808 9 12.808" id="arrow" fill="#00AEF0" mask="url(#mask-2)"/>
  </g>
</svg>
