<?xml version="1.0" encoding="UTF-8" standalone="no"?>
<svg width="199px" height="198px" viewBox="0 0 199 198" version="1.1" xmlns="http://www.w3.org/2000/svg" xmlns:xlink="http://www.w3.org/1999/xlink">
    <!-- Generator: Sketch 39.1 (31720) - http://www.bohemiancoding.com/sketch -->
    <title>red</title>
    <desc>Created with Sketch.</desc>
    <defs></defs>
    <g id="Page-1" stroke="none" stroke-width="1" fill="none" fill-rule="evenodd">
        <g id="red">
            <g transform="translate(-0.394531, 0.152140)">
                <polygon id="Fill-2" fill="#221F20" points="94.0342 93.6062 137.0862 195.4822 148.4562 159.3182 183.0842 193.9462 194.3742 182.6562 159.7462 148.0282 195.9102 136.6582"></polygon>
                <path d="M99.5394,0.1556 C45.0754,0.1556 0.7654,44.4656 0.7654,98.9316 C0.7654,153.3956 45.0754,197.7056 99.5394,197.7056 C103.4194,197.7056 107.2414,197.4556 111.0074,197.0176 L94.3254,157.5456 C64.2974,154.8936 40.6614,129.6376 40.6614,98.9316 C40.6614,66.4636 67.0734,40.0516 99.5394,40.0516 C130.5494,40.0516 155.9754,64.1636 158.2014,94.6156 L197.5194,111.2316 C198.0234,107.1976 198.3134,103.0976 198.3134,98.9316 C198.3134,44.4656 154.0034,0.1556 99.5394,0.1556" id="Fill-3" fill="#E64C66"></path>
            </g>
        </g>
    </g>
</svg>