<?xml version="1.0" encoding="UTF-8" standalone="no"?>
<svg width="199px" height="198px" viewBox="0 0 199 198" version="1.1" xmlns="http://www.w3.org/2000/svg" xmlns:xlink="http://www.w3.org/1999/xlink">
    <g id="Page-1" stroke="none" stroke-width="1" fill="none" fill-rule="evenodd">
        <g id="yellow-copy" transform="translate(0.000000, -0.847860)">
            <polygon fill="#414141" points="95.0342 94.6062 138.0862 196.4822 149.4562 160.3182 184.0842 194.9462 195.3742 183.6562 160.7462 149.0282 196.9102 137.6582"></polygon>
            <path d="M100.5394,1.1556 C46.0754,1.1556 1.7654,45.4656 1.7654,99.9316 C1.7654,154.3956 46.0754,198.7056 100.5394,198.7056 C104.4194,198.7056 108.2414,198.4556 112.0074,198.0176 L95.3254,158.5456 C65.2974,155.8936 41.6614,130.6376 41.6614,99.9316 C41.6614,67.4636 68.0734,41.0516 100.5394,41.0516 C131.5494,41.0516 156.9754,65.1636 159.2014,95.6156 L198.5194,112.2316 C199.0234,108.1976 199.3134,104.0976 199.3134,99.9316 C199.3134,45.4656 155.0034,1.1556 100.5394,1.1556" id="Fill-3" fill="#414141"></path>
        </g>
    </g>
</svg>
