<?xml version="1.0" encoding="UTF-8" standalone="no"?>
<svg width="649px" height="161px" viewBox="0 0 649 161" version="1.1" xmlns="http://www.w3.org/2000/svg" xmlns:xlink="http://www.w3.org/1999/xlink">
    <!-- Generator: Sketch 43.1 (39012) - http://www.bohemiancoding.com/sketch -->
    <title>Group 11</title>
    <desc>Created with Sketch.</desc>
    <defs/>
    <g id="Page-1" stroke="none" stroke-width="1" fill="none" fill-rule="evenodd">
        <g id="Group-11" transform="translate(0.335938, 0.049625)" fill="#FFFFFF">
            <polygon id="Fill-2" points="427.4407 80.346 460.2777 160.953 470.0397 131.783 497.3127 159.056 506.1497 150.222 478.8777 122.945 508.0487 113.183"/>
            <path d="M427.896,0.2806 C472.195,0.2806 508.233,36.3176 508.233,80.6156 C508.233,85.2726 507.813,89.8296 507.048,94.2716 L475.697,81.4996 C475.702,81.2026 475.741,80.9146 475.741,80.6156 C475.741,54.2346 454.277,32.7716 427.896,32.7716 C401.515,32.7716 380.053,54.2346 380.053,80.6156 C380.053,106.9986 401.515,128.4616 427.896,128.4616 C428.133,128.4616 428.362,128.4286 428.599,128.4266 L441.379,159.7996 C436.992,160.5446 432.492,160.9536 427.896,160.9536 C383.599,160.9536 347.561,124.9146 347.561,80.6156 C347.561,36.3176 383.599,0.2806 427.896,0.2806 Z" id="Fill-3"/>
            <polygon id="Fill-5" points="192.324 3.7503 158.621 3.7503 158.621 156.9413 268.702 156.9413 268.702 126.3043 192.324 126.3043"/>
            <polygon id="Fill-7" points="293.808 156.942 327.51 156.942 327.51 3.751 293.808 3.751"/>
            <polygon id="Fill-9" points="647.7341 3.7503 522.7711 3.7503 522.7711 33.2943 604.4011 33.2943 520.1451 131.3373 520.1451 156.9413 647.7341 156.9413 647.7341 127.3973 563.4781 127.3973 647.7341 29.3543"/>
            <path d="M80.7565,33.1458 C94.7655,33.1458 107.3315,39.3158 115.9835,49.0408 L138.6345,26.3888 C124.1705,10.8838 103.5825,1.1638 80.7565,1.1638 C37.0955,1.1638 0.2115,36.6848 0.2115,80.3458 C0.2115,124.0068 37.0955,159.5288 80.7565,159.5288 C103.4045,159.5288 123.8465,149.9558 138.2925,134.6618 L115.6495,112.0188 C107.0085,121.5298 94.5875,127.5448 80.7565,127.5448 C54.7305,127.5448 34.1765,106.3728 34.1765,80.3458 C34.1765,54.3198 54.7305,33.1458 80.7565,33.1458" id="Fill-10"/>
        </g>
    </g>
</svg>
