<?xml version="1.0" encoding="utf-8"?>
<svg width="12" height="12" viewBox="0 0 12 12" xmlns="http://www.w3.org/2000/svg">
<path d="M11.1,6c0,0.6,0.2,1.2,0.5,1.3L12,7.4c-0.2,0.6-0.4,1.3-0.8,1.8L10.8,9C10.5,8.9,10,9.1,9.6,9.6
	c-0.4,0.4-0.7,1-0.6,1.2l0.2,0.4C8.7,11.6,8,11.8,7.4,12l-0.2-0.4c-0.1-0.3-0.7-0.5-1.3-0.5s-1.2,0.2-1.3,0.5L4.6,12
	c-0.6-0.2-1.3-0.4-1.8-0.8L3,10.8c0.1-0.3-0.1-0.8-0.6-1.2C2,9.1,1.5,8.9,1.2,9L0.8,9.2C0.4,8.7,0.2,8,0,7.4l0.4-0.2
	C0.7,7.2,0.9,6.6,0.9,6c0-0.6-0.2-1.2-0.5-1.3L0,4.6c0.2-0.6,0.4-1.3,0.8-1.8L1.2,3C1.5,3.1,2,2.8,2.4,2.4C2.8,2,3.1,1.5,3,1.2
	L2.8,0.8C3.3,0.4,3.9,0.2,4.6,0l0.2,0.4C4.8,0.7,5.4,0.9,6,0.9s1.2-0.2,1.3-0.5L7.4,0C8,0.2,8.7,0.4,9.2,0.8L9,1.2
	C8.9,1.5,9.1,2,9.6,2.4c0.4,0.4,1,0.7,1.2,0.6l0.4-0.2c0.3,0.6,0.6,1.2,0.7,1.8l-0.4,0.2C11.3,4.8,11.1,5.4,11.1,6z M6,2.8
	c-1.3,0-2.5,0.8-3,2C2.5,6,2.8,7.4,3.7,8.3C4.6,9.2,6,9.5,7.2,9c1.2-0.5,2-1.7,2-3c0-0.9-0.3-1.7-1-2.3C7.7,3.1,6.9,2.8,6,2.8L6,2.8
	z" style="fill: rgb(76, 76, 76);"/>
</svg>
