<?xml version="1.0" encoding="utf-8"?>
<svg width="16" height="16" viewBox="0 0 16 16" xmlns="http://www.w3.org/2000/svg">
  <defs>
    <style>.cls-1{fill:#4e4d4d;}</style>
    <style>.cls-1{fill:#4e4d4d;}.cls-2{fill:none;}.cls-3{fill:#dd2b19;}</style>
  </defs>
  <path class="cls-1" d="M 8.011 11.885 C 6.062 10.286 4.838 7.971 4.616 5.46 C 5.854 5.244 7.019 4.727 8.011 3.955 Z"/>
  <path class="cls-1" d="M 12.261 7.443 C 11.665 10.022 10.122 12.282 7.939 13.776 C 6.973 13.131 6.135 12.312 5.469 11.363 L 3.789 12.335 C 4.79 13.772 6.08 14.98 7.579 15.887 C 7.815 16.036 8.116 16.036 8.35 15.887 C 9.966 14.876 13.426 12.418 14.574 6.093 Z"/>
  <path class="cls-1" d="M 3.128 4.607 C 4.902 4.262 6.563 3.487 7.965 2.348 C 9.371 3.488 11.036 4.264 12.812 4.607 C 12.812 4.763 12.812 4.91 12.757 5.057 L 14.877 3.836 C 14.877 3.744 14.877 3.661 14.877 3.57 C 14.893 3.175 14.6 2.837 14.207 2.799 C 12.063 2.529 10.049 1.618 8.433 0.182 C 8.164 -0.029 7.786 -0.029 7.517 0.182 C 5.89 1.624 3.863 2.536 1.706 2.799 C 1.313 2.837 1.02 3.175 1.036 3.57 C 1.161 6.061 1.786 8.501 2.872 10.748 L 4.542 9.829 C 3.755 8.19 3.277 6.42 3.128 4.607 Z"/>
  <path class="cls-3" d="M 0.761 12.353 C 0.266 12.358 -0.048 11.826 0.195 11.395 C 0.254 11.292 0.338 11.208 0.439 11.151 L 15.006 2.669 C 15.448 2.444 15.965 2.782 15.94 3.276 C 15.928 3.48 15.82 3.667 15.649 3.779 L 1.082 12.262 C 0.985 12.319 0.874 12.352 0.761 12.353 Z"/>
</svg>
