<?xml version="1.0" encoding="utf-8"?>
<svg width="16" height="16" viewBox="0 0 16 16" xmlns="http://www.w3.org/2000/svg">
  <defs>
    <style>.cls-1{fill:#4e4d4d;}</style>
  </defs>
  <path class="cls-1" d="M 14.242 2.788 C 12.093 2.521 10.075 1.609 8.456 0.173 C 8.186 -0.038 7.807 -0.038 7.538 0.173 C 5.912 1.613 3.887 2.525 1.732 2.788 C 1.34 2.826 1.046 3.164 1.063 3.558 C 1.64 11.812 5.786 14.766 7.602 15.885 C 7.837 16.035 8.137 16.035 8.373 15.885 C 10.208 14.748 14.343 11.794 14.913 3.54 C 14.919 3.152 14.627 2.825 14.242 2.788 Z M 7.987 13.748 C 6.253 12.629 3.695 10.079 3.153 4.575 C 4.925 4.231 6.585 3.457 7.987 2.319 C 9.39 3.464 11.052 4.246 12.83 4.594 C 12.28 10.069 9.73 12.629 7.987 13.748 Z" style="fill: rgb(76, 76, 76);"/>
  <path class="cls-1" d="M 7.987 11.886 L 7.987 3.961 C 6.998 4.739 5.832 5.262 4.594 5.484 C 4.82 7.986 6.043 10.293 7.987 11.886 Z" style="fill: rgb(76, 76, 76);"/>
</svg>
