<?xml version="1.0" encoding="UTF-8" standalone="no"?>
<svg width="16px" height="16px" viewBox="0 0 16 16" version="1.1" xmlns="http://www.w3.org/2000/svg" xmlns:xlink="http://www.w3.org/1999/xlink">
    <!-- Generator: Sketch 39.1 (31720) - http://www.bohemiancoding.com/sketch -->
    <title>Artboard Copy 4</title>
    <desc>Created with Sketch.</desc>
    <defs></defs>
    <g id="Page-1" stroke="none" stroke-width="1" fill="none" fill-rule="evenodd">
        <g id="Artboard-Copy-4" fill="#464646">
            <path d="M7.88726474,4.18698616 C5.18784821,4.2469209 3.018,6.45393074 3.018,9.1677358 C3.018,10.3369175 3.42121683,11.4424535 4.147646,12.3270609 C5.08886885,13.4732327 6.48839444,14.1497358 8,14.1497358 C10.7514826,14.1497358 12.982,11.9192184 12.982,9.1677358 C12.982,8.80875071 13.2730149,8.5177358 13.632,8.5177358 C13.9909851,8.5177358 14.282,8.80875071 14.282,9.1677358 C14.282,12.6371886 11.4694528,15.4497358 8,15.4497358 C6.09510911,15.4497358 4.32857346,14.5958273 3.14298345,13.152078 C2.22730671,12.0370148 1.718,10.6406026 1.718,9.1677358 C1.718,5.73593972 4.46982492,2.9468668 7.88726474,2.88672704 L7.88726474,0.658474803 L11.7427505,3.60521383 L7.88726474,6.55195285 L7.88726474,4.18698616 Z" id="Combined-Shape"></path>
        </g>
    </g>
</svg>