<svg height="284" viewBox="0 0 800 284" width="800" xmlns="http://www.w3.org/2000/svg"><g fill-rule="evenodd"><path d="m0 283.534h800v-283.534h-800z" fill="#00aef0"/><g fill="#fff"><path d="m496.441 141.88 32.837 80.607 9.762-29.17 27.273 27.273 8.837-8.834-27.272-27.277 29.171-9.762z"/><path d="m496.896 61.815c44.299 0 80.337 36.037 80.337 80.335 0 4.657-.42 9.214-1.185 13.656l-31.351-12.772c.005-.297.044-.585.044-.884 0-26.381-21.464-47.844-47.845-47.844s-47.843 21.463-47.843 47.844c0 26.383 21.462 47.846 47.843 47.846.237 0 .466-.033.703-.035l12.78 31.373c-4.387.745-8.887 1.154-13.483 1.154-44.297 0-80.335-36.039-80.335-80.338 0-44.298 36.038-80.335 80.335-80.335z"/><path d="m261.324 65.284h-33.703v153.191h110.081v-30.637h-76.378z"/><path d="m362.808 218.476h33.702v-153.191h-33.702z"/><path d="m716.734 65.284h-124.963v29.544h81.63l-84.256 98.043v25.604h127.589v-29.544h-84.256l84.256-98.043z"/><path d="m149.757 94.68c14.009 0 26.575 6.17 35.227 15.895l22.651-22.652c-14.464-15.505-35.053-25.225-57.878-25.225-43.661 0-80.545 35.521-80.545 79.182s36.884 79.183 80.545 79.183c22.647 0 43.09-9.573 57.536-24.867l-22.643-22.643c-8.641 9.511-21.062 15.526-34.893 15.526-26.026 0-46.58-21.172-46.58-47.199 0-26.026 20.554-47.2 46.58-47.2"/></g></g></svg>