<?xml version="1.0" encoding="UTF-8"?>
<svg width="26px" height="26px" viewBox="0 0 1024 1024" version="1.1" xmlns="http://www.w3.org/2000/svg" xmlns:xlink="http://www.w3.org/1999/xlink">
    <!-- Generator: Sketch 52.6 (67491) - http://www.bohemiancoding.com/sketch -->
    <title>cliqz_icon_normal-size</title>
    <desc>Created with Sketch.</desc>
    <g id="cliqz_icon_normal-size" stroke="none" stroke-width="1" fill="none" fill-rule="evenodd">
        <g id="Page-1" transform="translate(33.000000, 34.160281)">
            <path d="M479.365805,957.452382 C215.171438,957.452382 0.999334921,743.281942 0.999334921,479.087575 C0.999334921,214.893208 215.171438,0.722767687 479.365805,0.722767687 C743.558509,0.722767687 957.730612,214.893208 957.730612,479.087575 C957.730612,743.281942 743.558509,957.452382 479.365805,957.452382 Z" id="Fill-1" fill="#00AEF0"></path>
            <polygon id="Fill-4" fill="#FFFFFF" points="657.687484 627.361644 758.774522 593.534057 479.441291 479.744008 593.233003 759.073913 627.062253 657.988538 721.573321 752.499606 752.195226 721.887677"></polygon>
            <path d="M479.4378,651.500026 C384.36474,651.500026 307.017701,574.149661 307.017701,479.071613 C307.017701,383.99689 384.36474,306.648189 479.4378,306.648189 C574.51086,306.648189 651.866212,383.99689 651.866212,479.071613 C651.866212,480.145716 651.724883,481.184902 651.704931,482.255679 L764.691897,528.284143 C767.445324,512.277351 768.961705,495.853222 768.961705,479.071613 C768.961705,319.427684 639.085054,189.552696 479.4378,189.552696 C319.798859,189.552696 189.922208,319.427684 189.922208,479.071613 C189.922208,638.715542 319.798859,768.595518 479.4378,768.595518 C495.999933,768.595518 512.217887,767.122368 528.030143,764.437111 L481.970089,651.371998 C481.118787,651.3853 480.292426,651.500026 479.4378,651.500026" id="Fill-6" fill="#FFFFFF"></path>
        </g>
    </g>
</svg>