<?xml version="1.0" encoding="utf-8"?>
<!-- Generator: Adobe Illustrator 21.0.0, SVG Export Plug-In . SVG Version: 6.00 Build 0)  -->
<svg version="1.1" id="Layer_1" xmlns="http://www.w3.org/2000/svg" xmlns:xlink="http://www.w3.org/1999/xlink" x="0px" y="0px"
	 viewBox="0 0 24 24" style="enable-background:new 0 0 24 24;" xml:space="preserve">
<style type="text/css">
	.st0{opacity:0;fill:#262624;}
</style>
<rect x="0" y="0" class="st0" width="24" height="24"/>
<title>Group 19</title>
<desc>Created with Sketch.</desc>
<g id="Page-1_1_">
	<g id="Cliqz-New-Custom-Block2-Copy-2" transform="translate(-200.000000, -145.000000)">
		<g id="Page-1" transform="translate(144.229892, 140.681000)">
			<g id="Group-19" transform="translate(56.000000, 4.000000)">
				<path id="Rectangle-4-Copy-4" d="M4.6,18.4H9v-2.9H4.6V18.4z M4.5,13.5h4.5c1.1,0,2,0.9,2,2v3c0,1.1-0.9,2-2,2H4.5
					c-1.1,0-2-0.9-2-2v-3C2.5,14.4,3.4,13.5,4.5,13.5z"/>
				<path id="Rectangle-4-Copy-5" d="M4.6,9.2H9V6.2H4.6V9.2z M4.5,4.2h4.5c1.1,0,2,0.9,2,2v3c0,1.1-0.9,2-2,2H4.5c-1.1,0-2-0.9-2-2
					v-3C2.5,5.1,3.4,4.2,4.5,4.2z"/>
				<path id="Rectangle-4-Copy-6" d="M14.5,18.4h4.5v-2.9h-4.5V18.4z M14.4,13.5H19c1.1,0,2,0.9,2,2v3c0,1.1-0.9,2-2,2h-4.5
					c-1.1,0-2-0.9-2-2v-3C12.4,14.4,13.3,13.5,14.4,13.5z"/>
				<path id="Rectangle-4-Copy-7" d="M14.5,9.2h4.5V6.2h-4.5V9.2z M14.4,4.2H19c1.1,0,2,0.9,2,2v3c0,1.1-0.9,2-2,2h-4.5
					c-1.1,0-2-0.9-2-2v-3C12.4,5.1,13.3,4.2,14.4,4.2z"/>
			</g>
		</g>
	</g>
</g>
</svg>
