<?xml version="1.0" encoding="UTF-8"?>
<svg width="34px" height="34px" viewBox="0 0 34 34" version="1.1" xmlns="http://www.w3.org/2000/svg" xmlns:xlink="http://www.w3.org/1999/xlink">
    <!-- Generator: Sketch 52.2 (67145) - http://www.bohemiancoding.com/sketch -->
    <title>cliqz-shield</title>
    <desc>Created with Sketch.</desc>
    <g id="cliqz-shield" stroke="none" stroke-width="1" fill="none" fill-rule="evenodd">
        <path d="M17.0000295,1.42164595 C17.0000295,1.42164595 13.4495125,7.70360879 4.88300173,7.70360879 C4.57539667,7.70360879 4.26198774,7.69562847 3.94132397,7.67894234 L3.94059848,7.67894234 C3.85644238,7.67749137 5.14852874,26.3761067 17.0000295,33.0708697 C28.8508047,26.3768322 30.1428911,7.67894234 30.0594605,7.67894234 L30.058735,7.67894234 C29.7387967,7.69562847 29.4246623,7.70360879 29.1170572,7.70360879 C20.5490954,7.70360879 17.0000295,1.42164595 17.0000295,1.42164595 Z M27.4709348,9.95623549 C26.7650393,14.6174679 24.3752962,25.2944106 17.0000295,30.3379728 C9.62040989,25.2929596 7.23429421,14.6167424 6.52912411,9.95623549 C11.6720776,9.51731788 15.0637136,7.07824189 17.0000295,5.1179851 C18.9356198,7.07824189 22.3279813,9.51731788 27.4709348,9.95623549 Z" id="Fill-1" stroke="#00ACF2" stroke-width="1.27575" fill="#00ACF2" fill-rule="nonzero"></path>
    </g>
</svg>