<svg xmlns="http://www.w3.org/2000/svg" data-name="Layer 1" viewBox="0 0 100 100" x="0px" y="0px"><title>77 all</title><path fill="#ffffff" d="M1.73,54.54a3,3,0,0,0-.4.23l-.08.06a3,3,0,0,0-.33.27l-.11.11a3,3,0,0,0-.26.31l-.07.1a3,3,0,0,0-.24.45l0,.13a3,3,0,0,0-.12.38l0,.16a3,3,0,0,0-.05.54V75.09a3,3,0,0,0,1.74,2.72l16.08,7.41a3,3,0,0,0,2.51,0L27,82.15l22.68,13a3,3,0,0,0,3,0L74,82.63l5.64,2.6a3,3,0,0,0,2.51,0l16.08-7.41A3,3,0,0,0,100,75.09V57.27a3,3,0,0,0-.05-.54l0-.16a3,3,0,0,0-.12-.38l0-.13a3,3,0,0,0-.24-.45l-.07-.1a3,3,0,0,0-.26-.31l-.11-.11a3,3,0,0,0-.33-.27l-.08-.06a3,3,0,0,0-.4-.23L83,47.49l0-10.87A3,3,0,0,0,81.41,34L70.09,27.56V14.91a3,3,0,0,0-.05-.54l0-.16a3,3,0,0,0-.12-.38l0-.13a3,3,0,0,0-.24-.45l-.07-.09a3,3,0,0,0-.26-.31l-.11-.11a3,3,0,0,0-.33-.27l-.08-.06a3,3,0,0,0-.4-.23L52.27,4.78a3,3,0,0,0-2.51,0L33.67,12.19a3,3,0,0,0-.4.23l-.08.06a3,3,0,0,0-.33.27l-.11.11a3,3,0,0,0-.26.31l-.07.09a3,3,0,0,0-.24.45l0,.13a3,3,0,0,0-.12.38l0,.16a3,3,0,0,0-.05.54V27.6L20.43,34.31a3,3,0,0,0-1.49,2.6l0,10a3,3,0,0,0-1.16.27Zm17.34-1.38L28,57.27l-8.92,4.11-8.92-4.11Zm3,24.66V66.6L32.16,62V73.17ZM6,62,16.07,66.6V77.81L6,73.17Zm61.85,0L77.93,66.6V77.81L67.84,73.17ZM83.93,77.81V66.6L94,62V73.17Zm-3-16.44L72,57.27l8.92-4.11,8.92,4.11Zm-43-41.78L48,24.25V35.46L37.93,30.81ZM54,24.25,64.09,19.6V30.81L54,35.46ZM51,10.8l8.92,4.11L51,19l-8.92-4.11ZM32.37,34.29a3,3,0,0,0,1.3,1.17l16.08,7.41a3,3,0,0,0,2.51,0l16.08-7.41a3,3,0,0,0,1.33-1.22l7.24,4.14,0,10L63.58,54.54a3,3,0,0,0-.4.23l-.08.06a3,3,0,0,0-.33.27l-.11.11a3,3,0,0,0-.26.31l-.07.1a3,3,0,0,0-.24.45l0,.13a3,3,0,0,0-.12.38l0,.16a3,3,0,0,0-.05.54V75.09a3,3,0,0,0,1.74,2.72l3.8,1.75L51.15,89l-17.46-10,2.72-1.25a3,3,0,0,0,1.74-2.72V57.27a3,3,0,0,0-.05-.54l0-.16a3,3,0,0,0-.12-.38l0-.13a3,3,0,0,0-.24-.45l-.07-.1a3,3,0,0,0-.26-.31l-.11-.11a3,3,0,0,0-.33-.27l-.08-.06a3,3,0,0,0-.4-.23L25,49.28l0-10.66Z"></path></svg>
