<?xml version="1.0" encoding="UTF-8"?>
<svg width="15px" height="14px" viewBox="0 0 16 15" version="1.1" xmlns="http://www.w3.org/2000/svg" xmlns:xlink="http://www.w3.org/1999/xlink">
    <!-- Generator: Sketch 51.2 (57519) - http://www.bohemiancoding.com/sketch -->
    <title>pricetag</title>
    <desc>Created with Sketch.</desc>
    <defs>
        <polygon id="path-1" points="0.0004 0.3631 11.864 0.3631 11.864 16 0.0004 16"></polygon>
    </defs>
    <g id="Page-1" stroke="none" stroke-width="1" fill="none" fill-rule="evenodd">
        <g id="BlackFriday_Icon_Black" transform="translate(-13.000000, -14.000000)">
            <g id="pricetag" transform="translate(20.000000, 20.500000) rotate(-45.000000) translate(-20.000000, -20.500000) translate(14.000000, 12.000000)">
                <g id="Group-3" transform="translate(0.000000, 0.636600)">
                    <mask id="mask-2" fill="white">
                        <use xlink:href="#path-1"></use>
                    </mask>
                    <g id="Clip-2"></g>
                    <path d="M8.2374,14.5501 L3.6244,14.5501 C2.4254,14.5491 1.4494,13.5741 1.4484,12.3751 L1.4494,6.1231 C1.4494,5.4971 1.7194,4.9021 2.1904,4.4881 C5.0174,2.0081 5.8774,1.8241 5.8974,1.8121 C5.9864,1.8241 6.8444,2.0071 9.6734,4.4881 C9.7094,4.5201 9.7434,4.5521 9.7764,4.5851 C10.1814,4.9911 10.4134,5.5441 10.4124,6.1231 L10.4134,12.3751 C10.4134,12.9561 10.1874,13.5031 9.7764,13.9131 C9.3664,14.3231 8.8194,14.5501 8.2374,14.5501 M11.8644,12.3751 L11.8644,6.1231 C11.8644,5.0791 11.4144,4.0861 10.6294,3.3981 C8.3234,1.3751 6.7574,0.3631 5.9314,0.3631 C5.1064,0.3631 3.5414,1.3751 1.2344,3.3981 C0.4494,4.0861 0.0004,5.0791 0.0004,6.1231 L0.0004,12.3751 C0.0004,14.3771 1.6234,16.0001 3.6254,16.0001 L8.2394,16.0001 C10.2414,16.0001 11.8644,14.3771 11.8644,12.3751" id="Fill-1" fill="#000000" mask="url(#mask-2)"></path>
                </g>
                <path d="M5.9317,5.631 C5.4057,5.631 4.9757,6.061 4.9757,6.587 C4.9757,7.114 5.4057,7.544 5.9317,7.544 C6.4587,7.544 6.8887,7.114 6.8887,6.587 C6.8887,6.061 6.4587,5.631 5.9317,5.631 M5.9317,8.818 C4.7027,8.818 3.7017,7.818 3.7017,6.587 C3.7017,5.358 4.7027,4.358 5.9317,4.358 C7.1617,4.358 8.1617,5.358 8.1617,6.587 C8.1617,7.818 7.1617,8.818 5.9317,8.818" id="Fill-4" fill="#000000"></path>
            </g>
        </g>
    </g>
</svg>
