<?xml version="1.0" encoding="utf-8"?>
<svg width="33px" height="33px" viewBox="0 0 33 33" version="1.1" xmlns="http://www.w3.org/2000/svg">
  <title>Group 29</title>
  <desc>Created with Sketch.</desc>
  <polygon id="Fill-1" points="22.741 32.032 24.608 26.451 29.826 31.669 31.516 29.979 26.3 24.761 31.88 22.893 16.46 16.611" fill="#00ACF2" stroke="none" stroke-width="1" fill-rule="evenodd"/>
  <path d="M 16.458 26.093 C 16.506 26.093 16.551 26.086 16.599 26.086 L 19.141 32.327 C 18.268 32.476 17.373 32.557 16.458 32.557 C 7.645 32.557 0.476 25.387 0.476 16.574 C 0.476 7.76 7.645 0.591 16.458 0.591 C 25.271 0.591 32.441 7.76 32.441 16.574 C 32.441 17.5 32.358 18.407 32.206 19.291 L 25.969 16.75 C 25.97 16.691 25.978 16.633 25.978 16.574 C 25.978 11.325 21.707 7.055 16.458 7.055 C 11.21 7.055 6.939 11.325 6.939 16.574 C 6.939 21.822 11.21 26.093 16.458 26.093" id="Fill-2" fill="#00ACF2" stroke="none" stroke-width="1" fill-rule="evenodd"/>
</svg>
