<svg height="18" viewBox="0 0 18 18" width="18" xmlns="http://www.w3.org/2000/svg"><g fill="#595a5c" fill-rule="evenodd"><path d="m.06505901 9.24621536c.08753627.15967398.2401088.19260878.40952916.19253631 3.03445781-.00101449 6.06895184-.00072463 9.10340964-.00072463h.07735511v1.73659496h2.86308088v-5.26985733h-.7289858c-.5428988-.00043478-1.0857975-.00034463-1.6286601-.00028985-.012029.00003623-.024058.00007246-.036087.00028985h-.46934798v1.73634132h-.06423916c-3.02844331 0-6.05688661-.00003624-9.08532992.00032608-.05112321 0-.10260874.00144928-.15329717.00742754-.20942038.02463769-.34985522.18047109-.35054363.38985524-.00108695.33181173-.0039855.66362347.00221015.99532651.00134058.0714493.02619566.14884064.06090582.212174"/><path d="m.05260249 3.32300996c.08047104.16166673.2239856.21181168.39750016.21144936.98007288-.00199275 1.96014576-.00094203 2.94021864-.00094203h.06449278v1.73742827h2.86308092v-5.26985729h-.58768141c-.60123214-.00036232-1.20242804.00108695-1.80366018-.00108827-.00884059 0-.01728262.00068972-.02586958.00108827h-.44586975v1.73681232h-.03942031-2.43358798c-.1869566 0-.37398567-.00278985-.5608698.00076087-.26206533.00500001-.41905815.16742761-.41923931.42789874-.00021739.31960158-.00286232.63931186.00199275.95884098.00101449.0664493.0193116.1380073.04891307.19760878"/><path d="m17.2346605 3.53344845c.0361956 0 .0724638.00047102.1085145-.00188405.2322827-.01525363.3822465-.17420298.3830074-.40619583.0011232-.3376813.0037681-.67543507.0004348-1.01311637-.0005435-.05771741-.0180073-.12000005-.0441305-.1718479-.0806159-.16010876-.2256522-.20293487-.3932248-.20289866-3.175581.0005435-6.3510896.00039858-9.52667065.00039858h-.09920294v1.7956167h.12608701c3.14837088 0 6.29677798 0 9.44518518-.00007247"/><path d="m17.2897873 13.5458186c-3.1763057-.0002898-6.3526114-.0002174-9.52888083 0-.03177538 0-.06355075.0030435-.09706526.0047464v1.7906892h.11873193c3.15217526 0 6.30435046 0 9.45648946-.0000363.0301812 0 .0604349.0012682.0904711-.0008333.2480798-.017029.3964857-.1755073.3966668-.4235147.0002537-.3106523-.0010507-.6213408.0004449-.9319931.001403-.2884784-.1459884-.4390582-.4368581-.4390582"/><path d="m17.6803056 7.83895752c-.0793116-.15641311-.2222465-.19847835-.3863045-.19818849-.5517394.00097826-1.1034788.00039855-1.6552181.00036232-.5577176 0-1.1155077.0015942-1.6732254-.00178354-.081413-.00046284-.1077536.01924731-.1071015.10439228.0038769.52753645.0044566 1.05514537-.0004199 1.58264559-.0008844.09409425.026833.11394933.1165794.11366258 1.0944208-.00311905 2.1888415-.00199586 3.2832623-.00221325.0330435-.00003624.0663406-.0009058.0991667-.00463769.2311957-.02597827.3685509-.17884065.369203-.41021756.0008696-.33460159.0038406-.66923941.0001812-1.00380477-.0006522-.06054351-.0186232-.12594209-.0461232-.18021747"/><path d="m3.45482856 13.5456411h-.0472464c-.97119606 0-1.94246458-.0000725-2.91369688.0001811-.04518118 0-.09054352.000616-.1355073.0044566-.20420299.0172826-.35543494.1792754-.35634073.3847103-.00141305.3317393-.00500001.6636234.00297101.9952178.00184783.0760145.03416668.1588406.07478264.2247827.08456526.1373914.22597836.1677899.37771755.1677175.97728303-.0005435 1.95456605-.0002537 2.93181284-.0002537h.06550727v1.7458341h2.86308092v-5.2698573h-2.86308092z"/></g></svg>