<?xml version="1.0" encoding="UTF-8" standalone="no"?>
<svg width="12px" height="12px" viewBox="0 0 12 12" version="1.1" xmlns="http://www.w3.org/2000/svg" xmlns:xlink="http://www.w3.org/1999/xlink">
    <!-- Generator: Sketch 50.2 (55047) - http://www.bohemiancoding.com/sketch -->
    <title>Artboard 2</title>
    <desc>Created with Sketch.</desc>
    <defs></defs>
    <g id="Artboard-2" stroke="none" stroke-width="1" fill="none" fill-rule="evenodd">
        <path d="M10.5926017,4.08506871 L10.9025748,3.64238123 C11.2002268,4.31909023 11.3690323,5.06740912 11.3690323,5.84737903 L10.9093548,5.84737903 C10.9093548,5.2262076 10.7909497,4.63236044 10.5926017,4.08506871 Z" id="Combined-Shape" stroke="#6A7E90" stroke-width="0.5" fill="#6A7E90" fill-rule="nonzero"></path>
        <path d="M8.68606345,1.13381968 L8.17938708,1.38094226 C7.49032424,1.02676055 6.7148832,0.827701613 5.88967742,0.827701613 C3.1316129,0.827701613 0.888387097,3.08931452 0.888387097,5.84737903 C0.888387097,7.02415323 1.31129032,8.16415323 2.06516129,9.06512097 L1.71580645,9.35931452 C0.906774194,8.36641129 0.447096774,7.13447581 0.447096774,5.84737903 C0.447096774,2.83189516 2.89258065,0.38641129 5.90806452,0.368024194 C6.92398028,0.368024194 7.87308676,0.64639619 8.68606345,1.13381968 Z" id="Combined-Shape" stroke="#6A7E90" stroke-width="0.5" fill="#6A7E90" fill-rule="nonzero"></path>
        <path d="M10.7070968,7.06092742 C10.2290323,7.06092742 9.84290323,7.44705645 9.84290323,7.92512097 C9.84290323,8.40318548 10.2290323,8.78931452 10.7070968,8.78931452 C11.1851613,8.78931452 11.5712903,8.40318548 11.5712903,7.92512097 C11.5529032,7.44705645 11.1851613,7.06092742 10.7070968,7.06092742 Z M10.7070968,8.40318548 C10.4312903,8.40318548 10.2106452,8.18254032 10.2106452,7.90673387 C10.2106452,7.63092742 10.4312903,7.41028226 10.7070968,7.41028226 C10.9829032,7.41028226 11.2035484,7.63092742 11.2035484,7.90673387 C11.2035484,8.18254032 10.9829032,8.40318548 10.7070968,8.40318548 Z" id="Shape" fill="#6A7E90" fill-rule="nonzero"></path>
        <path d="M9.16258065,9.65350806 C9.05225806,9.57995968 8.92354839,9.54318548 8.79483871,9.54318548 C8.57419355,9.54318548 8.35354839,9.65350806 8.24322581,9.83737903 C8.04096774,10.1499597 8.13290323,10.5544758 8.42709677,10.7567339 C8.53741935,10.8302823 8.66612903,10.8670565 8.79483871,10.8670565 C9.01548387,10.8670565 9.23612903,10.7567339 9.34645161,10.5728629 C9.54870968,10.2602823 9.45677419,9.85576613 9.16258065,9.65350806 Z M9.05225806,10.3706048 C8.96032258,10.4993145 8.77645161,10.5544758 8.62935484,10.4625403 C8.48225806,10.3706048 8.44548387,10.1867339 8.53741935,10.0396371 C8.59258065,9.94770161 8.68451613,9.91092742 8.79483871,9.91092742 C8.85,9.91092742 8.90516129,9.92931452 8.96032258,9.96608871 C9.08903226,10.0396371 9.14419355,10.2235081 9.05225806,10.3706048 Z" id="Shape" fill="#6A7E90" fill-rule="nonzero"></path>
        <path d="M5.92645161,10.4809274 C5.83451613,10.4809274 5.76096774,10.4993145 5.68741935,10.5360887 C5.54032258,10.59125 5.43,10.7199597 5.37483871,10.8670565 C5.31967742,11.0141532 5.31967742,11.1796371 5.37483871,11.3267339 C5.46677419,11.547379 5.68741935,11.6944758 5.92645161,11.6944758 C6.0183871,11.6944758 6.09193548,11.6760887 6.16548387,11.6393145 C6.31258065,11.5841532 6.42290323,11.4554435 6.47806452,11.3083468 C6.53322581,11.16125 6.53322581,10.9957661 6.47806452,10.8486694 C6.38612903,10.6096371 6.16548387,10.4809274 5.92645161,10.4809274 Z M6.03677419,11.2899597 C5.92645161,11.345121 5.77935484,11.2899597 5.72419355,11.16125 C5.70580645,11.1060887 5.70580645,11.0325403 5.72419355,10.977379 C5.74258065,10.9222177 5.79774194,10.8670565 5.85290323,10.8486694 C5.88967742,10.8302823 5.90806452,10.8302823 5.94483871,10.8302823 C6.03677419,10.8302823 6.12870968,10.8854435 6.16548387,10.977379 C6.20225806,11.1060887 6.14709677,11.2347984 6.03677419,11.2899597 Z" id="Shape" fill="#6A7E90" fill-rule="nonzero"></path>
        <circle id="Oval" fill="#6A7E90" fill-rule="nonzero" cx="3.05806452" cy="10.2418952" r="1"></circle>
        <path d="M10.4129032,2.26189516 C10.4496774,2.18834677 10.4680645,2.07802419 10.4129032,2.00447581 C10.4129032,1.98608871 10.4129032,1.98608871 10.3945161,1.96770161 L10.3577419,1.93092742 C10.2841935,1.85737903 10.1554839,1.83899194 10.0451613,1.87576613 C10.0267742,1.87576613 10.0083871,1.89415323 9.99,1.89415323 L9.73258065,2.0228629 C9.23612903,2.26189516 8.73967742,2.50092742 8.2616129,2.73995968 C7.98580645,2.86866935 7.71,3.01576613 7.43419355,3.14447581 C6.71709677,3.49383065 5.9816129,3.84318548 5.24612903,4.21092742 C4.51064516,4.57866935 4.16129032,5.38770161 4.40032258,6.17834677 C4.62096774,6.89544355 5.26451613,7.37350806 6.0183871,7.37350806 C6.09193548,7.37350806 6.14709677,7.37350806 6.22064516,7.35512097 C6.71709677,7.29995968 7.14,7.02415323 7.47096774,6.54608871 C8.11451613,5.60834677 8.77645161,4.65221774 9.42,3.71447581 L10.4129032,2.26189516 Z M7.08483871,6.28866935 C6.82741935,6.67479839 6.53322581,6.85866935 6.16548387,6.91383065 C5.55870968,6.98737903 5.00709677,6.6196371 4.8416129,6.0496371 C4.65774194,5.4796371 4.91516129,4.89125 5.4483871,4.61544355 C6.16548387,4.24770161 6.88258065,3.89834677 7.58129032,3.56737903 L7.61806452,3.54899194 C7.89387097,3.42028226 8.16967742,3.27318548 8.44548387,3.14447581 C8.85,2.94221774 9.25451613,2.75834677 9.65903226,2.55608871 L8.97870968,3.54899194 C8.35354839,4.46834677 7.7283871,5.36931452 7.08483871,6.28866935 Z" id="Shape" stroke="#6A7E90" stroke-width="0.5" fill="#6A7E90" fill-rule="nonzero"></path>
    </g>
</svg>