<?xml version="1.0" encoding="UTF-8" standalone="no"?>
<svg xmlns="http://www.w3.org/2000/svg" width="225" height="300">
<path stroke="none" d="m 224.99996,16.22698 -8.11342,36.41161 q -24.14255,-19.78892 -54.61741,-19.78892 -41.3588,0 -65.00658,23.74671 -23.647774,23.7467 -28.397115,53.23215 l 134.960355,0 -5.14505,26.71508 -132.981532,0 -0.395848,7.71771 0.395848,18.20566 127.242642,0 -5.14505,26.71508 -117.941954,0 q 7.519719,40.17154 32.552754,59.06997 25.03303,18.89844 56.49745,18.89844 37.20302,0 57.98149,-19.59107 l 0,40.9631 Q 192.34828,300 162.26913,300 53.034301,300 30.474864,189.18206 l -30.474864,0 5.738751,-26.71508 20.580475,0 q -0.395708,-4.74934 -0.395708,-17.80995 l 0,-8.11342 -25.923518,0 5.738751,-26.71508 23.152999,0 Q 39.181988,55.21112 76.583149,27.60556 113.98417,0 163.06069,0 199.868,0 224.99996,16.22698 z"/>
</svg>