<?xml version="1.0" encoding="utf-8"?>
<svg width="24px" height="24px" viewBox="0 0 24 24" version="1.1" xmlns="http://www.w3.org/2000/svg">
  <title>Group</title>
  <desc>Created with Sketch.</desc>
  <g id="Page-1" stroke="none" stroke-width="1" fill="none" fill-rule="evenodd">
    <g id="Group" transform="matrix(0.940169, 0, 0, 0.940169, 0.871572, 1.925357)" fill="#000000" fill-rule="nonzero">
      <path d="M11.3174496,6.6396672 C11.3169312,4.2412896 9.373968,2.2985856 6.9758496,2.297808 C4.577472,2.2983264 2.634768,4.2412896 2.6339904,6.6396672 C2.6345088,9.0380448 4.577472,10.9807488 6.9758496,10.9812672 C9.373968,10.9807488 11.316672,9.0380448 11.3174496,6.6396672 Z M4.75632,6.6396672 C4.7586528,5.4144288 5.750352,4.4224704 6.9755904,4.4203968 C8.2008288,4.4227296 9.192528,5.4144288 9.1948608,6.6396672 C9.192528,7.8649056 8.2008288,8.8566048 6.9755904,8.8589376 C5.750352,8.856864 4.7586528,7.8649056 4.75632,6.6396672 Z" id="Shape"/>
      <path d="M23.3051904,15.1569792 L23.0667264,12.8270304 L23.06232,12.7907424 C22.8028608,10.9156896 21.1963392,9.5235264 19.3015872,9.5219712 L13.4281152,9.5219712 C11.9047968,9.5222304 10.5800256,10.4325408 9.9799776,11.7645696 L9.8921088,11.7565344 L4.0129344,11.7565344 C2.1036672,11.7567936 0.4935168,13.1766912 0.2545344,15.0709248 L0.251424,15.0989184 L0.0202176,17.429904 L0.0217728,17.4301632 L0,17.7689376 C0.0002592,19.3562784 1.285632,20.6732736 2.9141856,20.6758656 L11.0154816,20.660832 L11.0157408,20.660832 C12.3996096,20.6551296 13.52376,19.6971264 13.8303936,18.4363776 L20.4319584,18.417456 C22.054032,18.4146048 23.3251488,17.096832 23.328,15.5193408 L23.3036352,15.1569792 L23.3051904,15.1569792 Z M11.0113344,18.5385024 L2.912112,18.553536 C2.4691392,18.5527584 2.1233664,18.1903968 2.1223296,17.7689376 L2.1288096,17.669664 L2.1321792,17.6393376 L2.3607936,15.3347904 C2.4660288,14.5030176 3.1741632,13.8786048 4.0126752,13.8791232 L9.8918496,13.8791232 C10.7241408,13.878864 11.4291648,14.4942048 11.5416576,15.31872 L11.7868608,17.6149728 L11.7904896,17.6447808 L11.7977472,17.7544224 C11.798784,18.1743264 11.4506784,18.5374656 11.0113344,18.5385024 Z M20.4291072,16.2953856 L13.78296,16.3143072 L13.6497312,15.0654816 L13.6461024,15.0354144 C13.4973216,13.9402944 12.8827584,13.01832 12.02688,12.4309728 C12.3257376,11.960784 12.8399904,11.64456 13.4286336,11.6448192 L19.3023648,11.6448192 C20.1375072,11.643264 20.8490112,12.265344 20.9591712,13.07664 L21.1940064,15.373152 L21.1978944,15.4063296 L21.2056704,15.5196 C21.2054112,15.9376896 20.863008,16.294608 20.4291072,16.2953856 Z" id="Shape"/>
      <path d="M20.7290016,4.4017344 C20.7284832,2.0033568 18.78552,0.0606528 16.3874016,0.0598752 C13.989024,0.0603936 12.04632,2.0033568 12.0455424,4.4017344 C12.0460608,6.800112 13.989024,8.742816 16.3874016,8.7433344 C18.7857792,8.742816 20.7284832,6.800112 20.7290016,4.4017344 Z M14.1681312,4.4017344 C14.170464,3.176496 15.1621632,2.1845376 16.3874016,2.182464 C17.61264,2.1847968 18.6043392,3.176496 18.606672,4.4017344 C18.6043392,5.6269728 17.61264,6.618672 16.3874016,6.6210048 C15.1621632,6.618672 14.170464,5.6269728 14.1681312,4.4017344 Z" id="Shape"/>
    </g>
  </g>
</svg>