<?xml version="1.0" encoding="UTF-8"?>
<svg width="20px" height="23px" viewBox="0 0 20 23" version="1.1" xmlns="http://www.w3.org/2000/svg" xmlns:xlink="http://www.w3.org/1999/xlink">
    <!-- Generator: Sketch 52.2 (67145) - http://www.bohemiancoding.com/sketch -->
    <title>Group 12</title>
    <desc>Created with Sketch.</desc>
    <g id="Page-1" stroke="none" stroke-width="1" fill="none" fill-rule="evenodd">
        <g id="cross-promo-interaction" transform="translate(-89.000000, -75.000000)" fill="#32BDF5">
            <g id="Group-10" transform="translate(70.325940, 60.500000)">
                <g id="Group-12" transform="translate(19.000000, 14.000000)">
                    <path d="M17.8287342,14.4292937 L17.8287342,8.69946855 C17.8287342,4.32232156 14.2081404,0.774219318 9.74218498,0.774219318 C5.27573134,0.774219318 1.65501295,4.32232156 1.65501295,8.69946855 L1.65501295,14.5121234 C1.62038638,15.2612032 1.43890829,16.9794533 0.551197671,18.9897871 C-0.642422486,21.6911577 0.345182045,21.369305 1.23002788,21.1469725 C2.11462459,20.9256365 4.09020733,20.0581039 4.70750687,21.126919 C5.32430818,22.1951112 5.83897358,23.1230535 7.27921462,22.5179604 C8.71958021,21.9134901 9.39828586,21.711834 9.60392782,21.711834 L9.88355604,21.711834 C10.0890734,21.711834 10.7680282,21.9134901 12.2081447,22.5179604 C13.6485103,23.1230535 14.1630511,22.1951112 14.7802261,21.126919 C15.397152,20.0581039 17.3726102,20.9256365 18.257456,21.1469725 C19.1421773,21.369305 20.1294081,21.6911577 18.9361616,18.9897871 C18.0125789,16.8979936 17.8536454,15.1256863 17.8287342,14.4292937 Z M7.24608272,5.09568977 C8.11710284,5.09568977 8.82333536,6.19066157 8.82333536,7.54172052 C8.82333536,8.89290401 8.11710284,9.98812493 7.24608272,9.98812493 C6.37506261,9.98812493 5.66870553,8.89290401 5.66870553,7.54172052 C5.66870553,6.19066157 6.37506261,5.09568977 7.24608272,5.09568977 M9.74218498,14.8730867 C7.82277701,14.8730867 6.20703656,13.0218109 5.72014715,10.9617792 C6.6604204,12.2288874 8.11199604,13.0429854 9.74218498,13.0429854 C11.3721248,13.0429854 12.8237004,12.2288874 13.7640983,10.9617792 C13.2772088,13.0218109 11.6612193,14.8730867 9.74218498,14.8730867 M12.2384118,9.98812493 C11.3666443,9.98812493 10.6607855,8.89290401 10.6607855,7.54172052 C10.6607855,6.19066157 11.3666443,5.09568977 12.2384118,5.09568977 C13.1098056,5.09568977 13.8154153,6.19066157 13.8154153,7.54172052 C13.8154153,8.89290401 13.1098056,9.98812493 12.2384118,9.98812493" id="Combined-Shape"></path>
                </g>
            </g>
        </g>
    </g>
</svg>