<?xml version="1.0" encoding="utf-8"?>
<svg version="1.1" id="Layer_1" x="0px" y="0px" viewBox="0 0 32 32" style="enable-background:new 0 0 50.8 50.8;" xmlns="http://www.w3.org/2000/svg">
  <style type="text/css">
  .st0{fill:#00AEF0;}
  .st1{fill:#FFFFFF;}
</style>
  <g transform="matrix(0.900985, 0, 0, 0.900985, -47.591366, -11.933853)">
    <path class="st0" d="M 70.483 34.573 C 67.987 34.573 65.691 33.275 64.293 31.378 C 65.092 34.573 67.588 37.468 70.483 37.468 C 73.478 37.468 75.974 34.573 76.673 31.378 C 75.176 33.375 72.979 34.573 70.483 34.573 Z" style="fill: rgb(255, 255, 255);"/>
    <path class="st1" d="M 84.56 42.36 C 83.163 39.166 82.863 36.37 82.863 35.272 L 82.863 33.774 L 82.863 33.675 L 82.863 33.275 L 82.863 30.779 L 82.863 30.68 L 82.863 30.38 L 82.863 26.486 C 82.863 19.697 77.272 14.206 70.384 14.206 C 63.495 14.206 57.904 19.697 57.904 26.486 L 57.904 35.472 C 57.804 36.67 57.604 39.265 56.207 42.36 C 54.41 46.554 55.907 46.054 57.305 45.655 C 58.703 45.356 61.698 43.958 62.696 45.655 C 63.694 47.352 64.493 48.75 66.69 47.851 C 68.886 46.953 69.984 46.653 70.284 46.653 L 70.683 46.653 C 70.983 46.653 72.081 46.953 74.277 47.851 C 76.474 48.75 77.272 47.352 78.271 45.655 C 79.269 43.958 82.264 45.356 83.662 45.655 C 84.96 46.054 86.457 46.554 84.56 42.36 Z M 82.863 30.879 L 82.863 33.475 L 82.863 30.879 Z M 70.483 37.468 C 67.488 37.468 64.992 34.573 64.293 31.378 C 65.791 33.375 67.987 34.573 70.483 34.573 C 72.979 34.573 75.276 33.275 76.673 31.378 C 75.875 34.573 73.379 37.468 70.483 37.468 Z" style="fill: rgb(0, 174, 240);"/>
    <path class="st0" d="M 76.21 26.774 C 76.709 25.276 76.609 23.679 76.01 22.281 C 75.311 20.784 74.113 19.685 72.616 19.086 C 71.118 18.487 69.421 18.587 67.924 19.286 C 66.426 19.985 65.328 21.183 64.729 22.681 C 64.329 23.879 64.329 25.176 64.629 26.474 C 65.028 28.072 66.027 29.37 67.524 30.168 C 68.922 30.967 70.519 31.167 72.117 30.767 C 73.215 30.468 74.213 29.869 75.112 28.97 L 75.212 28.87 L 75.311 28.87 L 82.882 33.696 L 82.882 31.1 L 76.21 26.774 Z M 71.418 28.571 C 71.118 28.671 70.719 28.671 70.419 28.671 C 69.721 28.671 69.122 28.471 68.523 28.172 C 67.624 27.672 67.025 26.874 66.725 25.875 C 66.426 24.877 66.626 23.879 67.125 22.98 C 67.624 22.082 68.423 21.483 69.421 21.183 C 69.721 21.083 70.12 21.083 70.419 21.083 C 72.117 21.083 73.614 22.281 74.113 23.879 C 74.613 25.875 73.415 27.972 71.418 28.571 Z" style="fill: rgb(255, 255, 255);"/>
  </g>
</svg>
