<?xml version="1.0" encoding="utf-8"?>
<!-- Generator: Adobe Illustrator 21.0.0, SVG Export Plug-In . SVG Version: 6.00 Build 0)  -->
<svg version="1.1" id="Layer_1" xmlns="http://www.w3.org/2000/svg" xmlns:xlink="http://www.w3.org/1999/xlink" x="0px" y="0px"
	 viewBox="0 0 24 24" style="enable-background:new 0 0 24 24;" xml:space="preserve">
<style type="text/css">
	.st0{opacity:0;fill:#262624;}
	.st1{fill:#FFFFFF;}
</style>
<rect y="0" class="st0" width="24" height="24"/>
<title>Group 20</title>
<desc>Created with Sketch.</desc>
<g id="Page-1" transform="matrix(1, 0, 0, 1, 0.017374, 0.034748)">
	<g id="Cliqz-New-Custom-Block2-Copy-2" transform="translate(-199.000000, -184.000000)">
		<g id="Page-1-Copy" transform="translate(200.829892, 185.100000)">
			<g id="Group-20" transform="translate(-2.000000, -2.000000)">
				<path id="Stroke-1" class="st1" d="M12.2,4.7C7.7,4.7,4,8.4,4,12.9c0,4.5,3.6,8.1,8.1,8.1s8.1-3.6,8.1-8.1
					C20.3,8.4,16.7,4.7,12.2,4.7z M12.2,2.6c5.7,0,10.2,4.6,10.2,10.2c0,5.7-4.6,10.2-10.2,10.2S1.9,18.5,1.9,12.9
					C1.9,7.2,6.5,2.6,12.2,2.6z"/>
				<path id="Stroke-3" class="st1" d="M11.8,12.7l-4.5,0c-0.5,0-0.8,0.4-0.8,0.8c0,0.5,0.4,0.8,0.8,0.8l6.2,0V7.2
					c0-0.5-0.4-0.8-0.8-0.8c-0.5,0-0.8,0.4-0.8,0.8V12.7z"/>
			</g>
		</g>
	</g>
</g>
</svg>
