<?xml version="1.0" encoding="utf-8"?>
<svg id="Layer_1" style="enable-background:new 0 0 24 24;" x="0px" y="0px" viewBox="0 0 24 24" xmlns="http://www.w3.org/2000/svg">
  <style type="text/css">
	.st0{opacity:0;fill:#262624;}
</style>
  <rect y="0" class="st0" width="24" height="24"/>
  <title>Group 20</title>
  <desc>Created with Sketch.</desc>
  <g id="Page-1" transform="matrix(1, 0, 0, 1, 0.017374, 0.034748)">
    <g id="Cliqz-New-Custom-Block2-Copy-2" transform="translate(-199.000000, -184.000000)">
      <g id="Page-1-Copy" transform="translate(200.829892, 185.100000)">
        <g id="Group-20" transform="translate(-2.000000, -2.000000)">
          <path id="Stroke-3" d="M 7.3 12.7 C 6.8 12.7 6.5 13.1 6.5 13.5 C 6.5 14 6.9 14.3 7.3 14.3 L 13.5 14.3 L 13.5 7.2 C 13.5 6.7 13.1 6.4 12.7 6.4 C 12.2 6.4 11.9 6.8 11.9 7.2 L 11.9 12.7 Z M 1.9 12.9 C 1.9 18.5 6.6 23 12.2 23 C 17.8 23 22.4 18.5 22.4 12.8 C 22.4 7.2 17.9 2.6 12.2 2.6 C 6.5 2.6 1.9 7.2 1.9 12.9 Z M 20.2 12.9 C 20.2 17.4 16.6 21 12.1 21 C 7.6 21 4 17.4 4 12.9 C 4 8.4 7.7 4.7 12.2 4.7 C 16.7 4.7 20.3 8.4 20.2 12.9 Z"/>
        </g>
      </g>
    </g>
  </g>
</svg>