<?xml version="1.0" encoding="utf-8"?>
<svg version="1.1" id="Layer_1" xmlns="http://www.w3.org/2000/svg" xmlns:xlink="http://www.w3.org/1999/xlink" x="0px" y="0px"
     width="60px" height="60px" viewBox="0 0 60 60" style="enable-background:new 0 0 60 60;" xml:space="preserve">
<style type="text/css">
    .st0{clip-path:url(#SVGID_2_);}
    .st1{clip-path:url(#SVGID_4_);fill:#B1B1B2;}
    .st2{clip-path:url(#SVGID_6_);fill:none;stroke:#FFFFFF;stroke-width:3;stroke-linecap:round;stroke-miterlimit:10;}
</style>
<g>
    <defs>
        <path id="SVGID_1_" d="M54.036,24.615c-0.381-1.14-1.353-1.982-2.535-2.199l-12.267-2.193L33.456,8.628
            C32.898,7.508,31.754,6.8,30.503,6.8c-1.251,0-2.395,0.708-2.953,1.828l-5.781,11.595L9.525,22.41
            c-1.193,0.208-2.176,1.053-2.561,2.202c-0.385,1.148-0.11,2.415,0.716,3.3l8.781,9.441l-1.827,13.08
            c-0.172,1.225,0.356,2.444,1.368,3.156c1.011,0.712,2.336,0.799,3.432,0.225l11.067-5.772l11.07,5.781
            c1.096,0.574,2.421,0.488,3.432-0.225s1.539-1.931,1.368-3.156l-1.83-13.089l8.778-9.438
            C54.146,27.03,54.421,25.763,54.036,24.615z"/>
    </defs>
    <clipPath id="SVGID_2_">
        <use xlink:href="#SVGID_1_"  style="overflow:visible;"/>
    </clipPath>
    <g class="st0">
        <defs>
            <rect id="SVGID_3_" width="60" height="60"/>
        </defs>
        <clipPath id="SVGID_4_">
            <use xlink:href="#SVGID_3_"  style="overflow:visible;"/>
        </clipPath>
        <rect x="1.793" y="1.8" class="st1" width="57.414" height="57.4"/>
    </g>
</g>
<g>
    <defs>
        <rect id="SVGID_5_" width="60" height="60"/>
    </defs>
    <clipPath id="SVGID_6_">
        <use xlink:href="#SVGID_5_"  style="overflow:visible;"/>
    </clipPath>
    <line class="st2" x1="31.29" y1="27.649" x2="36.075" y2="32.434"/>
    <line class="st2" x1="31.306" y1="37.219" x2="36.091" y2="32.435"/>
    <line class="st2" x1="34.355" y1="32.518" x2="23.582" y2="32.518"/>
</g>
</svg>
