<svg height="208" viewBox="0 0 656 208" width="656" xmlns="http://www.w3.org/2000/svg" xmlns:xlink="http://www.w3.org/1999/xlink"><mask id="a" fill="#fff"><path d="m0 .9004h43.9417v94.005h-43.9417z" fill="#fff" fill-rule="evenodd"/></mask><g fill="#fff" fill-rule="evenodd"><path d="m70.5825236.60080753c32.2711204 0 58.4656374 25.72600487 58.4656374 57.53329817l-.00006 21.5587018-31.1700566-20.2093867c2.3378756-7.0183127 1.8693637-14.5004526-.9370244-21.0502531-3.2749003-7.0136277-8.8876764-12.1625767-15.901304-14.9689648-7.0183128-2.8063881-14.9689648-2.3378759-21.9825925.9370244-7.0183127 3.2749003-12.1625767 8.8876764-14.9689648 15.9059892-1.8740488 5.6127761-1.8740488 11.6893794-.4685122 17.7706677 1.8693637 7.486825 6.5498006 13.5681133 13.5634282 17.3068407 6.5498006 3.7434125 14.0319404 4.6804369 21.5187654 2.8063881 5.1442639-1.4008515 9.8200157-4.2072396 14.0319404-8.4191643l.4685122-.4685122h.463827l35.3819813 22.553371.000743 7.6399436c.035266 5.2093799 1.450706 17.9031519 7.703883 32.4416259l.246086.567355c8.709923 19.256414 2.148234 17.391747-3.841378 15.550027l-.365861-.11255c-6.549801-1.400851-20.581741-7.950652-25.257493 0-4.680437 7.950652-8.4191644 14.500453-18.7123774 10.288528-10.2885279-4.207239-15.4327919-5.612776-16.8383285-5.612776h-1.8693637c-1.4055366 0-6.5498005 1.405537-16.8383284 5.612776-10.2932131 4.211925-14.0366255-2.337876-18.7123773-10.288528-4.6757517-7.950652-18.7076921-1.400851-25.25749269 0-6.54980056 1.869364-13.56342819 4.211925-5.14426396-15.437477 6.54511545-14.500452 7.48213985-26.658344 7.95065205-32.27112v-42.1005063c0-31.8072933 26.1945171-57.53329817 58.4703225-57.53329817zm29.4647324 80.45291497c-6.5451155 8.8876764-17.3068408 14.9689648-29.0009053 14.9689648s-21.9825924-5.6127762-29.0009052-14.9689648c3.2749003 14.9689648 14.9689648 28.5323925 29.0009052 28.5323925 13.5681133 0 25.2621779-13.5634277 29.0009053-28.5323925zm-29.3007531-48.233331c7.9553372 0 14.9689648 5.6127762 17.3068407 13.0996011 2.342561 9.3515035-3.2702152 19.1762044-12.6264038 21.9825925-1.4055366.4685122-3.2749003.4685122-4.6804369.4685122-3.2702151 0-6.0766032-.9370244-8.8829913-2.3378759-4.2119247-2.342561-7.0183127-6.0812884-8.4238493-10.7617253-1.4008515-4.6757517-.4638271-9.3515035 1.8740488-13.5634281 2.3378758-4.2072396 6.0812883-7.0136277 10.7570401-8.4191643 1.4055366-.4685122 3.2749002-.4685122 4.6757517-.4685122z" fill-rule="nonzero" transform="translate(35 24.8625)"/><path d="m23.3097 42.6514h20.632v29.146c0 14.705-7.504 23.108-21.973 23.108-14.467 0-21.969-8.403-21.969-23.108v-47.792c0-14.706 7.502-23.105 21.969-23.105 14.469 0 21.973 8.399 21.973 23.105v8.931h-13.933v-9.849c0-6.563-2.945-9.056-7.635-9.056-4.691 0-7.638 2.493-7.638 9.056v49.631c0 6.565 2.947 8.929 7.638 8.929 4.69 0 7.635-2.364 7.635-8.929v-16.937h-6.699z" mask="url(#a)" transform="translate(196.325787 56)"/><path d="m264.517287 149.8535h-14.735v-91.902h14.735v39.386h16.743v-39.386h15.006v91.902h-15.006v-39.388h-16.743z"/><path d="m305.778087 80.0059c0-14.702 7.906-23.107 22.373-23.107 14.471 0 22.373 8.405 22.373 23.107v47.792c0 14.704-7.902 23.11-22.373 23.11-14.467 0-22.373-8.406-22.373-23.11zm14.736 48.713c0 6.564 2.952 9.059 7.637 9.059 4.69 0 7.635-2.495 7.635-9.059v-49.632c0-6.563-2.945-9.06-7.635-9.06-4.685 0-7.637 2.497-7.637 9.06z"/><path d="m379.867887 56.9004c14.336 0 21.704 8.405 21.704 23.11v2.886h-13.933v-3.808c0-6.564-2.682-9.058-7.374-9.058-4.685 0-7.368 2.494-7.368 9.058 0 18.905 28.806 22.453 28.806 48.711 0 14.706-7.499 23.106-21.971 23.106-14.465 0-21.97-8.4-21.97-23.106v-5.646h13.932v6.565c0 6.563 2.95 8.926 7.638 8.926 4.687 0 7.633-2.363 7.633-8.926 0-18.91-28.8-22.453-28.8-48.708 0-14.705 7.365-23.11 21.703-23.11"/><path d="m404.720487 57.9482h45.546v13.133h-15.401v78.772h-14.739v-78.772h-15.406z"/><path d="m472.573987 96.6826h20.23v13.129h-20.23v26.915h25.455v13.132h-40.187v-91.907h40.187v13.13h-25.455z"/><path d="m537.952887 149.8535c-.8-2.364-1.339-3.81-1.339-11.288v-14.443c0-8.535-2.946-11.686-9.648-11.686h-5.087v37.417h-14.737v-91.902h22.241c15.27 0 21.84 6.96 21.84 21.139v7.221c0 9.449-3.085 15.623-9.65 18.641 7.365 3.018 9.776 9.978 9.776 19.563v14.179c0 4.466.135 7.748 1.608 11.159zm-16.074-78.772v28.224h5.76c5.496 0 8.837-2.36 8.837-9.715v-9.059c0-6.566-2.273-9.45-7.494-9.45z"/><path d="m573.457787 119.3955-18.622-61.444h15.404l11.26 41.883 11.251-41.883h14.068l-18.623 61.444v30.458h-14.738z"/><path d="m615.401087 57.8936c3.083 0 5.423 2.29 5.423 5.471 0 3.175-2.34 5.472-5.423 5.472-3.091 0-5.437-2.297-5.437-5.472 0-3.181 2.346-5.471 5.437-5.471zm0 9.871c2.457 0 4.299-1.847 4.299-4.4 0-2.552-1.842-4.405-4.299-4.405-2.468 0-4.309 1.853-4.309 4.405 0 2.553 1.841 4.4 4.309 4.4zm.778-1.135c-.083-.194-.115-.301-.115-.913v-.702c0-.703-.246-.947-.792-.947h-.404v2.562h-1.184v-6.536h1.805c1.22 0 1.767.567 1.767 1.713v.136c0 .779-.255 1.27-.816 1.513.609.244.816.794.816 1.577v.7c0 .352.012.625.138.897zm-1.311-5.465v1.832h.476c.444 0 .72-.184.72-.779v-.275c0-.534-.187-.778-.636-.778z"/></g></svg>