<?xml version="1.0" encoding="utf-8"?>
<svg width="16px" height="16px" viewBox="0 0 16 16" version="1.1" xmlns="http://www.w3.org/2000/svg">
  <title>speeddial</title>
  <desc>Created with Sketch.</desc>
  <g transform="matrix(1, 0, 0, 1, -1.8397, -2.025206)">
    <g id="pencil" transform="matrix(1, 0, 0, 1, 2.739393, 5.227647)" stroke="none" stroke-width="1" fill="none" fill-rule="evenodd">
      <path d="M 8.441 1.255 L 2.569 7.097 C 2.517 7.149 2.48 7.215 2.461 7.286 L 1.897 9.46 C 1.86 9.602 1.901 9.754 2.005 9.858 C 2.084 9.936 2.189 9.979 2.298 9.979 C 2.333 9.979 2.368 9.975 2.402 9.966 L 4.576 9.401 C 4.648 9.383 4.713 9.345 4.765 9.293 L 10.637 3.451 C 10.637 3.451 10.638 3.451 10.638 3.451 C 10.638 3.451 10.638 3.451 10.638 3.451 C 11.088 2.925 11.962 2.126 11.962 2.126 C 12.124 1.964 12.124 1.702 11.962 1.54 L 10.353 -0.07 C 10.275 -0.147 10.169 -0.191 10.059 -0.191 C 9.949 -0.191 9.844 -0.147 9.766 -0.07 L 8.442 1.254 C 8.442 1.254 8.442 1.255 8.442 1.255 C 8.442 1.255 8.442 1.255 8.441 1.255 Z M 4.259 8.627 L 2.877 8.986 L 3.236 7.604 L 8.735 2.134 L 9.758 3.158 L 4.259 8.627 Z M 10.059 0.81 L 11.082 1.833 L 10.345 2.571 L 9.321 1.548 L 10.059 0.81 Z" id="Shape" fill-rule="nonzero" style="fill: rgb(135, 135, 135); stroke: rgb(135, 135, 135); stroke-width: 0.4px;"/>
    </g>
  </g>
</svg>