<?xml version="1.0" encoding="UTF-8"?>
<svg width="20px" height="20px" viewBox="0 0 20 20" version="1.1" xmlns="http://www.w3.org/2000/svg" xmlns:xlink="http://www.w3.org/1999/xlink">
    <!-- Generator: Sketch 50 (54983) - http://www.bohemiancoding.com/sketch -->
    <title>speeddial</title>
    <desc>Created with Sketch.</desc>
    <defs></defs>
    <g id="Page-1" stroke="none" stroke-width="1" fill="none" fill-rule="evenodd">
        <g id="pencil-speeddial-icon-svg" transform="translate(-1.000000, 0.000000)">
            <g id="speeddial" transform="translate(1.000000, 0.000000)">
                <circle id="Oval-2" fill="#FFFFFF" cx="9.63024902" cy="10.3691406" r="9.5"></circle>
                <g id="pencil" transform="translate(3.015137, 4.951904)">
                    <path d="M8.07344628,1.59697664 L1.49633268,8.17409024 C1.44407796,8.22634496 1.40668404,8.29152512 1.38815988,8.36306432 L0.82365684,10.5371648 C0.78674676,10.6794829 0.82787316,10.8306483 0.93182964,10.9346739 C1.01062644,11.0134016 1.11644916,11.0561178 1.22503668,11.0561178 C1.25980404,11.0561178 1.29477876,11.0517632 1.32926964,11.0428467 L3.50337012,10.4782746 C3.57490932,10.4596813 3.6401586,10.4222874 3.6923442,10.3701018 L10.2693196,3.7931264 C10.2694578,3.79298816 10.269596,3.79291904 10.2696652,3.79284992 C10.2697343,3.7927808 10.2698725,3.79257344 10.2699416,3.79250432 L11.5940044,2.4684416 C11.7560216,2.30649344 11.7560216,2.04390656 11.5940735,1.88202752 L9.98461428,0.27236096 C9.90678516,0.19453184 9.80137716,0.150848 9.69133812,0.150848 C9.5813682,0.150848 9.47589108,0.19453184 9.39813108,0.27236096 L8.07413748,1.59635456 C8.07399924,1.5964928 8.073861,1.59656192 8.07379188,1.59663104 C8.07372276,1.59670016 8.07358452,1.59690752 8.07344628,1.59697664 Z M3.18576372,9.70378496 L1.80384756,10.062656 L2.16264948,8.68073984 L8.36699892,2.4763904 L9.39004404,3.49950464 L3.18576372,9.70378496 Z M9.69133812,1.1520512 L10.7143832,2.17516544 L9.97652724,2.91302144 L8.95348212,1.8899072 L9.69133812,1.1520512 Z" id="Shape" fill="#313131" fill-rule="nonzero"></path>
                    <path d="M7.55639648,3.02807617 L9.13753531,4.609215" id="Line" stroke="#313131" stroke-width="0.25" stroke-linecap="square"></path>
                </g>
            </g>
        </g>
    </g>
</svg>