<?xml version="1.0" encoding="UTF-8" standalone="no"?>
<svg width="50px" height="51px" viewBox="0 0 50 51" version="1.1" xmlns="http://www.w3.org/2000/svg" xmlnsXlink="http://www.w3.org/1999/xlink">
  <g id="Page-1" stroke="none" stroke-width="1" fill="none" fill-rule="evenodd">
    <g id="Cliqz-New-Tab-interaction" transform="translate(-1035.000000, -500.000000)" fill="#000000">
      <path d="M1062.08669,523.378158 L1062.08669,514.061039 L1057.64915,514.061039 L1057.64915,523.378158 L1048.33203,523.378158 L1048.33203,527.815689 L1057.64915,527.815689 L1057.64915,537.132809 L1062.08669,537.132809 L1062.08669,527.815689 L1071.40381,527.815689 L1071.40381,523.378158 L1062.08669,523.378158 Z M1037.18052,500.909527 L1082.55532,500.909527 L1082.55532,500.909527 C1083.65989,500.909527 1084.55532,501.804958 1084.55532,502.909527 L1084.55532,548.284321 C1084.55532,549.38889 1083.65989,550.284321 1082.55532,550.284321 L1037.18052,550.284321 C1036.07595,550.284321 1035.18052,549.38889 1035.18052,548.284321 L1035.18052,502.909527 L1035.18052,502.909527 C1035.18052,501.804958 1036.07595,500.909527 1037.18052,500.909527 L1037.18052,500.909527 Z" id="Combined-Shape"></path>
    </g>
  </g>
</svg>
