<?xml version="1.0" encoding="utf-8"?>
<!-- Generator: Adobe Illustrator 21.0.0, SVG Export Plug-In . SVG Version: 6.00 Build 0)  -->
<svg version="1.1" id="Layer_1" xmlns="http://www.w3.org/2000/svg" xmlns:xlink="http://www.w3.org/1999/xlink" x="0px" y="0px"
	 viewBox="0 0 24 24" style="enable-background:new 0 0 24 24;" xml:space="preserve">
<style type="text/css">
	.st0{fill:#262624;fill-opacity:0;}
</style>
<rect y="0" class="st0" width="24" height="24"/>
<title>Page 1 Copy 2</title>
<desc>Created with Sketch.</desc>
<g id="Clip-2">
</g>
<path d="M12,7.4c-2.6,0-4.7,2.1-4.7,4.7s2.1,4.7,4.7,4.7s4.7-2.1,4.7-4.7S14.6,7.4,12,7.4z M12,14.8c-1.5,0-2.8-1.2-2.8-2.8
	c0-1.5,1.2-2.8,2.8-2.8c1.5,0,2.8,1.2,2.8,2.8C14.7,13.6,13.5,14.8,12,14.8z M20.1,15c0.1,0,0.3,0,0.6,0c0.1,0,0.1,0,0.2,0
	c1,0,1.8-0.7,1.8-1.8c0-0.8,0-1.5,0-2.3c0-1-0.8-1.7-1.8-1.7c-0.1,0-0.1,0-0.3,0c-0.2,0-0.3,0-0.4,0c-0.2,0-0.1,0-0.2,0
	c-0.1-0.2-0.1-0.3-0.2-0.6c0-0.1,0-0.1-0.1-0.1c0-0.1-0.1-0.1,0-0.2c0-0.1,0.1-0.1,0.2-0.2c0.2-0.2,0.3-0.3,0.4-0.4
	C21,7,20.9,6,20.2,5.3c-0.3-0.6-0.9-1.1-1.4-1.7c-0.7-0.7-1.7-0.7-2.4,0c-0.1,0.1-0.3,0.3-0.5,0.5c0,0,0,0-0.1,0.1
	c-0.4-0.2-0.6-0.3-0.9-0.4c0-0.1,0-0.2,0-0.3s0-0.1,0-0.2c0-1-0.6-1.8-1.7-1.9c-0.8-0.1-1.6-0.1-2.4,0c-1.1,0.1-1.7,0.9-1.7,2
	c0,0,0,0.1,0,0.2c0,0.1,0,0.2,0,0.3C9,3.9,8.9,3.9,8.7,4C8.5,4.1,8.4,4.1,8.3,4.2c-0.1,0-0.1,0.1-0.2,0L8,4.1
	C7.7,3.7,7.6,3.6,7.4,3.5C6.7,3,5.9,3,5.3,3.6C4.6,4.2,4,4.8,3.5,5.4C2.8,6.1,2.8,7,3.5,7.7c0,0,0,0,0.1,0.1C3.9,8.1,4,8.2,4.1,8.4
	v0.1C3.9,8.7,3.9,8.9,3.8,9.1c0,0.1,0,0.1-0.1,0.1s-0.2,0-0.3,0c-0.3,0-0.5,0-0.6,0c-0.9,0-1.6,0.6-1.5,1.6c0,0.5,0,0.8,0,1.7
	c0,0.4,0,0.5,0,0.8c0,1,0.6,1.7,1.7,1.7c0.1,0,0.2,0,0.5,0c0.2,0,0.3,0,0.4,0c0.1,0.3,0.2,0.6,0.3,0.8C4.1,15.9,4,16,3.8,16.2
	c-0.1,0.1-0.2,0.2-0.2,0.2c-0.7,0.7-0.7,1.6,0,2.3C4,19.1,4.3,19.4,4.9,20c0.2,0.2,0.2,0.2,0.4,0.4c0.7,0.7,1.6,0.7,2.4,0
	c0.1-0.1,0.2-0.2,0.4-0.4c0.1-0.1,0.2-0.2,0.2-0.2c0.4,0.2,0.6,0.3,0.9,0.4c0,0.1,0,0.1,0,0.3c0,0.3,0,0.5,0,0.7
	c0,0.9,0.7,1.5,1.6,1.5c0.2,0,0.4,0,0.6,0c0.1,0,0.1,0,0.2,0c0.2,0,0.2,0,0.4,0c0.3,0,1,0,1.3,0c1,0,1.6-0.7,1.7-1.7
	c0-0.3,0-0.6,0-0.9c0,0,0,0,0.1,0c0.3-0.1,0.5-0.2,0.7-0.3c0.1,0,0.1,0,0.2,0.1c0.3,0.3,0.4,0.4,0.6,0.6c0.7,0.5,1.5,0.5,2.2-0.1
	c0.7-0.7,1.3-1.3,1.8-1.9c0.6-0.7,0.6-1.6-0.1-2.2c-0.1-0.1-0.1-0.1-0.3-0.3c-0.2-0.2-0.3-0.3-0.4-0.4C19.9,15.4,19.9,15.3,20.1,15
	C20.1,15.1,20.1,15.1,20.1,15z M18.4,14.3c0,0.1-0.1,0.1-0.1,0.2c-0.1,0.2-0.1,0.4-0.2,0.5c-0.4,0.7-0.3,1.5,0.3,2.1
	c0.1,0.1,0.2,0.2,0.5,0.5C18.5,18,18,18.5,17.5,19c-0.1-0.1-0.2-0.2-0.3-0.3c-0.6-0.6-1.4-0.8-2.2-0.5c-0.2,0.1-0.4,0.2-0.8,0.3
	c0,0,0,0-0.1,0.1c-0.8,0.3-1.2,1-1.2,1.8c0,0.2,0,0.3,0,0.5H11c0-0.1,0-0.2,0-0.3c0,0,0,0,0-0.1s0-0.2,0-0.3c0-0.8-0.4-1.4-1.2-1.7
	c-0.2-0.1-0.5-0.2-0.8-0.3c-0.8-0.3-1.5-0.2-2.1,0.4c-0.1,0.1-0.1,0.1-0.2,0.2S6.6,18.9,6.5,19c-0.1-0.1-0.1-0.1-0.3-0.3
	c-0.5-0.5-0.8-0.8-1.1-1.1c0.2-0.2,0.3-0.3,0.5-0.5c0.6-0.6,0.7-1.3,0.3-2.1c-0.1-0.2-0.2-0.5-0.3-0.7C5.3,13.5,4.7,13,3.8,13
	c-0.1,0-0.2,0-0.5,0c-0.1,0-0.1,0-0.2,0c0-0.1,0-0.3,0-0.5c0-0.7,0-1,0-1.4c0.1,0,0.1,0,0.3,0c0.1,0,0.2,0,0.3,0
	c0.9,0,1.5-0.4,1.9-1.3c0.1-0.2,0.1-0.3,0.3-0.7V9c0.3-0.8,0.2-1.6-0.5-2.2c-0.1,0-0.2-0.1-0.3-0.3c0.4-0.4,0.8-0.9,1.3-1.4
	c0.1,0.1,0.1,0.1,0.2,0.2s0.1,0.1,0.1,0.1C7.3,6,8.1,6.2,9,5.8c0.1,0,0.2-0.1,0.4-0.2c0.3,0.1,0.4,0,0.6,0c0.7-0.3,1.1-0.9,1-1.7
	c0-0.1,0-0.2,0-0.4c0-0.1,0-0.1,0-0.2c0,0,0,0,0-0.1c0.6,0,1.3,0,1.9,0c0,0.1,0,0.1,0,0.2c0,0.2,0,0.3,0,0.4c0,0.7,0.3,1.3,0.9,1.6
	c0.4,0.2,0.8,0.4,1.5,0.6c0.6,0.3,1.2,0.1,1.7-0.3c0.1-0.1,0.1-0.1,0.2-0.2c0.2-0.2,0.3-0.3,0.4-0.4C18.1,5.6,18.5,6,19,6.5
	c0,0-0.1,0.1-0.2,0.2s-0.2,0.2-0.2,0.2c-0.6,0.6-0.8,1.4-0.4,2.3c0,0.1,0,0.1,0.1,0.2c0.1,0.2,0.1,0.3,0.1,0.3
	c0.3,1,0.9,1.4,1.9,1.4c0.2,0,0.3,0,0.5,0c0,0,0,0,0.1,0c0,0.6,0,1.3,0,1.9c0,0-0.1,0-0.2,0c-0.3,0-0.5,0-0.7,0
	C19.2,13.2,18.6,13.6,18.4,14.3z"/>
</svg>
