<?xml version="1.0" encoding="UTF-8"?>
<svg width="22px" height="22px" viewBox="0 0 22 22" version="1.1" xmlns="http://www.w3.org/2000/svg" xmlns:xlink="http://www.w3.org/1999/xlink">
    <!-- Generator: Sketch 50 (54983) - http://www.bohemiancoding.com/sketch -->
    <title>soccer icon</title>
    <desc>Created with Sketch.</desc>
    <defs></defs>
    <g id="Page-1" stroke="none" stroke-width="1" fill="none" fill-rule="evenodd">
        <g id="soccer-icon-hover-white-24x24px" transform="translate(-1.000000, -1.000000)" fill="#FFFFFF">
            <path d="M19.339038,14.7467311 L19.339038,14.7557879 C19.2751371,14.6737735 19.2416772,14.5723875 19.2439414,14.4687373 C19.1309829,13.644819 19.083183,12.8075671 18.8909774,12.0020139 C18.7495905,11.539865 18.7495905,11.0457655 18.8909774,10.583365 C19.0381506,10.0686362 19.1236871,9.74082989 19.2177773,9.21377374 C19.6203023,9.32698389 19.9747759,9.31415341 20.1083638,9.74384882 C20.6613325,11.4855241 20.6125264,13.3620452 19.9702475,15.0727764 C19.7531355,14.9776798 19.5423131,14.8687465 19.339038,14.7467311 M18.3563739,15.5392022 C18.0132213,15.9163178 17.7135918,16.3344406 17.3900623,16.7306761 C16.9978521,17.2041461 16.4964569,17.4549695 15.9266325,17.3392436 C15.2639757,17.3223878 14.6101242,17.1830136 13.9982863,16.9276618 C13.8355152,16.8692957 13.7265819,16.7150783 13.7260787,16.5419925 C13.6017992,15.6164367 13.4475818,14.6928934 13.3127359,13.7696018 C13.3014149,13.6848199 13.3263211,13.5992834 13.3811652,13.5338731 C14.1824414,12.8060576 14.9200685,12.0110708 15.5859957,11.1577178 C15.6534186,11.0902949 15.7485152,11.0578413 15.8431085,11.069917 C16.6187239,11.250047 17.392075,11.438479 18.1634135,11.6420057 C18.25851,11.6908118 18.3302097,11.7755936 18.3626633,11.8777344 C18.6368835,12.5997635 18.6799033,13.3625484 18.7911008,14.1187922 C18.8861974,14.6350305 18.7239295,15.164854 18.3563739,15.5392022 M16.2106642,19.4019325 C16.1379581,19.7405566 14.2699906,20.3659798 13.1990226,20.5332793 C12.4596345,20.6739114 11.7006234,20.6739114 10.9612353,20.5332793 C10.8729314,20.5219583 10.7939359,20.4968004 10.7146888,20.47441 C10.3536742,20.4074902 10.0953034,20.0874829 10.1058697,19.720682 C10.0334152,18.6323551 10.0200816,18.6167572 11.035954,18.2567489 C11.7939588,17.9875604 12.5655489,17.7455422 13.2219162,17.2544617 C13.2850623,17.2179829 13.3607873,17.2106872 13.4299713,17.2340839 C13.892875,17.4008802 14.3640808,17.5427703 14.8418277,17.6595025 C15.343726,17.7259191 15.849398,17.7626495 16.3555732,17.7704485 C16.3668942,18.3080709 16.2106642,19.4019325 16.2106642,19.4019325 M9.37025533,12.3013919 C8.78860674,11.4022517 8.42155427,10.3808446 8.29752626,9.31717235 C8.35815659,9.13452664 8.4441963,8.96118932 8.55363278,8.80294669 C9.18333279,8.12519526 9.83592641,7.46606061 10.4865074,6.80692596 C10.5524209,6.74528932 10.6397185,6.71208101 10.730035,6.71459679 C11.760499,6.83007114 12.7824092,6.98328221 13.747966,7.39888925 C13.9235676,7.46027431 14.0601745,7.59990016 14.1172827,7.77675957 C14.4008112,8.58457689 14.7049692,9.38635633 14.9884977,10.1944252 C15.0222092,10.3073838 15.0068629,10.4291476 14.9464842,10.530282 C14.3079789,11.3803644 13.580415,12.160005 12.7763714,12.8556185 C12.6988853,12.9122236 12.6025309,12.9363751 12.507686,12.9227898 C11.5436386,12.7690756 10.5811008,12.6073109 9.61982081,12.4379988 C9.52246009,12.4251683 9.43340143,12.3766138 9.37025533,12.3013919 M9.55969365,19.9093656 C9.58384514,20.0037073 9.46082345,20.0955334 9.44145193,20.0937723 C8.78760042,20.1707552 8.21727285,19.9196803 7.6673231,19.6275981 C6.57220358,19.0487168 5.62450884,18.2258048 4.89795125,17.2225113 C4.65568153,16.8919377 4.67153095,16.4959537 4.58800702,16.1316686 C4.55983027,15.8858768 4.62171848,15.6956838 4.64964366,15.449892 C5.35557183,16.0018543 6.09194097,16.081353 6.86805944,16.0722962 C7.10278181,16.0534278 7.31108849,16.0592141 7.43662597,16.258464 C8.04091659,17.0889234 8.65099351,17.9415216 9.52422113,18.5163776 C9.57227255,18.5641774 9.58258725,18.5830458 9.58082621,18.6507203 C9.58082621,19.0602894 9.54610843,19.4997964 9.55969365,19.9093656 M4.19076518,12.0566064 C4.40687078,11.1232516 4.8571956,10.2603387 5.49871978,9.54887579 C5.58727527,9.44598034 5.72463692,9.39893523 5.85772174,9.42585409 C6.40339467,9.4809497 6.95334442,9.50862329 7.50128154,9.54686316 L7.92594539,9.57881358 C7.92292646,10.4115371 8.11110688,11.2336944 8.47589514,11.9823909 C8.6097347,12.2689383 8.77728572,12.5406427 8.91112528,12.8317186 C8.94106307,12.9147393 8.9372894,13.0063138 8.900559,13.0863156 C8.47589514,13.8528741 8.05123129,14.6133947 7.62656744,15.3817143 C7.57700655,15.5276296 7.43033652,15.6169398 7.27838334,15.5942978 C6.82805852,15.5454916 6.36943162,15.536938 5.92564783,15.4521562 C5.47054303,15.3648586 5.0836159,15.0669901 4.88310814,14.6493704 C4.52108724,13.9147623 4.28284277,13.1258134 4.1779347,12.3134676 C4.1663621,12.2279311 4.17089051,12.1408851 4.19076518,12.0566064 M3.48961699,11.2719343 C3.46345286,11.375836 3.40860883,11.4699262 3.33137435,11.5436386 C3.37514895,9.4832139 4.25290497,7.52870356 5.76388311,6.12665874 L5.53746281,6.57924777 C5.25443743,7.15435533 5.07430751,7.77474695 5.00562668,8.4119943 C4.9870099,8.56067697 4.9238638,8.70030282 4.82474202,8.81250666 C4.19604832,9.51843484 3.73893089,10.3602152 3.48961699,11.2719343 M14.1205532,3.64484068 C14.3331367,3.72911935 14.4440827,3.95503649 14.6010674,4.12132962 C15.0332786,4.5376914 15.3152977,4.90700806 15.743232,5.42249161 C15.396809,5.60564048 15.3492607,5.64941507 15.0888774,5.81017348 C14.7384291,6.0363422 14.4101196,6.26251092 14.0571555,6.48893122 C13.9804242,6.53924685 13.8858308,6.55484469 13.7970238,6.53195108 C12.7268105,6.034078 11.5818785,5.85294176 10.4256255,5.71054855 C10.2905281,5.68413285 10.1700221,5.60916257 10.0862466,5.50022925 C9.73529517,5.03405501 9.46736448,4.63480055 9.11213619,4.13466326 C9.61227347,3.83226637 10.1340465,3.58119142 10.7048772,3.45666025 C11.8860364,3.11954558 12.9937349,3.280304 14.1205532,3.64484068 M19.7994259,8.51715395 C19.3807999,8.36268499 19.0145022,8.09274168 18.7427979,7.73877128 C18.2064333,7.08013978 17.5840291,6.49421436 17.0003679,5.8765901 C16.8443894,5.71130328 16.7019962,5.53469545 16.5477788,5.3628676 L15.3917774,4.06170561 C17.3978613,4.89744809 18.9855707,6.50201329 19.7994259,8.51715395 M11.9149679,1 C4.54750294,1.05735981 1.00100631,6.78101341 1,12.1710744 C1,17.4476737 5.59205526,22.7008763 11.9542141,22.7008763 C18.0031582,22.7008763 22.799998,18.0975 22.799998,12.1718292 C22.8025138,6.78201972 18.8180197,1 11.9149679,1" id="soccer-icon"></path>
        </g>
    </g>
</svg>
