<?xml version="1.0" encoding="UTF-8"?>
<svg width="30px" height="30px" viewBox="0 0 30 30" version="1.1" xmlns="http://www.w3.org/2000/svg" xmlns:xlink="http://www.w3.org/1999/xlink">
    <!-- Generator: Sketch 50 (54983) - http://www.bohemiancoding.com/sketch -->
    <title>soccer-icon</title>
    <desc>Created with Sketch.</desc>
    <defs></defs>
    <g id="Page-1" stroke="none" stroke-width="1" fill="none" fill-rule="evenodd">
        <g id="New-feature:-Soccer-1" transform="translate(-559.000000, -242.000000)" fill="#4A4A4A" fill-rule="nonzero">
            <g id="Message" transform="translate(534.522568, 226.697269)">
                <g id="soccer-icon" transform="translate(24.943359, 15.292159)">
                    <path d="M14.8426228,0.289761814 C6.7224741,0.287716437 0.138403878,6.86905948 0.136358501,14.9892082 C0.134313123,23.1093569 6.71565617,29.6934272 14.8358049,29.6954725 C22.95459,29.6975179 29.5383194,23.1182202 29.5420692,14.9994351 C29.5458191,6.87928637 22.9661805,0.293511673 14.8460318,0.289761814 C14.8450091,0.289761814 14.8436455,0.289761814 14.8426228,0.289761814 Z M26.6410421,9.88599132 C26.0103841,9.65315918 25.4581321,9.24681084 25.0490566,8.71330821 C24.2411325,7.72130011 23.3036678,6.83837882 22.4241555,5.90773205 C22.1889371,5.65887779 21.9741724,5.39297871 21.742363,5.13389756 L20.0003831,3.17374411 C23.0227693,4.43233307 25.4148383,6.85031019 26.6410421,9.88599132 Z M18.5686189,2.5737667 C18.8887204,2.70092101 19.0557596,3.04147636 19.2926825,3.29169421 C19.9437943,3.91894332 20.3685511,4.4756269 21.0131859,5.25184766 C20.4916146,5.52797363 20.4196855,5.5941075 20.0276548,5.83614384 C19.4992656,6.17704009 19.0049661,6.51793634 18.4731679,6.8588326 C18.3576041,6.93485246 18.2151094,6.9583743 18.0811372,6.92360288 C16.4686979,6.17363113 14.7437629,5.90091413 13.0017831,5.68614949 C12.7986089,5.64626463 12.6165703,5.53342797 12.4904387,5.36911597 C11.9620495,4.66686969 11.5584283,4.06518781 11.0232212,3.31180709 C11.7769428,2.8563697 12.5623678,2.47797486 13.4227899,2.29048192 C15.2022684,1.7825465 16.8709555,2.02492374 18.5686189,2.5737667 Z M19.3294993,12.4546446 C18.3674901,13.7353918 17.2715086,14.9101203 16.0599633,15.9580354 C15.9433768,16.0432594 15.798155,16.0797353 15.6553195,16.0592815 C14.2031015,15.8274721 12.7525879,15.5840722 11.3044606,15.3287409 C11.1578752,15.3093098 11.0235621,15.2360171 10.9281112,15.1231804 C10.0520078,13.7681178 9.49941497,12.2296531 9.31226292,10.6270998 C9.40328222,10.3519965 9.5331637,10.09087 9.69815748,9.85258348 C10.6468718,8.83125831 11.6300165,7.83856843 12.6104342,6.84553764 C12.7092941,6.75247297 12.8412209,6.70236122 12.9772385,6.70645197 C14.5296801,6.88030906 16.0695084,7.11109582 17.5241127,7.73732224 C17.7883073,7.82970512 17.9942087,8.04003811 18.0804554,8.30661898 C18.5072575,9.5239595 18.965763,10.7317549 19.3925651,11.9490954 C19.4436995,12.1188618 19.4208595,12.302264 19.3294993,12.4546446 Z M13.2404104,1.65334682 C10.915498,2.55910817 8.65569674,3.62440895 6.47702879,4.84072678 C8.3318453,3.08102033 10.7027787,1.96390331 13.2404104,1.65334682 Z M1.86129354,14.4437742 C1.92776831,11.3395729 3.24976397,8.39491111 5.52592825,6.28271793 L5.185032,6.96451043 C4.75857079,7.83106871 4.48755827,8.76546534 4.3839258,9.72577008 C4.35597231,9.94973892 4.26086226,10.1600719 4.1112088,10.3291564 C3.16385812,11.3927528 2.47558858,12.6608868 2.09992091,14.0346987 C2.06071785,14.1908292 1.97788006,14.332642 1.86129354,14.4437742 Z M2.84137026,14.7543307 C3.16692618,13.3481337 3.84496883,12.0479553 4.8120915,10.9761775 C4.94572283,10.8210697 5.15230596,10.7501633 5.35275295,10.79073 C6.17499471,10.8739087 7.00337261,10.915498 7.82868243,10.9731095 L8.4685447,11.0211758 C8.46411305,12.275674 8.74739783,13.5148319 9.29726349,14.6425167 C9.49873317,15.0744323 9.75167819,15.4838487 9.95314788,15.9222413 C9.99814618,16.0473502 9.99235095,16.1850723 9.93712575,16.3060904 C9.29726349,17.4610469 8.65740122,18.6061175 8.01753896,19.764142 C7.94288268,19.9833383 7.72198191,20.1179923 7.49289963,20.0839027 C6.81485698,20.0102691 6.12386028,19.997656 5.45502183,19.869479 C4.76913857,19.7382339 4.18654687,19.2896144 3.8841719,18.66032 C3.3387379,17.5537707 2.97977414,16.3647246 2.82193918,15.1412479 C2.80455347,15.0123892 2.8110305,14.8811441 2.84137026,14.7543307 Z M11.00754,27.1660223 C10.0223498,27.2819271 9.16329126,26.9035322 8.33491337,26.4637761 C6.68463461,25.5914226 5.257302,24.3515829 4.16234324,22.8400489 C3.79758425,22.3423404 3.82144699,21.7457719 3.69531537,21.196929 C3.65304424,20.8267156 3.65133976,20.625246 3.69361089,20.2550326 C4.7572072,21.0868195 5.96125276,21.1209091 7.13052691,21.1072733 C7.48437722,21.0793198 7.79834267,21.0875013 7.98719919,21.3878309 C8.89739219,22.6389201 9.81644848,23.9237581 11.132308,24.7896346 C11.204578,24.8615637 11.2202592,24.8898581 11.2175321,24.9921269 C11.2175321,25.6091492 11.1650341,26.2715106 11.1854878,26.8881919 C11.2219637,27.0303456 11.0368571,27.1684086 11.00754,27.1660223 Z M21.2344276,26.3035548 C21.1249999,26.8135356 18.3102195,27.7564547 16.6970984,28.0080361 C15.5833904,28.2200736 14.4393426,28.2200736 13.3256345,28.0080361 C13.192685,27.9909913 13.0733713,27.9534927 12.9540576,27.9194031 C12.4103281,27.8188387 12.0210245,27.3368114 12.0370467,26.7842185 C11.9279599,25.1445076 11.9075061,25.1206448 13.4381303,24.5786198 C14.5801327,24.1729533 15.7425889,23.8081943 16.7311881,23.0684494 C16.8262981,23.0135651 16.9408393,23.0023155 17.0448126,23.0377687 C17.7419455,23.2890093 18.4520323,23.5030921 19.1720052,23.6786537 C19.928454,23.7785363 20.6896753,23.8341024 21.4526012,23.8456928 C21.4693051,24.6556623 21.2344276,26.3035548 21.2344276,26.3035548 Z M24.4668058,20.0010649 C23.950348,20.569339 23.4983196,21.1986334 23.0108379,21.7958837 C22.4200647,22.5093795 21.6646386,22.8870926 20.8062619,22.7125537 C19.8077767,22.6876683 18.8229275,22.4773353 17.901144,22.0928043 C17.6560396,22.0045122 17.4920685,21.7723618 17.4910458,21.5119171 C17.3038938,20.1173105 17.0714025,18.7261129 16.8678875,17.3349153 C16.8508426,17.2074201 16.8883412,17.0785613 16.971179,16.9797014 C18.1782927,15.8833791 19.2896144,14.6854697 20.2928721,13.3999499 C20.3944592,13.2983628 20.5376356,13.2492737 20.6801302,13.2676821 C21.8487226,13.5386947 23.013906,13.8230021 24.1760213,14.1294679 C24.3195386,14.2031015 24.4276028,14.3309376 24.4763509,14.4846818 C24.8895172,15.5724817 24.9539466,16.721643 25.1220084,17.8612591 C25.2651848,18.6385026 25.0207622,19.4372225 24.4668058,20.0010649 Z M26.1842411,18.8208821 C26.0881084,18.6971368 26.0376558,18.5444152 26.0410647,18.3879438 C25.8706166,17.1470815 25.7990284,15.8857654 25.5092666,14.6721747 C25.2965473,13.9757237 25.2965473,13.2312062 25.5092666,12.5347552 C25.7308491,11.7592162 25.859367,11.2652576 26.0015207,10.4713102 C26.6083161,10.6417583 27.1421596,10.6223272 27.3432884,11.2700301 C28.1764388,13.8935677 28.1031461,16.7213021 27.1353417,19.2981368 C26.8080813,19.1549604 26.490366,18.9909893 26.1842411,18.8072462 L26.1842411,18.8208821 Z" id="Shape"></path>
                </g>
            </g>

        </g>
    </g>
</svg>
