<?xml version="1.0" encoding="UTF-8"?>
<svg width="22px" height="22px" viewBox="0 0 22 22" version="1.1" xmlns="http://www.w3.org/2000/svg" xmlns:xlink="http://www.w3.org/1999/xlink">
    <!-- Generator: Sketch 50 (54983) - http://www.bohemiancoding.com/sketch -->
    <title>soccer icon</title>
    <desc>Created with Sketch.</desc>
    <defs></defs>
    <g id="Page-1" stroke="none" stroke-width="1" fill="none" fill-rule="evenodd">
        <g id="soccer-icon-hover-black-24x24px" transform="translate(-1.000000, -1.000000)" fill="#000000">
            <path d="M19.3415808,14.809522 L19.3415808,14.8186202 C19.2776711,14.7362311 19.2442066,14.634382 19.2464711,14.5302584 C19.1334969,13.7025767 19.0856904,12.8615004 18.8934581,12.0522678 C18.7520516,11.5880078 18.7520516,11.0916515 18.8934581,10.6271389 C19.0406517,10.1100589 19.1262001,9.78075532 19.2203034,9.25129175 C19.6228842,9.36501901 19.9774069,9.35212992 20.1110134,9.78378805 C20.6640587,11.5334188 20.6152458,13.4185113 19.9728779,15.1370565 C19.7557358,15.0415256 19.5448841,14.9320947 19.3415808,14.809522 M18.3587805,15.6056128 C18.0155804,15.984451 17.7159093,16.4044836 17.392335,16.802529 C17.0000703,17.2781617 16.4986056,17.5301308 15.9287022,17.4138762 C15.2659536,17.3969435 14.6120114,17.2569326 14.0000886,17.0004145 C13.837295,16.9417817 13.7283466,16.7868599 13.7278433,16.6129836 C13.6035465,15.6832001 13.4493077,14.7554384 13.3144432,13.8279294 C13.3031206,13.7427603 13.3280303,13.656833 13.3828819,13.591124 C14.1842693,12.8599841 14.9219986,12.061366 15.5880182,11.2041152 C15.6554505,11.1363843 15.7505602,11.1037824 15.8451667,11.1159133 C16.6208895,11.2968661 17.3943479,11.4861588 18.1657933,11.6906151 C18.260903,11.7396442 18.3326127,11.8248133 18.3650708,11.9274205 C18.639329,12.6527477 18.6823548,13.4190167 18.7935677,14.1787148 C18.8886775,14.6973111 18.7263871,15.2295547 18.3587805,15.6056128 M16.2127733,19.4859869 C16.1400571,19.8261578 14.2718306,20.4544377 13.2007141,20.6225013 C12.4612235,20.7637758 11.7021071,20.7637758 10.9626165,20.6225013 C10.8743004,20.6111286 10.7952939,20.5858559 10.7160358,20.5633631 C10.3549711,20.4961377 10.0965646,20.1746686 10.1071323,19.8061923 C10.0346678,18.7128943 10.0213323,18.6972252 11.0373456,18.3355725 C11.7954555,18.0651543 12.5671526,17.8220307 13.2236109,17.3287072 C13.2867657,17.2920617 13.3625013,17.2847326 13.4316948,17.3082363 C13.8946627,17.4757944 14.3659339,17.6183326 14.843747,17.735598 C15.3457149,17.802318 15.851457,17.8392162 16.3577023,17.8470507 C16.3690249,18.3871289 16.2127733,19.4859869 16.2127733,19.4859869 M9.37141594,12.3530132 C8.7896867,11.449766 8.42258334,10.4236934 8.29853813,9.35516265 C8.35917686,9.17168267 8.44522851,8.9975536 8.55468016,8.83858816 C9.18446749,8.15774097 9.83715159,7.49559559 10.4878228,6.83345022 C10.5537454,6.77153204 10.6410551,6.73817205 10.7313842,6.74069932 C11.761991,6.85670112 12.784043,7.01061202 13.7497337,7.42811742 C13.9253595,7.48978287 14.0619854,7.63004649 14.1191015,7.80771374 C14.4026694,8.61922092 14.7068695,9.42466264 14.9904373,10.2364225 C15.0241535,10.3498971 15.0088051,10.4722171 14.948418,10.5738134 C14.3098242,11.4277788 13.5821594,12.2109805 12.7780043,12.9097713 C12.7005075,12.9666349 12.6041397,12.9908968 12.5092816,12.9772495 C11.5451006,12.8228331 10.5824293,12.6603295 9.62101603,12.4902441 C9.5236418,12.477355 9.4345708,12.4285786 9.37141594,12.3530132 M9.56088053,19.9957378 C9.58503537,20.0905105 9.46199662,20.1827559 9.44262242,20.1809868 C8.78868025,20.2583214 8.21827359,20.0060996 7.66824758,19.7126832 C6.57297622,19.1311579 5.62515007,18.304487 4.89849174,17.2966108 C4.65618842,16.9645272 4.67204004,16.5667345 4.58850453,16.2007855 C4.56032387,15.953871 4.62222067,15.7628092 4.65014971,15.5158946 C5.35617577,16.0703782 6.09264701,16.15024 6.8688731,16.1411418 C7.10362802,16.1221873 7.31196358,16.128 7.43751846,16.32816 C8.04189288,17.1624126 8.65205439,18.0189053 9.52540309,18.596387 C9.57346118,18.6444052 9.58377731,18.6633597 9.58201602,18.7313434 C9.58201602,19.1427833 9.54729342,19.5842978 9.56088053,19.9957378 M4.19120761,12.1071096 C4.40734317,11.1694915 4.85773043,10.3026371 5.49934357,9.58792444 C5.58791134,9.484559 5.72529204,9.437299 5.85839531,9.46434082 C6.4041439,9.51968808 6.9541699,9.54748808 7.502183,9.58590262 L7.92690574,9.61799898 C7.92388638,10.4545262 8.1120929,11.2804388 8.47693174,12.0325551 C8.61078986,12.3204114 8.77836411,12.5933568 8.91222223,12.8857622 C8.94216417,12.9691622 8.93838998,13.0611549 8.90165448,13.1415222 C8.47693174,13.9115821 8.05220901,14.6755766 7.62748628,15.4474056 C7.57791852,15.5939874 7.43122814,15.6837055 7.27925389,15.6609601 C6.82886663,15.611931 6.37017614,15.6033383 5.92633082,15.5181692 C5.47116291,15.4304728 5.08418213,15.1312438 4.88364657,14.7117166 C4.52157547,13.973753 4.28329797,13.1812004 4.17837535,12.3651441 C4.16680115,12.2792168 4.17133018,12.1917732 4.19120761,12.1071096 M3.48996219,11.3188533 C3.46379444,11.4232297 3.40894281,11.5177497 3.33169762,11.5917987 C3.37547828,9.52196263 4.25335602,7.55852468 5.76454366,6.15007575 L5.53809197,6.60473206 C5.25502735,7.18246654 5.07487245,7.80569192 5.0061821,8.44585003 C4.98756274,8.59521183 4.92440788,8.73547545 4.82527236,8.8481918 C4.19649148,9.55734444 3.73931067,10.4029698 3.48996219,11.3188533 M14.1223725,3.6569215 C14.3349855,3.74158513 14.4459468,3.96853419 14.6029533,4.1355869 C15.0352244,4.55385049 15.3172826,4.92485408 15.7452763,5.4426922 C15.3988052,5.62667763 15.3512504,5.67065217 15.0908309,5.83214488 C14.740334,6.05934667 14.4119791,6.28654846 14.058966,6.51400298 C13.9822241,6.56454843 13.8876176,6.58021752 13.7987982,6.55721934 C12.7284365,6.05707213 11.5833458,5.87510851 10.4269325,5.73206489 C10.2918163,5.70552853 10.1712937,5.63021582 10.0875065,5.52078492 C9.7365064,5.05248134 9.46853856,4.6514032 9.11326101,4.14898145 C9.61346764,3.8452033 10.135313,3.59298151 10.7062229,3.46788153 C11.8875459,3.12922702 12.9953979,3.29071973 14.1223725,3.6569215 M19.8020326,8.55149001 C19.3833486,8.39631549 19.0170001,8.12513916 18.7452581,7.76955193 C18.2088191,7.107912 17.5863286,6.51931026 17.0025865,5.89886487 C16.8465864,5.73282308 16.7041734,5.55540855 16.5499347,5.38279584 L15.393773,4.07569054 C17.400135,4.91525045 18.9880646,6.5271448 19.8020326,8.55149001 M11.9164814,1 C4.54799484,1.05762181 1.00100645,6.80741931 1,12.2221005 C1,17.5228017 5.59269199,22.7999992 11.955733,22.7999992 C18.0055158,22.7999992 22.8030208,18.1755961 22.8030208,12.2228587 C22.8055369,6.80843022 18.8204903,1 11.9164814,1" id="soccer-icon"></path>
        </g>
    </g>
</svg>