<?xml version="1.0" encoding="utf-8"?>
<svg width="34px" height="34px" viewBox="0 0 34 34" version="1.1" xmlns="http://www.w3.org/2000/svg">
  <title>Group 14</title>
  <desc>Created with Sketch.</desc>
  <g id="Page-1" stroke="none" stroke-width="1" fill="none" fill-rule="evenodd" opacity="0.87" transform="matrix(1, 0, 0, 1, -0.180851, 0)">
    <g id="GhosteryTab-Specs" transform="translate(-578.000000, -572.000000)">
      <g id="Group-5-Copy" transform="translate(557.138672, 523.000000)">
        <g id="Icon_anti-tracking" transform="matrix(1, 0, 0, 1, 23.185452, 50.431004)" fill-rule="nonzero" stroke="#00ADF3" stroke-width="3">
          <path d="M15.3190446,0.548101805 C15.1274544,0.483966065 14.8725456,0.483966065 14.6809554,0.548101805 L0.957542416,4.1862728 C0.38318037,4.3137272 0,4.824362 0,5.39872415 C0.0641357335,15.1649214 5.2979384,24.2284853 14.297775,30.2923758 C14.4893652,30.4198304 14.7446826,30.483966 15,30.483966 C15.2553174,30.483966 15.5106348,30.4198304 15.702225,30.2923758 C24.7020617,24.2284853 29.9358642,15.1649214 30,5.39872415 C30,4.824362 29.6168196,4.3137272 29.0424576,4.1862728 L15.3190446,0.548101805 Z" id="Page-1-Copy-3"/>
        </g>
        <path d="M 47.326 73.737 C 44.961 71.493 41.764 70.116 38.246 70.116 C 34.686 70.116 31.455 71.526 29.081 73.818" id="Oval-7" stroke-width="2" style="stroke: rgb(0, 174, 240);"/>
        <circle id="Oval-2" stroke-width="2" cx="38.159" cy="61.751" r="3.913" style="stroke: rgb(0, 174, 240);"/>
      </g>
    </g>
  </g>
</svg>