<?xml version="1.0" encoding="utf-8"?>
<svg width="34px" height="34px" viewBox="0 0 34 34" version="1.1" xmlns="http://www.w3.org/2000/svg">
  <title>Ad-blocking</title>
  <desc>Created with Sketch.</desc>
  <g id="Group-20" transform="matrix(1, 0, 0, 1, -21.711611, -48.46442)" fill="#00ADF3" fill-rule="nonzero" stroke="#00ADF3" stroke-width="0.75" opacity="0.87">
    <g id="Icon_Ad-blocking" transform="translate(16.640625, 43.202486)">
      <g id="Group-10" transform="translate(0.000000, 0.500000)">
        <g id="Ad-blocking" transform="translate(6.333207, 6.096774)">
          <path d="M6.67584009,25.9227498 C7.7282881,26.9770243 8.77526413,28.0312989 9.83318415,29.0764533 C9.90979215,29.1530616 10.0593601,29.1931896 10.1779201,29.1931896 C13.7821442,29.1986616 17.3845443,29.2004856 20.9887683,29.1913656 C21.1200963,29.1913656 21.2860803,29.1220534 21.3791043,29.0308533 C23.9327043,26.4881911 26.4790084,23.9400571 29.0234884,21.386451 C29.1165124,21.2916029 29.1912964,21.1292664 29.1912964,20.9979381 C29.2022405,17.3827614 29.2004164,13.7694088 29.1967684,10.1542322 C29.1949444,10.055736 29.1730564,9.92623167 29.1110405,9.86056752 C28.0531204,8.78622895 26.9879044,7.72101042 25.9354564,6.66308788 C19.5058563,13.0908792 13.0981442,19.4986065 6.67584009,25.9227498 M5.21481607,24.4744904 C11.6407682,18.0503471 18.0521283,11.6371478 24.4707843,5.21847645 C23.4384003,4.18608999 22.3914243,3.13363947 21.3335043,2.08848498 C21.2550723,2.0118768 21.1073283,1.9681007 20.9924163,1.9681007 C17.3881923,1.96080468 13.7839682,1.96080468 10.1815681,1.9699247 C10.0484161,1.9699247 9.88060815,2.03376485 9.78758413,2.12678907 C7.22668811,4.67674716 4.66944007,7.23035325 2.11948803,9.79125536 C2.03923203,9.87333555 1.96992003,10.0119599 1.96992003,10.1232242 C1.96262403,13.7602888 1.96262403,17.3955296 1.96809603,21.0307701 C1.96809603,21.1292664 2.00457603,21.2514747 2.07206403,21.3171389 C3.12268804,22.3823574 4.18243206,23.44028 5.21481607,24.4744904 M31.1557445,15.6007092 C31.1557445,17.5450979 31.1484485,19.4876625 31.1612164,21.4302272 C31.1648644,21.8515721 31.0335364,22.174421 30.7362244,22.4717336 C27.9746885,25.2205082 25.2204483,27.9765787 22.4698563,30.7362973 C22.1834883,31.02449 21.8715843,31.1612903 21.4593603,31.1612903 C17.5432323,31.1521703 13.6252802,31.1521703 9.70550413,31.1612903 C9.29692813,31.1612903 8.98502413,31.028138 8.69500812,30.7399454 C5.93894409,27.9729308 3.17558405,25.2095642 0.406752006,22.4516696 C0.125856002,22.172597 0,21.8661642 0.00182400003,21.4685312 C0.00912000014,17.5505699 0.00912000014,13.6326085 0,9.71282316 C0,9.30424619 0.124032002,8.99051745 0.414048006,8.70050074 C3.18288005,5.94260618 5.94624009,3.18106359 8.70412812,0.412224983 C8.98320014,0.133152318 9.28598413,0 9.68361613,0 C13.6125122,0.0072960174 17.5414083,0.0072960174 21.4703043,0 C21.8697603,0 22.1743683,0.127680305 22.4516163,0.408576975 C25.2186243,3.18471159 27.9911045,5.9535502 30.7654084,8.72056481 C31.0353604,8.99051745 31.1630405,9.28965416 31.1612164,9.67451907 C31.1502724,11.6499158 31.1557445,13.6253125 31.1557445,15.6007092" id="Fill-1"/>
        </g>
      </g>
    </g>
  </g>
</svg>