<?xml version="1.0" encoding="UTF-8" standalone="no"?>
<svg width="41px" height="11px" viewBox="0 0 41 11" version="1.1" xmlns="http://www.w3.org/2000/svg" xmlns:xlink="http://www.w3.org/1999/xlink">
    <!-- Generator: Sketch 39 (31667) - http://www.bohemiancoding.com/sketch -->
    <title>CLIQZ</title>
    <desc>Created with Sketch.</desc>
    <defs></defs>
    <g id="Page-1" stroke="none" stroke-width="1" fill="none" fill-rule="evenodd">
        <path d="M5.768,10.168 C7.658,10.168 8.778,9.496 9.786,8.418 L8.414,7.032 C7.644,7.732 6.958,8.18 5.838,8.18 C4.158,8.18 2.996,6.78 2.996,5.1 L2.996,5.072 C2.996,3.392 4.186,2.02 5.838,2.02 C6.818,2.02 7.588,2.44 8.344,3.126 L9.716,1.544 C8.806,0.648 7.7,0.032 5.852,0.032 C2.842,0.032 0.742,2.314 0.742,5.1 L0.742,5.128 C0.742,7.942 2.884,10.168 5.768,10.168 L5.768,10.168 Z M12.564,0.2 L10.408,0.2 L10.408,10 L17.45,10 L17.45,8.04 L12.564,8.04 L12.564,0.2 Z M20.228,0.2 L18.072,0.2 L18.072,10 L20.228,10 L20.228,0.2 Z M31.1819999,6.08 C31.2519999,5.758 31.2939999,5.436 31.2939999,5.1 C31.2939999,2.37 29.1799999,0.172 26.2679999,0.172 C23.3419999,0.172 21.2139999,2.384 21.2139999,5.1 C21.2139999,7.83 23.3139999,10.014 26.2399999,10.014 C26.4219999,10.014 26.6039999,9.986 26.7999999,9.972 C26.5759999,9.342 26.3519999,8.684 26.1419999,8.068 C24.5039999,8.026 23.3839999,6.682 23.3839999,5.1 L23.3839999,5.072 C23.3839999,3.434 24.5319999,2.09 26.2399999,2.09 C27.9059999,2.09 29.0819999,3.434 29.1099999,5.072 C29.8099999,5.394 30.4819999,5.73 31.1819999,6.08 L31.1819999,6.08 Z M25.8619999,4.61 L27.7799999,10.294 L28.7459999,8.39 L30.7619999,10.322 L31.2939999,9.594 L29.3199999,7.676 L30.9859999,7.116 L25.8619999,4.61 Z M37.4739999,2.09 L32.0839999,8.362 L32.0839999,10 L40.2459999,10 L40.2459999,8.11 L34.8559999,8.11 L40.2459999,1.838 L40.2459999,0.2 L32.2519999,0.2 L32.2519999,2.09 L37.4739999,2.09 Z" id="CLIQZ" fill="#B8B9B8"></path>
    </g>
</svg>
