<?xml version="1.0" encoding="UTF-8" standalone="no"?>
<svg width="14px" height="14px" viewBox="0 0 14 14" version="1.1" xmlns="http://www.w3.org/2000/svg" xmlns:xlink="http://www.w3.org/1999/xlink">
    <!-- Generator: Sketch 39 (31667) - http://www.bohemiancoding.com/sketch -->
    <title>Page 1</title>
    <desc>Created with Sketch.</desc>
    <defs></defs>
    <g id="Page-1" stroke="none" stroke-width="1" fill="none" fill-rule="evenodd">
        <g fill="#696969">
            <path d="M11.9015327,3.0411938 C11.8803506,3.00513276 11.8674435,2.96711768 11.8415773,2.94156282 C11.5630346,2.66642296 11.2828264,2.39288186 11.0021758,2.11977218 C10.9359751,2.05536479 10.8712836,2.05381678 10.8010494,2.11223515 C10.6066628,2.27393882 10.4068375,2.43003412 10.2204138,2.6000869 C9.98230967,2.8172398 9.56488587,2.87459232 9.26104944,2.72182144 C8.98130967,2.58118086 8.69378922,2.46048679 8.39167026,2.3730115 C8.22455502,2.32461713 8.08968141,2.22808217 7.98345836,2.09381128 C7.85977435,1.93748758 7.80942119,1.75809599 7.79885613,1.56274212 C7.78628736,1.3307943 7.76427249,1.09935402 7.74597881,0.867710721 C7.7419974,0.817438441 7.71241004,0.785336253 7.66374833,0.773485089 C7.63265167,0.765897299 7.59962937,0.76287741 7.5674658,0.762826655 C7.19667398,0.762116093 6.82590818,0.762116093 6.45514238,0.762852032 C6.42300483,0.762902787 6.38430967,0.75985752 6.36036914,0.775413758 C6.32784126,0.796552985 6.28854758,0.831751195 6.28370743,0.86524913 C6.26385242,1.00312359 6.25521301,1.14257143 6.24384126,1.28156248 C6.23246952,1.42057892 6.23377063,1.56149864 6.21019442,1.69843414 C6.14729851,2.06391691 5.91962937,2.28934279 5.56015725,2.39732288 C5.29496394,2.47698198 5.03762937,2.57564863 4.79299368,2.70542775 C4.5475513,2.83563829 4.29370372,2.8398509 4.03449554,2.74260538 C3.88835428,2.6877652 3.78366654,2.57917606 3.66817955,2.48446826 C3.51566283,2.35938393 3.3657223,2.23135584 3.21304944,2.10644914 C3.15775204,2.06122693 3.08392677,2.06252117 3.03492677,2.10921526 C2.91106059,2.22732086 2.78927621,2.34750739 2.66697138,2.467161 C2.51864424,2.61226796 2.37281524,2.7598619 2.22185985,2.90227887 C2.10533197,3.01218763 2.10072602,3.04857857 2.20788587,3.17082066 C2.37255502,3.35863749 2.5394881,3.54465254 2.70043606,3.73546388 C2.92235428,3.99854956 2.94439517,4.35558172 2.79016097,4.6634582 C2.66798625,4.90735869 2.55588216,5.15864396 2.46891561,5.41617203 C2.33516097,5.81233587 2.04472602,6.03966504 1.61858476,6.05577958 C1.38711636,6.06453472 1.15601227,6.0853948 0.925168401,6.10536667 C0.825242751,6.1140203 0.789071747,6.15888723 0.788785502,6.25554908 C0.788160967,6.45854149 0.788525279,6.6615339 0.788551301,6.86452632 C0.788551301,7.04427319 0.787874721,7.22402007 0.788967658,7.40374157 C0.789488104,7.4868266 0.832424907,7.53714963 0.908774349,7.54265649 C1.16155502,7.56095347 1.41417955,7.5829809 1.66732454,7.59348707 C2.01183383,7.60779982 2.35618699,7.8608615 2.44978922,8.18543619 C2.52996394,8.46341829 2.64539888,8.72652935 2.78344721,8.98108828 C2.88998253,9.17755875 2.91733197,9.38397708 2.86643234,9.60135838 C2.82354758,9.78458194 2.70267398,9.91948726 2.58164424,10.0554838 C2.44385613,10.2102849 2.30687472,10.3657965 2.17122045,10.522374 C2.11964424,10.5819089 2.12253271,10.6501737 2.17829851,10.7050646 C2.3063803,10.8310625 2.4364658,10.9551318 2.56543234,11.0802668 C2.70670743,11.2173546 2.84988216,11.352666 2.98795651,11.4927482 C3.09542862,11.6017688 3.14211264,11.6058799 3.25949926,11.5069341 C3.44954015,11.3467277 3.6361461,11.1820549 3.83360335,11.0309589 C4.11235428,10.817638 4.42982639,10.7830234 4.74467026,10.9264809 C5.03739517,11.0598382 5.32881896,11.1905563 5.63692305,11.2873704 C6.00701227,11.4036742 6.21781896,11.6941419 6.2350197,12.0707653 C6.24542862,12.2985258 6.27017584,12.5257535 6.29174833,12.752905 C6.30351041,12.876416 6.33463309,12.901311 6.46011264,12.9014125 C6.82439888,12.9017171 7.18865911,12.9016156 7.55291933,12.9014379 C7.58758104,12.9014125 7.62271115,12.9029352 7.65680037,12.898215 C7.7144658,12.8901958 7.75258848,12.8564187 7.75828736,12.7991677 C7.76958104,12.6856808 7.77660706,12.5717878 7.78579294,12.4580725 C7.79885613,12.2958612 7.80171859,12.1320513 7.82771487,11.9718448 C7.88483383,11.6198628 8.09717584,11.3883717 8.44249182,11.2781077 C8.714529,11.1912668 8.98349554,11.0987922 9.23476691,10.9632525 C9.49358476,10.823627 9.76153643,10.8115728 10.0259491,10.9334089 C10.139016,10.9855083 10.2375104,11.0711564 10.3357186,11.1497751 C10.4929974,11.2756461 10.6434584,11.4096125 10.7989416,11.5376913 C10.8834881,11.6073264 10.9609565,11.6006268 11.0347558,11.5280226 C11.3076777,11.2595823 11.5811201,10.9916496 11.8549788,10.7241483 C11.9241721,10.6565433 11.9271907,10.6027183 11.8643989,10.5314083 C11.6865104,10.3294563 11.5084398,10.1276566 11.3322948,9.92425818 C11.2454323,9.82394201 11.194871,9.70603943 11.1640086,9.57844275 C11.1115996,9.36194965 11.1667409,9.16370278 11.2671349,8.97314521 C11.4020086,8.71708902 11.5159602,8.45314052 11.5973059,8.17597048 C11.6780532,7.900856 11.9805364,7.65122025 12.2720123,7.62066607 C12.3945773,7.6078252 12.5180792,7.60373947 12.6410866,7.59462904 C12.8073952,7.58232109 12.9737297,7.57011464 13.1398561,7.55552274 C13.2011126,7.55011739 13.2455848,7.49966747 13.2442316,7.44508106 C13.241161,7.32283898 13.2358004,7.20057151 13.2351758,7.07830405 C13.2337967,6.80554965 13.2351498,6.53276987 13.2344993,6.25999009 C13.234239,6.15467462 13.1959862,6.11315748 13.0902316,6.10539205 C12.8418227,6.08714582 12.5934398,6.06785913 12.3447706,6.05395242 C12.0121015,6.03530016 11.6838561,5.80185508 11.5874175,5.4934203 C11.494752,5.19714121 11.3719268,4.91466734 11.2285178,4.63904531 C11.0604138,4.3159425 11.1090494,3.97426356 11.3509788,3.70138227 C11.5182242,3.51275337 11.6829193,3.3219674 11.8473283,3.13100379 C11.8687706,3.10610874 11.8818599,3.07436183 11.9015327,3.0411938 M10.8994918,12.3094634 C10.693187,12.3122295 10.5124621,12.2436603 10.3564844,12.1155561 C10.1660532,11.9591309 9.97905688,11.798696 9.79112379,11.6393778 C9.69752156,11.5600233 9.64737658,11.5520041 9.53862937,11.6076056 C9.25220186,11.7540829 8.95643234,11.8781268 8.64598625,11.9682159 C8.5689342,11.9905732 8.52277063,12.039196 8.51582268,12.1229155 C8.49328736,12.3945025 8.47059591,12.6661149 8.44228364,12.9371437 C8.41436171,13.2041121 8.27126506,13.4020544 8.03745465,13.5376195 C7.88881524,13.6238006 7.72656617,13.6571463 7.552529,13.6550653 C7.17746952,13.6505736 6.80217584,13.6479343 6.42722045,13.6551415 C5.96883755,13.663922 5.58180781,13.3388905 5.54545465,12.8733961 C5.52622416,12.6270594 5.50093048,12.3811541 5.47894164,12.134995 C5.46913123,12.0251878 5.44571115,11.9973997 5.33870743,11.9655259 C5.0291461,11.873229 4.73579665,11.7429677 4.44650669,11.6030123 C4.34174089,11.552334 4.29948067,11.5610891 4.21222788,11.635419 C4.03275204,11.7883421 3.85374461,11.9418236 3.67156245,12.0916 C3.43822045,12.2834264 3.17183011,12.3565128 2.87184498,12.283401 C2.71032454,12.2440156 2.57703829,12.155246 2.4606145,12.0402618 C2.31158476,11.8930486 2.15870372,11.7494896 2.01123532,11.6007791 C1.84445836,11.4326042 1.66807918,11.2709767 1.52084498,11.0874232 C1.32458476,10.8428122 1.32669257,10.4499727 1.51738401,10.2015297 C1.67151413,10.0006944 1.84453643,9.81353735 2.01162565,9.62237072 C2.15742862,9.45561699 2.18079665,9.45551548 2.07197138,9.2538173 C1.9304881,8.99151832 1.81526134,8.71858628 1.72826877,8.43441213 C1.70505688,8.35858498 1.65041004,8.32155961 1.5701052,8.31579898 C1.38006431,8.30219679 1.18997138,8.28889913 1.00016468,8.27245469 C0.806688848,8.2557311 0.610662825,8.25299036 0.434621933,8.15191287 C0.167034572,7.99827916 0.014101487,7.77173669 0.00626877323,7.4712196 C-0.0046866171,7.05066825 0.00153271375,6.62966011 0.00403085502,6.20888037 C0.0060866171,5.8632172 0.293060595,5.51691961 0.64142119,5.4537557 C0.853789219,5.41523307 1.07055502,5.39922004 1.28570743,5.37625366 C1.38035056,5.36615352 1.47606059,5.36579824 1.57096394,5.35772828 C1.67653643,5.34874475 1.70326134,5.32351979 1.73422788,5.22546219 C1.83077063,4.91979353 1.96486357,4.62932583 2.11139517,4.34388282 C2.15781896,4.2534384 2.14910149,4.20933278 2.07977807,4.13180536 C1.92028736,3.95345423 1.75845465,3.77698102 1.60307546,3.5952801 C1.26959963,3.20533368 1.31893792,2.72301417 1.68460335,2.39318639 C1.90873346,2.19100605 2.11652156,1.97167071 2.33419814,1.76256238 C2.45694535,1.6446598 2.57217212,1.52160564 2.73452528,1.44494105 C3.05668141,1.29280459 3.41896394,1.37155012 3.67247323,1.58578464 C3.86391933,1.74758982 4.05570372,1.90909047 4.24811264,2.06980443 C4.29935056,2.11259043 4.35800483,2.11847794 4.41780409,2.0877715 C4.72130223,1.93192997 5.03622416,1.80301368 5.36358476,1.70287515 C5.44485242,1.67803085 5.47415353,1.61877503 5.48084126,1.53891291 C5.50303829,1.27359404 5.52752528,1.00840205 5.55422416,0.743463834 C5.59341375,0.354710144 5.93089703,0.0393981398 6.33192677,0.0320133677 C6.77625762,0.0238672789 7.2210829,0.0220908732 7.66530967,0.0331045883 C7.94221301,0.0399818159 8.15681896,0.174328838 8.31368141,0.40026226 C8.42739888,0.564072239 8.44865911,0.749351349 8.46619814,0.936686015 C8.48550669,1.1428252 8.50317584,1.34919279 8.51621301,1.55576339 C8.52105316,1.63250411 8.55730223,1.67480794 8.62712007,1.70183469 C8.88643234,1.80217623 9.1451461,1.9039389 9.40352156,2.00656439 C9.45554015,2.02722145 9.50612751,2.052015 9.5554658,2.0783058 C9.63124275,2.11873172 9.69890074,2.11347863 9.76447695,2.05676054 C9.89747695,1.94180171 10.030581,1.82689364 10.1664175,1.71515773 C10.3050643,1.60106173 10.4387409,1.48001237 10.6148599,1.41786355 C10.8336814,1.34064066 11.0449565,1.34863449 11.2579491,1.44280936 C11.4112725,1.51059193 11.5212688,1.62537311 11.6350383,1.73812412 C11.8401721,1.94142105 12.0431461,2.1468243 12.2507,2.34773578 C12.395384,2.48779268 12.5243506,2.63358483 12.5747558,2.83457244 C12.6434546,3.10844344 12.5795959,3.35158262 12.4016294,3.56492894 C12.2322502,3.76794673 12.051239,3.96175259 11.8757967,4.15997408 C11.8316888,4.20984032 11.8231535,4.26473126 11.8565922,4.32403783 C12.0210532,4.61557138 12.1501758,4.92169683 12.2527037,5.23875986 C12.279819,5.32260621 12.3407892,5.35432774 12.4286665,5.36120496 C12.7007297,5.3824457 12.9725848,5.40665557 13.2440234,5.43418986 C13.6072428,5.47101221 13.9080866,5.7444518 13.971581,6.09460673 C13.9858413,6.17314923 13.9931015,6.25387418 13.9936219,6.3336348 C13.9958859,6.69734117 13.9953134,7.06104754 13.9943766,7.42475391 C13.9932836,7.84723393 13.6745885,8.20051026 13.2453766,8.24728048 C12.9873654,8.27539844 12.7281312,8.29364467 12.4691833,8.31298211 C12.3231721,8.32389432 12.3088859,8.32922354 12.260042,8.46522008 C12.1504621,8.77050808 12.0286517,9.07049224 11.8697335,9.35525007 C11.8391572,9.41001411 11.8456888,9.46409298 11.8898487,9.51373083 C12.0573543,9.70200445 12.2268896,9.88870469 12.389529,10.0809625 C12.5667149,10.2904261 12.6616442,10.5271703 12.6009602,10.8035282 C12.5677297,10.9548019 12.5022576,11.0928793 12.3893208,11.2040316 C12.0949565,11.4938395 11.80041,11.7835205 11.5022465,12.0695725 C11.3365104,12.2285862 11.1354621,12.3132446 10.8994918,12.3094634" id="Fill-1"></path>
            <path d="M8.44703011,6.84107522 C8.44401152,6.06998828 7.8335803,5.42713245 6.9969632,5.42888348 C6.17582937,5.43058375 5.55210074,6.038216 5.54981078,6.83693874 C5.5474948,7.63918891 6.20112305,8.24240552 6.99566208,8.25113528 C7.78569926,8.25981429 8.44622342,7.61315188 8.44703011,6.84107522 M9.15808959,6.83808071 C9.16667695,7.98579103 8.19367695,8.94400962 7.00084052,8.94499933 C5.80839442,8.94596367 4.83705985,7.99512985 4.83726803,6.83615204 C4.83747621,5.68582787 5.81344275,4.73372519 6.99886283,4.73387746 C8.19318253,4.73402972 9.169071,5.70120647 9.15808959,6.83808071" id="Fill-4"></path>
        </g>
    </g>
</svg>