<?xml version="1.0" encoding="utf-8"?>
<!-- Generator: Adobe Illustrator 20.0.0, SVG Export Plug-In . SVG Version: 6.00 Build 0)  -->
<svg version="1.1" id="Layer_1" xmlns="http://www.w3.org/2000/svg" xmlns:xlink="http://www.w3.org/1999/xlink" x="0px" y="0px"
	 viewBox="0 0 14 14" style="enable-background:new 0 0 14 14;" xml:space="preserve">
<style type="text/css">
	.st0{fill:#696969;}
</style>
<title>Page 1</title>
<desc>Created with Sketch.</desc>
<path class="st0" d="M14,6.1c-0.1-0.4-0.4-0.6-0.7-0.7c-0.3,0-0.5,0-0.8-0.1c-0.1,0-0.1,0-0.2-0.1c-0.1-0.3-0.2-0.6-0.4-0.9
	c0-0.1,0-0.1,0-0.2C12,4,12.2,3.8,12.4,3.6c0.2-0.2,0.2-0.5,0.2-0.7c0-0.2-0.2-0.3-0.3-0.5c-0.2-0.2-0.4-0.4-0.6-0.6
	c-0.1-0.1-0.2-0.2-0.4-0.3c-0.2-0.1-0.4-0.1-0.7,0c-0.2,0.1-0.3,0.2-0.4,0.3C10,1.8,9.9,1.9,9.8,2.1c-0.1,0-0.1,0.1-0.2,0
	c0,0-0.1,0-0.2-0.1C9.2,1.9,8.9,1.8,8.6,1.7c-0.1,0-0.1-0.1-0.1-0.1c0-0.2,0-0.4-0.1-0.6c0-0.2,0-0.4-0.2-0.5C8.2,0.2,7.9,0,7.7,0
	C7.2,0,6.8,0,6.3,0C5.9,0,5.6,0.3,5.5,0.7c0,0.3,0,0.5-0.1,0.8c0,0.1,0,0.1-0.1,0.2C5,1.8,4.7,1.9,4.4,2.1c-0.1,0-0.1,0-0.2,0
	C4.1,1.9,3.9,1.8,3.7,1.6C3.4,1.4,3.1,1.3,2.7,1.4C2.6,1.5,2.5,1.6,2.3,1.8C2.1,2,1.9,2.2,1.7,2.4C1.3,2.7,1.3,3.2,1.6,3.6
	C1.8,3.8,1.9,4,2.1,4.1c0.1,0.1,0.1,0.1,0,0.2C2,4.6,1.8,4.9,1.7,5.2c0,0.1,0,0.1-0.2,0.1c-0.1,0-0.2,0-0.3,0c-0.2,0-0.4,0-0.6,0.1
	C0.3,5.5,0,5.9,0,6.2C0,6.6,0,7,0,7.5C0,7.8,0.2,8,0.4,8.2C0.6,8.2,0.8,8.3,1,8.3c0.2,0,0.4,0,0.6,0c0.1,0,0.1,0,0.2,0.1
	C1.8,8.7,1.9,9,2.1,9.2C2.2,9.5,2.2,9.5,2,9.6C1.8,9.8,1.7,10,1.5,10.2c-0.2,0.2-0.2,0.6,0,0.9c0.1,0.2,0.3,0.3,0.5,0.5
	c0.1,0.2,0.3,0.3,0.5,0.4c0.1,0.1,0.2,0.2,0.4,0.2c0.3,0.1,0.6,0,0.8-0.2c0.2-0.2,0.4-0.3,0.5-0.5c0.1-0.1,0.1-0.1,0.2,0
	C4.7,11.7,5,11.9,5.3,12c0.1,0,0.1,0.1,0.1,0.2c0,0.2,0.1,0.5,0.1,0.7c0,0.5,0.4,0.8,0.9,0.8c0.4,0,0.8,0,1.1,0c0.2,0,0.3,0,0.5-0.1
	c0.2-0.1,0.4-0.3,0.4-0.6c0-0.3,0-0.5,0.1-0.8c0-0.1,0-0.1,0.1-0.2c0.3-0.1,0.6-0.2,0.9-0.4c0.1-0.1,0.2,0,0.2,0
	c0.2,0.2,0.4,0.3,0.6,0.5c0.2,0.1,0.3,0.2,0.5,0.2c0.2,0,0.4-0.1,0.6-0.2c0.3-0.3,0.6-0.6,0.9-0.9c0.1-0.1,0.2-0.2,0.2-0.4
	c0.1-0.3,0-0.5-0.2-0.7c-0.2-0.2-0.3-0.4-0.5-0.6c0,0,0-0.1,0-0.2c0.2-0.3,0.3-0.6,0.4-0.9c0-0.1,0.1-0.1,0.2-0.2
	c0.3,0,0.5,0,0.8-0.1c0.4,0,0.7-0.4,0.7-0.8c0-0.4,0-0.7,0-1.1C14,6.2,14,6.2,14,6.1z M7,8.9C5.8,9,4.8,8,4.8,6.8
	c0-1.2,1-2.1,2.2-2.1s2.2,1,2.2,2.1C9.2,8,8.2,8.9,7,8.9z"/>
</svg>
