<?xml version="1.0" encoding="UTF-8" standalone="no"?>
<svg width="7px" height="42px" viewBox="0 0 7 42" version="1.1" xmlns="http://www.w3.org/2000/svg" xmlns:xlink="http://www.w3.org/1999/xlink">
    <!-- Generator: Sketch 48.1 (47250) - http://www.bohemiancoding.com/sketch -->
    <title>Group</title>
    <desc>Created with Sketch.</desc>
    <defs></defs>
    <g id="Promo-bar-resolutions-Copy-2" stroke="none" stroke-width="1" fill="none" fill-rule="evenodd" transform="translate(-1486.000000, -876.000000)" opacity="0.773029384">
        <g id="Group" transform="translate(1486.000000, 876.000000)" fill="#9D9D9D">
            <path d="M-12.7890625,23.8792381 L-13.3554688,22.2659569 L-15.5976562,22.2659569 L-16.1640625,23.8792381 L-16.9023438,23.8792381 L-14.8242188,18.2425194 L-14.1289062,18.2425194 L-12.0507812,23.8792381 L-12.7890625,23.8792381 Z M-14.4882812,19.0979881 L-15.390625,21.6683006 L-13.5625,21.6683006 L-14.4648438,19.0979881 L-14.4882812,19.0979881 Z M-9.06093752,23.8792381 L-9.75625002,23.8792381 L-9.75625002,18.2425194 L-9.07265627,18.2425194 L-5.98671877,22.6683006 L-5.95156252,22.6683006 L-5.95156252,18.2425194 L-5.25625002,18.2425194 L-5.25625002,23.8792381 L-5.93984377,23.8792381 L-9.02578127,19.4690819 L-9.06093752,19.4690819 L-9.06093752,23.8792381 Z M-2.67656255,23.8792381 L-2.67656255,23.3792381 L0.538281202,18.9026756 L0.538281202,18.8753319 L-2.56718755,18.8753319 L-2.56718755,18.2425194 L1.42499995,18.2425194 L1.42499995,18.7425194 L-1.7742188,23.2190819 L-1.7742188,23.2464256 L1.4914062,23.2464256 L1.4914062,23.8792381 L-2.67656255,23.8792381 Z M7.56328118,23.2464256 L7.56328118,23.8792381 L4.07109368,23.8792381 L4.07109368,18.2425194 L7.56328118,18.2425194 L7.56328118,18.8753319 L4.77421868,18.8753319 L4.77421868,20.6839256 L7.41874993,20.6839256 L7.41874993,21.3089256 L4.77421868,21.3089256 L4.77421868,23.2464256 L7.56328118,23.2464256 Z M10.8421874,23.8792381 L10.1390624,23.8792381 L10.1390624,18.2425194 L10.8421874,18.2425194 L10.8421874,23.8792381 Z M18.3398436,21.5472069 C18.3398436,23.0706444 17.4531249,23.9729881 15.9492186,23.9729881 C14.3749999,23.9729881 13.3671874,22.8245506 13.3671874,21.0315819 C13.3671874,19.2698631 14.3710936,18.1487694 15.9492186,18.1487694 C17.1679686,18.1487694 18.0937499,18.8714256 18.3046874,19.9925194 L17.5664061,19.9925194 C17.3320311,19.2308006 16.7421874,18.7972069 15.9492186,18.7972069 C14.7890624,18.7972069 14.0898436,19.6331444 14.0898436,21.0276756 C14.0898436,22.4456444 14.8007811,23.3245506 15.9492186,23.3245506 C16.9492186,23.3245506 17.6367186,22.6761131 17.6367186,21.7308006 L17.6367186,21.6292381 L16.0468749,21.6292381 L16.0468749,21.0120506 L18.3398436,21.0120506 L18.3398436,21.5472069 Z M24.3804686,23.2464256 L24.3804686,23.8792381 L20.8882811,23.8792381 L20.8882811,18.2425194 L24.3804686,18.2425194 L24.3804686,18.8753319 L21.5914061,18.8753319 L21.5914061,20.6839256 L24.2359374,20.6839256 L24.2359374,21.3089256 L21.5914061,21.3089256 L21.5914061,23.2464256 L24.3804686,23.2464256 Z" id="Anzeige-Copy" transform="translate(3.739062, 21.060879) rotate(-90.000000) translate(-3.739062, -21.060879) "></path>
        </g>
    </g>
</svg>