<?xml version="1.0" encoding="UTF-8" standalone="no"?>
<svg width="20px" height="19px" viewBox="0 0 20 19" version="1.1" xmlns="http://www.w3.org/2000/svg" xmlns:xlink="http://www.w3.org/1999/xlink">
    <!-- Generator: Sketch 48.1 (47250) - http://www.bohemiancoding.com/sketch -->
    <title>Page 1</title>
    <desc>Created with Sketch.</desc>
    <defs>
        <path d="M0.00118401706,9.25693336 C0.00118401706,14.3592789 4.15215582,18.5103147 9.25427732,18.5103147 C9.78369295,18.5103147 10.3019404,18.463274 10.8073877,18.3774488 L9.33527049,14.7638287 C9.3080381,14.7641487 9.28163772,14.7678928 9.25427732,14.7678928 C6.21570555,14.7678928 3.74366993,12.2957611 3.74366993,9.25693336 C3.74366993,6.21826558 6.21570555,3.74616597 9.25427732,3.74616597 C12.2928811,3.74616597 14.7652047,6.21826558 14.7652047,9.25693336 C14.7652047,9.29130186 14.7606927,9.32451834 14.7601166,9.35879083 L18.3712407,10.82982 C18.4592419,10.3182287 18.5077226,9.79329309 18.5077226,9.25693336 C18.5077226,4.15465185 14.3567508,0.00374405394 9.25427732,0.00374405394 C4.15215582,0.00374405394 0.00118401706,4.15465185 0.00118401706,9.25693336 Z" id="path-1"></path>
    </defs>
    <g id="Promo-bar-Visual-REWE-Copy" stroke="none" stroke-width="1" fill="none" fill-rule="evenodd" transform="translate(-125.000000, -233.000000)" opacity="0.563083022">
        <g id="Page-1" transform="translate(125.839708, 233.355313)">
            <polygon id="Fill-1" fill="#848484" points="12.8912417 18.2060799 13.9725373 14.9752493 16.9930928 17.9959329 17.9717949 17.0174548 14.9512394 13.9964192 18.1820699 12.9152517 9.25445333 9.27839927"></polygon>
            <g id="Group-4">
                <mask id="mask-2" fill="white">
                    <use xlink:href="#path-1"></use>
                </mask>
                <g id="Clip-3"></g>
                <polygon id="Fill-2" fill="#848484" mask="url(#mask-2)" points="-0.478822898 18.9902896 18.9877616 18.9902896 18.9877616 -0.476262861 -0.478822898 -0.476262861"></polygon>
            </g>
        </g>
    </g>
</svg>