<svg id="Layer_1" data-name="Layer 1" xmlns="http://www.w3.org/2000/svg" viewBox="0 0 54.53 54.56"><defs><style>.cls-1{fill:#ed6e50;}.cls-2{fill:#33a8e0;}</style></defs><title>MyOffrz logo</title><path class="cls-1" d="M-673.52-236.95l20.68-12.94-20.46-12.75a27.15,27.15,0,0,0-3.33,13.07A27.14,27.14,0,0,0-673.52-236.95Z" transform="translate(676.63 276.85)"/><path class="cls-2" d="M-630.09-268.86a27.19,27.19,0,0,0-19.29-8,27.17,27.17,0,0,0-18.55,7.38l9.77,6.16a16.19,16.19,0,0,1,8.78-2.59,16.22,16.22,0,0,1,11.54,4.78,16.34,16.34,0,0,1,0,23.08,16.22,16.22,0,0,1-11.54,4.78,16.17,16.17,0,0,1-9.46-3.07l-9.72,6.13a27.19,27.19,0,0,0,19.17,7.9,27.19,27.19,0,0,0,19.29-8A27.28,27.28,0,0,0-630.09-268.86Z" transform="translate(676.63 276.85)"/></svg>
