<?xml version="1.0" encoding="UTF-8" standalone="no"?>
<svg width="40px" height="40px" viewBox="0 0 40 40" version="1.1" xmlns="http://www.w3.org/2000/svg" xmlns:xlink="http://www.w3.org/1999/xlink" xmlns:sketch="http://www.bohemiancoding.com/sketch/ns">
    <!-- Generator: Sketch 3.4.4 (17249) - http://www.bohemiancoding.com/sketch -->
    <title>Rectangle 3 + Shape</title>
    <desc>Created with Sketch.</desc>
    <defs></defs>
    <g id="Page-1" stroke="none" stroke-width="1" fill="none" fill-rule="evenodd" sketch:type="MSPage">
        <g id="Artboard-1" sketch:type="MSArtboardGroup" transform="translate(-418.000000, -415.000000)">
            <g id="Popup" sketch:type="MSLayerGroup" transform="translate(363.000000, 134.000000)">
                <g id="Rectangle-3-+-Shape" transform="translate(55.000000, 281.000000)" sketch:type="MSShapeGroup">
                    <rect id="Rectangle-3" fill="#9077E3" x="0" y="0" width="40" height="40" rx="4"></rect>
                    <path d="M28.5052445,19.910625 C28.9456195,19.488125 29.3567445,19.065625 29.7207445,18.6545 C31.7747445,16.316125 32.3467445,14.4035 31.4253695,12.967 C31.0353695,12.360875 30.2163695,11.639375 28.5247445,11.639375 C27.4636195,11.639375 26.1034945,11.94975 24.5889945,12.490875 C23.9324945,9.604875 22.7283695,7 20.4907445,7 C18.2157445,7 17.0067445,9.69425 16.3599945,12.640375 C14.8422445,12.12525 13.4772445,11.831125 12.4096195,11.831125 C10.6221195,11.831125 9.78199446,12.591625 9.39361946,13.228625 C8.13261946,15.295625 10.1004945,17.92 12.4762445,20.089375 C12.0374945,20.5135 11.6247445,20.934375 11.2623695,21.3455 C9.20836946,23.683875 8.63474446,25.598125 9.55774446,27.033 C9.94774446,27.639125 10.7667445,28.359 12.4567445,28.359 C13.5194945,28.359 14.8796195,28.05025 16.3941195,27.509125 C17.0489945,30.3935 18.2531195,33 20.4907445,33 C22.7657445,33 23.9763695,30.30575 24.6214945,27.359625 C26.1408695,27.873125 27.5042445,28.168875 28.5718695,28.168875 C30.3609945,28.168875 31.1978695,27.40675 31.5878695,26.771375 C32.8488695,24.704375 30.8826195,22.078375 28.5052445,19.910625 L28.5052445,19.910625 Z M10.7813695,14.07525 C11.0381195,13.656 11.6068695,13.456125 12.4096195,13.456125 C13.3472445,13.456125 14.6131195,13.742125 16.0561195,14.249125 C15.8822445,15.363875 15.7766195,16.451 15.7132445,17.382125 C14.9868695,17.918375 14.3157445,18.461125 13.6803695,19.007125 C11.3874945,16.9255 10.1947445,15.035625 10.7813695,14.07525 L10.7813695,14.07525 Z M15.6238695,20.611 L14.9267445,20.066625 L15.6206195,19.49625 L15.6157445,20 L15.6238695,20.611 L15.6238695,20.611 Z M12.4567445,26.735625 C11.7124945,26.735625 11.1778695,26.54875 10.9243695,26.153875 C10.3149945,25.2065 11.4654945,23.28575 13.7112445,21.1505 C14.4083695,21.71925 15.0973695,22.240875 15.7181195,22.679625 C15.7847445,23.638375 15.8952445,24.75475 16.0788695,25.897125 C14.6391195,26.43175 13.3797445,26.735625 12.4567445,26.735625 L12.4567445,26.735625 Z M23.5473695,16.163375 L23.0306195,15.838375 L22.1417445,15.32 C22.5609945,15.10875 22.9704945,14.912125 23.3702445,14.73175 C23.4384945,15.191625 23.4969945,15.671 23.5473695,16.163375 L23.5473695,16.163375 Z M20.4907445,8.625 C21.5404945,8.625 22.4748695,10.381625 23.0696195,13.09375 C22.2148695,13.462625 21.3324945,13.89325 20.4257445,14.385625 C19.5563695,13.940375 18.7081195,13.550375 17.8874945,13.214 C18.4789945,10.433625 19.4231195,8.625 20.4907445,8.625 L20.4907445,8.625 Z M17.5966195,14.847125 L18.7324945,15.360625 L17.8533695,15.8985 L17.4308695,16.18775 C17.4779945,15.72625 17.5332445,15.279375 17.5966195,14.847125 L17.5966195,14.847125 Z M17.4341195,23.836625 L17.9508695,24.16 L18.8413695,24.678375 C18.4221195,24.889625 18.0126195,25.08625 17.6112445,25.266625 C17.5429945,24.81 17.4844945,24.330625 17.4341195,23.836625 L17.4341195,23.836625 Z M20.4907445,31.375 C19.4393695,31.375 18.5066195,29.618375 17.9118695,26.90625 C18.7666195,26.537375 19.6506195,26.10675 20.5557445,25.614375 C21.4234945,26.058 22.2717445,26.448 23.0939945,26.786 C22.5024945,29.566375 21.5583695,31.375 20.4907445,31.375 L20.4907445,31.375 Z M23.3864945,25.152875 C23.0159945,24.99525 22.6357445,24.821375 22.2506195,24.641 L23.1297445,24.1015 L23.5506195,23.81225 C23.5034945,24.27375 23.4482445,24.72225 23.3864945,25.152875 L23.3864945,25.152875 Z M23.7001195,21.750125 C23.2304945,22.081625 22.7511195,22.40825 22.2489945,22.73325 C21.6721195,23.10375 21.1017445,23.445 20.5362445,23.77 C19.9626195,23.458 19.3841195,23.12975 18.7991195,22.7755 C18.2758695,22.455375 17.7737445,22.130375 17.2862445,21.798875 C17.2586195,21.21225 17.2407445,20.61425 17.2407445,20 C17.2407445,19.403625 17.2586195,18.821875 17.2829945,18.249875 C17.7509945,17.918375 18.2303695,17.590125 18.7324945,17.26675 C19.3093695,16.89625 19.8797445,16.555 20.4452445,16.23 C21.0188695,16.542 21.5973695,16.868625 22.1823695,17.2245 C22.7056195,17.544625 23.2077445,17.87125 23.6968695,18.1995 C23.7212445,18.78775 23.7407445,19.38575 23.7407445,20 C23.7407445,20.596375 23.7212445,21.178125 23.7001195,21.750125 L23.7001195,21.750125 Z M28.5231195,13.264375 C29.2689945,13.264375 29.8019945,13.45125 30.0554945,13.846125 C30.6648695,14.7935 29.5159945,16.712625 27.2686195,18.8495 C26.5698695,18.28075 25.8808695,17.76075 25.2601195,17.320375 C25.1934945,16.361625 25.0846195,15.243625 24.8993695,14.10125 C26.3439945,13.566625 27.6017445,13.264375 28.5231195,13.264375 L28.5231195,13.264375 Z M25.3576195,19.389 L26.0547445,19.933375 L25.3592445,20.50375 L25.3657445,20 L25.3576195,19.389 L25.3576195,19.389 Z M30.2001195,25.92475 C29.9433695,26.344 29.3746195,26.543875 28.5718695,26.543875 C27.6358695,26.543875 26.3699945,26.257875 24.9253695,25.750875 C25.0976195,24.636125 25.2048695,23.549 25.2682445,22.617875 C25.9946195,22.081625 26.6657445,21.538875 27.3027445,20.992875 C29.5939945,23.076125 30.7867445,24.964375 30.2001195,25.92475 L30.2001195,25.92475 Z" id="Shape" fill="#FFFFFF"></path>
                </g>
            </g>
        </g>
    </g>
</svg>