<?xml version="1.0" encoding="utf-8"?>
<svg width="19px" height="19px" viewBox="0 0 19 19" version="1.1" xmlns="http://www.w3.org/2000/svg">
  <title>Page 1 Copy 33</title>
  <desc>Created with Sketch.</desc>
  <defs>
    <filter x="-3.0%" y="-3.0%" width="107.7%" height="113.7%" filterUnits="objectBoundingBox" id="filter-1">
      <feOffset dx="0" dy="1" in="SourceAlpha" result="shadowOffsetOuter1"/>
      <feColorMatrix values="0 0 0 0 1   0 0 0 0 1   0 0 0 0 1  0 0 0 1 0" type="matrix" in="shadowOffsetOuter1" result="shadowMatrixOuter1"/>
      <feMerge>
        <feMergeNode in="shadowMatrixOuter1"/>
        <feMergeNode in="SourceGraphic"/>
      </feMerge>
    </filter>
    <path d="M0.00106800233,8.349902 C0.00106800233,12.9522993 3.74531098,16.6966 8.34750621,16.6966 C8.82504758,16.6966 9.29251509,16.6541686 9.74843662,16.5767528 L8.42056335,13.3172097 C8.39599929,13.3174984 8.37218573,13.3208756 8.34750621,13.3208756 C5.60666586,13.3208756 3.37685018,11.0909733 3.37685018,8.349902 C3.37685018,5.60897505 5.60666586,3.37910164 8.34750621,3.37910164 C11.0883754,3.37910164 13.3184509,5.60897505 13.3184509,8.349902 C13.3184509,8.38090294 13.3143809,8.41086473 13.3138614,8.44177907 L16.571153,9.76867094 C16.6505316,9.30720734 16.6942619,8.83370706 16.6942619,8.349902 C16.6942619,3.74756245 12.950019,0.00337719656 8.34750621,0.00337719656 C3.74531098,0.00337719656 0.00106800233,3.74756245 0.00106800233,8.349902 Z" id="path-2"/>
  </defs>
  <g id="Page-1" stroke="none" stroke-width="1" fill="none" fill-rule="evenodd" opacity="0.428229944">
    <g id="Page-1-Copy-33" transform="translate(0.284550, 0.618610)">
      <polygon id="Fill-1" fill="#848484" points="11.6281063 16.4221754 12.6034522 13.5079145 15.3280416 16.2326194 16.2108466 15.3500165 13.4862572 12.6249941 16.400518 11.6497636 8.34766497 8.3692646"/>
      <g id="Group-4" filter="url(#filter-1)">
        <mask id="mask-3" fill="white">
          <path d="M0.00106800233,8.349902 C0.00106800233,12.9522993 3.74531098,16.6966 8.34750621,16.6966 C8.82504758,16.6966 9.29251509,16.6541686 9.74843662,16.5767528 L8.42056335,13.3172097 C8.39599929,13.3174984 8.37218573,13.3208756 8.34750621,13.3208756 C5.60666586,13.3208756 3.37685018,11.0909733 3.37685018,8.349902 C3.37685018,5.60897505 5.60666586,3.37910164 8.34750621,3.37910164 C11.0883754,3.37910164 13.3184509,5.60897505 13.3184509,8.349902 C13.3184509,8.38090294 13.3143809,8.41086473 13.3138614,8.44177907 L16.571153,9.76867094 C16.6505316,9.30720734 16.6942619,8.83370706 16.6942619,8.349902 C16.6942619,3.74756245 12.950019,0.00337719656 8.34750621,0.00337719656 C3.74531098,0.00337719656 0.00106800233,3.74756245 0.00106800233,8.349902 Z" id="" transform="matrix(1, 0, 0, 1, 0, 0)"/>
        </mask>
        <g id="Clip-3"/>
        <polygon id="Fill-2" fill="#848484" mask="url(#mask-3)" points="-0.431905915 17.1295451 17.1272647 17.1295451 17.1272647 -0.429596721 -0.431905915 -0.429596721"/>
      </g>
    </g>
  </g>
</svg>
