<?xml version="1.0" encoding="UTF-8"?>
<svg width="99px" height="25px" viewBox="0 0 99 25" version="1.1" xmlns="http://www.w3.org/2000/svg" xmlns:xlink="http://www.w3.org/1999/xlink">
    <!-- Generator: Sketch 60 (88103) - https://sketch.com -->
    <title>Primary-Full-Cliqz-Logo(2)</title>
    <desc>Created with Sketch.</desc>
    <defs>
        <path d="M12.3359114,0.412087576 C15.8225713,0.412087576 18.9673778,1.89681263 21.1767464,4.26519348 L21.1767464,4.26519348 L17.7168177,7.72527495 C16.3952291,6.23978615 14.475779,5.29732179 12.3359114,5.29732179 C8.36045316,5.29732179 5.22084012,8.53163951 5.22084012,12.5070978 C5.22084012,16.4827088 8.36045316,19.716721 12.3359114,19.716721 C14.4485896,19.716721 16.345891,18.7979328 17.6657994,17.3451324 L17.6657994,17.3451324 L21.1245061,20.8038391 C18.917887,23.1399898 15.7953819,24.6022607 12.3359114,24.6022607 C5.66671589,24.6022607 0.032703666,19.1762933 0.032703666,12.5070978 C0.032703666,5.83790224 5.66671589,0.412087576 12.3359114,0.412087576 Z" id="path-1"></path>
    </defs>
    <g id="CHIP_Offers" stroke="none" stroke-width="1" fill="none" fill-rule="evenodd">
        <g id="Group-125" transform="translate(-60.000000, -148.000000)">
            <g id="Primary-Full-Cliqz-Logo(2)" transform="translate(60.000000, 148.000000)">
                <polygon id="Clip-17" fill="#FFFFFF" points="98.941446 0.807174134 98.941446 4.7181721 86.0713849 19.6941904 98.941446 19.6941904 98.941446 24.2070214 79.4522912 24.2070214 79.4522912 20.2960234 92.3223523 5.32000509 79.8534114 5.32000509 79.8534114 0.807174134"></polygon>
                <path d="M65.3613035,0.277179226 C72.1279532,0.277179226 77.6327393,5.78181263 77.6327393,12.5483096 C77.6327393,13.259664 77.5685845,13.9557434 77.4517312,14.6342566 L72.6628819,12.6833401 C72.6636456,12.6379735 72.6696029,12.5939817 72.6696029,12.5483096 C72.6696029,8.51862525 69.3909878,5.24016293 65.3613035,5.24016293 C61.3316191,5.24016293 58.0533096,8.51862525 58.0533096,12.5483096 C58.0533096,16.5782994 61.3316191,19.8567617 65.3613035,19.8567617 C65.3975051,19.8567617 65.4324847,19.851721 65.4686864,19.8514155 L67.4208248,24.6436253 C66.7507128,24.7574236 66.0633401,24.8198982 65.3613035,24.8198982 C58.5949593,24.8198982 53.0901731,19.3149593 53.0901731,12.5483096 C53.0901731,5.78181263 58.5949593,0.277179226 65.3613035,0.277179226 Z M65.2917515,12.5071283 L77.6045825,17.5229633 L73.1487271,19.0141039 L77.3145112,23.1806517 L75.964664,24.5300407 L71.7987271,20.3641039 L70.3075866,24.8198065 L65.2917515,12.5071283 Z" id="Clip-9" fill="#FFFFFF"></path>
                <polygon id="Fill-13" fill="#FFFFFF" points="44.1156823 0.0435336049 50.7911405 0.0435336049 50.7911405 24.9708758 44.1156823 24.9708758"></polygon>
                <polygon id="Clip-11" fill="#FFFFFF" points="29.3778004 0.807174134 29.3778004 19.5272352 41.044501 19.5272352 41.044501 24.2070214 24.2296741 24.2070214 24.2296741 0.807174134"></polygon>
                <mask id="mask-2" fill="white">
                    <use xlink:href="#path-1"></use>
                </mask>
                <use id="Clip-20" fill="#FFFFFF" xlink:href="#path-1"></use>
            </g>
        </g>
    </g>
</svg>