<?xml version="1.0" encoding="UTF-8"?>
<svg width="15px" height="14px" viewBox="0 0 15 14" version="1.1" xmlns="http://www.w3.org/2000/svg" xmlns:xlink="http://www.w3.org/1999/xlink">
    <!-- Generator: Sketch 58 (84663) - https://sketch.com -->
    <title>Fill 5</title>
    <desc>Created with Sketch.</desc>
    <g id="New-Offer" stroke="none" stroke-width="1" fill="none" fill-rule="evenodd">
        <g id="Group-38" transform="translate(-223.000000, -67.000000)" fill="#F7B500">
            <g id="Group-35">
                <g id="Group-33">
                    <path d="M231.944662,67.3292947 C233.695683,67.8813595 235.018956,68.9874425 235.927128,70.6004159 C236.126523,70.9546419 236.288904,71.3283295 236.421204,71.71442 C236.440334,71.7703113 236.460975,71.8255268 236.494955,71.9201758 C236.665299,71.5531669 236.817862,71.2271261 236.96805,70.9000069 C237.031393,70.7619842 237.113959,70.6418591 237.251254,70.571477 C237.595103,70.3952671 238.014172,70.6717498 237.999632,71.0638782 C237.99662,71.1438701 237.977419,71.2199463 237.944336,71.2920249 L236.940099,73.4729316 L236.940099,73.4729316 C236.880634,73.6014103 236.793117,73.7053007 236.659995,73.7661481 C236.502148,73.8383693 236.34788,73.8271323 236.195628,73.7564055 C235.476349,73.422043 234.756802,73.0880752 234.039257,72.7497561 C233.801813,72.637862 233.681009,72.4296298 233.700732,72.1963108 C233.718508,71.9862138 233.867924,71.8031057 234.071731,71.7425282 C234.215758,71.6996864 234.35232,71.7268728 234.484643,71.7896156 C234.774725,71.9270339 235.064381,72.0653796 235.354956,72.2017279 C235.399234,72.2225201 235.440315,72.2562175 235.51326,72.2494355 C235.440231,72.0460186 235.3797,71.843557 235.296372,71.6511655 C234.951993,70.8556587 234.476303,70.1502962 233.824585,69.5827277 C232.357698,68.3051368 230.664355,67.7818889 228.76129,68.1899749 C226.530261,68.6684467 225.058393,70.0598271 224.333257,72.244045 C224.002865,73.2393306 223.964324,74.2651419 224.206515,75.2896946 C224.646928,77.1528488 225.718795,78.5199432 227.418929,79.3524768 C228.581754,79.9219566 229.815243,80.0787162 231.083914,79.8015604 C232.739556,79.4398255 234.028758,78.5336431 234.921922,77.0681151 C235.236547,76.5518718 235.459975,75.9940119 235.596893,75.4022217 C235.635355,75.236072 235.718921,75.1021345 235.86653,75.0173465 C236.051255,74.9111048 236.237619,74.9196182 236.409925,75.0424609 C236.575996,75.160794 236.652513,75.3304711 236.629084,75.5363769 C236.594269,75.8428938 236.492392,76.1327028 236.386874,76.4188808 C235.798671,78.0144418 234.779165,79.2550085 233.311443,80.076706 C231.366381,81.1656808 229.339133,81.2965474 227.273513,80.4417681 C225.760209,79.8156657 224.599792,78.7631316 223.846337,77.2972564 C222.71647,75.0991567 222.717391,72.8736396 223.852096,70.6721862 C224.503537,69.4083716 225.474234,68.4473883 226.727665,67.7985088 C228.400721,66.9323702 230.147952,66.7627618 231.944662,67.3292947 Z M229.452076,70.2011882 C229.680529,70.1922778 229.862374,70.320633 229.915383,70.5310093 C229.936,70.612665 229.941375,70.6961027 229.941277,70.7803629 C229.940398,71.8730955 229.942401,72.9658737 229.93815,74.058652 C229.93771,74.1672672 229.97318,74.2298684 230.073092,74.2864379 C230.786985,74.6904208 231.498435,75.0981507 232.207833,75.5089878 C232.494768,75.6751778 232.534,75.9640113 232.309993,76.1863595 C232.159905,76.3353685 231.967312,76.3587183 231.767782,76.2447111 C231.208618,75.9251711 230.651164,75.6029352 230.092781,75.2822529 C229.804869,75.1169768 229.517543,74.950741 229.227726,74.7885721 C229.066206,74.6981889 229.007138,74.5626597 229.007187,74.3952816 L229.007236,72.5562247 C229.007187,71.9584524 229.006601,71.3606343 229.008018,70.762862 C229.008164,70.6947319 229.014369,70.6258706 229.026144,70.5586087 C229.063128,70.3475926 229.229485,70.2098244 229.452076,70.2011882 Z" id="Fill-5"></path>
                </g>
            </g>
        </g>
    </g>
</svg>