<?xml version="1.0" encoding="UTF-8"?>
<svg width="76px" height="76px" viewBox="0 0 76 76" version="1.1" xmlns="http://www.w3.org/2000/svg" xmlns:xlink="http://www.w3.org/1999/xlink">
    <!-- Generator: Sketch 54.1 (76490) - https://sketchapp.com -->
    <title>Floating button</title>
    <desc>Created with Sketch.</desc>
    <defs>
        <circle id="path-1" cx="28" cy="28" r="28"></circle>
        <filter x="-26.8%" y="-26.8%" width="153.6%" height="153.6%" filterUnits="objectBoundingBox" id="filter-2">
            <feOffset dx="0" dy="0" in="SourceAlpha" result="shadowOffsetOuter1"></feOffset>
            <feGaussianBlur stdDeviation="5" in="shadowOffsetOuter1" result="shadowBlurOuter1"></feGaussianBlur>
            <feColorMatrix values="0 0 0 0 0   0 0 0 0 0   0 0 0 0 0  0 0 0 0.16 0" type="matrix" in="shadowBlurOuter1"></feColorMatrix>
        </filter>
    </defs>
    <g id="Page-1" stroke="none" stroke-width="1" fill="none" fill-rule="evenodd">
        <g id="Pop-up-on-client-site-" transform="translate(-5.000000, -45.000000)">
            <g id="Floating-button" transform="translate(15.000000, 55.000000)">
                <g id="Oval">
                    <use fill="black" fill-opacity="1" filter="url(#filter-2)" xlink:href="#path-1"></use>
                    <use fill="#00AEF6" fill-rule="evenodd" xlink:href="#path-1"></use>
                </g>
                <g id="offers-cc-icon-white" transform="translate(12.000000, 11.000000)" fill="#FFFFFF">
                    <path d="M6.66472727,32.9770435 C4.25018182,32.9770435 4.26181818,30.8263043 4.26181818,30.1433478 L4.26181818,17.556 C4.26181818,17.4168261 4.34618182,17.3092174 4.45090909,17.3092174 L11.6014545,17.3092174 L11.6014545,32.9770435 L6.66472727,32.9770435 Z M23.6087273,4.43778261 C23.6087273,4.25986957 23.5025455,3.94852174 23.4007273,3.828 C22.9236364,3.24117391 22.0101818,3.16656522 21.3672727,3.66013043 L18.6458182,5.86682609 L22.3185455,5.86682609 C23.0283636,5.86682609 23.6087273,5.29721739 23.6087273,4.59417391 L23.6087273,4.43778261 Z M13.3701818,5.86682609 L10.6545455,3.66156522 C10.3723636,3.44634783 10.0334545,3.3416087 9.69890909,3.3416087 C9.28436364,3.3416087 8.88,3.50517391 8.62109091,3.828 C8.51781818,3.94852174 8.41454545,4.25986957 8.41454545,4.43778261 L8.41454545,4.59417391 C8.41454545,5.29721739 8.992,5.86682609 9.70472727,5.86682609 L13.3701818,5.86682609 Z M25.936,1.70452174 C26.5163636,2.36882609 26.8698182,3.3243913 26.8698182,4.20104348 L26.8698182,4.34882609 C26.8698182,6.69182609 24.8305455,8.59578261 22.3185455,8.59578261 L9.70472727,8.59578261 C7.19272727,8.59578261 5.15054545,6.69182609 5.15054545,4.34882609 L5.15054545,4.20104348 C5.15054545,3.3243913 5.50690909,2.36882609 6.08436364,1.70882609 C7.68436364,-0.133434783 10.6458182,-0.410347826 12.6850909,1.08756522 L16.0072727,3.6386087 L19.3381818,1.08613043 C21.3774545,-0.411782609 24.336,-0.133434783 25.936,1.70452174 Z M14.4392727,10.1037391 L17.4225455,10.1037391 L17.4225455,15.7108696 L14.4392727,15.7108696 L14.4392727,10.1037391 Z M20.2414545,10.1037391 L30.5963636,10.1037391 L30.5963636,15.7108696 L20.2414545,15.7108696 L20.2414545,10.1037391 Z M1.264,10.1037391 L11.6189091,10.1037391 L11.6189091,15.7108696 L1.264,15.7108696 L1.264,10.1037391 Z M14.4392727,17.3766522 L17.4225455,17.3766522 L17.4225455,32.9411739 L14.4392727,32.9411739 L14.4392727,17.3766522 Z M20.2967273,32.9856522 L20.2967273,17.3178261 L27.4472727,17.3178261 C27.552,17.3178261 27.6363636,17.4254348 27.6363636,17.5646087 L27.6363636,30.1519565 C27.6363636,30.834913 27.648,32.9856522 25.2334545,32.9856522 L20.2967273,32.9856522 Z" id="Rectangle-Copy"></path>
                </g>
            </g>
        </g>
    </g>
</svg>