<?xml version="1.0" encoding="UTF-8"?>
<svg width="43px" height="39px" viewBox="0 0 43 39" version="1.1" xmlns="http://www.w3.org/2000/svg" xmlns:xlink="http://www.w3.org/1999/xlink">
    <!-- Generator: Sketch 59 (86127) - https://sketch.com -->
    <title>Ghosty Star</title>
    <desc>Created with Sketch.</desc>
    <g id="Page-1" stroke="none" stroke-width="1" fill="none" fill-rule="evenodd">
        <g id="Group-2" transform="translate(-5.000000, -8.000000)" fill="#ffffff" fill-rule="nonzero" >
            <g id="Ghosty-Star" transform="translate(10.000000, 8.000000)">
                <path d="M28.9929873,27.1883186 C27.5964537,24.1074756 27.3561332,21.4971796 27.3184655,20.471516 L27.3184655,12.0324943 C27.3184655,5.58572882 21.8438282,0.360000038 15.0909343,0.360000038 C8.33728708,0.360000038 2.86246148,5.58572882 2.86246148,12.0324943 L2.86246148,20.5935097 C2.81010324,21.696772 2.53569337,24.2274513 1.1934015,27.1883186 C-0.611450879,31.1669608 0.88188884,30.6929285 2.2198489,30.3654721 C3.55743229,30.0394832 6.54467675,28.7617608 7.47808469,30.3359368 C8.41073929,31.9091956 9.18895593,33.2758907 11.3667195,32.3846955 C13.5446714,31.4944173 14.5709304,31.1974134 14.8818781,31.1974134 L15.3046991,31.1974134 C15.6154584,31.1974134 16.6420941,31.4944173 18.8196693,32.3846955 C20.9976212,33.2758907 21.7756495,31.9091956 22.7088691,30.3359368 C23.641712,28.7617608 26.6287681,30.0394832 27.9667282,30.3654721 C29.3044999,30.6929285 30.7972747,31.1669608 28.9929873,27.1883186 M11.3166213,6.72476379 C12.6336758,6.72476379 13.7015577,8.3374641 13.7015577,10.3273356 C13.7015577,12.3173906 12.6336758,13.9304578 11.3166213,13.9304578 C9.99956687,13.9304578 8.93149655,12.3173906 8.93149655,10.3273356 C8.93149655,8.3374641 9.99956687,6.72476379 11.3166213,6.72476379 M15.0909343,21.125145 C12.1886307,21.125145 9.74549759,18.3985421 9.00928054,15.3644788 C10.4310515,17.2307057 12.6259538,18.4297284 15.0909343,18.4297284 C17.5555381,18.4297284 19.7504405,17.2307057 21.1723997,15.3644788 C20.4361827,18.3985421 17.9926729,21.125145 15.0909343,21.125145 M18.8654357,13.9304578 C17.5472513,13.9304578 16.4799343,12.3173906 16.4799343,10.3273356 C16.4799343,8.3374641 17.5472513,6.72476379 18.8654357,6.72476379 C20.1830551,6.72476379 21.2499954,8.3374641 21.2499954,10.3273356 C21.2499954,12.3173906 20.1830551,13.9304578 18.8654357,13.9304578" id="Fill-3"></path>
                <g id="Star" transform="translate(14.672127, 17.363623)" stroke="#5B005C" stroke-width="1.36000004">
                    <path d="M21.4261765,9.09892902 L17.0168531,12.624764 C16.7615765,12.8294899 16.6455417,13.1706998 16.7151626,13.5119096 L18.0379596,18.834783 C18.2236153,19.6991813 17.5738202,20.4043483 16.8079904,20.4043483 C16.5759208,20.4043483 16.3438511,20.3361064 16.1349884,20.1996224 L11.3311466,17.3107124 C11.052663,17.1287338 10.6813516,17.1287338 10.402868,17.3107124 L5.64544014,20.1996224 C5.43657746,20.3361064 5.18130084,20.4043483 4.94923118,20.4043483 C4.18340134,20.4043483 3.48719238,19.6991813 3.71926203,18.834783 L5.04205904,13.5119096 C5.11167994,13.1934471 5.01885209,12.8522372 4.7403685,12.6475113 L0.447079934,9.09892902 C-0.434784746,8.34826738 0.0757684897,6.91518606 1.21290979,6.84694409 L6.82899537,6.46023961 C7.15389289,6.43749228 7.45558343,6.23276638 7.59482522,5.91430385 L9.72986602,0.79615629 C9.96193568,0.27296787 10.449282,0 10.9366282,0 C11.4239745,0 11.9113208,0.27296787 12.1433904,0.79615629 L14.2784312,5.91430385 C14.394466,6.21001905 14.6961566,6.41474496 15.0442611,6.46023961 L20.6603466,6.84694409 C21.8206949,6.91518606 22.3312482,8.34826738 21.4261765,9.09892902 Z" id="Shape"></path>
                </g>
            </g>
        </g>
    </g>
</svg>