<?xml version="1.0" encoding="UTF-8"?>
<svg width="120px" height="19px" viewBox="0 0 120 19" version="1.1" xmlns="http://www.w3.org/2000/svg" xmlns:xlink="http://www.w3.org/1999/xlink">
    <!-- Generator: Sketch 58 (84663) - https://sketch.com -->
    <title>Group 12</title>
    <desc>Created with Sketch.</desc>
    <g id="New-Offer" stroke="none" stroke-width="1" fill="none" fill-rule="evenodd">
        <g id="Group-12" fill="#FFFFFF">
            <path d="M45.4472082,0 C47.8210049,0 50.1939581,0.907304158 52.0042523,2.72022289 C55.6256843,6.34690515 55.6256843,12.2274864 52.0042523,15.8533239 C50.1939581,17.6670874 47.8210049,18.5735467 45.4472082,18.5735467 C43.0902827,18.5735467 40.7350444,17.6746905 38.9289681,15.8854259 L38.9289681,15.8854259 L42.2332189,13.7996401 C43.1670473,14.4704031 44.275494,14.8438001 45.4472082,14.8438001 C46.9293549,14.8438001 48.3229271,14.265964 49.370637,13.2158904 C51.5335421,11.0498495 51.5335421,7.52454202 49.370637,5.35765639 C48.3229271,4.30842756 46.9293549,3.7305914 45.4472082,3.7305914 C44.3716606,3.7305914 43.3475706,4.04316359 42.4635127,4.61086228 L42.4635127,4.61086228 L39.1415469,2.5140942 C40.9197855,0.854927195 43.1771701,0 45.4472082,0 Z M86.0649461,0.511942569 L86.0649461,3.99163142 L76.6591771,3.99163142 L76.6591771,7.69518954 L84.9480637,7.69518954 L84.9480637,11.1748784 L76.6591771,11.1748784 L76.6591771,17.909542 L72.8361327,17.909542 L72.8361327,0.511942569 L86.0649461,0.511942569 Z M70.4024426,0.511942569 L70.4024426,3.99163142 L60.9966736,3.99163142 L60.9966736,7.69518954 L69.2855603,7.69518954 L69.2855603,11.1748784 L60.9966736,11.1748784 L60.9966736,17.909542 L57.1744728,17.909542 L57.1744728,0.511942569 L70.4024426,0.511942569 Z M96.64496,0.511942569 C98.8534176,0.511942569 100.565858,1.1337078 101.708047,2.27670829 C102.675618,3.24652689 103.196943,4.61339665 103.196943,6.2531335 L103.196943,6.30297609 C103.196943,9.1119019 101.68274,10.8766676 99.4734392,11.6961137 L103.719111,17.909542 L99.2507376,17.909542 L95.5289212,12.3423778 L92.5258236,12.3423778 L92.5258236,17.909542 L88.7036228,17.909542 L88.7036228,0.511942569 L96.64496,0.511942569 Z M119.977172,0.511942569 L119.977172,3.42055357 L110.422935,14.5540373 L119.977172,14.5540373 L119.977172,17.909542 L105.509159,17.909542 L105.509159,15.0017758 L115.064239,3.86744733 L105.806938,3.86744733 L105.806938,0.511942569 L119.977172,0.511942569 Z M96.3227175,3.96628773 L92.5258236,3.96628773 L92.5258236,8.96237412 L96.3977949,8.96237412 C98.2587031,8.96237412 99.325815,7.96805662 99.325815,6.50234646 L99.325815,6.45250387 C99.325815,4.81276703 98.1836257,3.96628773 96.3227175,3.96628773 Z" id="Fill-10"></path>
            <path d="M4.14295302,0.583934521 L8.73285306,7.90296584 L13.3244493,0.583934521 L17.4657061,0.583934521 L17.4657061,17.8911031 L13.6484223,17.8911031 L13.6484223,6.59278444 L8.73285306,13.9849304 L8.63362574,13.9849304 L3.76809422,6.66673952 L3.76809422,17.8911031 L0,17.8911031 L0,0.583934521 L4.14295302,0.583934521 Z M23.7339898,0.583934521 L27.9006895,7.53150966 L32.1428699,0.583934521 L36.5088724,0.583934521 L29.797034,10.9931115 L29.797034,17.8911031 L25.9543073,17.8911031 L25.9543073,11.0679069 L19.2433171,0.583934521 L23.7339898,0.583934521 Z M37.328982,4.8876157 L44.3232366,9.20642405 L37.2535014,13.5899431 C36.5775682,12.310016 36.1908361,10.8578073 36.1908361,9.31315467 C36.1908361,7.70967417 36.6038592,6.20199909 37.328982,4.8876157 Z" id="Fill-2"></path>
        </g>
    </g>
</svg>