<?xml version="1.0" encoding="utf-8"?>
<svg width="16px" height="16px" viewBox="0 0 16 16" version="1.1" xmlns="http://www.w3.org/2000/svg">
  <title>Artboard</title>
  <desc>Created with Sketch.</desc>
  <path d="M 11.547 2.09 C 11.547 2.006 11.498 1.859 11.45 1.802 C 11.228 1.525 10.804 1.49 10.503 1.723 L 9.236 2.765 L 10.946 2.765 C 11.278 2.765 11.547 2.496 11.547 2.164 L 11.547 2.09 Z M 6.78 2.765 L 5.514 1.724 C 5.383 1.622 5.225 1.573 5.069 1.573 C 4.876 1.573 4.688 1.65 4.567 1.802 C 4.519 1.859 4.471 2.006 4.471 2.09 L 4.471 2.164 C 4.471 2.496 4.74 2.765 5.072 2.765 L 6.78 2.765 Z M 12.632 0.833 C 12.901 1.161 13.066 1.632 13.066 2.064 L 13.066 2.137 C 13.066 3.292 12.116 4.23 10.946 4.23 L 5.072 4.23 C 3.903 4.23 2.951 3.292 2.951 2.137 L 2.951 2.064 C 2.951 1.632 3.118 1.161 3.387 0.835 C 4.131 -0.073 5.51 -0.209 6.46 0.529 L 8.007 1.787 L 9.558 0.528 C 10.509 -0.21 11.886 -0.073 12.632 0.833 Z M 7.013 5.013 L 9.001 5.013 L 9.001 7.976 L 7.013 7.976 L 7.013 5.013 Z M 10 5.013 L 14.925 5.013 L 14.925 7.976 L 10 7.976 L 10 5.013 Z M 10 9.013 L 13.925 9.013 L 13.925 13.976 C 13.925 15.081 13.03 15.976 11.925 15.976 L 10 15.976 L 10 9.013 Z M 6.001 9.013 L 2.076 9.013 L 2.076 13.976 C 2.076 15.081 2.971 15.976 4.076 15.976 L 6.001 15.976 L 6.001 9.013 Z M 1.076 5.013 L 6.001 5.013 L 6.001 7.976 L 1.076 7.976 L 1.076 5.013 Z M 7.013 9 L 9.001 9 L 9.001 15.976 L 7.013 15.976 L 7.013 9 Z" id="path-1" fill="#00AEF0" fill-rule="nonzero" stroke="none" stroke-width="1"/>
</svg>
