<?xml version="1.0" encoding="UTF-8" standalone="no"?>
<svg width="32px" height="33px" viewBox="0 0 32 33" version="1.1" xmlns="http://www.w3.org/2000/svg" xmlns:xlink="http://www.w3.org/1999/xlink">
    <!-- Generator: Sketch 50.2 (55047) - http://www.bohemiancoding.com/sketch -->
    <title>bing logo</title>
    <desc>Created with Sketch.</desc>
    <defs></defs>
    <g id="bing-logo" stroke="none" stroke-width="1" fill="none" fill-rule="evenodd">
        <path d="M11.7603878,21.9612627 C14.436657,20.5523771 17.0738877,19.1640247 19.7555818,17.7522492 C19.5878681,17.6726005 19.4631476,17.6106965 19.3363991,17.5535076 C18.2992922,17.0851465 17.2629965,16.615011 16.2233546,16.152379 C16.0421549,16.0717669 15.9237718,15.9536373 15.8413346,15.7737051 C15.0724782,14.0954029 14.2980955,12.4196356 13.5259944,10.7428037 C13.4922286,10.6694416 13.4420362,10.6002369 13.45101,10.482158 C13.8290754,10.5954712 14.1976093,10.7039679 14.5649772,10.8164192 C18.3041086,11.9610595 22.0425303,13.1079307 25.7830814,14.2478053 C26.0154367,14.3186323 26.107304,14.4353931 26.1063914,14.6799163 C26.0993949,16.5299881 26.099547,18.3801106 26.1063914,20.2301824 C26.1072533,20.4621322 26.0220276,20.6032286 25.8258717,20.7198372 C21.2713924,23.4263233 16.7152401,26.1301223 12.1737907,28.8584091 C11.7649,29.1040477 11.5097299,29.0796613 11.1368865,28.8109545 C9.49341477,27.6266165 7.82748318,26.4733573 6.16368096,25.3174616 C5.97614388,25.1871642 5.90105807,25.0483492 5.90131157,24.8190865 C5.907142,18.4493153 5.9067364,12.0795947 5.90607731,5.70987419 C5.90602661,5.21991519 5.89431505,4.73000689 5.89360526,4.24004788 C5.89314897,3.95709453 5.93806863,3.9260665 6.20647126,4.01722402 C7.94596768,4.60771993 9.68384172,5.20323509 11.4254168,5.78759637 C11.6586341,5.86582555 11.7038072,6.00854436 11.70401,6.22716017 C11.7064436,8.95585259 11.7126796,11.684545 11.7230223,14.4132374 C11.7322496,16.8546163 11.7477129,19.296046 11.7603878,21.7374756 C11.7606413,21.7963376 11.7603878,21.8552503 11.7603878,21.9612627" id="Fill-1" fill="#0E8484"></path>
    </g>
</svg>