<?xml version="1.0" encoding="utf-8"?>
<!-- Generator: Adobe Illustrator 21.0.0, SVG Export Plug-In . SVG Version: 6.00 Build 0)  -->
<svg version="1.1" id="Layer_1" xmlns="http://www.w3.org/2000/svg" xmlns:xlink="http://www.w3.org/1999/xlink" x="0px" y="0px"
	 viewBox="0 0 50 50" style="enable-background:new 0 0 50 50;" xml:space="preserve">
<style type="text/css">
	.st0{fill:#00AEF0;}
	.st1{fill:#FFFFFF;}
</style>
<title>Group</title>
<desc>Created with Sketch.</desc>
<g id="Page-1">
	<g id="Group">
		<rect id="Rectangle-2" y="0" class="st0" width="50" height="50"/>
		<polygon id="Fill-4" class="st1" points="33.1,31.7 37.7,30.2 25,25 30.2,37.7 31.7,33.1 36,37.4 37.4,36 		"/>
		<path id="Fill-6" class="st1" d="M25,32.8c-4.3,0-7.8-3.5-7.8-7.8c0-4.3,3.5-7.8,7.8-7.8s7.8,3.5,7.8,7.8c0,0,0,0.1,0,0.1l5.1,2.1
			c0.1-0.7,0.2-1.5,0.2-2.2c0-7.2-5.9-13.1-13.1-13.1c-7.2,0-13.1,5.9-13.1,13.1S17.8,38.1,25,38.1c0.8,0,1.5-0.1,2.2-0.2l-2.1-5.1
			C25.1,32.8,25.1,32.8,25,32.8"/>
	</g>
</g>
</svg>
