<?xml version="1.0" encoding="UTF-8"?>
<svg width="246px" height="88px" viewBox="0 0 246 88" version="1.1" xmlns="http://www.w3.org/2000/svg" xmlns:xlink="http://www.w3.org/1999/xlink">
    <!-- Generator: Sketch 51.2 (57519) - http://www.bohemiancoding.com/sketch -->
    <title>Primary-Full-Cliqz-Logo(1)</title>
    <desc>Created with Sketch.</desc>
    <defs>
        <path d="M2.00079804,0 L243.551175,0 C244.655745,-1.58997828e-14 245.551175,0.8954305 245.551175,2 L245.551175,85.0273436 C245.551175,86.1319131 244.655745,87.0273436 243.551175,87.0273436 L2.00079804,87.0273436 C0.896228539,87.0273436 0.000798038659,86.1319131 0.000798038659,85.0273436 L0.000798038659,2 C0.000798038659,0.8954305 0.896228539,2.02906125e-16 2.00079804,0 Z" id="path-1"></path>
        <polygon id="path-3" points="0.0337631741 0.0654800951 24.7754171 10.1444014 15.8217303 13.1407297 24.192542 21.513076 21.4801313 24.2245658 13.1090127 15.8534472 10.1126845 24.8068271"></polygon>
        <path d="M24.7285579,0.0454063535 C38.325602,0.0454063535 49.3870317,11.1065291 49.3870317,24.7032662 C49.3870317,26.1326763 49.2581178,27.5313925 49.0233102,28.8948108 L39.4004987,24.9745994 C39.4020334,24.8834388 39.414004,24.7950407 39.414004,24.7032662 C39.414004,16.6059363 32.8258879,10.0181272 24.7285579,10.0181272 C16.631228,10.0181272 10.0437258,16.6059363 10.0437258,24.7032662 C10.0437258,32.8012101 16.631228,39.3890192 24.7285579,39.3890192 C24.8013022,39.3890192 24.871591,39.3788902 24.9443353,39.3782764 L28.8670023,49.0078406 C27.5204655,49.2365093 26.1392447,49.3620469 24.7285579,49.3620469 C11.1321277,49.3620469 0.0706980402,38.3003103 0.0706980402,24.7032662 C0.0706980402,11.1065291 11.1321277,0.0454063535 24.7285579,0.0454063535 Z" id="path-5"></path>
        <polygon id="path-7" points="10.4338439 0.087262458 10.4338439 37.7037355 33.8771503 37.7037355 33.8771503 47.1073933 0.0890938544 47.1073933 0.0890938544 0.087262458"></polygon>
        <polygon id="path-9" points="0.0441990642 0.0874773146 10.3886217 0.0874773146 10.3886217 47.1076082 0.0441990642 47.1076082"></polygon>
        <polygon id="path-11" points="39.2072301 0.087262458 39.2072301 7.94610163 13.3458665 38.0392187 39.2072301 38.0392187 39.2072301 47.1073933 0.0453245033 47.1073933 0.0453245033 39.2485542 25.9066881 9.15543713 0.851343549 9.15543713 0.851343549 0.087262458"></polygon>
        <path d="M24.7880323,9.82604539 C16.7996653,9.82604539 10.4908627,16.3251495 10.4908627,24.3135164 C10.4908627,32.3021904 16.7996653,38.8006805 24.7880323,38.8006805 C29.033291,38.8006805 32.8457672,36.9544488 35.498018,34.035162 L42.4480139,40.9851579 C38.0139884,45.6794669 31.7395629,48.6177838 24.7880323,48.6177838 C11.3868146,48.6177838 0.0657154142,37.7147341 0.0657154142,24.3135164 C0.0657154142,10.9122988 11.3868146,0.00955600138 24.7880323,0.00955600138 C31.7941978,0.00955600138 38.1134363,2.99299284 42.5529867,7.75206569 L35.6005353,14.704824 C32.9449082,11.7198525 29.087926,9.82604539 24.7880323,9.82604539 Z" id="path-13"></path>
    </defs>
    <g id="Page-1" stroke="none" stroke-width="1" fill="none" fill-rule="evenodd">
        <g id="Artboard-5-Copy-35" transform="translate(-583.000000, -291.000000)">
            <g id="Primary-Full-Cliqz-Logo(1)" transform="translate(583.121012, 291.199426)">
                <g id="Group-3">
                    <mask id="mask-2" fill="white">
                        <use xlink:href="#path-1"></use>
                    </mask>
                    <g id="Clip-2"></g>
                    <polygon id="Fill-1" fill="#00ACF2" mask="url(#mask-2)" points="-1.53389169 -1.53468973 247.085865 -1.53468973 247.085865 88.5620333 -1.53389169 88.5620333"></polygon>
                </g>
                <g id="Group-6" transform="translate(152.343534, 43.482876)">
                    <mask id="mask-4" fill="white">
                        <use xlink:href="#path-3"></use>
                    </mask>
                    <g id="Clip-5"></g>
                    <polygon id="Fill-4" fill="#FFFFFF" mask="url(#mask-4)" points="-1.50092656 -1.46920963 26.3101068 -1.46920963 26.3101068 26.3415168 -1.50092656 26.3415168"></polygon>
                </g>
                <g id="Group-9" transform="translate(127.788498, 18.927840)">
                    <mask id="mask-6" fill="white">
                        <use xlink:href="#path-5"></use>
                    </mask>
                    <g id="Clip-8"></g>
                    <polygon id="Fill-7" fill="#FFFFFF" mask="url(#mask-6)" points="-1.46399169 -1.48928338 50.9217214 -1.48928338 50.9217214 50.8967367 -1.46399169 50.8967367"></polygon>
                </g>
                <g id="Group-12" transform="translate(69.777226, 19.950966)">
                    <mask id="mask-8" fill="white">
                        <use xlink:href="#path-7"></use>
                    </mask>
                    <g id="Clip-11"></g>
                    <polygon id="Fill-10" fill="#FFFFFF" mask="url(#mask-8)" points="-1.44559588 -1.44742727 35.4118401 -1.44742727 35.4118401 48.6420831 -1.44559588 48.6420831"></polygon>
                </g>
                <g id="Group-15" transform="translate(111.316162, 19.950966)">
                    <mask id="mask-10" fill="white">
                        <use xlink:href="#path-9"></use>
                    </mask>
                    <g id="Clip-14"></g>
                    <polygon id="Fill-13" fill="#FFFFFF" mask="url(#mask-10)" points="-1.49049067 -1.44721242 11.9233114 -1.44721242 11.9233114 48.6422979 -1.49049067 48.6422979"></polygon>
                </g>
                <g id="Group-18" transform="translate(180.786450, 19.950966)">
                    <mask id="mask-12" fill="white">
                        <use xlink:href="#path-11"></use>
                    </mask>
                    <g id="Clip-17"></g>
                    <polygon id="Fill-16" fill="#FFFFFF" mask="url(#mask-12)" points="-1.48936523 -1.44742727 40.7419198 -1.44742727 40.7419198 48.6420831 -1.48936523 48.6420831"></polygon>
                </g>
                <g id="Group-21" transform="translate(21.178718, 19.234778)">
                    <mask id="mask-14" fill="white">
                        <use xlink:href="#path-13"></use>
                    </mask>
                    <g id="Clip-20"></g>
                    <polygon id="Fill-19" fill="#FFFFFF" mask="url(#mask-14)" points="-1.46897432 -1.52513373 44.0876764 -1.52513373 44.0876764 50.1524735 -1.46897432 50.1524735"></polygon>
                </g>
            </g>
        </g>
    </g>
</svg>