<?xml version="1.0" encoding="UTF-8" standalone="no"?>
<svg width="32px" height="33px" viewBox="0 0 32 33" version="1.1" xmlns="http://www.w3.org/2000/svg" xmlns:xlink="http://www.w3.org/1999/xlink">
    <!-- Generator: Sketch 50.2 (55047) - http://www.bohemiancoding.com/sketch -->
    <title>duckduck logo</title>
    <desc>Created with Sketch.</desc>
    <defs>
        <polygon id="path-1" points="4.24902278e-06 0.0143895425 25.5530159 0.0143895425 25.5530159 25.5581699 4.24902278e-06 25.5581699"></polygon>
    </defs>
    <g id="duckduck-logo" stroke="none" stroke-width="1" fill="none" fill-rule="evenodd">
        <g id="Group-7" transform="translate(3.200000, 3.654958)">
            <g id="Group-3-Copy" transform="translate(0.001307, 0.000643)">
                <mask id="mask-2" fill="white">
                    <use xlink:href="#path-1"></use>
                </mask>
                <g id="Clip-2"></g>
                <path d="M23.0946175,18.3646034 C23.0685574,18.4131681 23.0476842,18.4645354 23.0243848,18.514606 C22.4841077,19.4293041 21.8667378,20.2864021 21.1111613,21.0368335 C19.1993182,22.9357093 16.9143927,24.0825224 14.2348005,24.41984 C9.45446065,25.0215655 4.9601966,22.6600492 2.64302013,18.6825537 C2.61854954,18.6405145 2.59069072,18.6003995 2.56442144,18.5593642 C2.01046588,17.5493773 1.58643451,16.4889014 1.33875869,15.3621668 C0.961535163,13.6458374 0.963041046,11.9284204 1.33951163,10.2115054 C1.35281359,10.1507681 1.36013386,10.0886505 1.3702149,10.0272021 C1.57953255,9.29308444 1.80901229,8.56641255 2.13390641,7.8729119 C2.9608868,6.10747399 4.14860967,4.63338248 5.69632209,3.44867137 C5.74555608,3.41098248 5.79182013,3.36952889 5.83950641,3.32987399 C6.81255739,2.64808575 7.84057307,2.06790275 8.97584105,1.70364654 C12.7320973,0.498438693 16.2504659,0.995421699 19.5243378,3.20124654 C19.5759979,3.23604915 19.629875,3.26746353 19.6827064,3.30046745 C20.2945548,3.7837302 20.888709,4.28610928 21.4156424,4.86415895 C22.6452371,6.2130949 23.5224136,7.75971974 24.0365888,9.51160471 C24.0502672,9.55816157 24.0686306,9.60333804 24.0848188,9.64914196 C24.3397312,10.6497171 24.4952973,11.6628831 24.5006515,12.6984701 C24.5110672,14.707108 24.0437417,16.5950661 23.0946175,18.3646034 M25.5525522,12.7007707 C25.5439352,11.6672335 25.4281077,10.6486295 25.1586803,9.64926745 C25.1571325,9.6286034 25.1588058,9.60706092 25.1536188,9.58731712 C24.7514646,8.05625307 24.0951508,6.64365176 23.1712502,5.35775373 C22.600228,4.56302431 21.9578018,3.83175111 21.2053208,3.20166484 C21.1818123,3.17652497 21.1605626,3.14883346 21.1345861,3.1266217 C18.9286358,1.24234458 16.3790515,0.198684444 13.4819012,0.0356726797 C11.4338593,-0.0796109804 9.46295216,0.27234719 7.58708288,1.11497203 C6.39961098,1.64838902 5.30583843,2.32934065 4.34165542,3.20986353 C4.30835869,3.23454327 4.27271948,3.25662954 4.2421417,3.28427922 C2.74424889,4.63781647 1.61935477,6.25174588 0.879464575,8.12999948 C0.637477647,8.74427399 0.425859346,9.37009359 0.317017516,10.0250688 C0.305932549,10.0502086 0.289953464,10.0743864 0.284473725,10.1006975 C-0.142067451,12.1418374 -0.0925406536,14.1710975 0.457441046,16.18304 C0.692484183,17.0429825 1.00010248,17.8774505 1.44032209,18.6575393 C1.81298614,19.4406818 2.28407634,20.1641746 2.84677438,20.8192753 C6.26383059,24.7972308 10.5617861,26.2942452 15.6888554,25.2215132 C18.4695508,24.6396988 20.7536816,23.1479132 22.587679,20.9771838 C23.2130803,20.2370008 23.7429835,19.4328178 24.167726,18.5606609 C24.2142829,18.4763315 24.2653156,18.3941354 24.3066437,18.3072962 C25.1504397,16.5337851 25.5689495,14.6661563 25.5525522,12.7007707" id="Fill-1" fill="#DF5027" mask="url(#mask-2)"></path>
            </g>
            <path d="M13.8706384,8.61389699 C14.422126,8.27473882 14.9447927,8.32183948 15.4816397,8.59394405 C15.3150306,8.24073098 15.0041077,8.06307869 14.6080188,8.08123294 C14.2664763,8.09691922 14.0091796,8.23780288 13.8706384,8.61389699 Z M8.11603451,9.44849046 C8.32593778,8.89754667 8.90775216,8.40495582 9.83466458,8.62841203 C9.52604235,8.30314144 9.00818614,8.27089046 8.51367111,8.54604863 C8.15175739,8.74741856 8.01622797,9.04503948 8.11603451,9.44849046 Z M15.1395731,11.237897 C15.5612124,11.2468068 15.9172685,10.9342107 15.924968,10.5482447 C15.93253,10.1711048 15.5963185,9.85604078 15.1788039,9.8489715 C14.7447904,9.84160941 14.3974422,10.1449192 14.3951048,10.5333114 C14.3928133,10.9128356 14.7270541,11.2291545 15.1395731,11.237897 Z M9.67755085,11.8278264 C10.1257182,11.8255258 10.4860842,11.4608931 10.4826123,11.0132695 C10.4791822,10.5702892 10.1048868,10.2018499 9.66378876,10.2073715 C9.21854954,10.2128931 8.85416784,10.5834656 8.85784889,11.0270316 C8.86152993,11.4731075 9.22695739,11.8301271 9.67755085,11.8278264 Z M7.97029856,6.84440157 C7.9860685,6.83101595 8.00183843,6.81763033 8.01760837,6.80424471 C8.03312732,6.79207216 8.04860444,6.77989961 8.0641234,6.76772706 C8.10080837,6.76647216 8.12912732,6.75308654 8.1405051,6.71506301 C8.17923974,6.68682771 8.21617569,6.65562248 8.25700183,6.63077542 C8.8940319,6.24351268 9.59305412,6.03821072 10.3244528,5.92853229 C10.4018384,5.93154405 10.47776,5.92987085 10.5410907,5.85984732 C10.1721914,5.7035702 9.7950515,5.59263686 9.40833255,5.50546301 C8.83321098,5.37587346 8.25148026,5.37311268 7.66761621,5.38269176 C7.43102536,5.38658196 7.43119268,5.38419765 7.51041882,5.1727885 C7.51510379,5.16028131 7.51351425,5.14534797 7.51485281,5.13154405 L7.51397438,5.13212967 C7.55157961,5.13735843 7.58077699,5.1249349 7.60001882,5.09134536 C7.82908026,4.99534536 8.06901752,4.93536105 8.30979137,4.87813752 C8.37345673,4.88570876 8.42716654,4.85011137 8.44159791,4.80100288 C8.46117438,4.7345349 8.38094431,4.72052183 8.34162405,4.69492183 C8.1328502,4.55897412 7.90684235,4.44845908 7.72693124,4.27059765 C8.59942275,4.14217935 9.46325542,4.18576627 10.3122384,4.42507608 C11.222377,4.68161987 12.0581835,5.07959111 12.7119875,5.78689569 C12.822377,5.90632052 12.9350672,5.97630222 13.0918463,6.0093898 C13.8623561,6.17198327 14.4943665,6.54715712 14.9679665,7.19443556 C15.4781678,7.89165908 15.8742149,8.64506039 16.1528031,9.45878065 C16.480458,10.4159362 16.6906123,11.389782 16.4620528,12.407382 C15.8998149,12.5882133 15.3159927,12.6425506 14.7328816,12.6520042 C13.8659953,12.6661009 13.1701522,13.0423205 12.5396894,13.5914238 C12.0474332,14.020182 12.0455508,14.450446 12.3395744,15.0125166 C12.4841809,15.2888878 12.7165051,15.4912617 12.9392084,15.700914 C12.9299221,15.7341689 12.9172894,15.76688 12.9118515,15.8007624 C12.7900005,16.5642029 12.8892633,17.3126682 13.0613522,18.0571179 C13.2373312,18.8185088 13.5125731,19.5464774 13.7966829,20.2717689 C13.455726,20.3349323 13.0999195,20.3525427 12.7963587,20.5411545 C12.6876424,20.6086682 12.6123482,20.5884225 12.5120397,20.541531 C12.1594123,20.3765114 11.805028,20.2147127 11.4470881,20.061531 C11.1142044,19.9190578 10.7717835,19.8000931 10.4126724,19.7432878 C10.1506907,19.7018761 10.0752293,19.773782 10.0554855,20.02928 C10.0108528,20.6079153 10.0540633,21.1856303 10.0802071,21.7625088 C10.0987796,22.1713976 10.1306959,22.5820016 10.2246044,22.9841558 C10.3380894,23.470012 10.4068162,23.5118003 10.882675,23.3408826 C11.4017861,23.1544042 11.8807822,22.8830107 12.367475,22.6282238 C12.4265809,22.5973114 12.478743,22.5542264 12.5606881,22.5809976 C13.0716005,22.7481924 13.5771169,22.6706813 14.0792868,22.533395 C14.2231822,22.4940329 14.3386332,22.4269793 14.4173992,22.2812434 C14.479977,22.1655833 14.587062,22.044778 14.7473548,22.1821061 C14.9752868,22.6278473 15.2049339,23.0726264 15.4298123,23.5199153 C15.4821417,23.6239885 15.5489443,23.6333584 15.6510097,23.6001035 C15.9219012,23.5118421 16.1995273,23.4431153 16.467658,23.3474918 C18.9527822,22.46128 20.8893469,20.8916068 22.2846306,18.6549114 C22.7291169,17.9423362 23.07936,17.1847101 23.3514227,16.3883911 C23.4962384,15.9644852 23.6197626,15.5357689 23.7079404,15.0987702 C23.7852842,14.7152303 23.8352711,14.3258342 23.8825391,13.9360617 C23.9137025,13.6788068 23.8747169,13.4224303 23.9188894,13.1730813 C23.9815927,12.8192408 23.9552816,12.4697088 23.9292214,12.1178342 C23.9149992,11.5522499 23.8258593,10.996663 23.7098646,10.4442133 C22.4936973,4.65371922 16.8166881,0.770299608 10.9905129,1.75627608 C8.06763712,2.25087477 5.68416,3.6751885 3.88546719,6.02959373 C2.23393255,8.1913715 1.49069595,10.6518578 1.62346458,13.3727362 C1.68127373,14.8202238 2.02679007,16.1991101 2.63717438,17.5092695 C3.38509595,19.1147493 4.46389333,20.4634342 5.85189856,21.5628539 C6.85820444,22.3599258 7.9650698,22.9744094 9.18834824,23.3729244 C9.32835346,23.4690918 9.49596654,23.489714 9.65123974,23.5444695 C9.78174954,23.590399 9.77116654,23.5379441 9.7498332,23.4378865 C9.57674039,22.6248774 9.41017307,21.810446 9.23871163,20.9971441 C8.95857569,19.6683284 8.6717051,18.3409349 8.39600314,17.0112408 C8.03454954,15.2680565 7.67660967,13.524161 7.32624105,11.7787179 C7.13260967,10.8141166 6.92601098,9.84984993 7.05242144,8.85295582 C7.1318149,8.22659242 7.31917176,7.64804078 7.72877176,7.15628654 C7.77470118,7.10119634 7.82054693,7.05095843 7.80983843,6.97302902 C7.82410248,6.96018719 7.83836654,6.94734536 7.85263059,6.9344617 C7.89115608,6.93433621 7.92240314,6.92463163 7.92608418,6.87861856 L7.92386719,6.88125386 C7.9510149,6.88204863 7.96665935,6.86849569 7.97234824,6.84247739 L7.97029856,6.84440157 Z M19.6840136,3.30110222 C20.2959038,3.78436497 20.8900162,4.28670222 21.4169495,4.86483556 C22.6465443,6.2137715 23.5237208,7.76035451 24.0378959,9.51223948 C24.0515744,9.55879634 24.0699378,9.60397281 24.086126,9.64977673 C24.3410384,10.6503937 24.4966044,11.6635179 24.5019587,12.6991467 C24.5123744,14.7077846 24.0450489,16.5957009 23.0959247,18.3652382 C23.0698646,18.4138029 23.0489914,18.4651702 23.025692,18.5152408 C22.4854149,19.4299388 21.868045,20.2870787 21.1124685,21.0374682 C19.2006254,22.9363441 16.9156999,24.0831571 14.2361077,24.4204748 C9.45576784,25.0222003 4.96150379,22.6607258 2.64432732,18.6831885 C2.61985673,18.6411493 2.59199791,18.6010342 2.56572863,18.559999 C2.01177307,17.550012 1.5877417,16.4895362 1.34006588,15.3628016 C0.962842353,13.646514 0.964348235,11.9290552 1.34081882,10.2121401 C1.35412078,10.1514029 1.36144105,10.0892852 1.37152209,10.0278369 C1.58083974,9.29371922 1.81031948,8.56704732 2.13521359,7.87354667 C2.96219399,6.10810876 4.14991686,4.63401725 5.69762928,3.44930614 C5.74686327,3.41161725 5.79312732,3.37020549 5.84081359,3.33050876 C6.81386458,2.64872052 7.84188026,2.06853752 8.97714824,1.70428131 C12.7334044,0.499073464 16.2517731,0.996056471 19.525645,3.20192314 C19.5773051,3.23668392 19.6311822,3.26814013 19.6840136,3.30110222 Z" id="Fill-4-Copy" fill="#FEFDFC"></path>
            <path d="M7.54608765,5.13156497 C7.53690765,5.13236497 7.52772765,5.13316497 7.51854765,5.13396497 C7.51701765,5.13516497 7.51548765,5.13596497 7.51395765,5.13676497 L7.54608765,5.13156497 Z" id="Fill-6-Copy" fill="#D74926"></path>
            <path d="M23.9291754,12.1178217 C23.914995,11.5522374 23.8258552,10.9966505 23.7098604,10.4442426 C22.4936931,4.6537485 16.8166839,0.770287059 10.9905506,1.75626353 C8.06767477,2.25090405 5.68415582,3.67517595 3.88546301,6.02958118 C2.23392837,8.19135895 1.49073359,10.6518452 1.62346039,13.3727237 C1.68126954,14.8202112 2.02678588,16.1990975 2.6371702,17.5092988 C3.38509176,19.1147367 4.46388915,20.4634635 5.85189438,21.5628413 C6.85820026,22.359955 7.96506562,22.9743969 9.18838588,23.3729119 C8.96488784,22.2978374 8.74281203,21.2224701 8.51759895,20.1477302 C8.04136366,17.8753119 7.56345516,15.6032282 7.08621595,13.3309773 C6.93077542,12.470742 6.70447477,11.6218426 6.61889046,10.7508152 C6.49896366,9.52996288 6.64160418,8.3606034 7.42993359,7.35237333 C7.54019765,7.21136418 7.65192575,7.06813804 7.80979242,6.9730583 C7.8240983,6.96017464 7.83836235,6.94733281 7.85262641,6.93444915 C7.86161987,6.8954217 7.89056627,6.88270536 7.92612183,6.87864784 C7.92608,6.87860601 7.92386301,6.88124131 7.92386301,6.88124131 C7.94000941,6.86831582 7.95619765,6.85543216 7.97234405,6.84250667 C7.97234405,6.84246484 7.97029438,6.84443085 7.97029438,6.84443085 C7.98606431,6.83104523 8.00183425,6.81761778 8.01760418,6.80423216 C8.03312314,6.79205961 8.04860026,6.77988706 8.06411922,6.76775634 C8.07595712,6.73044392 8.1056983,6.71910797 8.14050092,6.71509229 C8.17923556,6.68685699 8.2161715,6.65560993 8.25699765,6.63080471 C8.89402771,6.24354196 9.59304993,6.03819817 10.3244486,5.92856157 C10.0592878,5.7805668 9.76007739,5.7659681 9.47094797,5.72054065 C8.77606693,5.61136418 8.0753715,5.60304 7.37480157,5.64332235 C7.21639111,5.65244131 7.18334536,5.60764131 7.24207477,5.47466353 C7.30260288,5.3377119 7.34765386,5.18570144 7.51409569,5.13182431 C7.52986562,5.09120732 7.56332967,5.08794458 7.59997281,5.09133281 C7.82907608,4.99533281 8.06901333,4.9353485 8.30978719,4.87812497 C8.32509699,4.78450928 8.24118588,4.78413281 8.19165908,4.76309229 C7.90022902,4.63931712 7.60633098,4.52118902 7.30289569,4.39687007 C7.44118588,4.33324654 7.57976889,4.28873935 7.72692706,4.2705851 C8.59941856,4.1421668 9.46325124,4.18579556 10.3122342,4.42506353 C11.2223728,4.68160732 12.0581793,5.07962039 12.7119833,5.78688314 C12.8223728,5.90630797 12.935063,5.97628967 13.0918421,6.00937725 C13.8623519,6.17197072 14.4943624,6.54718641 14.9679624,7.19446484 C15.4781637,7.89168837 15.8742107,8.64504784 16.152799,9.45880993 C16.4804539,10.4159237 16.6906081,11.3898112 16.4620486,12.4073276 C17.1988016,12.2444831 17.9244277,12.0391812 18.6535258,11.8462609 C19.0879728,11.7313119 19.4892905,11.4972727 19.9459493,11.471338 C20.3518264,11.4482478 20.749212,11.5093616 21.112297,11.7045407 C21.2708748,11.7897485 21.3662892,11.9226008 21.2850552,12.1183655 C20.9811179,12.5171315 20.5301061,12.6848701 20.0938186,12.8745694 C19.0215467,13.3407655 17.9215833,13.7325041 16.8034238,14.0715367 C16.3076539,14.2218322 15.800548,14.1822191 15.2943205,14.1054191 C15.1038264,14.0764727 14.9140852,14.0262766 14.7155597,14.0589041 C14.426012,14.1064648 14.2494892,14.2853302 14.178378,14.5501563 C14.1044225,14.8255237 14.1834395,15.0703132 14.4160565,15.2576701 C14.737897,15.5169328 15.1207258,15.6144805 15.5150159,15.6708675 C16.4946342,15.81104 17.4546342,15.6689851 18.4089872,15.4537276 C18.8287101,15.3590661 19.2501061,15.2709302 19.6721715,15.1873537 C19.9504669,15.1322217 20.1661009,15.2019942 20.2297244,15.3518295 C20.299246,15.5156779 20.201782,15.7179681 19.964731,15.8878818 C19.3038578,16.3614818 18.543931,16.577074 17.758697,16.7164518 C16.8507336,16.877623 15.9742682,16.6783864 15.1043284,16.4500779 C14.363978,16.2557773 13.6390212,16.0137485 12.9391624,15.7010688 C12.9299179,15.7341563 12.9172852,15.7668675 12.9118473,15.8007498 C12.7899963,16.5641903 12.8892591,17.3126557 13.061348,18.0571054 C13.2373271,18.8184962 13.5125689,19.5465067 13.7966787,20.2717982 C13.8941427,20.2728021 13.9916068,20.2738478 14.089029,20.2748099 C14.2878473,20.2767341 14.469599,20.3052204 14.5069532,20.5658635 C14.9075179,20.2989041 15.2915597,20.0384701 15.680412,19.7853982 C15.9605061,19.6031027 16.2494682,19.4343603 16.5676277,19.3253929 C16.8045114,19.2442426 16.8844068,19.2874949 16.9774787,19.5278923 C17.1020486,19.849691 17.1385663,20.1904805 17.1670107,20.5282583 C17.217165,21.1242112 17.2366578,21.7222557 17.1363075,22.3167446 C17.1259336,22.3781929 17.1134264,22.4395995 17.0965271,22.4995001 C17.0185558,22.776457 16.9556852,22.8129746 16.6802342,22.7670452 C16.2045846,22.6877354 15.7534055,22.5255603 15.3003441,22.3687812 C15.1165846,22.3051995 14.9318212,22.2444622 14.7474761,22.1822609 C14.9752826,22.6278348 15.2049297,23.0726557 15.4298081,23.5199027 C15.4821375,23.6239759 15.5489401,23.6333459 15.6510055,23.600091 C15.921897,23.5118714 16.1995231,23.4431027 16.4676539,23.3474792 C18.952778,22.4612675 20.8893427,20.8915942 22.2846264,18.6548988 C22.7291545,17.9423237 23.0793558,17.1846975 23.3514186,16.3884204 C23.4962342,15.9644727 23.6198003,15.5357563 23.7079362,15.0987576 C23.78528,14.7152596 23.8352669,14.3258217 23.8825349,13.9360492 C23.9136983,13.6787942 23.8747127,13.4224178 23.9188852,13.1730688 C23.9815885,12.8192701 23.9552774,12.469738 23.9291754,12.1178217" id="Fill-8-Copy" fill="#D64827"></path>
            <path d="M21.2850593,12.1183739 C20.9811221,12.5171399 20.5301103,12.6848366 20.0937809,12.8745778 C19.0215508,13.3407739 17.9215875,13.7325124 16.803428,14.0715033 C16.307658,14.2218405 15.8005522,14.1821856 15.2943247,14.1053856 C15.1037888,14.076481 14.9140894,14.026285 14.7155639,14.0589124 C14.4260162,14.1064732 14.2494933,14.2853386 14.1783404,14.5501647 C14.1044267,14.825532 14.1834437,15.0703216 14.4160607,15.2576784 C14.7379012,15.5169412 15.1207299,15.6144889 15.5150201,15.6708758 C16.4946384,15.8110065 17.4546384,15.6689935 18.4089914,15.4537359 C18.8287142,15.3590745 19.2501103,15.2709386 19.6721757,15.1873621 C19.9504711,15.1322719 20.1661051,15.2020026 20.2297286,15.3518379 C20.2992502,15.5156863 20.2017861,15.7179765 19.9647352,15.8878902 C19.303862,16.3614902 18.5439352,16.5770824 17.7587012,16.7164601 C16.8507378,16.8775895 15.9742724,16.6783948 15.1043325,16.4500863 C14.3639822,16.2557856 13.6390254,16.0137569 12.9391247,15.7010353 C12.7165051,15.4912575 12.4841809,15.2888837 12.3395744,15.0125124 C12.0455508,14.4504418 12.0474332,14.0201778 12.5396894,13.5914196 C13.1701522,13.0423163 13.8659953,12.6660967 14.7328816,12.652 C15.3159927,12.6425464 15.8998149,12.5882092 16.4620528,12.4073778 C17.1987639,12.2444915 17.9244319,12.0391477 18.6535299,11.8462693 C19.087977,11.7313203 19.4892946,11.497281 19.9459535,11.4713464 C20.3518306,11.4482562 20.7492162,11.5093281 21.1123012,11.7045072 C21.270879,11.7897569 21.3662933,11.9226092 21.2850593,12.1183739" id="Fill-10-Copy" fill="#FCD00B"></path>
            <path d="M13.7966996,20.2717814 C13.8941218,20.2727854 13.9915859,20.2738729 14.0890081,20.2747932 C14.2878264,20.2767174 14.4696199,20.3052455 14.5069323,20.5658468 C14.9075388,20.2988873 15.2915388,20.0384533 15.6803911,19.7853814 C15.9605271,19.6031278 16.2494892,19.4343435 16.5676068,19.3253762 C16.8044905,19.2442677 16.8843859,19.28752 16.9774578,19.5279174 C17.1020695,19.8496742 17.1385872,20.1905056 17.1669898,20.5282834 C17.2171859,21.1241945 17.2366369,21.7222808 17.1363284,22.3167697 C17.1259545,22.3781762 17.1134055,22.4395827 17.096548,22.4994834 C17.0185349,22.7764403 16.9557061,22.8129579 16.6802552,22.7670285 C16.2045637,22.6877605 15.7533846,22.5255435 15.3003231,22.3688063 C15.1166055,22.3051827 14.9318421,22.2444455 14.7474552,22.1822442 C14.5870787,22.0447906 14.4799937,22.165554 14.4174159,22.2812559 C14.3386499,22.4269501 14.2231571,22.4940455 14.0793035,22.5333658 C13.5771336,22.6706939 13.0716173,22.748205 12.560663,22.5810102 C12.4787179,22.5541971 12.4265558,22.5973239 12.3674918,22.6282363 C11.8807571,22.8830233 11.4018029,23.1544167 10.8826499,23.3408952 C10.4068329,23.5118128 10.3381061,23.4700246 10.2246212,22.9841684 C10.1307127,22.5820141 10.0987545,22.1714102 10.0802238,21.7625213 C10.05408,21.1856429 10.0108277,20.6079278 10.0555022,20.0292925 C10.0752042,19.7737945 10.1506656,19.7018886 10.4126473,19.7433004 C10.7718003,19.8001056 11.1142212,19.9190285 11.4471048,20.0615435 C11.8050447,20.2147252 12.1593872,20.3765239 12.5120565,20.5415017 C12.612365,20.5883932 12.6876173,20.6086808 12.7963754,20.5411252 C13.0999362,20.3525553 13.4557427,20.3349448 13.7966996,20.2717814" id="Fill-12-Copy" fill="#65BB46"></path>
            <path d="M9.18836915,23.3729244 C8.96487111,22.2978499 8.74283712,21.2224826 8.51758222,20.1477009 C8.04134693,17.8752826 7.56343843,15.603199 7.08619922,13.3309898 C6.93080052,12.4707127 6.70445804,11.6218133 6.61891556,10.7507859 C6.49898876,9.52997542 6.64162928,8.36061595 7.42991686,7.35238588 C7.54018092,7.21137673 7.65195085,7.06810876 7.80981752,6.97307085 C7.82052601,7.05095843 7.77468026,7.10119634 7.72879268,7.15628654 C7.31919268,7.64804078 7.13183582,8.22659242 7.05240052,8.85295582 C6.9260319,9.84984993 7.13263059,10.8141166 7.32626196,11.7787179 C7.67658876,13.524161 8.03457046,15.2680565 8.39602405,17.0112408 C8.67168418,18.3409349 8.9585966,19.6683284 9.23873255,20.9971441 C9.41019399,21.810446 9.57676131,22.6248774 9.74985412,23.4378865 C9.77114562,23.5379441 9.78177046,23.590399 9.65126065,23.5444695 C9.49598745,23.489714 9.32837438,23.4690918 9.18836915,23.3729244" id="Fill-14-Copy" fill="#D5D5D6"></path>
            <path d="M10.0364068,10.5387367 C9.91154405,10.5530008 9.82591791,10.6186322 9.82420288,10.7475942 C9.82269699,10.8631707 9.88816105,10.9451158 10.01248,10.9523942 C10.142948,10.9599655 10.225897,10.89584 10.234263,10.7626112 C10.2426708,10.6287969 10.1605166,10.5638766 10.0364068,10.5387367 M9.67754667,11.8278139 C9.2269532,11.8301145 8.86152575,11.4730949 8.85784471,11.0270191 C8.85416366,10.5834949 9.21854536,10.2128805 9.66378458,10.207359 C10.1048826,10.2018792 10.479178,10.5702766 10.4826081,11.0132988 C10.48608,11.4608805 10.125714,11.8255132 9.67754667,11.8278139" id="Fill-16-Copy" fill="#30528F"></path>
            <path d="M15.6966552,10.3050363 C15.6742435,10.1952324 15.6084291,10.1249997 15.4822085,10.1335749 C15.3690958,10.1412716 15.2985608,10.2114625 15.3039231,10.3127749 C15.3097437,10.4226207 15.3863744,10.4913475 15.5136949,10.4830233 C15.6286868,10.4755357 15.6824474,10.4044664 15.6966552,10.3050363 M15.1396164,11.2378886 C14.727085,11.229188 14.3928341,10.9128272 14.3951257,10.533303 C14.3974173,10.1449108 14.744776,9.84160105 15.1788025,9.84900497 C15.5963754,9.85607425 15.9325511,10.1710965 15.9249889,10.5482363 C15.9172892,10.9342442 15.5612683,11.2468403 15.1396164,11.2378886" id="Fill-18-Copy" fill="#30528F"></path>
            <path d="M10.324457,5.92854484 C10.0592962,5.78055007 9.76008575,5.76595137 9.47095634,5.72052392 C8.77607529,5.61134745 8.07533804,5.60302327 7.37480993,5.64334745 C7.21639948,5.65242458 7.18335373,5.60762458 7.24208314,5.4746468 C7.30265307,5.33748601 7.34774588,5.18518275 7.51485699,5.1315566 C7.51351843,5.14536052 7.51510797,5.16025203 7.51042301,5.17280105 C7.43119686,5.38416837 7.43102954,5.38659451 7.66762039,5.38270431 C8.25148444,5.37312523 8.83321516,5.37588601 9.40833673,5.50547556 C9.79505569,5.59264941 10.1721956,5.70358275 10.5410949,5.85981804 C10.4777642,5.9298834 10.4018426,5.9315566 10.324457,5.92854484" id="Fill-20-Copy" fill="#D5D5D6"></path>
            <path d="M8.11602196,9.44847791 C8.01621542,9.04502693 8.15174484,8.74744784 8.51365856,8.54603608 C9.00821542,8.27087791 9.5260298,8.30317072 9.83465203,8.62839948 C8.90778144,8.40494327 8.32596706,8.89753412 8.11602196,9.44847791" id="Fill-22-Copy" fill="#30528F"></path>
            <path d="M13.8706384,8.61389699 C14.0091796,8.23780288 14.2664763,8.09691922 14.6080188,8.08123294 C15.0041077,8.06307869 15.3150306,8.24073098 15.4816397,8.59394405 C14.9447927,8.32183948 14.422126,8.27473882 13.8706384,8.61389699" id="Fill-24-Copy" fill="#30528F"></path>
            <path d="M8.65214439,4.87813333 C8.67271598,4.78451765 8.56027288,4.78414118 8.49390566,4.76310065 C8.10332561,4.63932549 7.70955051,4.52119739 7.30288314,4.39687843 C7.48819566,4.3332549 7.67395661,4.28874771 7.87109639,4.27059346 C8.1122381,4.4484549 8.41503853,4.55896993 8.69485707,4.69491765 C8.74754727,4.72051765 8.85505768,4.73453072 8.82882469,4.80099869 C8.80948627,4.85010719 8.73745765,4.88570458 8.65214439,4.87813333" id="Fill-26-Copy" fill="#D5D5D6"></path>
            <path d="M7.85264314,7.27866458 C8.039101,6.99890446 8.64203949,6.90775003 9.38264314,6.87866458 C9.30596888,7.20819981 8.65510897,7.27776502 7.85264314,7.27866458" id="Fill-28-Copy" fill="#D5D5D6"></path>
            <path d="M8.06410248,7.11507556 C8.30122735,6.83199374 8.89697214,6.74557595 9.59410248,6.71507556 C9.36619449,7.00355848 8.79893819,7.10554418 8.06410248,7.11507556" id="Fill-30-Copy" fill="#D5D5D6"></path>
            <path d="M7.51395765,5.47961054 C7.79288327,5.09813711 8.39015599,5.06813358 9.04395765,5.09969573 C8.70255269,5.41258967 8.18263533,5.52831757 7.51395765,5.47961054" id="Fill-32-Copy" fill="#D5D5D6"></path>
            <path d="M7.92386719,7.21328157 C8.43342716,7.08968157 8.94298712,6.96608157 9.45386719,6.84248157 C9.27433311,7.09128157 8.78061439,7.22088157 7.92386719,7.21328157" id="Fill-34-Copy" fill="#D5D5D6"></path>
            <path d="M7.9702902,7.18825725 C8.4802902,7.06025725 8.9902902,6.93225725 9.5002902,6.80425725 C8.9902902,6.93225725 8.4802902,7.06025725 7.9702902,7.18825725" id="Fill-36-Copy" fill="#D5D5D6"></path>
            <path d="M10.6148517,10.5387367 C11.0772309,10.5638766 11.3833019,10.6287969 11.3519779,10.7626112 C11.3208098,10.89584 11.0117778,10.9599655 10.5257108,10.9523942 C10.0625525,10.9451158 9.81866186,10.8631707 9.82427213,10.7475942 C9.83066159,10.6186322 10.1496674,10.5530008 10.6148517,10.5387367" id="Fill-38-Copy" fill="#FEFDFC"></path>
            <path d="M16.7543124,10.3291635 C16.6990019,10.4425274 16.4897143,10.5235562 16.0420564,10.5320931 C15.5464034,10.5415838 15.2480838,10.4632258 15.2254243,10.3379865 C15.2045491,10.2224764 15.4791387,10.1424492 15.9194813,10.1336739 C16.4108523,10.123897 16.6670646,10.2039719 16.7543124,10.3291635" id="Fill-40-Copy" fill="#FEFDFC"></path>
        </g>
    </g>
</svg>