<?xml version="1.0" encoding="UTF-8" standalone="no"?>
<svg width="32px" height="33px" viewBox="0 0 32 33" version="1.1" xmlns="http://www.w3.org/2000/svg" xmlns:xlink="http://www.w3.org/1999/xlink">
    <!-- Generator: Sketch 50.2 (55047) - http://www.bohemiancoding.com/sketch -->
    <title>ecosia_logo</title>
    <desc>Created with Sketch.</desc>
    <defs>
        <polygon id="path-1" points="0 0.362432188 2.8205335 0.362432188 2.8205335 2.50615211 0 2.50615211"></polygon>
    </defs>
    <g id="ecosia_logo" stroke="none" stroke-width="1" fill="none" fill-rule="evenodd">
        <path d="M6.81070709,16.4975499 C6.81070709,21.5752904 10.917807,25.6832743 15.9990835,25.6885784 C21.0724039,25.6938824 25.1812719,21.5894345 25.192764,16.503738 C25.2042561,11.4313016 21.07594,7.30210143 15.9999675,7.30740547 C10.917807,7.31270952 6.81070709,11.4198095 6.81070709,16.4975499 M16.0096916,5.88945706 C21.8715469,5.90183317 26.6222045,10.6595628 26.6098284,16.50639 C26.5974523,22.3682453 21.8406066,27.1189029 15.9937795,27.1056428 C10.1319242,27.0932667 5.38126658,22.335537 5.39364269,16.4895938 C5.4060188,10.6277385 10.1628644,5.87708095 16.0096916,5.88945706" id="Fill-1" fill="#E55101"></path>
        <path d="M20.2211045,5.1742064 C20.2149164,4.1920738 20.5464193,3.42740711 21.1590367,2.77854543 C21.6328648,2.27642904 22.1968618,1.91221785 22.8457234,1.67441977 C22.9155601,1.64878354 22.9420803,1.65939164 22.9571084,1.73276428 C23.1241859,2.57522365 23.0039608,3.37171462 22.5725651,4.11428112 C22.2905666,4.59871736 21.9484556,5.03983723 21.5037997,5.3916723 C21.192629,5.63742646 20.850518,5.82130007 20.4509465,5.88141259 C20.3148093,5.90174477 20.3130413,5.89997675 20.286521,5.76649159 C20.2423207,5.54372164 20.2175684,5.32006768 20.2211045,5.1742064" id="Fill-3" fill="#0197A7"></path>
        <path d="M17.1399839,30.2644676 C17.1355639,30.8373046 16.9729064,31.5020784 16.5980872,32.1067397 C16.463718,32.3233216 16.3116687,32.5266434 16.1304471,32.707865 C16.0835947,32.7556014 16.0606105,32.7520654 16.0181781,32.7016769 C15.4179368,31.9767906 15.1377064,31.1546634 15.2331792,30.2096591 C15.2897557,29.6350541 15.4170528,29.0816653 15.6875592,28.5689408 C15.8245804,28.3108105 15.9943099,28.0783165 16.2064717,27.8767627 C16.2665843,27.8201862 16.3019446,27.8193022 16.3611731,27.8776467 C16.7633966,28.2701462 16.9764425,28.7572344 17.0825234,29.2991312 C17.1355639,29.5740576 17.154128,29.851636 17.1399839,30.2644676" id="Fill-5" fill="#0197A7"></path>
        <path d="M15.9978459,2.74627915 C15.9934259,3.33237628 15.9288933,3.90874933 15.7052393,4.45683412 C15.6053465,4.69993625 15.4727453,4.92359021 15.2941757,5.11983993 C15.2393673,5.18083646 15.205775,5.1737644 15.1536185,5.1171879 C14.7222227,4.65219983 14.4384563,4.10941908 14.3182312,3.48972966 C14.0963453,2.35024368 14.3323753,1.29739047 14.9485287,0.320561919 C15.0059892,0.228625114 15.0369295,0.248957292 15.097042,0.314373865 C15.6141865,0.88279084 15.898837,1.5519847 15.9792817,2.31223135 C15.9872378,2.39002403 15.9934259,2.46781671 15.9969619,2.54472539 C15.9996139,2.61190997 15.9978459,2.67909456 15.9978459,2.74627915" id="Fill-7" fill="#0197A7"></path>
        <path d="M8.84030046,29.8163641 C8.87035672,28.7935671 9.39987736,27.9696719 10.2582489,27.3305343 C10.4209063,27.2103093 10.61362,27.1448927 10.8134057,27.1086484 C10.8823583,27.0971563 10.9177186,27.1121844 10.9265587,27.1873251 C11.070652,28.3064789 10.7541772,29.2612072 9.9187899,30.031178 C9.65270357,30.2769321 9.35125693,30.4740658 9.01268197,30.609319 C8.94638139,30.6367233 8.92604921,30.6296512 8.90925306,30.5553946 C8.86063264,30.3361606 8.85002454,30.1142747 8.84030046,29.8163641" id="Fill-9" fill="#0197A7"></path>
        <path d="M11.0667623,4.72663328 C11.0614583,4.84774234 11.0535022,4.97769148 11.0119539,5.10410459 C10.9933897,5.16068108 10.9677535,5.18278128 10.9049889,5.16863715 C9.76373494,4.90520285 8.83906285,4.0547874 8.93983973,2.67927136 C8.94160775,2.65451915 8.9477958,2.62976693 8.95133183,2.60589872 C9.0043723,2.31417617 8.94956382,2.31948021 9.25985053,2.42202511 C10.2525912,2.75176 10.8395724,3.44393806 11.0481982,4.46408299 C11.0517342,4.48087913 11.0535022,4.49855929 11.0543862,4.51623944 C11.0588063,4.58342403 11.0623423,4.65060862 11.0667623,4.72663328" id="Fill-11" fill="#0197A7"></path>
        <path d="M24.7464285,24.2550714 C25.3263376,24.2453473 25.8496701,24.4000487 26.3111222,24.7660279 C26.6709133,25.0524464 26.97236,25.3804133 27.1526975,25.809157 C27.2198821,25.9682784 27.2693866,26.1335879 27.3047469,26.3033173 C27.318007,26.3705019 27.3118189,26.4032102 27.2296062,26.4102823 C26.6099168,26.4695108 26.0538759,26.3086214 25.5552956,25.9452942 C25.2423568,25.7181042 24.9585903,25.4564379 24.7473125,25.1284711 C24.6041032,24.9065851 24.5024423,24.669671 24.4838782,24.4009327 C24.4776901,24.3036918 24.5042104,24.2541874 24.6085233,24.2621435 C24.6544917,24.2656795 24.7004601,24.2577234 24.7464285,24.2550714" id="Fill-13" fill="#0297A7"></path>
        <path d="M23.8166291,29.5272052 C23.8122091,29.6368221 23.8069051,29.7455551 23.795413,29.854288 C23.7848049,29.9382688 23.7503286,29.9303127 23.689332,29.9152846 C23.2605883,29.8092036 22.8742769,29.6164899 22.548078,29.3168113 C22.1051902,28.9083997 21.8090476,28.4098194 21.6826345,27.8193022 C21.6357821,27.6036043 21.631362,27.3843704 21.7065027,27.1704405 C21.7206468,27.1306602 21.7303709,27.1023719 21.7860634,27.115632 C22.7107355,27.341054 23.4055655,27.8343303 23.7105482,28.7749146 C23.7892249,29.0180167 23.8237012,29.2708429 23.8166291,29.5272052" id="Fill-15" fill="#0197A7"></path>
        <path d="M27.0574899,5.87266091 C27.0901982,5.87442893 27.1441227,5.88415302 27.1953951,5.87884897 C27.3218082,5.86647286 27.3209242,5.93807749 27.3041281,6.02736227 C27.2289874,6.43842587 27.0566059,6.80352106 26.7551593,7.09170758 C26.265419,7.56023169 25.697886,7.88908256 25.01278,7.98101937 C24.8722228,7.99958353 24.7316656,7.99074345 24.5911083,7.96864326 C24.5106636,7.95538314 24.4814914,7.92532688 24.4947515,7.83692611 C24.5840363,7.24110489 24.8678027,6.76374071 25.349587,6.40394956 C25.8508193,6.03001429 26.4227724,5.88415302 27.0574899,5.87266091" id="Fill-17" fill="#0197A7"></path>
        <g id="Group-21" transform="translate(4.687939, 23.901910)">
            <mask id="mask-2" fill="white">
                <use xlink:href="#path-1"></use>
            </mask>
            <g id="Clip-20"></g>
            <path d="M0.281379663,2.50536633 C0.23187523,2.50536633 0.182370796,2.50713434 0.132866363,2.50536633 C-0.00945888279,2.50006228 -0.0138789215,2.49652625 0.0126413106,2.35066497 C0.100158077,1.86888076 0.324696042,1.45870117 0.68095116,1.12719827 C1.23699203,0.611821755 1.90530188,0.376675697 2.65759246,0.362531573 C2.68941674,0.361647565 2.72124102,0.366951612 2.7530653,0.366951612 C2.81229382,0.366951612 2.82908996,0.389051805 2.81671385,0.451816355 C2.69560479,1.1086341 2.36410189,1.62843065 1.81955313,2.01562604 C1.35810109,2.34359291 0.842724576,2.49299022 0.281379663,2.50536633" id="Fill-19" fill="#0197A7" mask="url(#mask-2)"></path>
        </g>
        <path d="M7.2225663,8.02477775 C6.43049537,8.00090954 5.77014159,7.69504287 5.24504099,7.10629371 C4.95862248,6.78716692 4.78358895,6.4079276 4.69960822,5.98802392 C4.6863481,5.92260735 4.68900012,5.88724704 4.77386487,5.88371101 C5.46869495,5.85895879 6.0919204,6.05520851 6.63381715,6.48925631 C6.97327612,6.76153069 7.26411466,7.07712146 7.42677209,7.49083708 C7.48423259,7.63227832 7.52136091,7.77813959 7.51870889,7.93284095 C7.51782488,7.98764943 7.50721679,8.01770569 7.44356823,8.01593767 C7.37019559,8.01328565 7.29593894,8.02124172 7.2225663,8.02477775" id="Fill-22" fill="#0197A7"></path>
        <path d="M10.039457,11.5107739 C10.0200088,11.5072378 10.0155887,11.5169619 10.0182408,11.5337581 L10.0200088,11.53199 C10.0147047,11.5364101 10.0102847,11.5408301 10.0058647,11.5443662 C10.0085167,11.5443662 10.0120527,11.5443662 10.0147047,11.5434821 C9.81845502,11.7468039 9.65491359,11.9739939 9.5072843,12.212676 C9.49490819,12.2294722 9.47988006,12.2453843 9.46838796,12.2630644 C8.85400258,13.2133728 8.46857521,14.2503138 8.30414977,15.3703516 C8.2511093,15.7080426 8.22547308,16.0483856 8.22105304,16.3896126 C8.21398098,16.9978099 8.27497751,17.5989352 8.40669466,18.1938724 C8.55255594,18.8524581 8.77797791,19.4854077 9.04229623,20.1050971 C9.05909237,20.1448774 9.0732365,20.1775857 9.12185692,20.1413414 C9.53380453,20.9210362 10.0615571,21.6105623 10.7086508,22.2090355 C11.5864705,23.0205546 12.5986594,23.6004637 13.7434494,23.9452267 C14.6990617,24.2325292 15.6732383,24.328002 16.666863,24.2466733 C17.3793732,24.1874448 18.0688992,24.0345115 18.7372091,23.7852213 C19.8926072,23.3529415 20.8897679,22.6828636 21.7260392,21.7767557 C22.4615337,20.9784967 23.0069665,20.0670848 23.3570335,19.0389838 C23.4392462,18.83301 23.4993588,18.6190801 23.5532832,18.4033822 C23.6814644,17.8994978 23.751301,17.3867733 23.7751692,16.8687448 C23.7963854,16.3586723 23.7742852,15.8503678 23.6982605,15.3455994 C23.6514081,15.0326607 23.6001356,14.7188379 23.4958227,14.4182753 C23.4914027,14.3970591 23.4896347,14.3758429 23.4834466,14.3555108 C23.2571406,13.5581358 22.9132616,12.8155693 22.4473896,12.1304633 C22.3315845,11.9598498 22.2219676,11.7821642 22.0699183,11.638955 C22.0566581,11.5956386 22.044282,11.5505542 21.9859375,11.5523222 L21.9868215,11.5540902 C21.9824015,11.4851376 21.9426211,11.4453573 21.8798566,11.4259091 L21.8807406,11.4267931 C21.9001888,11.3985049 21.8807406,11.3905488 21.8577564,11.3834767 L21.8586404,11.3843608 C21.8595244,11.3693326 21.8542204,11.3596085 21.8365402,11.3622606 L21.8374242,11.3631446 C21.8250481,11.3180602 21.8064839,11.2800478 21.7516755,11.2773958 L21.7525595,11.2782798 C21.7640516,11.2526436 21.7560955,11.2446875 21.7313433,11.2561796 L21.7322273,11.2570636 C21.7516755,11.2287754 21.7295753,11.2217033 21.7083591,11.2146313 L21.7101271,11.2155153 C21.7092431,11.2004871 21.702171,11.1925311 21.6880269,11.1925311 L21.6889109,11.1942991 C21.5775259,11.0378297 21.4325487,10.9140686 21.2919914,10.7858875 C20.4159398,9.97436842 19.4055189,9.39534335 18.2616129,9.05058033 C17.2229038,8.7385256 16.1647466,8.65189284 15.0880251,8.77388591 C14.3295465,8.85963466 13.6002401,9.05588438 12.899222,9.35821502 C12.5244027,9.50054027 12.1814077,9.70297804 11.8437167,9.91690791 C11.3858007,10.2033264 10.961477,10.5321773 10.5787017,10.9140686 C10.4593606,11.0060054 10.3665398,11.1271145 10.2604589,11.2340794 C10.2436627,11.2499916 10.2109545,11.2641357 10.2295186,11.299496 L10.2304026,11.298612 C10.2056504,11.2888879 10.2021144,11.298612 10.2083024,11.3207122 L10.2083024,11.3198282 C10.1481899,11.3304363 10.1287417,11.3817087 10.1022215,11.4276771 L10.1039895,11.4259091 C10.0898454,11.4267931 10.0827733,11.4356332 10.0818893,11.4488933 L10.0827733,11.4480093 C10.0642092,11.4559654 10.046529,11.4648055 10.0589051,11.4913257 L10.0606731,11.4895577 C10.0385729,11.4824856 10.0350369,11.4930937 10.0385729,11.5116579 L10.039457,11.5107739 Z M6.8110607,16.4974615 C6.8110607,11.4197211 10.9172766,7.31262112 15.9994371,7.30731707 C21.0754095,7.30201303 25.2037257,11.4312132 25.1931176,16.5036496 C25.1816255,21.5893461 21.0718735,25.693794 15.9985531,25.689374 C10.9172766,25.6831859 6.8110607,21.575202 6.8110607,16.4974615 Z" id="Fill-24" fill="#FEFDFD"></path>
        <path d="M18.4029658,19.8298171 C18.3950097,19.7635165 18.4409781,19.6653916 18.3251731,19.6264953 C18.2182081,19.589367 18.1430675,19.6415234 18.0741149,19.7140121 C18.0670428,19.7219681 18.0582027,19.7290402 18.0528987,19.7378803 C17.9309056,19.9244059 17.8221727,20.1153516 17.8407368,20.3531497 C17.8469249,20.4256383 17.864605,20.4839828 17.9344417,20.5158071 C18.0042783,20.5476314 18.0564347,20.510503 18.1059392,20.4689547 C18.3021889,20.3054132 18.4003137,20.0959034 18.4029658,19.8298171 M10.5786133,10.914599 C10.9613886,10.5318237 11.3865963,10.2029728 11.8436283,9.91743832 C11.9850696,9.995231 11.9983297,10.0394314 11.914349,10.1755686 C11.8648445,10.2568973 11.8135721,10.338226 11.7835158,10.4283948 C11.7278233,10.5928202 11.7658357,10.7422175 11.8772206,10.8712827 C11.9841856,10.9950437 12.1229748,10.9976958 12.2670681,10.9587994 C12.4146973,10.9181351 12.5455305,10.8394584 12.6825517,10.7758098 C12.8407891,10.7033212 13.0007945,10.6440927 13.177596,10.6352526 C13.5488793,10.6166884 13.8901063,10.5053035 14.1924369,10.2869536 C14.3329941,10.1852927 14.4505672,10.0668356 14.4983036,9.89357011 C14.5531121,9.6982044 14.4691313,9.56029919 14.2702296,9.51698281 C14.1482365,9.49046258 14.0235914,9.50107067 13.9007144,9.49488262 C13.5630234,9.47808647 13.2226804,9.4816225 12.8991336,9.35874543 C13.6001517,9.05553077 14.3294581,8.86016506 15.0879367,8.77353231 C16.1646582,8.65153924 17.2228154,8.738172 18.2615245,9.05111073 C19.4054305,9.39498974 20.4158514,9.97489882 21.2927871,10.7855339 C21.4324603,10.914599 21.5774375,11.0374761 21.6888225,11.1939455 C21.6145659,11.1957135 21.5411932,11.1948295 21.4669366,11.2010176 C20.7597304,11.2602461 20.0560602,11.3557189 19.3515061,11.4388156 C18.9572386,11.485668 18.5700432,11.4892041 18.1916879,11.3495309 C17.9264856,11.25229 17.6586312,11.1621212 17.3898929,11.0746044 C17.2343075,11.024216 17.0769542,10.9614515 16.9054567,10.9923917 C16.5288694,11.0604603 16.1982505,11.2301898 15.8976878,11.4609158 C15.7889549,11.5448966 15.7155822,11.6527455 15.69083,11.7950708 C15.6678458,11.9232519 15.6316015,12.048781 15.579445,12.169006 C15.5043044,12.3431555 15.4388878,12.3617197 15.2797664,12.2574068 C15.1577734,12.1787301 15.0402003,12.0929814 14.9173232,12.0187247 C14.7926782,11.9435841 14.6706851,11.9692203 14.54162,12.0859093 C14.4390751,12.1778461 14.4240469,12.2565228 14.4868115,12.399732 C14.5345479,12.505813 14.5858203,12.6110099 14.6326728,12.7170908 C14.6680331,12.7975355 14.658309,12.8673721 14.5849363,12.9239486 C14.4735514,13.0114654 14.3639344,13.1007502 14.2552015,13.190035 C14.1164122,13.303188 14.0112153,13.4322531 14.0103313,13.6258508 C14.0085633,13.8309406 13.9272346,14.0095101 13.8034735,14.1703995 C13.6558442,14.3622292 13.4648985,14.5107425 13.294285,14.679588 C13.1546118,14.8174932 13.0273147,14.9660065 12.9680862,15.1551842 C12.827529,15.59542 12.8770334,16.0294678 13.0423428,16.4502555 C13.1546118,16.74021 13.3729617,16.9223156 13.6841325,16.9735881 C13.7990535,16.9921522 13.9166265,16.9930362 14.0333155,17.0045283 C14.3073579,17.0292806 14.547808,17.1344775 14.7254936,17.3475234 C15.0676046,17.7577029 15.1400932,18.2430232 15.0490404,18.7451396 C14.9668277,19.2021716 14.8978751,19.6503635 15.003956,20.1091635 C15.0799807,20.4397824 15.1940177,20.7527212 15.4105996,21.0196915 C15.5608809,21.2035651 15.7491745,21.2716337 15.9860886,21.2132892 C16.2009025,21.1611327 16.3724,21.0479797 16.5191453,20.8879743 C16.6764986,20.7173608 16.7967237,20.5219951 16.9116447,20.3239774 C16.9867854,20.1931443 17.0796062,20.0808753 17.1998312,19.9880545 C17.3227083,19.8925816 17.4270212,19.7758926 17.5260301,19.6565516 C17.6860355,19.4620699 17.7735522,19.2428359 17.7815083,18.9873577 C17.7921164,18.6505508 17.9335576,18.3694363 18.1633997,18.1272182 C18.3039569,17.9804729 18.4613103,17.8567118 18.6115916,17.7214586 C18.7433087,17.6030016 18.8325935,17.4712844 18.8352455,17.2847588 C18.8378976,17.0009923 18.9890629,16.8073946 19.235701,16.6845175 C19.3965905,16.6067249 19.5362637,16.5006439 19.6724009,16.3857229 C19.8226822,16.2584258 19.9570514,16.1116805 20.1250128,16.0047156 C20.2920903,15.8986347 20.4352995,15.9145468 20.5732048,16.05422 C20.6677936,16.1488089 20.7270221,16.2646139 20.7791786,16.3857229 C20.8781874,16.619101 20.944488,16.8648551 21.0302368,17.1044212 C21.0894653,17.2732667 21.1398537,17.4491842 21.2574267,17.5915095 C21.3811878,17.7417908 21.5341212,17.7294147 21.63313,17.5623372 C21.6552302,17.5260929 21.6720264,17.4871966 21.6905905,17.4483002 C21.7595431,17.2980189 21.8205397,17.1433176 21.8983324,16.9965723 C22.1131462,16.5872767 22.5737143,16.510368 22.8937251,16.8436389 C23.1792596,17.1415495 23.3366129,17.4969207 23.2597043,17.9238964 C23.2402561,18.0352814 23.2208079,18.1466663 23.1872156,18.2545153 C23.0952788,18.5497739 23.1880996,18.8017161 23.3569451,19.0386302 C23.0068781,20.0676152 22.4614453,20.9790271 21.7259508,21.7764021 C20.8896795,22.6833941 19.8925188,23.3525879 18.7371207,23.7857517 C18.0688108,24.0350419 17.3792848,24.1879752 16.6667746,24.2463197 C15.6731499,24.3276484 14.6989733,24.2321756 13.743361,23.9448731 C12.598571,23.6009941 11.5863821,23.020201 10.7085624,22.2086819 C10.0614687,21.6110927 9.53371613,20.9206826 9.12176852,20.1427558 C9.27204984,19.9624182 9.40818703,19.7741246 9.53636815,19.5796429 C9.68753347,19.3480329 9.86787105,19.1517831 10.1162772,19.020066 C10.3284391,18.906913 10.4654603,18.7274594 10.5149647,18.4878933 C10.5538611,18.2987157 10.6387258,18.1289862 10.7474588,17.9698648 C10.7854711,17.9150563 10.8199474,17.8575958 10.8500036,17.7974833 C10.9658087,17.5667573 10.9339844,17.4394602 10.7253586,17.2900628 C10.544137,17.1592297 10.3487713,17.0496127 10.1436815,16.965632 C9.88731922,16.8613191 9.70963367,16.6836335 9.58145255,16.4467195 C9.55935235,16.4060551 9.53194811,16.3689268 9.51073193,16.3282624 C9.25348568,15.82703 8.80087371,15.5715518 8.30406137,15.369998 C8.4684868,14.2499602 8.85391418,13.2130192 9.46918356,12.2627108 C9.47979166,12.2450307 9.49481979,12.2291186 9.5071959,12.2132064 C9.51161593,12.2742029 9.55670033,12.2503347 9.58587258,12.2467987 C9.72200978,12.2308866 9.85284292,12.1884542 9.9536198,12.0991694 C10.1357254,11.936512 10.320483,11.8763995 10.5688892,11.9577282 C10.7677909,12.0222607 10.9498965,11.824243 10.9003921,11.6191532 C10.8402796,11.3725151 10.7271266,11.1453251 10.6148576,10.9199031 C10.6033655,10.9181351 10.5909894,10.9163671 10.5786133,10.914599" id="Fill-26" fill="#0097A6"></path>
        <path d="M15.4038811,13.5270187 C15.3649848,13.5340908 15.3101763,13.5093386 15.2916121,13.560611 C15.273048,13.6109994 15.2880761,13.6631559 15.3252044,13.7082403 C15.5497424,13.9769786 15.7848884,14.2351089 16.0483227,14.4667189 C16.2242403,14.6214203 16.4310981,14.6912569 16.6635921,14.6691567 C16.7776291,14.6585486 16.880174,14.6726927 16.9765309,14.7354573 C17.1595205,14.8530303 17.330134,14.7840777 17.4919074,14.6868369 C17.5714681,14.6391004 17.5732361,14.5701478 17.5069355,14.5011952 C17.4326789,14.4242866 17.338974,14.3836222 17.2328931,14.3783182 C17.1568685,14.3738981 17.0843798,14.357986 17.0224993,14.3164376 C16.6078996,14.0362072 16.1393755,13.8611736 15.7062118,13.6180715 C15.6142749,13.5659151 15.5143821,13.5279027 15.4038811,13.5270187 M23.3572987,19.038807 C23.1884532,18.8018929 23.0947484,18.5499507 23.1875692,18.2546921 C23.2211615,18.1468431 23.2397257,18.0354582 23.2600579,17.9240732 C23.3369665,17.4970975 23.1796132,17.1417263 22.8940787,16.8438157 C22.5731839,16.5105448 22.1134998,16.5874535 21.898686,16.9967491 C21.8208933,17.1434944 21.7590127,17.2981957 21.6900601,17.448477 C21.67238,17.4864894 21.6546998,17.5253857 21.6334836,17.56163 C21.5344748,17.7295915 21.3815414,17.7419676 21.2568963,17.5916863 C21.1393233,17.449361 21.0898189,17.2734435 21.0297063,17.104598 C20.9448416,16.8650319 20.877657,16.6192778 20.7786482,16.3850157 C20.7264917,16.2647907 20.6672632,16.1489857 20.5735584,16.0543968 C20.4347691,15.9147236 20.2915599,15.8988115 20.1253664,16.0048924 C19.956521,16.1118573 19.8230358,16.2586026 19.6718705,16.3858997 C19.5366173,16.5008207 19.3969441,16.6060177 19.2360547,16.6846943 C18.9894165,16.8075714 18.8382512,17.0011691 18.8355991,17.2849356 C18.8329471,17.4714612 18.7427783,17.6031784 18.6119452,17.7216354 C18.4616639,17.8560046 18.3034265,17.9806497 18.1637533,18.127395 C17.9330272,18.3696131 17.791586,18.6507276 17.7809779,18.9875345 C17.7739059,19.2430127 17.6863891,19.4622467 17.5254997,19.6567284 C17.4264908,19.7760694 17.3230619,19.8927584 17.1993008,19.9882313 C17.0799598,20.0810521 16.987139,20.1933211 16.9119983,20.3232702 C16.7961933,20.5221719 16.6759682,20.7175376 16.5194989,20.8881511 C16.3727536,21.0481565 16.2003721,21.1613095 15.9855582,21.213466 C15.7495281,21.2718105 15.5612345,21.2037419 15.4109532,21.0198683 C15.1943713,20.752898 15.0803343,20.4399592 15.0043096,20.1093403 C14.8982287,19.6505403 14.9671813,19.2023484 15.049394,18.7453164 C15.1395628,18.2432 15.0670742,17.7578797 14.7249632,17.3477002 C14.5472776,17.1346543 14.3077115,17.0294574 14.0327851,17.0047052 C13.9160961,16.993213 13.7994071,16.992329 13.6844861,16.9728809 C13.3724313,16.9224924 13.1549654,16.7403868 13.0418124,16.4504323 C12.877387,16.0296446 12.8278826,15.5955968 12.9675558,15.155361 C13.0276683,14.9661833 13.1549654,14.81767 13.2937546,14.6797648 C13.4652521,14.5109193 13.6553138,14.362406 13.8029431,14.1705763 C13.9267042,14.0096869 14.0089169,13.8311174 14.0106849,13.6260276 C14.0115689,13.4324299 14.1167658,13.3033648 14.254671,13.1902118 C14.363404,13.100927 14.473021,13.0116422 14.5844059,12.9241254 C14.6577786,12.8666649 14.6683867,12.7977123 14.6330264,12.7172676 C14.5852899,12.6111867 14.5349015,12.5059898 14.4871651,12.3999088 C14.4244005,12.2566996 14.4385447,12.1780229 14.5410896,12.0860861 C14.6710387,11.9693971 14.7930318,11.9437609 14.9167928,12.0180175 C15.0405539,12.0931582 15.158127,12.1789069 15.279236,12.2575836 C15.4392414,12.3618965 15.503774,12.3433324 15.5789146,12.1691828 C15.6319551,12.0489578 15.6681994,11.9234287 15.6902996,11.7952476 C15.7159358,11.6529223 15.7893085,11.5450734 15.8980414,11.4610926 C16.1977201,11.2303666 16.528339,11.0606371 16.9049262,10.9925685 C17.0773078,10.9616283 17.2337771,11.0235088 17.3902465,11.0747812 C17.6589848,11.162298 17.9268392,11.2524668 18.1911575,11.3497077 C18.5703968,11.4893809 18.9575922,11.4849608 19.3518597,11.4389924 C20.0564138,11.3558957 20.760084,11.2604229 21.4664062,11.2011944 C21.5406628,11.1950063 21.6140355,11.1958903 21.6882921,11.1941223 L21.6874081,11.1923543 C21.680336,11.2144545 21.6847561,11.2250626 21.7103923,11.2153385 L21.7086243,11.2144545 C21.6882921,11.2436267 21.7086243,11.2515828 21.7316085,11.2577708 L21.7307245,11.2560028 C21.7289565,11.271915 21.7351445,11.2807551 21.7528247,11.278103 L21.7519407,11.277219 C21.7616648,11.3240714 21.7819969,11.3611998 21.8368054,11.3629678 L21.8359214,11.3620838 C21.8270813,11.386836 21.8315014,11.3965601 21.8589056,11.385068 L21.8580216,11.384184 C21.8368054,11.4133562 21.8562536,11.4213123 21.8801218,11.4275003 L21.8792378,11.4257323 C21.8969179,11.4831928 21.9358143,11.5238572 21.9862027,11.5547974 L21.9853187,11.5530294 C21.9976948,11.5972298 22.0083029,11.6440822 22.0701835,11.6387782 C22.0436632,11.6900506 22.0922836,11.7112668 22.1143838,11.7395551 C22.5183754,12.2717277 22.8507623,12.8454487 23.1141966,13.4607181 C23.2485658,13.7745409 23.3519947,14.0998557 23.4713357,14.4189825 C23.4916679,14.6090442 23.5650405,14.7858457 23.5995168,14.9723714 C23.6437172,15.2216615 23.7029457,15.4691837 23.7038298,15.7237779 C23.7038298,15.8661032 23.7232779,16.0031244 23.7577542,16.1401456 C23.7665943,16.1737379 23.7745504,16.2090982 23.7745504,16.2435745 C23.7763184,16.4522003 23.7754344,16.6599421 23.7754344,16.867684 C23.7506822,17.3865965 23.6808456,17.899321 23.5535484,18.4040894 C23.49874,18.6189033 23.4395114,18.8328332 23.3572987,19.038807" id="Fill-28" fill="#CCDB39"></path>
        <path d="M8.30423817,15.3700864 C8.80105052,15.5716402 9.25366248,15.8271184 9.51090873,16.3283508 C9.53212491,16.3690152 9.55952915,16.4061435 9.58162935,16.4468079 C9.70981047,16.6837219 9.88749602,16.8614075 10.1438583,16.9657204 C10.3489481,17.0497011 10.5443138,17.1584341 10.7255354,17.2901512 C10.9341612,17.4395486 10.9659855,17.5668457 10.8501805,17.7975717 C10.8201242,17.8568002 10.7856479,17.9151447 10.7476356,17.9699532 C10.6389026,18.1290746 10.5540379,18.2988041 10.5151415,18.4879817 C10.4647531,18.7275478 10.3286159,18.9070014 10.116454,19.0201544 C9.86804785,19.1518715 9.68682627,19.3481213 9.53654495,19.5797313 C9.40836383,19.773329 9.27222664,19.9625066 9.12194532,20.1419602 C9.0733249,20.1773205 9.05918077,20.1446122 9.04238463,20.1048319 C8.77806631,19.4851425 8.55264434,18.8521929 8.40678306,18.1936072 C8.27506591,17.5986699 8.21318537,16.9975447 8.22114144,16.3893474 C8.22556148,16.0481204 8.2503137,15.7077774 8.30423817,15.3700864" id="Fill-30" fill="#CBDB3A"></path>
        <path d="M12.8994872,9.35856863 C13.22215,9.4814457 13.563377,9.47790967 13.901068,9.49470582 C14.023061,9.50089387 14.1477061,9.49028578 14.2705832,9.51680601 C14.4686009,9.56012239 14.5525817,9.6980276 14.4986572,9.89339331 C14.4509208,10.0666588 14.3333477,10.1859999 14.1927905,10.2867768 C13.8895759,10.5051267 13.5483489,10.6165116 13.1770656,10.6350758 C13.0002641,10.6447999 12.8411427,10.7031444 12.6829053,10.776517 C12.5458841,10.8392816 12.4141669,10.9188423 12.2665376,10.9586226 C12.1224444,10.997519 11.9845392,10.9948669 11.8775742,10.8711059 C11.7661893,10.7420407 11.7281769,10.5926434 11.7829854,10.428218 C11.8130417,10.3380492 11.8651981,10.2567205 11.9147026,10.1753918 C11.9977993,10.0392546 11.9854232,9.9950542 11.8439819,9.91726152 C12.1816729,9.70244764 12.5237839,9.50089387 12.8994872,9.35856863" id="Fill-32" fill="#CBDB3A"></path>
        <path d="M10.6152112,10.9198147 C10.7274802,11.1452367 10.8406332,11.3724267 10.8998617,11.6190648 C10.9502501,11.8241546 10.7681445,12.0230563 10.5683588,11.9576398 C10.3208366,11.8763111 10.136079,11.9364236 9.95397341,12.099081 C9.85319652,12.1883658 9.72147937,12.2307982 9.58622619,12.2467103 C9.55705393,12.2502463 9.51196954,12.2741145 9.5075495,12.213118 C9.65517879,11.9744359 9.81872022,11.7463619 10.0140859,11.5439242 C10.0149699,11.5403881 10.017622,11.5359681 10.01939,11.5324321 L10.017622,11.5342001 C10.0326501,11.5324321 10.0397222,11.52536 10.0397222,11.5103319 C10.0397222,11.5103319 10.0388381,11.5120999 10.0388381,11.5112159 C10.0529823,11.5112159 10.0600543,11.5032598 10.0609383,11.4891157 L10.0591703,11.4908837 C10.0795025,11.4829276 10.0954146,11.4723195 10.0821545,11.4475673 L10.0812705,11.4493353 C10.1024867,11.4546394 10.1095588,11.4457993 10.1042547,11.4263511 L10.1024867,11.4272351 C10.1625992,11.416627 10.1917715,11.3741947 10.2085676,11.3202702 C10.2262478,11.3229222 10.2315518,11.3149661 10.2297838,11.29817 L10.2288998,11.299054 C10.3729931,11.187669 10.4896821,11.0488798 10.6152112,10.9198147" id="Fill-34" fill="#C9DA3B"></path>
        <path d="M23.4713357,14.4188057 C23.3519947,14.0996789 23.2485658,13.7743641 23.1141966,13.4614253 C22.8507623,12.846156 22.5183754,12.2715509 22.1143838,11.7393783 C22.0922836,11.71109 22.0436632,11.6898738 22.0701835,11.6386014 C22.2222328,11.7826946 22.3318497,11.9594962 22.4476548,12.1309937 C22.9135268,12.8160997 23.2574058,13.5586662 23.4837118,14.3560412 C23.4898999,14.3763733 23.4907839,14.3975895 23.4952039,14.4188057 C23.4872479,14.4188057 23.4792918,14.4188057 23.4713357,14.4188057" id="Fill-36" fill="#0097A6"></path>
        <path d="M23.4713357,14.4188057 C23.4792918,14.4188057 23.4872479,14.4188057 23.4952039,14.4188057 C23.6004008,14.7193683 23.6516733,15.0323071 23.6985257,15.3461298 C23.7745504,15.8508983 23.7957666,16.3583187 23.7754344,16.8683912 C23.7754344,16.6597653 23.7763184,16.4520235 23.7745504,16.2433977 C23.7745504,16.2089214 23.7665943,16.1735611 23.7577542,16.1399688 C23.7232779,16.0029476 23.7038298,15.8668104 23.7038298,15.7236011 C23.7029457,15.4690069 23.6437172,15.2214847 23.5995168,14.9721946 C23.5650405,14.7865529 23.4916679,14.6088674 23.4713357,14.4188057" id="Fill-38" fill="#2BA6A5"></path>
        <path d="M10.6152112,10.9198147 C10.4896821,11.0488798 10.3729931,11.187669 10.2288998,11.299054 C10.2112197,11.2645777 10.2439279,11.2504336 10.2607241,11.2336374 C10.366805,11.1275565 10.4587418,11.0064474 10.5789669,10.9145106 C10.591343,10.9162787 10.6028351,10.9180467 10.6152112,10.9198147" id="Fill-40" fill="#2BA6A5"></path>
        <path d="M21.9864679,11.5543554 C21.9351955,11.5242992 21.8962991,11.4836348 21.879503,11.4252903 C21.9422675,11.4447385 21.9820479,11.4845188 21.9864679,11.5543554" id="Fill-42" fill="#0097A6"></path>
        <path d="M10.208656,11.320005 C10.1918599,11.3739295 10.1626876,11.4163618 10.1025751,11.4278539 C10.1282113,11.3818855 10.1485435,11.3306131 10.208656,11.320005" id="Fill-44" fill="#2BA6A5"></path>
        <path d="M22.0702719,11.638955 C22.0083913,11.643375 21.9977832,11.5974066 21.9854071,11.5523222 C22.0446356,11.5505542 22.0561277,11.5956386 22.0702719,11.638955" id="Fill-46" fill="#0097A6"></path>
        <path d="M21.837159,11.3631446 C21.7823505,11.3613766 21.7620184,11.3242482 21.7514103,11.2773958 C21.8062187,11.2800478 21.8247829,11.3180602 21.837159,11.3631446" id="Fill-48" fill="#0097A6"></path>
        <path d="M10.0195668,11.5323437 C10.0177988,11.5358797 10.0151467,11.5402997 10.0142627,11.5438358 C10.0116107,11.5438358 10.0080747,11.5447198 10.0054227,11.5447198 C10.0098427,11.5402997 10.0142627,11.5358797 10.0195668,11.5323437" id="Fill-50" fill="#2BA6A5"></path>
        <path d="M10.0825965,11.4477441 C10.0958566,11.4724963 10.0790605,11.4831044 10.0596123,11.4910605 C10.0463522,11.4654243 10.0640324,11.4565842 10.0825965,11.4477441" id="Fill-52" fill="#2BA6A5"></path>
        <path d="M21.8802986,11.4270583 C21.8564304,11.4217543 21.8369822,11.4129142 21.8581984,11.383742 C21.8802986,11.38993 21.8997468,11.3987701 21.8802986,11.4270583" id="Fill-54" fill="#0097A6"></path>
        <path d="M21.7317853,11.2574172 C21.7088011,11.2512292 21.6884689,11.2432731 21.7088011,11.2141009 C21.7291333,11.2211729 21.7512335,11.228245 21.7317853,11.2574172" id="Fill-56" fill="#0097A6"></path>
        <path d="M10.0610267,11.4892041 C10.0601427,11.5033482 10.0530707,11.5113043 10.0389266,11.5113043 C10.0353905,11.4936241 10.0389266,11.483016 10.0610267,11.4892041" id="Fill-58" fill="#2BA6A5"></path>
        <path d="M10.039457,11.5107739 C10.039457,11.524918 10.0323849,11.5328741 10.0182408,11.5337581 C10.0155887,11.5169619 10.0200088,11.5072378 10.039457,11.5107739" id="Fill-60" fill="#2BA6A5"></path>
        <path d="M10.1041663,11.4261743 C10.1094704,11.4456225 10.1023983,11.4544626 10.0820661,11.4491585 C10.0829501,11.4350144 10.0891382,11.4270583 10.1041663,11.4261743" id="Fill-62" fill="#2BA6A5"></path>
        <path d="M21.8587288,11.3847144 C21.8322086,11.3962065 21.8269045,11.3864824 21.8366286,11.3626142 C21.8543088,11.3590781 21.8596128,11.3688022 21.8587288,11.3847144" id="Fill-64" fill="#0097A6"></path>
        <path d="M10.2302258,11.2984352 C10.2319938,11.3152314 10.2258058,11.3231874 10.2090096,11.3205354 C10.2019376,11.2984352 10.2063576,11.2887111 10.2302258,11.2984352" id="Fill-66" fill="#2BA6A5"></path>
        <path d="M21.7525595,11.278103 C21.7348793,11.2807551 21.7295753,11.271915 21.7313433,11.2560028 C21.7560955,11.2445107 21.7640516,11.2524668 21.7525595,11.278103" id="Fill-68" fill="#0097A6"></path>
        <path d="M21.7102155,11.2155153 C21.6854633,11.2252394 21.6801592,11.2146313 21.6881153,11.1925311 C21.7022594,11.1925311 21.7093315,11.2004871 21.7102155,11.2155153" id="Fill-70" fill="#0097A6"></path>
        <path d="M18.4029658,19.8298171 C18.4003137,20.0959034 18.3021889,20.3054132 18.1059392,20.4689547 C18.0564347,20.510503 18.0042783,20.5476314 17.9344417,20.5158071 C17.864605,20.4839828 17.8469249,20.4256383 17.8407368,20.3531497 C17.8221727,20.1153516 17.9309056,19.9244059 18.0528987,19.7378803 C18.0582027,19.7290402 18.0670428,19.7219681 18.0741149,19.7140121 C18.1430675,19.6415234 18.2182081,19.589367 18.3251731,19.6264953 C18.4409781,19.6653916 18.3950097,19.7635165 18.4029658,19.8298171" id="Fill-72" fill="#C9DA3B"></path>
        <path d="M15.4038811,13.5270187 C15.5143821,13.5279027 15.6142749,13.5659151 15.7062118,13.6180715 C16.1393755,13.8611736 16.6078996,14.0362072 17.0224993,14.3164376 C17.0843798,14.357986 17.1568685,14.3738981 17.2328931,14.3783182 C17.338974,14.3836222 17.4326789,14.4242866 17.5069355,14.5011952 C17.5732361,14.5701478 17.5714681,14.6391004 17.4919074,14.6868369 C17.330134,14.7840777 17.1595205,14.8530303 16.9765309,14.7354573 C16.880174,14.6726927 16.7776291,14.6585486 16.6635921,14.6691567 C16.4310981,14.6912569 16.2242403,14.6214203 16.0483227,14.4667189 C15.7848884,14.2351089 15.5497424,13.9769786 15.3252044,13.7082403 C15.2880761,13.6631559 15.273048,13.6109994 15.2916121,13.560611 C15.3101763,13.5093386 15.3649848,13.5340908 15.4038811,13.5270187" id="Fill-74" fill="#0397A5"></path>
    </g>
</svg>