<?xml version="1.0" encoding="UTF-8" standalone="no"?>
<svg width="27px" height="31px" viewBox="0 0 27 31" version="1.1" xmlns="http://www.w3.org/2000/svg" xmlns:xlink="http://www.w3.org/1999/xlink">
    <!-- Generator: Sketch 49.3 (51167) - http://www.bohemiancoding.com/sketch -->
    <title>Fingerprinting - icon Copy</title>
    <desc>Created with Sketch.</desc>
    <defs>
        <polygon id="path-1" points="23.9440739 22.9458763 0.049294348 22.9458763 0.049294348 0.0182889514 23.9440739 0.0182889514"></polygon>
        <polygon id="path-3" points="26.1087921 0.0428722634 26.1087921 8.12124643 3.30173353e-06 8.12124643 3.30173353e-06 0.0428722634"></polygon>
    </defs>
    <g id="Page-1" stroke="none" stroke-width="1" fill="none" fill-rule="evenodd">
        <g id="Artboard-Copy" transform="translate(-613.000000, -545.000000)">
            <g id="Group-4" transform="translate(521.000000, 545.004848)">
                <g id="Fingerprinting---icon-Copy" transform="translate(91.780000, 0.674231)">
                    <g id="Group-3" transform="translate(1.996778, 7.364926)">
                        <g id="Fill-1-Clipped">
                            <mask id="mask-2" fill="white">
                                <use xlink:href="#path-1"></use>
                            </mask>
                            <g id="path-1"></g>
                            <path d="M1.63159742,11.7436241 C1.65815839,13.803481 1.95936695,15.4655759 2.46804239,17.0939799 C2.66596939,17.7277279 2.25038292,18.2562864 1.61452608,18.1776579 C1.27465598,18.1356323 1.06543176,17.9263579 0.962752733,17.6001448 C0.245254764,15.3206704 -0.123988068,12.9939484 0.12881825,10.6054685 C0.515132412,6.95632105 2.17562054,4.03767589 5.25594125,1.99232969 C7.24987262,0.668347601 9.47075226,0.0244571911 11.8601862,0.0183315961 C17.7759042,0.00316823805 22.548546,4.03340805 23.7026182,9.50622549 C23.9120433,10.4996263 24.0284296,11.5083913 23.8714235,12.5207211 C23.5631856,14.508075 21.9676188,16.0331975 19.9733861,16.2785729 C17.6349151,16.5663754 15.5183714,15.1237475 14.9651097,12.8354863 C14.8504305,12.3612549 14.861778,11.858002 14.7788816,11.3743813 C14.5186442,9.85618775 13.0234467,8.81348095 11.4975208,9.01447076 C9.93228071,9.22058197 8.77037584,10.6996119 8.9337083,12.4192471 C9.33468373,16.6401335 11.5897563,19.4782422 15.4638938,21.0878678 C15.7483323,21.2061119 16.045725,21.2931255 16.3373434,21.3939468 C16.8052485,21.5557227 17.037519,21.9579533 16.9092832,22.3856404 C16.7774825,22.8252271 16.3456783,23.0515227 15.8655722,22.8977301 C11.4320472,21.4776967 8.58550338,18.5566917 7.52788425,13.9881024 C7.2625757,12.8422144 7.18389695,11.6651965 7.60134119,10.5233755 C8.23046991,8.80238458 9.43600709,7.71458937 11.2628905,7.45661144 C13.9225033,7.08094177 16.11155,8.99850404 16.3934277,11.377645 C16.4538301,11.8878769 16.42988,12.4064938 16.633782,12.9023658 C17.103093,14.0440361 18.3242454,14.7960283 19.5365107,14.7372325 C21.0720768,14.6628217 22.4626873,13.3653503 22.3466023,11.5514211 C22.0782811,7.35809983 20.0383576,4.33943676 16.2576605,2.52575854 C14.5873312,1.72451063 12.7982558,1.49148698 10.9543513,1.64834238 C8.98070467,1.81614351 7.19383848,2.48684595 5.61408771,3.67034103 C3.50964458,5.24687838 2.2676551,7.36598277 1.82711435,9.94902567 C1.70661084,10.6553771 1.67020875,11.3760884 1.63159742,11.7436241" id="Fill-1" fill="#00ADF3" fill-rule="nonzero" mask="url(#mask-2)"></path>
                        </g>
                    </g>
                    <path d="M5.69911195,19.6535026 C5.70523756,17.4265476 6.24961215,15.4843323 7.67973774,13.8606982 C8.78073812,12.6107755 10.164972,11.7967241 11.7576769,11.3364008 C16.0539783,10.0946623 20.581496,12.6655042 21.7957697,17.0297898 C22.0006256,17.7660663 22.0990871,18.5146441 22.1177149,19.2800923 C22.1288113,19.7353948 21.8290085,20.1471654 21.3282663,20.1634835 C20.8650307,20.1785967 20.5516212,19.8144752 20.529328,19.2956575 C20.406314,16.4341007 19.1197382,14.3014899 16.4703682,13.1378278 C14.3997162,12.2283778 12.3534663,12.4797279 10.4249583,13.6288795 C8.50714494,14.7716545 7.52519199,16.5056497 7.33238638,18.7042362 C7.13385685,20.9677942 7.70308529,23.0785638 8.66475349,25.1000101 C9.29076922,26.415808 10.0852388,27.6155711 11.1892518,28.5913984 C11.5600008,28.9190675 11.5818422,29.3863199 11.2753616,29.7275959 C10.9781196,30.0584282 10.4693437,30.0668635 10.1083855,29.7449182 C8.6032465,28.4023083 7.5949836,26.7236945 6.82983654,24.882652 C6.12067339,23.1764227 5.71628371,21.4043182 5.69911195,19.6535026" id="Fill-4" fill="#00ADF3" fill-rule="nonzero"></path>
                    <g id="Group-8" transform="translate(0.841952, 3.699612)">
                        <g id="Fill-6-Clipped">
                            <mask id="mask-4" fill="white">
                                <use xlink:href="#path-3"></use>
                            </mask>
                            <g id="path-3"></g>
                            <path d="M25.3232146,8.08679459 C25.0204998,8.03984843 24.7988235,7.91989723 24.6444284,7.69033805 C22.6088731,4.66308909 19.7635343,2.79794585 16.241769,2.00191975 C11.840278,1.00711309 7.81385414,1.87443709 4.26372038,4.70667119 C3.18712196,5.56555994 2.27109447,6.5895385 1.48797229,7.72749329 C1.14920681,8.21975012 0.535442274,8.25459572 0.170065596,7.80868253 C-0.0476440744,7.54302251 -0.0656693907,7.17935296 0.170417065,6.85720692 C0.545685072,6.34516743 0.921605806,5.83011535 1.33965256,5.35352398 C3.57971235,2.79990402 6.34255652,1.10873771 9.67282159,0.382302399 C11.1604374,0.0577964949 12.6662793,-0.02178603 14.1862303,0.0915876869 C17.3468867,0.327322674 20.1865518,1.4095446 22.7093429,3.31591009 C23.9803537,4.27637325 25.0573036,5.42929056 25.9316569,6.7648711 C26.1987731,7.17282569 26.1643291,7.5732488 25.8247603,7.84232309 C25.6824155,7.9551445 25.4918191,8.00716185 25.3232146,8.08679459" id="Fill-6" fill="#00ADF3" fill-rule="nonzero" mask="url(#mask-4)"></path>
                        </g>
                    </g>
                    <path d="M13.9922337,0.0258862623 C17.087316,0.0446145158 19.9955678,0.752823672 22.6437328,2.39674257 C22.8446221,2.52146369 23.0370261,2.72134889 23.1371445,2.93202919 C23.2783846,3.22912054 23.1312197,3.59017918 22.879267,3.7794199 C22.5926694,3.9947195 22.2689669,3.99938901 21.9402434,3.8168764 C21.3787472,3.50502337 20.8262386,3.17112823 20.2433532,2.90471506 C18.4673322,2.09312394 16.5919462,1.69842474 14.6425008,1.62225648 C12.3651852,1.53333494 10.1600213,1.87034308 8.05572877,2.75142456 C7.34274968,3.04992179 6.66998864,3.4462277 5.98618144,3.81160438 C5.63441162,3.99964006 5.28811466,3.9942174 5.00598583,3.7558715 C4.76025909,3.54820379 4.63845013,3.18242544 4.78772385,2.89552667 C4.88583379,2.70688847 5.05835464,2.53050146 5.24001367,2.4159227 C6.51238009,1.61331913 7.8862205,1.03630817 9.33607853,0.64095625 C10.8595441,0.225620827 12.4115289,0.0190075204 13.9922337,0.0258862623" id="Fill-9" fill="#00ADF3" fill-rule="nonzero"></path>
                    <path d="M21.5702373,27.1328039 C19.5768582,27.1214564 17.9278179,26.8414364 16.4730394,25.8592324 C15.0301103,24.8849615 14.1383341,23.496008 13.565842,21.8820141 C13.2619222,21.0250835 13.1061212,20.1400356 13.1119957,19.2286273 C13.1152091,18.7202029 13.449506,18.3618557 13.9195199,18.3652197 C14.3760774,18.3683829 14.7006337,18.7261277 14.7099726,19.2234558 C14.7474291,21.2127678 15.471354,22.9033818 16.9548526,24.2384603 C17.7424936,24.9473221 18.7164632,25.2742884 19.7471699,25.4397296 C20.7366543,25.5985934 21.729553,25.5805179 22.7217487,25.4637299 C23.1590259,25.4122146 23.5779262,25.6860086 23.6505797,26.0828167 C23.7311664,26.5232569 23.474745,26.9379899 23.0153756,27.0041162 C22.4459966,27.0859582 21.8680316,27.1080003 21.5702373,27.1328039" id="Fill-11" fill="#00ADF3" fill-rule="nonzero"></path>
                </g>
            </g>
        </g>
    </g>
</svg>