<?xml version="1.0" encoding="UTF-8" standalone="no"?>
<svg width="1001px" height="330px" viewBox="0 0 1001 330" version="1.1" xmlns="http://www.w3.org/2000/svg" xmlns:xlink="http://www.w3.org/1999/xlink">
    <!-- Generator: Sketch 49.3 (51167) - http://www.bohemiancoding.com/sketch -->
    <title>Group 10</title>
    <desc>Created with Sketch.</desc>
    <defs>
        <polygon id="path-1" points="0.825845041 0.801916676 157.731479 0.801916676 157.731479 238 0.825845041 238"></polygon>
        <polygon id="path-3" points="0.770293998 0.576632423 150.499 0.576632423 150.499 164.364258 0.770293998 164.364258"></polygon>
    </defs>
    <g id="Page-1" stroke="none" stroke-width="1" fill="none" fill-rule="evenodd" opacity="0.188083022">
        <g id="Group-10">
            <path d="M133.632812,0.881613467 C140.705813,1.87461347 147.838812,2.56461347 154.842813,3.91861347 C176.376812,8.08261347 195.611812,17.1766135 212.267812,31.5466135 C213.756812,32.8306135 215.128812,34.2516135 217.048812,36.0786135 C208.367813,43.8416135 199.958813,51.3606135 191.549813,58.8796135 C191.963813,59.5056135 192.378813,60.1306135 192.792812,60.7556135 C191.551813,59.7366135 190.321812,58.7026135 189.067813,57.7006135 C160.392812,34.7906135 128.557813,29.3556135 94.8108125,43.4526135 C61.3068125,57.4476135 42.8578125,84.0476135 39.6538125,120.032613 C35.2718125,169.254613 66.0288125,210.272613 113.214812,219.318613 C135.030812,223.500613 156.111812,220.503613 175.743812,209.909613 C197.241813,198.310613 209.034812,179.864613 212.403813,155.843613 C212.519813,155.021613 212.547813,154.184613 212.556813,153.353613 C212.559813,153.043613 212.389813,152.733613 212.140812,151.887613 L130.623813,151.887613 L130.623813,117.383613 C132.201812,117.281613 133.657813,117.108613 135.112812,117.107613 C170.775813,117.091613 206.437813,117.119613 242.098813,117.049613 C245.105813,117.043613 247.094812,117.350613 247.547813,121.017613 C251.467813,152.739613 246.748812,182.615613 227.902812,209.115613 C208.820812,235.947613 181.888813,249.726613 149.808812,254.509613 C87.1948125,263.846613 26.8538125,226.778613 7.4908125,166.528613 C4.4608125,157.099613 3.4298125,147.025613 1.4988125,137.244613 C1.1488125,135.469613 0.9178125,133.669613 0.6328125,131.881613 L0.6328125,123.881613 C0.9238125,122.270613 1.3478125,120.670613 1.4868125,119.045613 C6.1658125,63.9916135 47.0638125,16.8856135 101.082813,4.65261347 C108.820813,2.90061347 116.777812,2.11361347 124.632812,0.881613467 L133.632812,0.881613467 Z" id="Fill-1" fill="#000000"></path>
            <g id="Group-5" transform="translate(616.632812, 91.295213)">
                <mask id="mask-2" fill="white">
                    <use xlink:href="#path-1"></use>
                </mask>
                <g id="Clip-4"></g>
                <path d="M126.4004,82.7397 C125.9054,78.6157 125.6604,74.4437 124.8734,70.3777 C121.1794,51.2967 106.7824,36.4877 89.2774,33.5507 C71.3344,30.5407 52.8794,39.2607 43.8274,55.8397 C34.3984,73.1097 33.9854,91.0597 43.1234,108.4987 C58.2264,137.3187 97.3264,140.4627 116.3684,114.7017 C123.3704,105.2277 126.0714,94.4007 126.4004,82.7397 M122.7934,146.1777 C122.2654,146.3347 121.8844,146.3307 121.6994,146.5187 C101.0454,167.4497 76.7184,168.6167 51.0904,158.5437 C17.9664,145.5227 -2.4836,110.4177 1.2674,74.7847 C5.1244,38.1477 31.3354,8.5707 66.1484,2.1407 C86.6194,-1.6403 105.2474,2.3627 120.8374,17.0257 C121.2914,17.4527 121.8384,17.7807 123.1444,18.7537 L123.1444,6.1247 L157.4214,6.1247 C157.5074,7.9987 157.6624,9.7787 157.6634,11.5577 C157.6744,57.8777 157.8834,104.1967 157.5094,150.5127 C157.4244,161.0897 156.3794,171.8987 153.9494,182.1697 C146.5214,213.5577 125.2314,232.3617 93.3524,237.0387 C57.3784,242.3147 25.2644,225.6277 8.9764,193.1827 C8.5334,192.3007 8.1634,191.3817 7.4104,189.7007 C17.7434,185.3617 27.9184,181.0897 38.4264,176.6777 C39.4234,178.5487 40.2474,180.1507 41.1214,181.7237 C51.6554,200.6697 70.7374,209.2177 91.8964,204.4777 C108.9154,200.6657 120.4904,187.8987 122.6474,169.3867 C123.5264,161.8487 122.7934,154.1237 122.7934,146.1777" id="Fill-3" fill="#000000" mask="url(#mask-2)"></path>
            </g>
            <path d="M567.096712,173.442113 C566.968712,171.514113 566.886712,169.015113 566.623713,166.535113 C564.599713,147.463113 551.689712,131.018113 534.119712,126.172113 C515.397713,121.007113 499.056712,125.647113 486.265712,140.391113 C470.928712,158.069113 470.585712,187.014113 484.985712,205.755113 C500.429712,225.855113 529.321712,229.430113 549.012713,213.498113 C561.514712,203.382113 566.823712,189.816113 567.096712,173.442113 M602.721712,174.143113 C602.573712,220.463113 566.936712,255.885113 520.783712,255.591113 C474.107712,255.295113 438.589713,219.500113 438.711713,172.880113 C438.831713,127.318113 475.228713,91.7941135 521.506712,92.0691135 C568.132712,92.3461135 602.870712,127.452113 602.721712,174.143113" id="Fill-6" fill="#000000"></path>
            <path d="M388.470712,173.825913 C388.470712,172.827913 388.514712,171.826913 388.464712,170.830913 C387.388712,149.290913 374.320712,131.605913 355.381712,126.044913 C336.660712,120.548913 316.751712,127.390913 305.356712,143.237913 C292.267712,161.440913 292.899712,188.709913 306.817712,206.296913 C322.290712,225.848913 350.751712,229.236913 370.186712,213.694913 C382.917712,203.513913 388.196712,189.775913 388.470712,173.825913 M424.194712,173.449913 C424.359712,219.785913 389.062712,255.447913 342.891712,255.592913 C296.248712,255.737913 260.430712,220.230913 260.150712,173.571913 C259.876712,127.996913 296.011712,92.1149135 342.229712,92.0679135 C388.843712,92.0209135 424.029712,126.955913 424.194712,173.449913" id="Fill-8" fill="#000000"></path>
            <g id="Group-12" transform="translate(849.632812, 91.295213)">
                <mask id="mask-4" fill="white">
                    <use xlink:href="#path-3"></use>
                </mask>
                <g id="Clip-11"></g>
                <path d="M108.5273,49.5424 C103.7973,40.8984 97.2113,35.9384 88.6443,33.5454 C66.2163,27.2774 40.6503,44.1194 35.9483,68.3544 C35.2533,71.9384 35.3363,75.6754 34.9853,80.3164 C60.1523,69.7854 84.0493,59.7854 108.5273,49.5424 M150.4993,61.8754 C113.6883,77.1714 77.6053,92.1654 41.5353,107.1534 C53.4163,137.5634 100.7053,142.4064 121.3313,109.8534 C130.4243,115.9024 139.5123,121.9484 148.6213,128.0084 C148.5003,128.6804 148.5563,129.2334 148.3153,129.5824 C128.5273,158.1834 91.4593,171.0054 57.5853,160.9934 C24.0623,151.0844 2.1843,122.5084 0.8543,86.8754 C-0.0347,63.0764 6.0583,41.5924 22.6633,23.9554 C54.7163,-10.0896 108.1693,-6.4366 135.3353,31.5524 C138.0353,35.3294 140.4423,39.3804 142.4843,43.5494 C145.3223,49.3464 147.6853,55.3744 150.4993,61.8754" id="Fill-10" fill="#000000" mask="url(#mask-4)"></path>
            </g>
            <polygon id="Fill-13" fill="#000000" points="798.452813 250.558213 833.601813 250.558213 833.601813 10.0502135 798.452813 10.0502135"></polygon>
        </g>
    </g>
</svg>