<?xml version="1.0" encoding="UTF-8" standalone="no"?>
<svg width="1001px" height="330px" viewBox="0 0 1001 330" version="1.1" xmlns="http://www.w3.org/2000/svg" xmlns:xlink="http://www.w3.org/1999/xlink">
    <!-- Generator: Sketch 49.3 (51167) - http://www.bohemiancoding.com/sketch -->
    <title>Group 14</title>
    <desc>Created with Sketch.</desc>
    <defs></defs>
    <g id="Page-1" stroke="none" stroke-width="1" fill="none" fill-rule="evenodd">
        <g id="Group-14">
            <path d="M133.632812,0.881613467 C140.705813,1.87461347 147.838812,2.56361347 154.842813,3.91861347 C176.376812,8.08261347 195.611812,17.1766135 212.267812,31.5466135 C213.756812,32.8316135 215.128812,34.2516135 217.048812,36.0796135 C208.367813,43.8406135 199.958813,51.3606135 191.549813,58.8796135 C191.963813,59.5056135 192.378813,60.1306135 192.792812,60.7566135 C191.551813,59.7366135 190.321812,58.7026135 189.067813,57.7006135 C160.392812,34.7906135 128.557813,29.3556135 94.8108125,43.4526135 C61.3068125,57.4476135 42.8578125,84.0486135 39.6538125,120.032613 C35.2718125,169.254613 66.0288125,210.272613 113.214812,219.318613 C135.030812,223.500613 156.111812,220.503613 175.743812,209.909613 C197.241813,198.310613 209.034812,179.864613 212.403813,155.843613 C212.519813,155.021613 212.547813,154.184613 212.556813,153.353613 C212.559813,153.043613 212.389813,152.733613 212.140812,151.887613 L130.623813,151.887613 L130.623813,117.383613 C132.201812,117.281613 133.657813,117.108613 135.112812,117.107613 C170.775813,117.091613 206.437813,117.119613 242.098813,117.049613 C245.105813,117.043613 247.094812,117.350613 247.547813,121.017613 C251.467813,152.739613 246.748812,182.615613 227.902812,209.115613 C208.820812,235.947613 181.888813,249.726613 149.808812,254.509613 C87.1948125,263.846613 26.8538125,226.778613 7.4908125,166.528613 C4.4608125,157.099613 3.4298125,147.025613 1.4988125,137.244613 C1.1488125,135.469613 0.9178125,133.669613 0.6328125,131.881613 L0.6328125,123.881613 C0.9238125,122.270613 1.3478125,120.670613 1.4868125,119.045613 C6.1658125,63.9916135 47.0638125,16.8856135 101.082813,4.65261347 C108.820813,2.89961347 116.777812,2.11461347 124.632812,0.881613467 L133.632812,0.881613467 Z" id="Fill-15" fill="#569DF4"></path>
            <path d="M743.033213,174.034913 C742.538213,169.910913 742.293213,165.738913 741.506213,161.672913 C737.812213,142.591913 723.415213,127.782913 705.910213,124.845913 C687.967213,121.835913 669.512213,130.555913 660.460213,147.134913 C651.031213,164.404913 650.618213,182.354913 659.756213,199.793913 C674.859213,228.613913 713.959213,231.757913 733.001213,205.996913 C740.003213,196.522913 742.704213,185.695913 743.033213,174.034913 M739.426213,237.472913 C738.898213,237.629913 738.517213,237.625913 738.332213,237.813913 C717.678213,258.744913 693.351213,259.911913 667.723213,249.838913 C634.599213,236.817913 614.149213,201.712913 617.900213,166.079913 C621.757213,129.442913 647.968213,99.8659135 682.781213,93.4359135 C703.252213,89.6549135 721.880213,93.6579135 737.470213,108.321913 C737.924213,108.747913 738.471213,109.076913 739.777213,110.048913 L739.777213,97.4189135 L774.054213,97.4189135 C774.140213,99.2939135 774.295213,101.073913 774.296213,102.853913 C774.307213,149.172913 774.516212,195.491913 774.142213,241.807913 C774.057213,252.384913 773.012213,263.193913 770.582213,273.464913 C763.154213,304.852913 741.864213,323.656913 709.985213,328.333913 C674.011213,333.609913 641.897213,316.922913 625.609213,284.477913 C625.166213,283.595913 624.796213,282.676913 624.043213,280.995913 C634.376213,276.656913 644.551213,272.384913 655.059213,267.972913 C656.056213,269.843913 656.880213,271.445913 657.754213,273.018913 C668.288213,291.964913 687.370213,300.512913 708.529213,295.772913 C725.548213,291.960913 737.123213,279.193913 739.280213,260.681913 C740.159213,253.143913 739.426213,245.418913 739.426213,237.472913" id="Fill-16" fill="#569DF4"></path>
            <path d="M567.096712,173.442113 C566.968712,171.514113 566.886712,169.015113 566.623713,166.535113 C564.599713,147.463113 551.689712,131.018113 534.119712,126.172113 C515.397713,121.007113 499.056712,125.647113 486.265712,140.391113 C470.928712,158.069113 470.585712,187.014113 484.985712,205.755113 C500.429712,225.855113 529.321712,229.430113 549.012713,213.498113 C561.514712,203.382113 566.823712,189.816113 567.096712,173.442113 M602.721712,174.143113 C602.573712,220.463113 566.936712,255.885113 520.783712,255.591113 C474.107712,255.295113 438.589713,219.500113 438.711713,172.880113 C438.831713,127.318113 475.228713,91.7941135 521.506712,92.0691135 C568.132712,92.3461135 602.870712,127.452113 602.721712,174.143113" id="Fill-17" fill="#FBC63A"></path>
            <path d="M388.470712,173.825913 C388.470712,172.827913 388.514712,171.826913 388.464712,170.830913 C387.388712,149.290913 374.320712,131.605913 355.381712,126.044913 C336.660712,120.548913 316.751712,127.390913 305.356712,143.237913 C292.267712,161.440913 292.899712,188.709913 306.817712,206.296913 C322.290712,225.848913 350.751712,229.236913 370.186712,213.694913 C382.917712,203.513913 388.196712,189.775913 388.470712,173.825913 M424.194712,173.449913 C424.359712,219.785913 389.062712,255.447913 342.891712,255.592913 C296.248712,255.737913 260.430712,220.230913 260.150712,173.571913 C259.876712,127.996913 296.011712,92.1149135 342.229712,92.0679135 C388.843712,92.0209135 424.029712,126.955913 424.194712,173.449913" id="Fill-18" fill="#EE5D4C"></path>
            <path d="M958.160113,140.837613 C953.430113,132.193613 946.844113,127.233613 938.277113,124.840613 C915.849113,118.572613 890.283113,135.414613 885.581113,159.649613 C884.886113,163.233613 884.969113,166.970613 884.618113,171.611613 C909.785113,161.080613 933.682113,151.080613 958.160113,140.837613 M1000.13211,153.170613 C963.321113,168.466613 927.238113,183.460613 891.168113,198.448613 C903.049113,228.858613 950.338113,233.701613 970.964113,201.148613 C980.057113,207.197613 989.145113,213.243613 998.254113,219.303613 C998.133113,219.975613 998.189113,220.528613 997.948113,220.877613 C978.160113,249.478613 941.092113,262.300613 907.218113,252.288613 C873.695113,242.379613 851.817113,213.803613 850.487113,178.170613 C849.598113,154.371613 855.691113,132.887613 872.296113,115.251613 C904.349113,81.2056135 957.802113,84.8586135 984.968113,122.847613 C987.668113,126.624613 990.075113,130.675613 992.117113,134.844613 C994.955113,140.641613 997.318113,146.669613 1000.13211,153.170613" id="Fill-19" fill="#EE5D4C"></path>
            <polygon id="Fill-20" fill="#45B36A" points="798.452813 250.558213 833.601813 250.558213 833.601813 10.0502135 798.452813 10.0502135"></polygon>
        </g>
    </g>
</svg>