<?xml version="1.0" encoding="UTF-8" standalone="no"?>
<svg width="32px" height="33px" viewBox="0 0 32 33" version="1.1" xmlns="http://www.w3.org/2000/svg" xmlns:xlink="http://www.w3.org/1999/xlink">
    <!-- Generator: Sketch 50.2 (55047) - http://www.bohemiancoding.com/sketch -->
    <title>google logo</title>
    <desc>Created with Sketch.</desc>
    <defs>
        <polygon id="path-1" points="0.0877622857 0.0433371429 19.8773408 0.0433371429 19.8773408 10.3322606 0.0877622857 10.3322606"></polygon>
        <polygon id="path-3" points="0.00548571429 0.055104 19.7671314 0.055104 19.7671314 10.3314286 0.00548571429 10.3314286"></polygon>
    </defs>
    <g id="google-logo" stroke="none" stroke-width="1" fill="none" fill-rule="evenodd">
        <g id="Group" transform="translate(3.524910, 3.641740)">
            <g id="Group-3" transform="translate(1.280000, 0.048091)">
                <mask id="mask-2" fill="white">
                    <use xlink:href="#path-1"></use>
                </mask>
                <g id="Clip-2"></g>
                <path d="M0.0877622857,7.07877486 C1.17923657,4.81838629 2.84177371,3.08252343 4.98869943,1.81047771 C9.61077943,-0.927990857 15.5263909,-0.443510857 19.5330651,2.98414629 C19.9860023,3.37162057 19.9858194,3.37143771 19.569088,3.78807771 C18.5679451,4.78885486 17.565888,5.78871771 16.5672137,6.79196343 C16.4191909,6.94071771 16.3144137,7.06021486 16.0912366,6.85596343 C13.0301166,4.05239771 7.453888,4.55616914 4.925888,9.05399771 C4.69585371,9.463232 4.52479086,9.90556343 4.32629943,10.3322606 C4.271808,10.3066606 4.21000229,10.2905691 4.16383086,10.2545463 C2.80410514,9.19717486 1.44602514,8.137792 0.0877622857,7.07877486" id="Fill-1" fill="#E64234" mask="url(#mask-2)"></path>
            </g>
            <g id="Group-6" transform="translate(1.371429, 15.225234)">
                <mask id="mask-4" fill="white">
                    <use xlink:href="#path-3"></use>
                </mask>
                <g id="Clip-5"></g>
                <path d="M19.7671314,7.217344 C18.5518629,8.42109257 17.0922971,9.216064 15.4728229,9.71297829 C9.47913143,11.5521554 3.2864,9.20445257 0.235885714,3.79983543 C0.146834286,3.64212114 0.0817371429,3.47105829 0.00548571429,3.30612114 C1.41568,2.22232686 2.82587429,1.13880686 4.23606857,0.055104 C4.81097143,1.55151543 5.66601143,2.855744 6.98797714,3.78657829 C9.60374857,5.628224 12.3541943,5.70392686 15.1880229,4.31375543 C15.36512,4.22689829 15.5373714,4.13053257 15.7120914,4.03864686 C17.0640457,5.09821257 18.4155429,6.15777829 19.7671314,7.217344" id="Fill-4" fill="#33A753" mask="url(#mask-4)"></path>
            </g>
            <path d="M21.13856,22.4425783 C19.7869714,21.3830126 18.4354743,20.3234469 17.08352,19.2638811 C17.7050514,18.727104 18.3294171,18.195904 18.7624229,17.4782811 C19.0557257,16.992064 19.2642743,16.474944 19.4430171,15.9382583 C19.56864,15.5609326 19.5008,15.4345783 19.0778514,15.4385097 C17.12832,15.4566126 15.1785143,15.435584 13.2289829,15.4555154 C12.8350171,15.4595383 12.7072914,15.3686583 12.71616,14.9544869 C12.74432,13.6298697 12.7365486,12.3042469 12.7197257,10.979264 C12.7154286,10.6386011 12.7845486,10.5057554 13.16544,10.5073097 C16.88192,10.5220297 20.5984914,10.5170011 24.3150629,10.513984 C24.5423543,10.5138011 24.7237486,10.5108754 24.7626057,10.8164297 C25.3200457,15.1940297 24.50688,19.152064 21.2522057,22.3696183 C21.2208457,22.4006126 21.1767771,22.4185326 21.13856,22.4425783" id="Fill-7" fill="#3F82F0"></path>
            <path d="M5.607488,15.2803474 C4.19729371,16.3640503 2.78709943,17.4475703 1.37690514,18.5313646 C0.728402286,17.3936274 0.364059429,16.156416 0.165110857,14.8747703 C-0.234706286,12.2999589 0.0859337143,9.81502171 1.18947657,7.44299886 C1.24031086,7.33355886 1.30815086,7.23198171 1.36785371,7.12683886 C2.72602514,8.185856 4.08410514,9.24523886 5.44373943,10.3027017 C5.49000229,10.3386331 5.551808,10.3547246 5.60629943,10.3803246 C5.10033371,12.0139703 5.10280229,13.6472503 5.607488,15.2803474" id="Fill-9" fill="#F7BA02"></path>
        </g>
    </g>
</svg>