<?xml version="1.0" encoding="UTF-8" standalone="no"?>
<svg width="48px" height="47px" viewBox="0 0 48 47" version="1.1" xmlns="http://www.w3.org/2000/svg" xmlns:xlink="http://www.w3.org/1999/xlink">
    <!-- Generator: Sketch 49.3 (51167) - http://www.bohemiancoding.com/sketch -->
    <title>Group 5</title>
    <desc>Created with Sketch.</desc>
    <defs>
        <polygon id="path-1" points="8.96751106e-06 0.0760209107 27.0751079 0.0760209107 27.0751079 26.848423 8.96751106e-06 26.848423"></polygon>
    </defs>
    <g id="Page-1" stroke="none" stroke-width="1" fill="none" fill-rule="evenodd">
        <g id="Artboard-Copy-6" transform="translate(-700.000000, -524.000000)">
            <g id="Group-5" transform="translate(701.000000, 525.000000)">
                <g id="Group-3" transform="translate(10.000000, 8.652317)">
                    <mask id="mask-2" fill="white">
                        <use xlink:href="#path-1"></use>
                    </mask>
                    <g id="Clip-2"></g>
                    <path d="M15.1230218,25.7187045 C15.1409207,25.7497645 15.1588197,25.7809297 15.1768239,25.8119896 C15.6386168,25.6426866 16.1016731,25.476437 16.5622025,25.3033436 C17.1816115,25.070552 17.7838584,24.7035183 18.421061,24.6286586 C19.2388324,24.532636 19.926152,24.2450946 20.3475143,23.6008378 C21.5850687,21.7084977 23.0816314,20.0552666 24.7062242,18.4967946 C24.9808151,18.2332589 25.2310845,17.7357734 25.185916,17.3860069 C25.0455672,16.3019624 25.3202634,15.3574243 25.7697376,14.3962508 C26.3900941,13.0695175 25.6239138,11.4408185 24.2393775,10.9569151 C24.0583875,10.8936371 23.9183546,10.7167534 23.7552636,10.5980939 C23.3962317,10.3367692 23.0622584,9.91772323 22.6686921,9.85023366 C21.4855716,9.64713324 20.7791948,9.03604207 20.4656474,7.88450795 C20.3928934,7.61728717 20.1549427,7.32879823 19.9127804,7.18529078 C18.8636915,6.56346025 18.3389364,5.67346135 18.3591517,4.45706985 C18.3617839,4.30061198 18.4230615,4.08561402 18.3448325,3.99675101 C17.7366894,3.30690447 17.2182517,2.43227761 16.2034865,2.32993773 C14.9475068,2.20338164 13.7715459,1.8713035 12.6163267,1.37939827 C11.9008952,1.07480028 11.1898857,1.09017232 10.4678211,1.55217577 C9.93580117,1.89267695 9.28954383,2.19074709 8.67424115,2.2360209 C7.48564567,2.32351517 6.76926657,3.00283292 6.21524146,3.90157072 C5.44369149,5.15344424 4.51705239,6.26181032 3.44869573,7.26172982 C3.11588057,7.57327682 2.77253662,7.87608491 2.46456942,8.21090054 C1.94760566,8.77271695 1.69438818,9.41571036 1.71039195,10.2153722 C1.72271064,10.8304643 1.64206008,11.5057811 1.38842145,12.0553841 C0.923259359,13.0633055 1.08087539,13.982785 1.55161774,14.8773113 C2.39097315,16.4723182 2.98858746,18.137131 3.33224727,19.9096534 C3.51987037,20.8776706 3.98566419,21.678596 4.96915877,22.1515494 C5.49949409,22.4065567 6.00098052,22.8562415 6.34190285,23.3403554 C6.9121423,24.1500196 7.69243117,24.4374557 8.58695745,24.4947323 C10.4318126,24.6126548 12.2472925,24.8473416 13.9948616,25.491809 C14.3505242,25.6228925 14.7458804,25.6458453 15.1230218,25.7187045 M15.4175121,26.8484441 C14.7365098,26.7335749 14.2259686,26.7258889 13.7754415,26.5577441 C11.9943908,25.8928508 10.1376381,25.7076493 8.26614512,25.5392939 C7.15967423,25.4397968 6.17681137,25.0431772 5.51044404,24.0337817 C5.25133043,23.641163 4.84355027,23.2688649 4.41797644,23.0782937 C3.14114967,22.5068961 2.5450094,21.4390659 2.28663281,20.1923515 C1.93128603,18.4771058 1.35946727,16.8629365 0.559910701,15.3089919 C-0.0384406245,14.1461919 -0.243436231,12.9405398 0.376814985,11.676137 C0.576335618,11.2696203 0.67456926,10.7506561 0.632875239,10.3004449 C0.524533955,9.13216996 0.974113431,8.21321687 1.73050194,7.40039403 C2.0641594,7.04178333 2.47530878,6.7523468 2.79075143,6.38015395 C3.62631647,5.39413246 4.46588245,4.40747924 5.23458965,3.36976136 C6.06120522,2.25391985 6.92614559,1.28379683 8.44829324,1.16819068 C8.93261774,1.13144519 9.46221604,0.936030785 9.85936213,0.655227867 C10.9331938,-0.104108708 12.0397699,-0.0462003452 13.1524528,0.422646822 C14.164691,0.849273528 15.1955652,1.1121775 16.2838212,1.25547437 C16.8105768,1.32485912 17.3429126,1.60155581 17.7970194,1.89983653 C18.2281735,2.18306107 18.5584618,2.61884782 18.9368666,2.98356522 C19.3578077,3.38945021 19.6214487,3.79954671 19.4590947,4.46149195 C19.2949508,5.13070205 19.7464255,5.93604945 20.4072126,6.17400018 C20.9652386,6.37499485 21.248779,6.75834821 21.3830211,7.24593663 C21.6508736,8.219113 22.2449082,8.74965889 23.2437748,8.83820605 C24.8054054,9.9572062 26.7651297,10.7066457 27.0486701,13.0017121 C27.1429028,13.7649443 26.9812858,14.4671095 26.6323616,15.1315817 C26.3209199,15.724458 26.1557232,16.3448145 26.2672231,17.0065492 C26.3896729,17.7338782 26.1980489,18.3712914 25.7562607,18.9270011 C25.4198658,19.3499427 25.0487258,19.7528797 24.6492634,20.1165442 C23.5403709,21.1260449 22.5737224,22.2414653 21.7754293,23.5194502 C21.0495743,24.6814078 20.1145121,25.5665635 18.6170018,25.7044907 C18.0560277,25.756187 17.5301145,26.1391193 16.9771423,26.3403245 C16.4114302,26.5462677 15.832136,26.7147284 15.4175121,26.8484441" id="Fill-1" stroke="#A4A4A4" stroke-width="0.6" fill="#A4A4A4" mask="url(#mask-2)"></path>
                </g>
                <path d="M23.8782236,16.1773929 C23.865589,15.7319197 23.5082418,15.3900498 23.0623474,15.397104 C22.6237179,15.404053 22.2650019,15.7651907 22.264686,16.2000298 C22.2643702,16.6546631 22.6589893,17.0319098 23.110464,17.0085359 C23.5522522,16.9856884 23.8907529,16.6192864 23.8782236,16.1773929 M21.1817996,16.2012933 C21.1823261,15.150625 22.0432655,14.2932654 23.0895117,14.3016884 C24.1244921,14.3100061 25.0003824,15.1997945 24.9855368,16.2278258 C24.9707965,17.2443808 24.1140686,18.0871055 23.0897223,18.0926857 C22.0285252,18.0984766 21.1812732,17.2585947 21.1817996,16.2012933" id="Fill-4" fill="#A4A4A4"></path>
                <path d="M28.5330558,22.0554708 C28.3071079,21.9150167 28.1668643,21.7585589 28.0496789,21.7741415 C27.9271237,21.7904611 27.8265737,21.9722934 27.7164426,22.0817928 C27.8408929,22.1945562 27.9534457,22.3719664 28.0938998,22.3979725 C28.1910806,22.4159767 28.326902,22.2249844 28.5330558,22.0554708 M29.5118124,22.0905317 C29.5094961,22.8639769 28.8460768,23.5247639 28.0645245,23.5317129 C27.2651785,23.5389778 26.5795435,22.8491313 26.5984953,22.056629 C26.6171313,21.2801305 27.294975,20.6292405 28.0721052,20.6416645 C28.8543945,20.6541937 29.5141287,21.3181394 29.5118124,22.0905317" id="Fill-6" fill="#A4A4A4"></path>
                <path d="M17.169824,26.1253022 C17.0174723,26.3629371 16.8570135,26.5043388 16.8628044,26.6385809 C16.8675423,26.7467116 17.0971753,26.9469692 17.1838273,26.9262275 C17.319017,26.8937988 17.4811604,26.7222848 17.5101146,26.5840417 C17.5302246,26.4885456 17.345339,26.3498814 17.169824,26.1253022 M18.641644,26.6355275 C18.6287989,27.4147635 17.9604311,28.0664958 17.1805634,28.0602838 C16.3747948,28.0538613 15.7145342,27.369595 15.7391715,26.5663534 C15.7629666,25.7890125 16.4477593,25.1446504 17.2234155,25.1699195 C18.0129698,25.195715 18.6542786,25.8585026 18.641644,26.6355275" id="Fill-8" fill="#A4A4A4"></path>
                <path d="M16.2854159,19.7847365 C16.1272734,20.0125796 15.9626031,20.1472429 15.9621819,20.2824326 C15.9618661,20.3930902 16.1844447,20.6117732 16.2597256,20.5926108 C16.4038648,20.5558653 16.576537,20.4015132 16.6155988,20.2620067 C16.6413944,20.1695639 16.4553506,20.017844 16.2854159,19.7847365 M17.734599,20.2657971 C17.7395475,21.0531402 17.1019238,21.7005557 16.3090004,21.7134009 C15.4982833,21.7266671 14.8220189,21.0619844 14.8313895,20.2612697 C14.8404443,19.4819284 15.5034424,18.831249 16.2867846,18.8329336 C17.069811,18.8347235 17.729861,19.4878245 17.734599,20.2657971" id="Fill-10" fill="#A4A4A4"></path>
                <path d="M23.1274364,24.7933677 C22.8902227,24.6346988 22.740398,24.4589732 22.6348995,24.4824525 C22.4951824,24.5135124 22.3903156,24.7005038 22.2703926,24.820532 C22.3854723,24.9286627 22.5023419,25.1249194 22.6151053,25.1224978 C22.7562964,25.119655 22.8940131,24.953616 23.1274364,24.7933677 M24.0636567,24.8440112 C24.0469159,25.6336707 23.3945519,26.2540272 22.5962588,26.2392869 C21.7756446,26.2241255 21.1544458,25.5633384 21.184137,24.7373545 C21.2116172,23.9730694 21.8538736,23.3582932 22.6235284,23.3591355 C23.4323503,23.3601884 24.0809239,24.028872 24.0636567,24.8440112" id="Fill-12" fill="#A4A4A4"></path>
                <path d="M24.9391259,29.3806472 C24.7169683,29.1942875 24.5889382,29.0062433 24.4834397,29.0181408 C24.3387741,29.0343552 24.2111651,29.2022894 24.0762913,29.3051557 C24.1788417,29.425921 24.2711792,29.6316536 24.3865748,29.6454463 C24.5240808,29.6618712 24.6812757,29.5138364 24.9391259,29.3806472 M25.8726087,29.3556939 C25.8616587,30.1492491 25.2180336,30.7761334 24.4211092,30.7695003 C23.6043907,30.7626566 22.9716103,30.1032383 22.9922467,29.2805183 C23.0118303,28.4986501 23.6898845,27.8603947 24.4704893,27.889033 C25.2738362,27.9184083 25.8836639,28.5562426 25.8726087,29.3556939" id="Fill-14" fill="#A4A4A4"></path>
                <path d="M22.282048,20.7518693 C23.3081842,20.7678731 24.0410935,21.0189848 24.6632399,21.5571115 C24.9356198,21.7927459 25.1299813,22.0793396 24.8429664,22.4165769 C24.5689019,22.7385474 24.2798865,22.6465257 23.9736039,22.4019418 C23.0182212,21.6389202 22.0028244,21.6425 21.0451254,22.408575 C20.7594792,22.6371551 20.4817296,22.7320195 20.2104026,22.4494267 C19.908858,22.1353528 20.059525,21.8402307 20.3259035,21.5813277 C20.8172823,21.103531 21.7127561,20.7599765 22.282048,20.7518693" id="Fill-16" fill="#A4A4A4"></path>
                <path d="M30.4040224,28.3746525 C30.3734889,29.4318487 29.5324488,30.2522523 28.6700354,30.1830781 C28.4625129,30.1665479 28.171497,29.915752 28.1156944,29.7172843 C28.0763167,29.577146 28.3396418,29.2174825 28.5187366,29.175999 C29.0092731,29.0623933 29.2694396,28.8499223 29.3627247,28.3312739 C29.3941005,28.1569171 29.7784015,27.9021203 29.9544429,27.9349701 C30.1625971,27.9739267 30.3200026,28.2844208 30.4040224,28.3746525" id="Fill-18" fill="#A4A4A4"></path>
                <path d="M19.5366441,13.7190671 C19.4902121,14.6038016 18.7029742,15.3786155 17.8571963,15.3443969 C17.640619,15.335658 17.3211754,15.1235028 17.2481056,14.929773 C17.125024,14.603591 17.3720295,14.3594283 17.7127412,14.31068 C18.1310502,14.2508764 18.4041671,14.0533563 18.4571269,13.6274666 C18.5038747,13.2507464 18.6921296,13.0223768 19.070745,13.070704 C19.4545195,13.1197682 19.5702309,13.4118369 19.5366441,13.7190671" id="Fill-20" fill="#A4A4A4"></path>
                <path d="M31.6539059,22.9691806 C31.6010514,24.0283772 30.7009449,24.8663639 29.8706442,24.7571803 C29.6728082,24.7311741 29.4094831,24.4809047 29.360103,24.2869644 C29.3236734,24.1438781 29.5581496,23.7982178 29.7201878,23.7626304 C30.2550505,23.6451291 30.5422759,23.3988606 30.6272433,22.8352543 C30.6489326,22.6913257 31.0606084,22.4669571 31.2180139,22.5168636 C31.4329066,22.5848796 31.5757823,22.8802123 31.6539059,22.9691806" id="Fill-22" fill="#A4A4A4"></path>
                <g id="Group-4-Copy" transform="translate(0.175781, 0.000000)" stroke="#00ADF3" stroke-linecap="round" stroke-width="1.98000002">
                    <circle id="Oval-2-Copy" cx="23.0388164" cy="22.3888164" r="22.2925957"></circle>
                    <path d="M10.4773932,9.89886517 L35.2901589,34.7116309" id="Line-3-Copy-6"></path>
                </g>
            </g>
        </g>
    </g>
</svg>