<?xml version="1.0" encoding="UTF-8" standalone="no"?>
<svg width="48px" height="47px" viewBox="0 0 48 47" version="1.1" xmlns="http://www.w3.org/2000/svg" xmlns:xlink="http://www.w3.org/1999/xlink">
    <!-- Generator: Sketch 49.3 (51167) - http://www.bohemiancoding.com/sketch -->
    <title>Group 4</title>
    <desc>Created with Sketch.</desc>
    <defs>
        <polygon id="path-1" points="20.4721832 19.6187242 0.0421466676 19.6187242 0.0421466676 0.0156370535 20.4721832 0.0156370535"></polygon>
        <polygon id="path-3" points="22.3230172 0.0366557852 22.3230172 6.9436657 2.82298217e-06 6.9436657 2.82298217e-06 0.0366557852"></polygon>
    </defs>
    <g id="Page-1" stroke="none" stroke-width="1" fill="none" fill-rule="evenodd">
        <g id="Artboard-Copy-6" transform="translate(-606.000000, -524.000000)">
            <g id="Group-4" transform="translate(607.000000, 525.000000)">
                <g id="Fingerprinting---icon-Copy" transform="translate(9.805000, 9.929079)">
                    <g id="Group-3" transform="translate(1.707245, 6.297012)">
                        <g id="Fill-1-Clipped">
                            <mask id="mask-2" fill="white">
                                <use xlink:href="#path-1"></use>
                            </mask>
                            <g id="path-1"></g>
                            <path d="M1.39501579,10.0407986 C1.41772543,11.8019762 1.67525875,13.2230674 2.11017624,14.6153528 C2.27940383,15.1572073 1.92407739,15.6091249 1.3804198,15.5418975 C1.08983087,15.5059656 0.910944154,15.327036 0.823153587,15.0481238 C0.209692824,13.0991732 -0.106009798,11.1098259 0.110139604,9.06767558 C0.440438212,5.9476545 1.86015556,3.45221288 4.49382977,1.70344188 C6.19864109,0.571437199 8.09749318,0.0209108984 10.1404592,0.0156735147 C15.1983981,0.00270884354 19.2790069,3.44856388 20.2657386,8.12782279 C20.444797,8.97718047 20.5443073,9.83967454 20.4100671,10.7052166 C20.1465237,12.4044041 18.7823141,13.7083839 17.0772451,13.9181798 C15.0778524,14.164251 13.2682076,12.9308041 12.7951688,10.9743408 C12.6971181,10.5688729 12.7068202,10.1385917 12.6359437,9.725096 C12.4134408,8.42704053 11.135047,7.53552621 9.83038029,7.7073725 C8.4921,7.88359758 7.49867134,9.14816814 7.63832059,10.6184563 C7.98115459,14.2273142 9.90924163,16.6538971 13.2216292,18.030127 C13.4648241,18.1312257 13.7190948,18.2056223 13.9684286,18.2918245 C14.3684875,18.4301429 14.5670787,18.7740501 14.4574371,19.1397225 C14.3447475,19.5155692 13.9755549,19.7090519 13.5650642,19.5775592 C9.77440038,18.3634306 7.34060539,15.8659714 6.43634104,11.9598276 C6.20950222,10.9800933 6.14223189,9.97374301 6.49914671,8.99748606 C7.03705178,7.52603882 8.06778606,6.59597391 9.62977137,6.37540279 C11.9037403,6.05420521 13.7753752,7.69372095 14.0163807,9.72788644 C14.0680247,10.1641348 14.0475474,10.6075522 14.2218836,11.0315227 C14.6231445,12.0076509 15.6672298,12.6506042 16.7037166,12.6003338 C18.0166257,12.5367125 19.2055977,11.4273745 19.106345,9.87646501 C18.8769304,6.29117536 17.1327957,3.71021843 13.9002997,2.15952355 C12.4721682,1.47445659 10.9425087,1.27522136 9.36597033,1.40933273 C7.67850249,1.5528027 6.1507319,2.12625329 4.80004499,3.13814158 C3.00074611,4.48608102 1.93884511,6.29791527 1.56218277,8.50641694 C1.45915227,9.1103474 1.42802848,9.7265556 1.39501579,10.0407986" id="Fill-1" fill="#A4A4A4" fill-rule="nonzero" mask="url(#mask-2)"></path>
                        </g>
                    </g>
                    <path d="M4.87274072,16.8037447 C4.87797811,14.8996982 5.34341838,13.2391041 6.56617577,11.850897 C7.5075311,10.7822131 8.69105102,10.0861991 10.0528137,9.69262265 C13.7261515,8.63093626 17.5971791,10.8290061 18.6353831,14.5604703 C18.8105349,15.1899867 18.8947195,15.8300207 18.9106463,16.4844789 C18.9201336,16.8737625 18.6638023,17.2258264 18.2356677,17.2397784 C17.8396012,17.2527002 17.5716361,16.9413763 17.5525754,16.4977871 C17.4473985,14.0511561 16.3473762,12.2277739 14.0821648,11.2328428 C12.3117574,10.455263 10.5622137,10.6701674 8.91333933,11.652692 C7.27360893,12.6297646 6.43403915,14.1123305 6.26919036,15.992122 C6.09944761,17.927464 6.58613792,19.7321721 7.40836424,21.4605087 C7.94360768,22.5855158 8.62287917,23.6113133 9.56681027,24.4456456 C9.88380073,24.7258027 9.90247508,25.1253036 9.64043414,25.4170945 C9.38629224,25.6999562 8.95128889,25.7071683 8.64266962,25.4319051 C7.35577576,24.2839736 6.49371098,22.8487588 5.83951024,21.2746674 C5.23317575,19.8158414 4.88742257,18.300692 4.87274072,16.8037447" id="Fill-4" fill="#A4A4A4" fill-rule="nonzero"></path>
                    <g id="Group-8" transform="translate(0.719869, 3.163168)">
                        <g id="Fill-6-Clipped">
                            <mask id="mask-4" fill="white">
                                <use xlink:href="#path-3"></use>
                            </mask>
                            <g id="path-3"></g>
                            <path d="M21.6513485,6.91420937 C21.3925273,6.87407041 21.2029941,6.77151213 21.0709863,6.57523903 C19.3305865,3.98694117 16.8978218,2.3922437 13.8867125,1.71164139 C10.1234377,0.86108169 6.68084529,1.60264371 3.64548093,4.02420387 C2.72498928,4.75855375 1.94178577,5.63405542 1.27221631,6.60700676 C0.982571818,7.02788635 0.457803144,7.05767934 0.145406085,6.67642356 C-0.0407356836,6.44928425 -0.056147329,6.13834678 0.14570659,5.86291192 C0.466560736,5.42511815 0.787972964,4.98474863 1.14540294,4.577263 C3.06065406,2.39391794 5.42288583,0.947970739 8.27026246,0.326868551 C9.54217396,0.0494160032 10.8296688,-0.0186270556 12.1292269,0.0783074723 C14.8315881,0.279860886 17.2595018,1.20516063 19.4164882,2.83510312 C20.5032024,3.65629913 21.4239946,4.64204343 22.1715667,5.78396479 C22.399951,6.13276596 22.3705014,6.47512772 22.08017,6.70518624 C21.9584652,6.80164855 21.7955053,6.84612338 21.6513485,6.91420937" id="Fill-6" fill="#A4A4A4" fill-rule="nonzero" mask="url(#mask-4)"></path>
                        </g>
                    </g>
                    <path d="M11.9633598,0.0221327543 C14.6096552,0.038145411 17.0962105,0.64366424 19.3603916,2.04921489 C19.5321519,2.15585146 19.6966573,2.3267533 19.7822585,2.50688496 C19.9030188,2.76089806 19.7771928,3.0696032 19.5617733,3.23140402 C19.3167323,3.41548517 19.0399667,3.41947761 18.7589081,3.26342932 C18.2788289,2.99679498 17.806434,2.71131464 17.3080669,2.48353138 C15.7895691,1.78962097 14.186114,1.45215315 12.5193381,1.38702929 C10.5722334,1.31100137 8.68681818,1.59914333 6.8876481,2.352468 C6.27805098,2.60768313 5.70284029,2.94652468 5.11818513,3.25892174 C4.81742193,3.41969225 4.52133804,3.41505588 4.28011788,3.21127014 C4.07002152,3.03371424 3.96587486,2.72097375 4.09350389,2.4756753 C4.17738789,2.31438964 4.32489322,2.16357875 4.48021169,2.06561391 C5.56808498,1.37938786 6.74271853,0.886043489 7.98234715,0.548017594 C9.28491024,0.192905807 10.6118572,0.0162514299 11.9633598,0.0221327543" id="Fill-9" fill="#A4A4A4" fill-rule="nonzero"></path>
                    <path d="M18.4425529,23.1985473 C16.7382138,23.1888453 15.3282843,22.9494281 14.0844487,22.1096437 C12.8507443,21.2766421 12.0882757,20.0890869 11.5987949,18.7091221 C11.3389434,17.9764464 11.2057336,17.2197304 11.2107563,16.4404764 C11.2135038,16.0057735 11.4993276,15.6993866 11.9011895,15.7022628 C12.2915462,15.7049674 12.5690418,16.0108392 12.5770266,16.4360547 C12.6090519,18.1369165 13.2280077,19.5823914 14.4963989,20.7238835 C15.169832,21.3299604 16.002576,21.6095165 16.8838303,21.7509688 C17.7298394,21.8867973 18.5787678,21.8713428 19.4270952,21.7714891 C19.8009671,21.7274435 20.1591269,21.9615374 20.2212457,22.3008082 C20.2901473,22.6773847 20.070907,23.0319813 19.6781462,23.0885193 C19.1913271,23.1584942 18.6971671,23.1773402 18.4425529,23.1985473" id="Fill-11" fill="#A4A4A4" fill-rule="nonzero"></path>
                </g>
                <circle id="Oval-2-Copy" stroke="#00ADF3" stroke-width="1.98000002" stroke-linecap="round" cx="23.0388164" cy="22.3888164" r="22.2925957"></circle>
                <path d="M10.4773932,9.89886517 L35.2901589,34.7116309" id="Line-3-Copy-6" stroke="#00ADF3" stroke-width="1.98000002" stroke-linecap="round"></path>
            </g>
        </g>
    </g>
</svg>