<?xml version="1.0" encoding="UTF-8" standalone="no"?>
<svg width="32px" height="33px" viewBox="0 0 32 33" version="1.1" xmlns="http://www.w3.org/2000/svg" xmlns:xlink="http://www.w3.org/1999/xlink">
    <!-- Generator: Sketch 50.2 (55047) - http://www.bohemiancoding.com/sketch -->
    <title>qwant_logo</title>
    <desc>Created with Sketch.</desc>
    <defs>
        <polygon id="path-1" points="0 0.0403922179 25.5595991 0.0403922179 25.5595991 25.5501946 0 25.5501946"></polygon>
    </defs>
    <g id="qwant_logo" stroke="none" stroke-width="1" fill="none" fill-rule="evenodd">
        <g id="Group-10" transform="translate(3.200000, 3.808887)">
            <g id="Group-3" transform="translate(0.000000, 0.026145)">
                <mask id="mask-2" fill="white">
                    <use xlink:href="#path-1"></use>
                </mask>
                <g id="Clip-2"></g>
            </g>
            <path d="M1.49031423,18.3645254 C0.927164133,17.285341 0.57974269,16.1342873 0.372198051,14.9410484 C0.166948928,13.7609581 0.131767641,12.5726998 0.267253021,11.3810546 C0.969132164,11.0271371 1.67170994,10.674664 2.37204211,10.3178577 C2.482177,10.2617768 2.56391735,10.2248212 2.67539961,10.3359371 C2.98559376,10.6451293 3.29923119,10.9530266 3.63387758,11.2349753 C3.94322339,11.4955574 4.20421365,11.8108756 4.54699415,12.0324601 C4.5084694,13.0066048 4.55442963,13.9727807 4.81836413,14.9185861 C5.38321092,16.9426795 6.5309193,18.544871 8.29237895,19.7035449 C8.34757115,19.7398033 8.39862144,19.7823371 8.45166784,19.8220819 C8.30415595,19.9722951 8.22695673,20.1683293 8.11282963,20.3402577 C7.82998207,20.766443 7.62208811,21.2398935 7.29243197,21.6366935 C7.19791657,21.5012227 7.10739337,21.3628134 7.00823704,21.2308289 C6.04147524,19.9432585 5.07122027,18.658278 4.10665419,17.3691138 C3.76552047,16.9131449 3.7603306,16.8914795 3.29668616,17.1868258 C2.69056998,17.5728181 2.06314542,17.9274826 1.49031423,18.3645254" id="Fill-4" fill="#FE2C1D"></path>
            <path d="M22.8173648,25.3284875 C22.7270412,25.5168517 22.6422069,25.5589871 22.4556214,25.3944299 C20.4762373,23.6493964 18.4875216,21.9149217 16.5051434,20.173275 C16.4488533,20.123868 16.210968,20.0535427 16.4753017,19.9445186 C16.7409828,19.9422275 16.9916931,19.854819 17.2484416,19.8042665 C17.9164869,19.6726805 18.5834841,19.5352672 19.2484354,19.3890882 C19.8884853,19.2483879 20.5254412,19.0937419 21.1637945,18.9452719 C21.3418467,19.1002167 21.5117149,19.2659194 21.6997477,19.4076159 C22.0046522,19.6373186 22.2586561,19.9342089 22.6121656,20.0997622 C23.0639333,20.5587194 23.5733383,20.9534774 24.0510553,21.3836968 C24.413198,21.7098727 24.7827262,22.0277809 25.1519052,22.3458882 C25.2449235,22.426075 25.3154857,22.4959023 25.1712674,22.5892875 C24.9715574,22.5658291 24.7770873,22.6019381 24.579573,22.6269404 C23.7212993,22.7353668 22.8613789,22.8306945 22.0023566,22.9333933 C21.8505032,22.9515723 21.7803902,23.0126836 21.8603839,23.1832672 C21.9936237,23.4673077 22.0953251,23.76624 22.2312596,24.0488859 C22.4347122,24.4718836 22.5619138,24.929496 22.8173648,25.3284875" id="Fill-6" fill="#118AEC"></path>
            <path d="M21.1638044,18.9452669 C20.5254512,19.093737 19.8884454,19.2483829 19.2484454,19.3890833 C18.5834941,19.5352623 17.9164968,19.6726755 17.2484516,19.8042615 C16.9917031,19.854814 16.7409927,19.9422226 16.4753117,19.9445136 C17.1564313,19.5111066 17.7988267,19.032277 18.3547409,18.4401401 C19.5407744,17.1768747 20.2587721,15.6908296 20.5140735,13.9818553 C20.7660812,12.2947455 20.5014481,10.6826428 19.7875924,9.13877354 C19.8892937,9.14694163 19.9130972,9.23788638 19.9586582,9.30288249 C20.9138926,10.6655097 21.8636376,12.0320218 22.8279542,13.3882739 C22.9579503,13.5711097 23.0437327,13.7972265 23.252475,13.9201961 C23.2592618,13.9613354 23.2675456,14.0014786 23.3117592,14.0206039 C23.3163004,14.1344093 23.2539222,14.2261012 23.2106567,14.3239689 C22.9298551,14.9584405 22.648854,15.5927626 22.3678528,16.2271346 C21.9664867,17.1331953 21.5651206,18.039256 21.1638044,18.9452669" id="Fill-8" fill="#0F8095"></path>
            <path d="M23.2524501,13.9202658 C23.0437078,13.7971966 22.9579752,13.5710798 22.8279292,13.388244 C21.8636625,12.0320417 20.9139175,10.6655296 19.9586333,9.30290241 C19.9130723,9.2379063 19.8892688,9.14691175 19.7875674,9.13879346 C19.4470325,8.44475455 19.0006044,7.82059268 18.5187955,7.21964016 C18.601983,7.1487172 18.5718419,7.05134755 18.5741873,6.96428763 C18.5961444,6.1311421 18.6138598,5.29784716 18.6369148,4.46470163 C18.6411565,4.31254599 18.6312259,4.15486195 18.7186551,4.01650241 C19.0942216,4.43691019 19.5154988,4.81099891 19.9190107,5.20331642 C20.8227955,6.08203393 21.7143042,6.97330241 22.6108033,7.85944093 C22.649877,8.211167 22.687753,8.56299268 22.7282738,8.91451953 C22.8046247,9.57653354 22.8832711,10.2382985 22.959622,10.9003623 C23.0236968,11.4557927 23.1032415,12.0102269 23.1434629,12.5674503 C23.1760992,13.0187374 23.2675705,13.4653927 23.2524501,13.9202658" id="Fill-10" fill="#0E9F9D"></path>
            <path d="M8.83678066,0.765182879 C9.49604304,0.505148638 10.1875924,0.370873152 10.8847308,0.278434241 C13.4696321,-0.0643268482 15.9274317,0.351847471 18.2417117,1.55923113 C19.0076657,1.95887004 19.7380391,2.41688093 20.3786879,3.00398755 C19.8256181,3.32269261 19.2725982,3.64134786 18.7195783,3.96000311 C18.6621904,3.95382724 18.6007604,3.95875798 18.5480134,3.9397821 C17.4992119,3.56200778 16.4537039,3.17521868 15.4024072,2.80476576 C14.9991448,2.66267082 14.6132485,2.46329961 14.1812922,2.40811518 C14.1116781,2.3260856 14.0084797,2.31089494 13.9149124,2.28360156 C12.4932391,1.86961868 11.0690707,1.4639035 9.64989255,1.04160311 C9.37662628,0.960270817 9.07910737,0.940049805 8.83678066,0.765182879" id="Fill-12" fill="#E3F345"></path>
            <path d="M8.83678066,0.765182879 C9.07910737,0.940049805 9.37662628,0.960270817 9.64989255,1.04160311 C11.0690707,1.4639035 12.4932391,1.86961868 13.9149124,2.28360156 C14.0084797,2.31089494 14.1116781,2.3260856 14.1812423,2.40816498 C13.5150434,2.5592249 12.8487947,2.71023502 12.1826458,2.86124514 C11.3289631,3.05359377 10.4753803,3.24614163 9.62169762,3.43824125 C8.5500407,3.67939922 7.47653739,3.91238911 6.40762511,4.16500233 C5.95236429,4.2725821 5.48682355,4.34221012 5.04493661,4.50412763 C5.02891789,4.5047751 5.01304889,4.50362957 4.99732959,4.50054163 C4.92302472,4.22511751 4.86174441,3.9452607 4.76972413,3.67586304 C4.7100407,3.50119533 4.71682745,3.30097743 4.58268943,3.15295564 C5.38996273,2.41429105 6.30717131,1.84013385 7.28895376,1.36583658 C7.78817871,1.1246786 8.29374129,0.895722957 8.83678066,0.765182879" id="Fill-14" fill="#F4EC25"></path>
            <path d="M1.49031423,18.3645254 C2.06314542,17.9274826 2.69056998,17.5728181 3.29668616,17.1868258 C3.7603306,16.8914795 3.76552047,16.9131449 4.10665419,17.3691138 C5.07122027,18.658278 6.04147524,19.9432585 7.00823704,21.2308289 C7.10739337,21.3628134 7.19791657,21.5012227 7.29243197,21.6366935 C7.28579493,21.651436 7.28075478,21.6666764 7.2772117,21.6823651 C6.45292164,21.9534064 5.63980975,22.2544305 4.8374768,22.5844912 C3.89591579,21.8609675 3.12102924,20.9820507 2.44470019,20.0134842 C2.08011228,19.4914235 1.74451774,18.9510344 1.49031423,18.3645254" id="Fill-16" fill="#E50101"></path>
            <path d="M4.99733458,4.50054163 C5.01305388,4.50362957 5.02892288,4.5047751 5.0449416,4.50412763 C5.03146791,4.60622879 5.0665494,4.69981323 5.09973458,4.79255097 C5.33228039,5.44301012 5.55349832,6.09795175 5.80520671,6.74094008 C5.93630066,7.0757323 6.00107415,7.43731984 6.20018526,7.74526693 C5.6219147,8.56735564 5.14968702,9.44164047 4.87437474,10.4139424 C4.73928858,10.8910786 4.63424374,11.373544 4.58908195,11.8681619 C4.58399189,11.9236949 4.56148585,11.9776342 4.54701411,12.0323704 C4.20423361,11.8108358 3.94324335,11.4955673 3.63389754,11.2349354 C3.29920125,10.9530366 2.98561372,10.6451393 2.67541957,10.3359471 C2.56393731,10.2248311 2.48219696,10.261737 2.37206207,10.3178677 C1.6717299,10.6746739 0.969102222,11.0271471 0.267272982,11.3810148 C0.340829318,10.5972265 0.485396959,9.82783191 0.737803977,9.08045136 C0.787506901,9.08418677 0.838457388,9.08224436 0.886763041,9.09250428 C1.46009326,9.21467704 2.03377279,9.33505681 2.60545622,9.46455097 C2.75601216,9.4986677 2.86085739,9.48507082 2.92672873,9.32743658 C3.38258838,8.23729494 3.8359529,7.14605759 4.3024917,6.06049805 C4.52720281,5.53769027 4.69582347,4.9893821 4.99733458,4.50054163" id="Fill-18" fill="#FE8F2B"></path>
            <path d="M7.27720671,21.6823751 C7.28074979,21.6666864 7.28578994,21.6514459 7.29242698,21.6367035 C7.62208312,21.2399035 7.82997708,20.7664031 8.11287454,20.3402677 C8.22695173,20.1683393 8.30420086,19.9723051 8.45166285,19.822042 C9.19501099,20.228056 9.96101489,20.5752 10.7942874,20.7611735 C11.3879779,20.893656 11.9867584,20.9620389 12.5942219,20.9577058 C12.7032589,20.9570086 12.7752683,20.9541696 12.7742703,21.1095128 C12.7658367,22.4175533 12.7680823,23.7256436 12.7656371,25.0337339 C12.7655872,25.0820451 12.7501673,25.1303564 12.7419334,25.1786179 C12.6548535,25.1741852 12.5862874,25.1268202 12.5170227,25.0815969 C12.1711482,24.8557292 11.826172,24.6284171 11.4794991,24.4037946 C10.0790344,23.4961899 8.67802074,22.5894319 7.27720671,21.6823751" id="Fill-20" fill="#CD2C90"></path>
            <path d="M6.20018526,7.74526693 C6.00107415,7.43731984 5.93630066,7.0757323 5.80520671,6.74094008 C5.55349832,6.09795175 5.33228039,5.44301012 5.09973458,4.79255097 C5.0665494,4.69981323 5.03146791,4.60622879 5.0449416,4.50412763 C5.48682854,4.34221012 5.95236928,4.2725821 6.4076301,4.16500233 C7.47654238,3.91238911 8.55004569,3.67939922 9.62165271,3.43824125 C10.4753853,3.24614163 11.3289681,3.05359377 12.1826009,2.86124514 C12.3477782,3.33922802 12.6365143,3.75565136 12.8571833,4.20604202 C12.9145712,4.32323424 12.9599825,4.43235798 12.8727529,4.55204047 C12.0154773,4.547807 11.1716753,4.6373572 10.3454391,4.88095564 C8.82954979,5.32790973 7.57215563,6.1669323 6.537726,7.35060856 C6.42379852,7.48094942 6.31261567,7.61368093 6.20018526,7.74526693" id="Fill-22" fill="#ECB124"></path>
            <path d="M12.8727729,4.55202553 C12.9600025,4.43234304 12.9145912,4.32326911 12.8572033,4.20607689 C12.6364844,3.75568623 12.3477483,3.33921307 12.1826208,2.86123019 C12.8488196,2.71026988 13.5150185,2.55920996 14.1812672,2.40815004 C14.6132735,2.46328467 14.9991198,2.66265588 15.4023822,2.80475082 C16.4537288,3.17520374 17.4992368,3.56204265 18.5480384,3.93976716 C18.6007354,3.95874304 18.6622154,3.9538123 18.7195534,3.95998817 C18.719254,3.97881463 18.7189545,3.99764109 18.7186551,4.01651735 C18.6312259,4.15482708 18.6411565,4.31256093 18.6369148,4.46471658 C18.6138598,5.2978621 18.5961444,6.13115704 18.5741873,6.96430257 C18.5718419,7.05136249 18.601983,7.14873214 18.5187955,7.2196551 C17.9222606,6.61935004 17.2889475,6.06690802 16.5528352,5.63663875 C15.4143089,4.97118817 14.1806185,4.63933447 12.8727729,4.55202553" id="Fill-24" fill="#B8E139"></path>
            <path d="M21.1638044,18.9452669 C21.5651206,18.039256 21.9664867,17.1331953 22.3678528,16.2271346 C22.648854,15.5927626 22.9298551,14.9584405 23.2106567,14.3239689 C23.2539222,14.2261012 23.3163004,14.1344093 23.3117592,14.0205541 C23.4162052,14.0165198 23.4677046,13.9332451 23.5308812,13.8705899 C23.9309,13.4739393 24.3285733,13.0749977 24.7287916,12.6785463 C24.7921179,12.6158412 24.842769,12.5328654 24.9434224,12.5189198 C24.9989639,14.1733074 24.7030918,15.7680778 24.1223261,17.3136903 C23.7824399,18.218207 23.338507,19.0698802 22.796266,19.8699549 C22.7416228,19.9506397 22.7054933,20.0487564 22.6121756,20.0996576 C22.2586161,19.9342039 22.0046621,19.6373136 21.6997577,19.4076109 C21.5117249,19.2659144 21.3418068,19.1002117 21.1638044,18.9452669" id="Fill-26" fill="#47D5E4"></path>
            <path d="M4.99733458,4.50054163 C4.69582347,4.9893821 4.52720281,5.53769027 4.3024917,6.06049805 C3.8359529,7.14605759 3.38258838,8.23729494 2.92672873,9.32743658 C2.86085739,9.48507082 2.75601216,9.4986677 2.60545622,9.46455097 C2.03377279,9.33505681 1.46009326,9.21467704 0.886763041,9.09250428 C0.838457388,9.08224436 0.787506901,9.08418677 0.737803977,9.08045136 C0.996249201,8.0896716 1.42935329,7.17330117 1.94275057,6.29298988 C2.58579462,5.19029728 3.39017357,4.21625214 4.33238331,3.35521556 C4.41142893,3.28299767 4.49910768,3.22014319 4.58269442,3.15295564 C4.71683244,3.30097743 4.71004569,3.50119533 4.76972912,3.67586304 C4.8617494,3.9452607 4.92302971,4.22511751 4.99733458,4.50054163" id="Fill-28" fill="#ECB124"></path>
            <path d="M7.27720671,21.6823751 C8.67802074,22.5894319 10.0790344,23.4961899 11.4794991,24.4037946 C11.826172,24.6284171 12.1711482,24.8557292 12.5170227,25.0815969 C12.5862874,25.1268202 12.6548535,25.1741852 12.7419334,25.1786179 C12.8218274,25.3956202 12.6654827,25.3663844 12.5431716,25.3652389 C11.3321868,25.3540825 10.1455545,25.1830008 8.98691743,24.8261447 C7.49453224,24.3664405 6.14242308,23.6437634 4.92210651,22.6730553 C4.8904683,22.6478537 4.86561684,22.614235 4.83752172,22.5845012 C5.63980476,22.2543907 6.45291665,21.9533665 7.27720671,21.6823751" id="Fill-30" fill="#B20170"></path>
            <path d="M18.7186801,4.01649743 C18.7189795,3.99767097 18.7192789,3.97879471 18.7195783,3.96001805 C19.2725982,3.6413628 19.8256181,3.32270755 20.3786879,3.00400249 C21.042691,3.49752467 21.5971581,4.10156514 22.1186395,4.73688342 C22.8059471,5.57426241 23.3670013,6.49128031 23.8173717,7.47578459 C23.8409756,7.52728342 23.8498582,7.58545619 23.8656274,7.64049121 C23.4529335,7.74553089 23.0296602,7.78985774 22.6107783,7.85943595 C21.7142793,6.97329743 20.8227705,6.08202895 19.9190356,5.20331144 C19.5155237,4.81099393 19.0941966,4.43690521 18.7186801,4.01649743" id="Fill-32" fill="#7CEC91"></path>
            <path d="M22.6107833,7.85944591 C23.0296652,7.7898677 23.4529385,7.74554086 23.8656324,7.64050117 C24.203273,8.28204514 24.4024839,8.9728965 24.5774921,9.67042179 C24.8119342,10.604772 24.949266,11.5531175 24.9434773,12.5189447 C24.842774,12.5328903 24.7921229,12.6158163 24.7287966,12.6785712 C24.3285782,13.0749728 23.930905,13.4739642 23.5308363,13.8706148 C23.4677096,13.93327 23.4162102,14.0165447 23.3117642,14.020579 C23.2675506,14.0015035 23.2592667,13.9613105 23.25248,13.920221 C23.2675506,13.4653977 23.1760792,13.0187424 23.1434929,12.5674553 C23.1032215,12.0102319 23.0236769,11.4557977 22.959602,10.9003673 C22.8832512,10.2383035 22.8046547,9.57653852 22.7282539,8.91452451 C22.687733,8.56294786 22.649857,8.21117198 22.6107833,7.85944591" id="Fill-34" fill="#19D0C2"></path>
            <path d="M22.8173648,25.3284875 C22.5619138,24.929496 22.4347122,24.4718836 22.2312596,24.0488859 C22.0953251,23.76624 21.9936237,23.4673077 21.8603839,23.1832672 C21.7803902,23.0126836 21.8505032,22.9515723 22.0023566,22.9333933 C22.8613789,22.8306945 23.7212993,22.7353668 24.579573,22.6269404 C24.7770873,22.6019381 24.9715574,22.5658291 25.1712674,22.5892875 C24.748543,23.1498478 24.2687301,23.6625451 23.8130701,24.1953637 C23.4863582,24.5773715 23.1793578,24.9772096 22.8173648,25.3284875" id="Fill-36" fill="#47D5E4"></path>
        </g>
    </g>
</svg>