<svg xmlns="http://www.w3.org/2000/svg" xmlns:xlink="http://www.w3.org/1999/xlink" viewBox="0 0 32 32" version="1.1" x="0px" y="0px"><title>Setting Cog 792</title><desc>Created with Sketch.</desc><g stroke="none" stroke-width="1" fill="none" fill-rule="evenodd"><g fill="#525252" fill-rule="nonzero"><path d="M29.18,19.07 C27.5058723,16.147454 28.5143855,12.4212349 31.434,10.742 L28.29,5.296 C27.3626112,5.83944733 26.3068876,6.12530054 25.232,6.124 C23.6131159,6.11870435 22.0626416,5.47052189 20.9216684,4.32204722 C19.7806952,3.17357255 19.142687,1.61888409 19.148,-4.26938485e-14 L12.858,-4.26938485e-14 C12.8670804,1.07757679 12.5866501,2.13782425 12.046,3.07 C10.368,5.978 6.634,6.966 3.706,5.282 L0.562,10.728 C1.49728024,11.2580126 2.27298459,12.0295725 2.808,12.962 C4.47904435,15.8790897 3.47774546,19.5981999 0.568,21.282 L3.712,26.728 C4.608,26.206 5.646,25.908 6.756,25.908 C10.1146554,25.9189984 12.8334151,28.641333 12.84,32 L19.13,32 C19.1269151,30.9333017 19.4071296,29.884913 19.942,28.962 C21.6328068,26.0559258 25.3547911,25.0635158 28.268,26.742 L31.412,21.296 C30.4833715,20.765576 29.7129217,19.9971973 29.18,19.07 Z M16,22.48 C12.4211948,22.48 9.52,19.5788052 9.52,16 C9.52,12.4211948 12.4211948,9.52 16,9.52 C19.5788052,9.52 22.48,12.4211948 22.48,16 C22.48,19.5788052 19.5788052,22.48 16,22.48 Z"></path></g></g></svg>
