<?xml version="1.0" encoding="UTF-8" standalone="no"?>
<svg width="32px" height="33px" viewBox="0 0 32 33" version="1.1" xmlns="http://www.w3.org/2000/svg" xmlns:xlink="http://www.w3.org/1999/xlink">
    <!-- Generator: Sketch 50.2 (55047) - http://www.bohemiancoding.com/sketch -->
    <title>startpage_logo</title>
    <desc>Created with Sketch.</desc>
    <defs></defs>
    <g id="startpage_logo" stroke="none" stroke-width="1" fill="none" fill-rule="evenodd">
        <g id="Group-9" transform="translate(2.709292, 6.100830)">
            <path d="M0.308795673,15.1744798 C0.201393145,15.093928 0.127555015,14.9663894 0.0872790666,14.7918603 C0.0470031186,14.6173311 0.0537156759,14.4629423 0.10741694,14.3286892 C0.187968836,14.194436 0.288657196,14.0199095 0.40948504,13.8051045 C0.530312884,13.5902994 0.617576129,13.429198 0.671277393,13.3217955 C0.912933082,12.9458867 1.27541118,12.9056113 1.75872255,13.2009683 C2.10778077,13.4694746 2.48368398,13.7111266 2.88644346,13.9259317 C3.23550168,14.1138861 3.63154256,14.2749875 4.07457799,14.4092407 C4.51761342,14.5434938 5.0076301,14.6106194 5.54464274,14.6106194 C6.37701233,14.6106194 7.02141784,14.4226678 7.47787858,14.0467589 C7.93433933,13.6708501 8.16256627,13.2143962 8.16256627,12.6773836 C8.16256627,11.9792671 7.86721375,11.4154123 7.27649985,10.9858022 C6.68578594,10.5561921 5.79972838,10.0460377 4.61830057,9.45532382 C4.08128793,9.1868175 3.54428334,8.89817754 3.0072707,8.58939527 C2.47025806,8.280613 1.98024138,7.9181349 1.53720595,7.50195011 C1.09417052,7.08576531 0.731692423,6.6158863 0.449760787,6.09229897 C0.16782915,5.56871165 0.0268654466,4.95786893 0.0268654466,4.2597525 C0.0268654466,3.83014239 0.120841249,3.37368849 0.308795673,2.89037711 C0.496750098,2.40706574 0.79210262,1.9573244 1.1948621,1.5411396 C1.59762158,1.1249548 2.12120105,0.775901823 2.76561622,0.493970187 C3.41003139,0.212038551 4.20211315,0.0710748471 5.14188527,0.0710748471 C6.18905992,0.0710748471 7.10196772,0.212038551 7.88063605,0.493970187 C8.65930438,0.775901823 9.23658431,1.05111667 9.61249315,1.31962299 C9.80044758,1.45387615 9.92127361,1.64182776 9.97497487,1.88348345 C10.0286761,2.12513914 9.98840079,2.35336608 9.85414763,2.56817114 L9.53194166,3.21258309 C9.3976885,3.42738814 9.21644945,3.56835185 8.98821908,3.63547843 C8.75998871,3.70260501 8.55189943,3.68246734 8.36394501,3.57506481 C8.01488679,3.38711038 7.66583381,3.22600901 7.31677559,3.09175585 C7.02141864,2.95750269 6.67907822,2.84338921 6.28974405,2.749412 C5.90040989,2.65543479 5.51779412,2.60844689 5.14188527,2.60844689 C4.22896378,2.60844689 3.61812107,2.78968593 3.3093388,3.15216947 C3.00055653,3.514653 2.84616771,3.87041854 2.84616771,4.21947675 C2.84616771,4.89074256 3.13480768,5.41432203 3.71209627,5.79023087 C4.28938486,6.16613972 4.99420337,6.55546805 5.82657297,6.95822753 C6.5246894,7.28043511 7.18923257,7.61606298 7.82022243,7.96512119 C8.45121228,8.31417941 9.00835454,8.69679518 9.49166591,9.11297997 C9.97497729,9.52916477 10.3643056,10.0057563 10.6596626,10.542769 C10.9550195,11.0797816 11.1026958,11.710762 11.1026958,12.4357291 C11.1026958,13.026443 10.9684446,13.5970104 10.6999383,14.1474483 C10.431432,14.6978863 10.0555288,15.1811904 9.57221741,15.5973752 C9.08890603,16.01356 8.50491354,16.3491879 7.82022243,16.6042689 C7.13553131,16.8593499 6.37701233,16.9868884 5.54464274,16.9868884 C4.20211114,16.9868884 3.10125174,16.7720866 2.24203151,16.3424765 C1.38281129,15.9128664 0.738405786,15.5235381 0.308795673,15.1744798 Z" id="sp-copy" fill="#DA4633"></path>
            <path d="M15.1979998,22.9263765 C15.1979998,23.1411816 15.1241617,23.3224206 14.9764832,23.4700991 C14.8288048,23.6177776 14.6427576,23.6916157 14.4327607,23.6916157 L13.1842125,23.6916157 C12.9694075,23.6916157 12.7881684,23.6177776 12.6404899,23.4700991 C12.4928115,23.3224206 12.4189733,23.1411816 12.4189733,22.9263765 L12.4189733,1.2390715 C12.4189733,1.02426644 12.4928115,0.843027397 12.6404899,0.69534892 C12.7881684,0.547670444 12.9694075,0.473832314 13.1842125,0.473832314 L14.0300032,0.473832314 C14.3253601,0.473832314 14.540162,0.648358804 14.6744151,0.997417021 L14.9563454,1.76265621 C15.3054036,1.46729925 15.7215821,1.18537185 16.2048935,0.916865527 C16.607653,0.702060471 17.0976697,0.507396309 17.6749583,0.3328672 C18.2522469,0.158338092 18.9033649,0.0710748471 19.628332,0.0710748471 C20.7292079,0.0710748471 21.7428041,0.299301796 22.6691509,0.75576254 C23.5954977,1.21222329 24.4010045,1.823066 25.0856957,2.58830901 C25.7703868,3.35355203 26.3006788,4.25303471 26.6765876,5.28678404 C27.0524965,6.32053337 27.2404481,7.41468022 27.2404481,8.56925739 C27.2404481,9.7506852 27.0457839,10.8515446 26.6564498,11.8718686 C26.2671156,12.8921926 25.730111,13.7849628 25.0454199,14.5502058 C24.3607288,15.3154488 23.5417968,15.9128664 22.5885994,16.3424765 C21.6354019,16.7720866 20.6083807,16.9868884 19.5075047,16.9868884 C18.8362389,16.9868884 18.2388213,16.9197629 17.715234,16.7855097 C17.1916467,16.6512566 16.7419053,16.5035803 16.3659965,16.3424765 C15.9095358,16.1545221 15.5202074,15.9262951 15.1979998,15.6577888 L15.1979998,22.9263765 Z M15.2382756,12.8787623 C15.5873338,13.1472686 15.963237,13.3889207 16.3659965,13.6037257 C16.7150547,13.7916802 17.1245207,13.9527815 17.5944068,14.0870347 C18.0642928,14.2212878 18.5811597,14.2884134 19.145023,14.2884134 C19.9236914,14.2884134 20.6352224,14.1407372 21.2796376,13.8453802 C21.9240528,13.5500233 22.481195,13.1405573 22.9510811,12.6169699 C23.4209671,12.0933826 23.7834452,11.4825399 24.0385262,10.7844235 C24.2936072,10.086307 24.4211458,9.33450061 24.4211458,8.52898165 C24.4211458,7.75031332 24.3070324,7.00521946 24.078802,6.29367771 C23.8505716,5.58213596 23.5216563,4.95115557 23.0920462,4.40071761 C22.6624361,3.85027966 22.1321441,3.41396343 21.5011542,3.09175585 C20.8701643,2.76954826 20.1519207,2.60844689 19.3464018,2.60844689 C18.675136,2.60844689 18.0911435,2.7158478 17.5944068,2.93065286 C17.0976701,3.14545792 16.674779,3.37368487 16.3257208,3.61534055 C15.9229613,3.91069751 15.5604832,4.23290026 15.2382756,4.58195847 L15.2382756,12.8787623 Z" id="sp-copy" fill="#658AC8"></path>
        </g>
    </g>
</svg>