<?xml version="1.0" encoding="UTF-8" standalone="no"?>
<svg width="32px" height="33px" viewBox="0 0 32 33" version="1.1" xmlns="http://www.w3.org/2000/svg" xmlns:xlink="http://www.w3.org/1999/xlink">
    <!-- Generator: Sketch 50.2 (55047) - http://www.bohemiancoding.com/sketch -->
    <title>yahoo_logo</title>
    <desc>Created with Sketch.</desc>
    <defs>
        <polygon id="path-1" points="0.0027826087 0.499756522 23.19533 0.499756522 23.19533 22.9565217 0.0027826087 22.9565217"></polygon>
        <polygon id="path-3" points="0.588930603 0.58283934 7.5986087 0.58283934 7.5986087 16.8218995 0.588930603 16.8218995"></polygon>
    </defs>
    <g id="yahoo_logo" stroke="none" stroke-width="1" fill="none" fill-rule="evenodd">
        <g id="Group-8" transform="translate(0.000000, 4.326087)">
            <circle id="Oval-3" fill="#FFFFFF" cx="11.9388587" cy="12.3790761" r="10.8444293"></circle>
            <g id="Group" transform="translate(0.347826, 0.463315)">
                <g id="Group-3" transform="translate(0.000000, 0.198330)">
                    <mask id="mask-2" fill="white">
                        <use xlink:href="#path-1"></use>
                    </mask>
                    <g id="Clip-2"></g>
                    <path d="M15.8803478,9.53906087 C15.8845217,9.54810435 15.8893913,9.55714783 15.8935652,9.5661913 C15.8754783,9.57871304 15.858087,9.59123478 15.8406957,9.60514783 C14.6991304,10.5790609 13.5554783,11.5522783 12.416,12.5282783 C12.3387826,12.5943652 12.3137391,12.5568 12.2685217,12.5018435 C11.1033043,11.0611478 9.9373913,9.62253913 8.77217391,8.18253913 C8.74782609,8.15193043 8.70608696,8.12758261 8.71095652,8.06914783 C8.86330435,8.05453913 9.01356522,8.03714783 9.16452174,8.02601739 C9.76556522,7.97871304 10.3666087,7.93210435 10.9676522,7.88966957 C11.0587826,7.88271304 11.0984348,7.85975652 11.1046957,7.75610435 C11.122087,7.45766957 11.1492174,7.15923478 11.1881739,6.8621913 C11.2034783,6.74253913 11.1881739,6.70914783 11.0601739,6.70914783 C9.168,6.71332174 7.27582609,6.71193043 5.38365217,6.71193043 C4.43269565,6.71193043 3.48243478,6.71401739 2.53217391,6.70984348 C2.42226087,6.70914783 2.38191304,6.72932174 2.38608696,6.84966957 C2.39582609,7.13975652 2.3986087,7.43123478 2.3853913,7.72201739 C2.37843478,7.86045217 2.43269565,7.8848 2.55165217,7.89314783 C3.31756522,7.94462609 4.08347826,8.00306087 4.8493913,8.05593043 C4.96834783,8.06427826 5.06017391,8.0941913 5.13252174,8.20062609 C5.22017391,8.32932174 5.32869565,8.4434087 5.42747826,8.56445217 C6.93773913,10.4002783 8.44869565,12.2354087 9.96034783,14.0712348 C10.0083478,14.1296696 10.0396522,14.186713 10.0396522,14.2681043 C10.0368696,15.2406261 10.0361739,16.2124522 10.0396522,17.1849739 C10.0403478,17.2816696 10.0097391,17.310887 9.91721739,17.3171478 C9.54504348,17.3414957 9.17356522,17.3721043 8.8013913,17.4006261 C8.30817391,17.438887 7.81565217,17.4778435 7.32243478,17.5168 C7.26191304,17.5216696 7.20834783,17.518887 7.21043478,17.6141913 C7.2173913,17.8959304 7.216,18.1776696 7.21113043,18.4601043 C7.20973913,18.5421913 7.24452174,18.5498435 7.31130435,18.5491478 C7.57217391,18.5463652 7.83234783,18.5477565 8.09252174,18.5477565 C10.6573913,18.5477565 13.2222609,18.5477565 15.7871304,18.5498435 C15.8831304,18.5498435 15.9227826,18.5345391 15.9193043,18.4253217 C15.9095652,18.1651478 15.9109565,17.9042783 15.9186087,17.6448 C15.922087,17.5453217 15.890087,17.5237565 15.7968696,17.518887 C14.9384348,17.4743652 14.0806957,17.4381913 13.2215652,17.422887 C13.1227826,17.4214957 13.0893913,17.3971478 13.0921739,17.290713 C13.122087,16.2590609 13.1478261,15.2260174 13.170087,14.1936696 C13.1714783,14.0928 13.2048696,14.0281043 13.2793043,13.9620174 C14.7673043,12.6395826 16.256,11.3164522 17.7377391,9.98497391 C17.9262609,9.81523478 18.1085217,9.68236522 18.3749565,9.70810435 C18.4556522,9.71575652 18.5391304,9.69836522 18.6212174,9.69210435 C19.2222609,9.64549565 19.8233043,9.59749565 20.4243478,9.55436522 C20.5203478,9.5474087 20.5523478,9.5154087 20.5509565,9.41453913 C20.5433043,9.05001739 20.5426087,8.68549565 20.5509565,8.32166957 C20.5537391,8.2061913 20.5238261,8.17836522 20.4090435,8.17975652 C19.2417391,8.19923478 18.0744348,8.21036522 16.9078261,8.22775652 C15.7015652,8.24584348 14.4953043,8.26810435 13.2890435,8.28758261 C13.2271304,8.28897391 13.1714783,8.27853913 13.1728696,8.37662609 C13.1784348,8.70149565 13.1770435,9.02706087 13.1735652,9.35262609 C13.1735652,9.41593043 13.1958261,9.43123478 13.2556522,9.43401739 C13.6069565,9.44862609 13.9575652,9.4701913 14.3088696,9.48410435 C14.8326957,9.50497391 15.3565217,9.52097391 15.8803478,9.53906087 M0.0027826087,12.4524522 L0.0027826087,11.0722783 C0.036173913,11.0528 0.0250434783,11.018713 0.0264347826,10.9901913 C0.0542608696,10.5053217 0.114086957,10.0239304 0.208,9.5474087 C0.747130435,6.80445217 2.11547826,4.56862609 4.3346087,2.87123478 C6.15095652,1.48062609 8.2226087,0.741843478 10.4953043,0.546365217 C10.6344348,0.53453913 10.7784348,0.55053913 10.9133913,0.499756522 L12.2413913,0.499756522 C12.2615652,0.533147826 12.2956522,0.521321739 12.3234783,0.522713043 C13.584,0.587408696 14.8076522,0.83506087 15.9853913,1.28584348 C18.178087,2.1248 19.9770435,3.48201739 21.282087,5.44027826 C23.1304348,8.21245217 23.6125217,11.2524522 22.8452174,14.4691478 C22.1231304,17.4980174 20.3554783,19.7936696 17.6730435,21.3665391 C15.8873043,22.4141913 13.9373913,22.9074087 11.8706087,22.9533217 C10.4848696,22.9839304 9.12765217,22.8037565 7.80730435,22.3814957 C5.84556522,21.7540174 4.15443478,20.6966261 2.78330435,19.1522783 C1.17078261,17.3359304 0.277565217,15.2051478 0.0500869565,12.7905391 C0.0396521739,12.6778435 0.0563478261,12.5595826 0.0027826087,12.4524522" id="Fill-1" fill="#6B0094" mask="url(#mask-2)"></path>
                </g>
                <g id="Group-6" transform="translate(23.652174, 0.893983)">
                    <mask id="mask-4" fill="white">
                        <use xlink:href="#path-3"></use>
                    </mask>
                    <g id="Clip-5"></g>
                    <path d="M7.59909565,0.975930435 C7.49335652,1.2688 7.4397913,1.57558261 7.36744348,1.8768 C6.45057391,5.6834087 5.5357913,9.49071304 4.62031304,13.2973217 C4.34692174,14.4340174 4.07213913,15.570713 3.80153043,16.7088 C3.77926957,16.8020174 3.75561739,16.8312348 3.64987826,16.8194087 C2.68848696,16.7150609 1.7264,16.6176696 0.764313043,16.5195826 C0.586921739,16.5014957 0.586226087,16.5042783 0.589704348,16.322713 C0.666921739,12.6218435 0.744834783,8.92097391 0.821356522,5.22010435 C0.85266087,3.72306087 0.883269565,2.22601739 0.908313043,0.728973913 C0.9104,0.609321739 0.943095652,0.577321739 1.06135652,0.583582609 C1.99213913,0.634365217 2.92431304,0.678191304 3.8557913,0.725495652 C4.82205217,0.773495652 5.78831304,0.822191304 6.75457391,0.872278261 C7.03561739,0.886886957 7.31735652,0.906365217 7.59909565,0.923756522 L7.59909565,0.975930435 Z" id="Fill-4" fill="#6B0094" mask="url(#mask-4)"></path>
                </g>
                <path d="M25.8457043,23.1277217 C25.2516174,23.1277217 24.6575304,23.1242435 24.0627478,23.1305043 C23.9570087,23.1312 23.9229217,23.0998957 23.9145739,22.9976348 C23.8547478,22.3242435 23.7893565,21.6508522 23.7260522,20.9774609 C23.6864,20.5593739 23.6516174,20.1398957 23.6050087,19.7218087 C23.5945739,19.6209391 23.6189217,19.6098087 23.7128348,19.6174609 C24.7584,19.7037217 25.8032696,19.7837217 26.8495304,19.8672 C27.1215304,19.8887652 27.3935304,19.917287 27.6655304,19.9353739 C27.7385739,19.9409391 27.7594435,19.9632 27.7594435,20.0362435 C27.7573565,21.033113 27.7559652,22.0306783 27.7601391,23.0282435 C27.7608348,23.1284174 27.7135304,23.1284174 27.6411826,23.1284174 C27.0429217,23.1270261 26.4439652,23.1277217 25.8457043,23.1277217" id="Fill-11" fill="#6B0094"></path>
            </g>
        </g>
    </g>
</svg>