<?xml version="1.0" encoding="utf-8"?>
<!-- Generator: Adobe Illustrator 18.1.1, SVG Export Plug-In . SVG Version: 6.00 Build 0)  -->
<svg version="1.1" id="Layer_1" xmlns="http://www.w3.org/2000/svg" xmlns:xlink="http://www.w3.org/1999/xlink" x="0px" y="0px"
	 viewBox="0 0 161 42" enable-background="new 0 0 161 42" xml:space="preserve">
<g>
	<g>
		<path fill="#EAEAEA" d="M93,20.5v-0.1C93,13.6,97.8,8,104.7,8c6.9,0,11.8,5.6,11.8,12.3c2.9,1.4,5.7,2.8,8.6,4.3
			c0.3-1.3,0.4-2.7,0.4-4.1c0-11.4-8.6-20.5-20.7-20.5C92.7,0,84,9.2,84,20.5C84,31.9,92.6,41,104.7,41c0.8,0,1.6,0,2.3-0.1
			c-0.9-2.6-1.8-5.3-2.7-7.9C97.7,32.7,93,27.1,93,20.5z M70.8,40.3h8.6V0.7h-8.6V40.3z M48,0.7h-8.6v39.6h28.1v-7.9H48V0.7z
			 M20.3,32.9C13.6,32.9,9,27.3,9,20.5v-0.1C9,13.6,13.7,8,20.3,8c3.9,0,7,1.7,10,4.5l5.5-6.4C32.1,2.5,27.7,0,20.4,0
			C8.4,0,0,9.2,0,20.5v0.1C0,32,8.5,41,20,41c7.5,0,12-2.7,16-7.1l-5.5-5.6C27.5,31.1,24.8,32.9,20.3,32.9z M117.7,30.9l6.9-2.4
			l-21-10.3l8,23.6l3.9-8l8.2,8.1c0,0,2.8-2.4,2.3-3C123.5,36.2,117.7,30.9,117.7,30.9z M161,0.7h-31.9v7.6H150l-21.5,25.4v6.6H161
			v-7.6h-21.5L161,7.3V0.7z"/>
	</g>
</g>
</svg>
