<?xml version="1.0" encoding="UTF-8"?>
<svg width="76px" height="74px" viewBox="0 0 76 74" version="1.1" xmlns="http://www.w3.org/2000/svg" xmlns:xlink="http://www.w3.org/1999/xlink">
    <!-- Generator: Sketch 59.1 (86144) - https://sketch.com -->
    <title>Group 59</title>
    <desc>Created with Sketch.</desc>
    <g id="CHIP_Offers" stroke="none" stroke-width="1" fill="none" fill-rule="evenodd">
        <g id="Group-71" transform="translate(-75.000000, -105.000000)">
            <g id="Group-62" transform="translate(33.000000, 105.000000)">
                <g id="Group-59" transform="translate(42.000000, 0.000000)">
                    <path d="M45.59509,66.412976 C45.6476044,70.0249659 43.0954113,73.1563953 39.5343616,73.8492251 C39.0304244,73.9579099 38.5155429,74.0081452 38,73.9989277 C33.8718156,73.9908028 30.5064691,70.7364898 30.349108,66.6586172 L30.3435355,66.412976 L45.59509,66.412976 Z M38.0030687,0 C41.0887248,0 43.6037302,2.43244384 43.7190384,5.47637157 L43.7231689,5.69481034 L43.7231689,8.26725149 C54.4904624,10.8218591 60.722126,20.375163 60.8655926,31.8475819 L60.8681257,32.2532794 L60.8681257,51.2349621 L68.4939029,58.8209139 L68.4939029,62.6123622 L7.50609707,62.6123622 L7.50609707,58.8209139 L15.1441492,51.2349621 L15.1441492,32.2624449 C15.1441492,20.7093378 21.2026475,11.0872144 31.9033707,8.37536228 L32.2829686,8.28252727 L32.2829686,5.69481034 C32.2829686,2.54965344 34.8439446,0 38.0030687,0 Z M43.999374,44 L32,44 C32.0225211,47.3151677 34.7109656,49.9925981 38.0238306,49.999152 C38.4294412,50.0064414 38.8345314,49.9667141 39.2310111,49.8807636 C42.0327168,49.3328572 44.0406904,46.856448 43.999374,44 Z M49.7272727,37 C48.2210416,37 47,38.2210416 47,39.7272727 C47,41.2335039 48.2210416,42.4545455 49.7272727,42.4545455 C51.2335039,42.4545455 52.4545455,41.2335039 52.4545455,39.7272727 C52.4545455,38.2210416 51.2335039,37 49.7272727,37 Z M25.7272727,37 C24.2210416,37 23,38.2210416 23,39.7272727 C23,41.2335039 24.2210416,42.4545455 25.7272727,42.4545455 C27.2335039,42.4545455 28.4545455,41.2335039 28.4545455,39.7272727 C28.4545455,38.2210416 27.2335039,37 25.7272727,37 Z M15.7057256,0.571314128 L21.1557781,5.99727076 C13.2897246,11.5487797 8.34147516,20.3096762 7.65152263,29.867091 L7.61963983,30.362138 L-6.61248833e-13,30.362138 C0.52258052,18.6000834 6.27929466,7.6806734 15.7057256,0.571314128 Z M60.2973431,0.580479595 C69.5522754,7.59841692 75.268222,18.2772045 75.9707467,29.820427 L76,30.362138 L68.3834289,30.362138 C67.8250307,20.7937785 63.0179867,11.9787772 55.2836997,6.30039155 L54.8810466,6.00949139 L60.2973431,0.580479595 Z" id="Combined-Shape" fill="#FFFFFF" fill-rule="nonzero"></path>
                    <g id="Group-75" transform="translate(23.000000, 37.000000)"></g>
                </g>
            </g>
        </g>
    </g>
</svg>