<?xml version="1.0" encoding="UTF-8"?>
<svg width="76px" height="74px" viewBox="0 0 76 74" version="1.1" xmlns="http://www.w3.org/2000/svg" xmlns:xlink="http://www.w3.org/1999/xlink">
    <!-- Generator: Sketch 59.1 (86144) - https://sketch.com -->
    <title>Combined Shape</title>
    <desc>Created with Sketch.</desc>
    <g id="CHIP_Offers" stroke="none" stroke-width="1" fill="none" fill-rule="evenodd">
        <g id="Group-84" transform="translate(-79.000000, -95.000000)" fill="#FFFFFF" fill-rule="nonzero">
            <g id="Group-71">
                <g id="Group-65-Copy">
                    <g id="Group-30">
                        <g id="Group-82" transform="translate(27.000000, 95.000000)">
                            <path d="M97.59509,66.412976 C97.6476044,70.0249659 95.0954113,73.1563953 91.5343616,73.8492251 C91.0304244,73.9579099 90.5155429,74.0081452 90,73.9989277 C85.8718156,73.9908028 82.5064691,70.7364898 82.349108,66.6586172 L82.3435355,66.412976 L97.59509,66.412976 Z M90.0030687,0 C93.0887248,0 95.6037302,2.43244384 95.7190384,5.47637157 L95.7231689,5.69481034 L95.7231689,8.26725149 C106.490462,10.8218591 112.722126,20.375163 112.865593,31.8475819 L112.868126,32.2532794 L112.868126,51.2349621 L120.493903,58.8209139 L120.493903,62.6123622 L59.5060971,62.6123622 L59.5060971,58.8209139 L67.1441492,51.2349621 L67.1441492,32.2624449 C67.1441492,20.7093378 73.2026475,11.0872144 83.9033707,8.37536228 L84.2829686,8.28252727 L84.2829686,5.69481034 C84.2829686,2.54965344 86.8439446,0 90.0030687,0 Z M95.999374,44 L84,44 C84.0225211,47.3151677 86.7109656,49.9925981 90.0238306,49.999152 C90.4294412,50.0064414 90.8345314,49.9667141 91.2310111,49.8807636 C94.0327168,49.3328572 96.0406904,46.856448 95.999374,44 Z M97.1030308,38.469822 C96.7801973,39.2442009 97.2522381,40.1313321 98.0148734,40.031955 C98.7775088,39.9325779 99.9489211,38.2368787 101.132951,38.2368787 C102.794614,38.2368787 103.619618,40.1339107 104.273224,40.243593 C104.926831,40.3532753 105.483431,40.0122723 105.483431,39.1040634 C105.483431,38.1958545 102.992961,36.1048071 101.241716,36.0043708 C99.4904702,35.9039345 97.4828762,37.5586886 97.1030308,38.469822 Z M74.1030308,38.469822 C73.7801973,39.2442009 74.2522381,40.1313321 75.0148734,40.031955 C75.7775088,39.9325779 76.9489211,38.2368787 78.1329506,38.2368787 C79.7946143,38.2368787 80.6196176,40.1339107 81.2732243,40.243593 C81.926831,40.3532753 82.4834311,40.0122723 82.4834311,39.1040634 C82.4834311,38.1958545 79.9929609,36.1048071 78.2417156,36.0043708 C76.4904702,35.9039345 74.4828762,37.5586886 74.1030308,38.469822 Z M67.7057256,0.571314128 L73.1557781,5.99727076 C65.2897246,11.5487797 60.3414752,20.3096762 59.6515226,29.867091 L59.6196398,30.362138 L52,30.362138 C52.5225805,18.6000834 58.2792947,7.6806734 67.7057256,0.571314128 Z M112.297343,0.580479595 C121.552275,7.59841692 127.268222,18.2772045 127.970747,29.820427 L128,30.362138 L120.383429,30.362138 C119.825031,20.7937785 115.017987,11.9787772 107.2837,6.30039155 L106.881047,6.00949139 L112.297343,0.580479595 Z" id="Combined-Shape"></path>
                        </g>
                    </g>
                </g>
            </g>
        </g>
    </g>
</svg>