<?xml version="1.0" encoding="UTF-8"?>
<svg width="73px" height="75px" viewBox="0 0 73 75" version="1.1" xmlns="http://www.w3.org/2000/svg" xmlns:xlink="http://www.w3.org/1999/xlink">
    <!-- Generator: Sketch 60 (88103) - https://sketch.com -->
    <title>Ghosty Star</title>
    <desc>Created with Sketch.</desc>
    <g id="CHIP_Offers" stroke="none" stroke-width="1" fill="none" fill-rule="evenodd">
        <g id="Group-126" transform="translate(-79.000000, -105.000000)" fill="#FFFFFF" fill-rule="nonzero">
            <g id="Group-125">
                <g id="Group-124">
                    <g id="Group-71">
                        <g id="Group-65-Copy">
                            <g id="Ghosty-Star" transform="translate(79.000000, 105.000000)">
                                <path d="M56.2116013,52.7127097 C53.5040022,46.7395717 53.0380688,41.67873 52.9650385,39.6901736 L52.9650385,23.3285989 C52.9650385,10.8296106 42.3508122,0.697968043 29.2583022,0.697968043 C16.1643315,0.697968043 5.54974007,10.8296106 5.54974007,23.3285989 L5.54974007,39.926695 C5.44822793,42.0656998 4.91620209,46.9721805 2.31376673,52.7127097 C-1.18548091,60.4265009 1.70980601,59.5074472 4.30384285,58.8725748 C6.89714943,58.2405474 12.6888187,55.7632993 14.49851,58.8153118 C16.3067406,61.8655457 17.815547,64.5152941 22.0377947,62.7874448 C26.2604077,61.0613737 28.2501187,60.4855424 28.8529839,60.4855424 L29.6727492,60.4855424 C30.2752493,60.4855424 32.2656907,61.0613737 36.4875733,62.7874448 C40.7101862,64.5152941 42.2186274,61.8655457 44.0279535,58.8153118 C45.8365492,55.7632993 51.6278534,58.2405474 54.2218903,58.8725748 C56.8155619,59.5074472 59.7097535,60.4265009 56.2116013,52.7127097 M21.9406644,13.0379715 C24.4941695,13.0379715 26.564579,16.1646747 26.564579,20.0226374 C26.564579,23.8809559 24.4941695,27.0083705 21.9406644,27.0083705 C19.3871594,27.0083705 17.3163848,23.8809559 17.3163848,20.0226374 C17.3163848,16.1646747 19.3871594,13.0379715 21.9406644,13.0379715 M29.2583022,40.9574293 C23.6313163,40.9574293 18.8945699,35.6710919 17.4671924,29.7886502 C20.2237217,33.4068908 24.4791982,35.7315559 29.2583022,35.7315559 C34.0366758,35.7315559 38.2921523,33.4068908 41.0490468,29.7886502 C39.6216693,35.6710919 34.8841926,40.9574293 29.2583022,40.9574293 M36.5763052,27.0083705 C34.0206093,27.0083705 31.9512951,23.8809559 31.9512951,20.0226374 C31.9512951,16.1646747 34.0206093,13.0379715 36.5763052,13.0379715 C39.1309055,13.0379715 41.1994892,16.1646747 41.1994892,20.0226374 C41.1994892,23.8809559 39.1309055,27.0083705 36.5763052,27.0083705" id="Fill-3"></path>
                                <g id="Star" transform="translate(28.446319, 33.664591)" stroke="#5B005C" stroke-width="2.63676796">
                                    <path d="M41.5410692,17.6410028 L32.9922733,24.4768914 C32.4973431,24.873814 32.2723748,25.5353516 32.4073558,26.1968892 L34.9719946,36.5168757 C35.3319438,38.1927711 34.0721211,39.5599488 32.5873304,39.5599488 C32.1373938,39.5599488 31.6874572,39.4276414 31.2825142,39.1630262 L21.9688261,33.5620077 C21.4289022,33.2091877 20.7090036,33.2091877 20.1690796,33.5620077 L10.9453789,39.1630262 C10.5404359,39.4276414 10.0455056,39.5599488 9.595569,39.5599488 C8.11077817,39.5599488 6.7609683,38.1927711 7.2109049,36.5168757 L9.77554364,26.1968892 C9.91052464,25.5794541 9.73055,24.9179165 9.19062604,24.5209939 L0.866798538,17.6410028 C-0.842960629,16.1856201 0.146899941,13.4071621 2.35158939,13.2748546 L13.2400557,12.525112 C13.8699669,12.4810095 14.4548845,12.0840869 14.7248465,11.4666518 L18.8642634,1.54358775 C19.3142001,0.529230084 20.259067,0 21.2039339,0 C22.1488008,0 23.0936677,0.529230084 23.5436043,1.54358775 L27.6830212,11.4666518 C27.9079895,12.0399844 28.4929071,12.436907 29.1678121,12.525112 L40.0562782,13.2748546 C42.3059614,13.4071621 43.2958222,16.1856201 41.5410692,17.6410028 Z" id="Shape"></path>
                                </g>
                            </g>
                        </g>
                    </g>
                </g>
            </g>
        </g>
    </g>
</svg>