<?xml version="1.0" encoding="UTF-8"?>
<svg width="110px" height="11px" viewBox="0 0 110 11" version="1.1" xmlns="http://www.w3.org/2000/svg" xmlns:xlink="http://www.w3.org/1999/xlink">
    <!-- Generator: Sketch 50 (54983) - http://www.bohemiancoding.com/sketch -->
    <title>GHOSTERY REWARDS BET</title>
    <desc>Created with Sketch.</desc>
    <defs></defs>
    <g id="Page-1" stroke="none" stroke-width="1" fill="none" fill-rule="evenodd">
        <g id="Reward-card" transform="translate(-9.000000, -13.000000)" fill="#4A4A4A">
            <g id="Group-19">
                <path d="M12.144,17.54 L14.3,17.54 L14.3,20.648 C14.3,21.4413373 14.1063353,22.0503312 13.719,22.475 C13.3316647,22.8996688 12.7600038,23.112 12.004,23.112 C11.2479962,23.112 10.6763353,22.8996688 10.289,22.475 C9.90166473,22.0503312 9.708,21.4413373 9.708,20.648 L9.708,15.552 C9.708,14.7586627 9.90166473,14.1496688 10.289,13.725 C10.6763353,13.3003312 11.2479962,13.088 12.004,13.088 C12.7600038,13.088 13.3316647,13.3003312 13.719,13.725 C14.1063353,14.1496688 14.3,14.7586627 14.3,15.552 L14.3,16.504 L12.844,16.504 L12.844,15.454 C12.844,15.0993316 12.7716674,14.8496674 12.627,14.705 C12.4823326,14.5603326 12.2886679,14.488 12.046,14.488 C11.8033321,14.488 11.6096674,14.5603326 11.465,14.705 C11.3203326,14.8496674 11.248,15.0993316 11.248,15.454 L11.248,20.746 C11.248,21.1006684 11.3203326,21.3479993 11.465,21.488 C11.6096674,21.6280007 11.8033321,21.698 12.046,21.698 C12.2886679,21.698 12.4823326,21.6280007 12.627,21.488 C12.7716674,21.3479993 12.844,21.1006684 12.844,20.746 L12.844,18.94 L12.144,18.94 L12.144,17.54 Z M16.834,23 L15.294,23 L15.294,13.2 L16.834,13.2 L16.834,17.4 L18.584,17.4 L18.584,13.2 L20.152,13.2 L20.152,23 L18.584,23 L18.584,18.8 L16.834,18.8 L16.834,23 Z M21.146,15.552 C21.146,14.7586627 21.3466647,14.1496688 21.748,13.725 C22.1493353,13.3003312 22.7279962,13.088 23.484,13.088 C24.2400038,13.088 24.8186647,13.3003312 25.22,13.725 C25.6213353,14.1496688 25.822,14.7586627 25.822,15.552 L25.822,20.648 C25.822,21.4413373 25.6213353,22.0503312 25.22,22.475 C24.8186647,22.8996688 24.2400038,23.112 23.484,23.112 C22.7279962,23.112 22.1493353,22.8996688 21.748,22.475 C21.3466647,22.0503312 21.146,21.4413373 21.146,20.648 L21.146,15.552 Z M22.686,20.746 C22.686,21.1006684 22.7583326,21.3503326 22.903,21.495 C23.0476674,21.6396674 23.2413321,21.712 23.484,21.712 C23.7266679,21.712 23.9203326,21.6396674 24.065,21.495 C24.2096674,21.3503326 24.282,21.1006684 24.282,20.746 L24.282,15.454 C24.282,15.0993316 24.2096674,14.8496674 24.065,14.705 C23.9203326,14.5603326 23.7266679,14.488 23.484,14.488 C23.2413321,14.488 23.0476674,14.5603326 22.903,14.705 C22.7583326,14.8496674 22.686,15.0993316 22.686,15.454 L22.686,20.746 Z M26.62,15.552 C26.62,14.7586627 26.8089981,14.1496688 27.187,13.725 C27.5650019,13.3003312 28.1319962,13.088 28.888,13.088 C29.6440038,13.088 30.2109981,13.3003312 30.589,13.725 C30.9670019,14.1496688 31.156,14.7586627 31.156,15.552 L31.156,15.93 L29.7,15.93 L29.7,15.454 C29.7,15.0993316 29.632334,14.8496674 29.497,14.705 C29.361666,14.5603326 29.1726679,14.488 28.93,14.488 C28.6873321,14.488 28.498334,14.5603326 28.363,14.705 C28.227666,14.8496674 28.16,15.0993316 28.16,15.454 C28.16,15.7900017 28.2346659,16.086332 28.384,16.343 C28.5333341,16.5996679 28.7199989,16.8423322 28.944,17.071 C29.1680011,17.2996678 29.408332,17.5283322 29.665,17.757 C29.9216679,17.9856678 30.1619989,18.235332 30.386,18.506 C30.6100011,18.776668 30.7966659,19.0846649 30.946,19.43 C31.0953341,19.7753351 31.17,20.181331 31.17,20.648 C31.17,21.4413373 30.9763353,22.0503312 30.589,22.475 C30.2016647,22.8996688 29.6300038,23.112 28.874,23.112 C28.1179962,23.112 27.5463353,22.8996688 27.159,22.475 C26.7716647,22.0503312 26.578,21.4413373 26.578,20.648 L26.578,19.976 L28.034,19.976 L28.034,20.746 C28.034,21.1006684 28.1063326,21.3479993 28.251,21.488 C28.3956674,21.6280007 28.5893321,21.698 28.832,21.698 C29.0746679,21.698 29.2683326,21.6280007 29.413,21.488 C29.5576674,21.3479993 29.63,21.1006684 29.63,20.746 C29.63,20.4099983 29.5553341,20.1136679 29.406,19.857 C29.2566659,19.600332 29.0700011,19.3576678 28.846,19.129 C28.6219989,18.9003322 28.3816679,18.6716678 28.125,18.443 C27.868332,18.2143322 27.6280011,17.964668 27.404,17.694 C27.1799989,17.423332 26.9933341,17.1153351 26.844,16.77 C26.6946659,16.4246649 26.62,16.018669 26.62,15.552 Z M31.632,13.2 L36.392,13.2 L36.392,14.6 L34.782,14.6 L34.782,23 L33.242,23 L33.242,14.6 L31.632,14.6 L31.632,13.2 Z M38.632,17.33 L40.746,17.33 L40.746,18.73 L38.632,18.73 L38.632,21.6 L41.292,21.6 L41.292,23 L37.092,23 L37.092,13.2 L41.292,13.2 L41.292,14.6 L38.632,14.6 L38.632,17.33 Z M43.784,14.6 L43.784,17.61 L44.386,17.61 C44.6753348,17.61 44.9016658,17.5353341 45.065,17.386 C45.2283341,17.2366659 45.31,16.966002 45.31,16.574 L45.31,15.608 C45.31,15.2533316 45.2470006,14.9966675 45.121,14.838 C44.9949994,14.6793325 44.796668,14.6 44.526,14.6 L43.784,14.6 Z M45.464,23 C45.4453332,22.9346663 45.4266668,22.8740003 45.408,22.818 C45.3893332,22.7619997 45.3730001,22.6920004 45.359,22.608 C45.3449999,22.5239996 45.3356667,22.4166673 45.331,22.286 C45.3263333,22.1553327 45.324,21.992001 45.324,21.796 L45.324,20.256 C45.324,19.7986644 45.2446675,19.4766676 45.086,19.29 C44.9273325,19.1033324 44.6706684,19.01 44.316,19.01 L43.784,19.01 L43.784,23 L42.244,23 L42.244,13.2 L44.568,13.2 C45.3706707,13.2 45.9516649,13.3866648 46.311,13.76 C46.6703351,14.1333352 46.85,14.6979962 46.85,15.454 L46.85,16.224 C46.85,17.232005 46.5140034,17.8946651 45.842,18.212 C46.234002,18.3706675 46.5023326,18.6296649 46.647,18.989 C46.7916674,19.3483351 46.864,19.7846641 46.864,20.298 L46.864,21.81 C46.864,22.0526679 46.8733332,22.2649991 46.892,22.447 C46.9106668,22.6290009 46.957333,22.8133324 47.032,23 L45.464,23 Z M49.174,19.752 L47.228,13.2 L48.838,13.2 L50.014,17.666 L51.19,13.2 L52.66,13.2 L50.714,19.752 L50.714,23 L49.174,23 L49.174,19.752 Z M56.986,14.6 L56.986,17.61 L57.588,17.61 C57.8773348,17.61 58.1036658,17.5353341 58.267,17.386 C58.4303341,17.2366659 58.512,16.966002 58.512,16.574 L58.512,15.608 C58.512,15.2533316 58.4490006,14.9966675 58.323,14.838 C58.1969994,14.6793325 57.998668,14.6 57.728,14.6 L56.986,14.6 Z M58.666,23 C58.6473332,22.9346663 58.6286668,22.8740003 58.61,22.818 C58.5913332,22.7619997 58.5750001,22.6920004 58.561,22.608 C58.5469999,22.5239996 58.5376667,22.4166673 58.533,22.286 C58.5283333,22.1553327 58.526,21.992001 58.526,21.796 L58.526,20.256 C58.526,19.7986644 58.4466675,19.4766676 58.288,19.29 C58.1293325,19.1033324 57.8726684,19.01 57.518,19.01 L56.986,19.01 L56.986,23 L55.446,23 L55.446,13.2 L57.77,13.2 C58.5726707,13.2 59.1536649,13.3866648 59.513,13.76 C59.8723351,14.1333352 60.052,14.6979962 60.052,15.454 L60.052,16.224 C60.052,17.232005 59.7160034,17.8946651 59.044,18.212 C59.436002,18.3706675 59.7043326,18.6296649 59.849,18.989 C59.9936674,19.3483351 60.066,19.7846641 60.066,20.298 L60.066,21.81 C60.066,22.0526679 60.0753332,22.2649991 60.094,22.447 C60.1126668,22.6290009 60.159333,22.8133324 60.234,23 L58.666,23 Z M62.614,17.33 L64.728,17.33 L64.728,18.73 L62.614,18.73 L62.614,21.6 L65.274,21.6 L65.274,23 L61.074,23 L61.074,13.2 L65.274,13.2 L65.274,14.6 L62.614,14.6 L62.614,17.33 Z M69.642,17.778 L69.082,23 L66.968,23 L65.876,13.2 L67.374,13.2 L68.2,20.928 L68.942,13.2 L70.426,13.2 L71.196,20.984 L71.994,13.2 L73.338,13.2 L72.246,23 L70.202,23 L69.642,17.778 Z M75.368,19.892 L76.852,19.892 L76.11,14.936 L75.368,19.892 Z M78.882,23 L77.328,23 L77.062,21.222 L75.172,21.222 L74.906,23 L73.492,23 L75.06,13.2 L77.314,13.2 L78.882,23 Z M81.136,14.6 L81.136,17.61 L81.738,17.61 C82.0273348,17.61 82.2536658,17.5353341 82.417,17.386 C82.5803341,17.2366659 82.662,16.966002 82.662,16.574 L82.662,15.608 C82.662,15.2533316 82.5990006,14.9966675 82.473,14.838 C82.3469994,14.6793325 82.148668,14.6 81.878,14.6 L81.136,14.6 Z M82.816,23 C82.7973332,22.9346663 82.7786668,22.8740003 82.76,22.818 C82.7413332,22.7619997 82.7250001,22.6920004 82.711,22.608 C82.6969999,22.5239996 82.6876667,22.4166673 82.683,22.286 C82.6783333,22.1553327 82.676,21.992001 82.676,21.796 L82.676,20.256 C82.676,19.7986644 82.5966675,19.4766676 82.438,19.29 C82.2793325,19.1033324 82.0226684,19.01 81.668,19.01 L81.136,19.01 L81.136,23 L79.596,23 L79.596,13.2 L81.92,13.2 C82.7226707,13.2 83.3036649,13.3866648 83.663,13.76 C84.0223351,14.1333352 84.202,14.6979962 84.202,15.454 L84.202,16.224 C84.202,17.232005 83.8660034,17.8946651 83.194,18.212 C83.586002,18.3706675 83.8543326,18.6296649 83.999,18.989 C84.1436674,19.3483351 84.216,19.7846641 84.216,20.298 L84.216,21.81 C84.216,22.0526679 84.2253332,22.2649991 84.244,22.447 C84.2626668,22.6290009 84.309333,22.8133324 84.384,23 L82.816,23 Z M86.764,14.6 L86.764,21.6 L87.632,21.6 C87.8746679,21.6 88.0659993,21.5300007 88.206,21.39 C88.3460007,21.2499993 88.416,21.0026684 88.416,20.648 L88.416,15.552 C88.416,15.1973316 88.3460007,14.9500007 88.206,14.81 C88.0659993,14.6699993 87.8746679,14.6 87.632,14.6 L86.764,14.6 Z M85.224,13.2 L87.66,13.2 C88.4346705,13.2 89.0109981,13.4053313 89.389,13.816 C89.7670019,14.2266687 89.956,14.8286627 89.956,15.622 L89.956,20.578 C89.956,21.3713373 89.7670019,21.9733313 89.389,22.384 C89.0109981,22.7946687 88.4346705,23 87.66,23 L85.224,23 L85.224,13.2 Z M90.74,15.552 C90.74,14.7586627 90.9289981,14.1496688 91.307,13.725 C91.6850019,13.3003312 92.2519962,13.088 93.008,13.088 C93.7640038,13.088 94.3309981,13.3003312 94.709,13.725 C95.0870019,14.1496688 95.276,14.7586627 95.276,15.552 L95.276,15.93 L93.82,15.93 L93.82,15.454 C93.82,15.0993316 93.752334,14.8496674 93.617,14.705 C93.481666,14.5603326 93.2926679,14.488 93.05,14.488 C92.8073321,14.488 92.618334,14.5603326 92.483,14.705 C92.347666,14.8496674 92.28,15.0993316 92.28,15.454 C92.28,15.7900017 92.3546659,16.086332 92.504,16.343 C92.6533341,16.5996679 92.8399989,16.8423322 93.064,17.071 C93.2880011,17.2996678 93.5283321,17.5283322 93.785,17.757 C94.0416679,17.9856678 94.2819989,18.235332 94.506,18.506 C94.7300011,18.776668 94.9166659,19.0846649 95.066,19.43 C95.2153341,19.7753351 95.29,20.181331 95.29,20.648 C95.29,21.4413373 95.0963353,22.0503312 94.709,22.475 C94.3216647,22.8996688 93.7500038,23.112 92.994,23.112 C92.2379962,23.112 91.6663353,22.8996688 91.279,22.475 C90.8916647,22.0503312 90.698,21.4413373 90.698,20.648 L90.698,19.976 L92.154,19.976 L92.154,20.746 C92.154,21.1006684 92.2263326,21.3479993 92.371,21.488 C92.5156674,21.6280007 92.7093321,21.698 92.952,21.698 C93.1946679,21.698 93.3883326,21.6280007 93.533,21.488 C93.6776674,21.3479993 93.75,21.1006684 93.75,20.746 C93.75,20.4099983 93.6753341,20.1136679 93.526,19.857 C93.3766659,19.600332 93.1900011,19.3576678 92.966,19.129 C92.7419989,18.9003322 92.5016679,18.6716678 92.245,18.443 C91.988332,18.2143322 91.7480011,17.964668 91.524,17.694 C91.2999989,17.423332 91.1133341,17.1153351 90.964,16.77 C90.8146659,16.4246649 90.74,16.018669 90.74,15.552 Z M98.342,13.2 L100.4,13.2 C101.87,13.2 102.402,13.928 102.402,15.286 L102.402,15.846 C102.402,16.91 102.108,17.568 101.114,17.778 C102.178,17.988 102.584,18.772 102.584,19.878 L102.584,20.732 C102.584,22.146 101.94,23 100.442,23 L98.342,23 L98.342,13.2 Z M98.986,17.526 L100.078,17.526 C101.226,17.526 101.758,17.218 101.758,15.972 L101.758,15.342 C101.758,14.32 101.436,13.788 100.386,13.788 L98.986,13.788 L98.986,17.526 Z M98.986,22.412 L100.442,22.412 C101.52,22.412 101.94,21.81 101.94,20.718 L101.94,19.836 C101.94,18.562 101.366,18.114 100.204,18.114 L98.986,18.114 L98.986,22.412 Z M104.278,17.736 L106.952,17.736 L106.952,18.324 L104.278,18.324 L104.278,22.412 L107.498,22.412 L107.498,23 L103.634,23 L103.634,13.2 L107.498,13.2 L107.498,13.788 L104.278,13.788 L104.278,17.736 Z M110.886,23 L110.242,23 L110.242,13.788 L108.24,13.788 L108.24,13.2 L112.874,13.2 L112.874,13.788 L110.886,13.788 L110.886,23 Z M117.172,20.83 L114.12,20.83 L113.63,23 L113.042,23 L115.184,13.186 L116.122,13.186 L118.306,23 L117.662,23 L117.172,20.83 Z M115.632,13.928 L114.218,20.27 L117.074,20.27 L115.632,13.928 Z" id="GHOSTERY-REWARDS-BET"></path>
            </g>
        </g>
    </g>
</svg>