<?xml version="1.0" encoding="UTF-8"?>
<svg width="14px" height="17px" viewBox="0 0 14 17" version="1.1" xmlns="http://www.w3.org/2000/svg" xmlns:xlink="http://www.w3.org/1999/xlink">
    <!-- Generator: Sketch 53.2 (72643) - https://sketchapp.com -->
    <title>noun_Fire_1053383_000000 Copy 5</title>
    <desc>Created with Sketch.</desc>
    <g id="Page-1" stroke="none" stroke-width="1" fill="none" fill-rule="evenodd">
        <g id="1-step-stronger-CTA-Specs" transform="translate(-60.000000, -110.000000)" fill="#FF6900" fill-rule="nonzero">
            <g id="noun_Fire_1053383_000000-Copy-5" transform="translate(60.218635, 110.000000)">
                <path d="M13.5786958,9.23807409 C13.3910748,9.92622344 12.9720472,10.418189 12.3233645,10.7156654 C12.8722162,8.14814342 11.9446196,5.73425483 10.0992783,3.41582225 C10.6148529,5.02595994 10.3094488,6.42579315 9.18065772,7.5940467 C7.5224995,4.49257359 9.02981655,2.23796663 10.7315414,0.265397344 C7.22213073,1.72566721 4.81545879,4.09869987 3.97959293,7.6761351 C3.33397521,6.71705636 3.30726603,5.77812318 3.82130822,4.8565114 C1.44156438,6.47455668 1.03917531,8.53693368 1.81833891,10.8649683 C1.15827197,10.6130549 0.730268359,10.1225955 0.468868714,9.4606165 C0.468868714,9.4606165 -0.151134464,12.9985137 2.20452733,15.3722995 C2.75775757,15.9295969 3.43096017,16.3451224 4.16677609,16.6313022 C5.13531213,15.3248539 5.7426175,13.8404847 5.38226255,12.3218492 C6.40531157,13.063469 6.95219291,13.9169248 7.19804869,14.78356 C7.85855349,13.6313099 8.20183208,12.2024822 7.60525417,10.5808596 C9.94493424,12.6812684 9.97930588,15.0750115 9.69557562,16.538482 C10.6803123,16.1406545 11.5766022,15.5447605 12.2362313,14.81086 C14.2567148,12.5634075 13.5786958,9.23807409 13.5786958,9.23807409 Z" id="Path"></path>
            </g>
        </g>
    </g>
</svg>