<?xml version="1.0" encoding="UTF-8"?>
<svg width="56px" height="56px" viewBox="0 0 56 56" version="1.1" xmlns="http://www.w3.org/2000/svg" xmlns:xlink="http://www.w3.org/1999/xlink">
    <!-- Generator: Sketch 55.2 (78181) - https://sketchapp.com -->
    <title>Group 3</title>
    <desc>Created with Sketch.</desc>
    <g id="Page-1" stroke="none" stroke-width="1" fill="none" fill-rule="evenodd">
        <g id="Group-3">
            <rect id="Rectangle" fill="#E94640" x="0" y="0" width="55.1384615" height="55.1384615" rx="8.61538462"></rect>
            <path d="M17.9307057,10.3016543 L14.8571731,7.31452336 C9.54117991,11.2284114 6.29470693,17.239832 6,23.7151504 L10.2970615,23.7151504 C10.6084008,18.3478466 13.4181971,13.410599 17.9307057,10.3016543 L17.9307057,10.3016543 Z M44.5627958,23.7151504 L48.8598573,23.7151504 C48.547421,17.246288 45.3052433,11.2434952 40.0044148,7.31956919 L36.9499188,10.3083821 C41.4445175,13.4274122 44.2441908,18.3566972 44.5645264,23.7151504 L44.5627958,23.7151504 Z M40.326305,24.7562732 C40.326305,18.3413422 36.8010878,12.9742618 30.6574839,11.551338 L30.6574839,10.1351419 C30.6574839,8.40365085 29.213233,7 27.4316592,7 C25.6500855,7 24.2058346,8.40365085 24.2058346,10.1351419 L24.2058346,11.5597477 C18.0380024,12.9793077 14.5404747,18.3262047 14.5404747,24.761319 L14.5404747,35.2061856 L10.2330296,39.3824503 L10.2330296,41.4697416 L44.6268277,41.4697416 L44.6268277,39.3824503 L40.326305,35.2061856 L40.326305,24.7562732 Z M27.4299287,47.7383435 C25.0552962,47.7337811 23.1282429,45.8699079 23.1121,43.5620788 L31.7131454,43.5620788 C31.7427607,45.5505737 30.3034629,47.2745074 28.295225,47.6559283 C28.0110319,47.7157621 27.7206668,47.743418 27.4299287,47.7383435 Z M24.4585011,26.4954023 C22.5467146,28.3526934 19.4479171,28.3526934 17.5361305,26.4954023 C16.6167111,25.6039959 16.0999989,24.3936882 16.0999989,23.1315161 C16.0999989,21.8693441 16.6167111,20.6590364 17.5361305,19.76763 C18.4533205,18.8740568 19.6986359,18.3718701 20.9973158,18.3718701 C22.2959957,18.3718701 23.5413111,18.8740568 24.4585011,19.76763 C26.3695136,21.6256733 26.3695136,24.637359 24.4585011,26.4954023 Z M22.4717807,24.5712594 C23.1786006,23.8849528 23.2880805,22.8089292 22.7332536,22.0013722 C22.1784268,21.1938151 21.1138606,20.8796991 20.1907301,21.2511631 C19.2675996,21.622627 18.7430767,22.576186 18.9380022,23.5285659 C19.1329277,24.4809459 19.9929978,25.1668264 20.992124,25.1666673 C21.5489304,25.1760664 22.0847756,24.9604445 22.4717807,24.5712594 Z M31.6871866,18.2875201 L33.6790987,18.2875201 L23.0549905,37.3119783 L21.0180829,37.3119783 L31.6871866,18.2875201 Z M37.2389277,35.8032754 C35.3165851,37.5978527 32.2703173,37.5680603 30.3855219,35.7362493 C28.5007265,33.9044384 28.4700724,30.9438057 30.3165572,29.075503 C32.2388998,27.2809257 35.2851677,27.3107181 37.169963,29.142529 C39.0547584,30.97434 39.0854125,33.9349727 37.2389277,35.8032754 Z M35.2591298,31.0030098 C34.5528799,30.3134204 33.4436437,30.205033 32.6102834,30.7441817 C31.7769231,31.2833305 31.4517659,32.3197095 31.8338107,33.2190458 C32.2158555,34.1183822 33.1985946,34.6299557 34.1805831,34.440679 C35.1625716,34.2514022 35.8700473,33.4140425 35.870029,32.4410711 C35.8793191,31.9003221 35.6582343,31.3798867 35.2591298,31.0030098 Z" id="Shape" fill="#FFFFFF" fill-rule="nonzero"></path>
        </g>
    </g>
</svg>