<?xml version="1.0" encoding="UTF-8"?>
<svg width="96px" height="23px" viewBox="0 0 96 23" version="1.1" xmlns="http://www.w3.org/2000/svg" xmlns:xlink="http://www.w3.org/1999/xlink">
    <!-- Generator: Sketch 53.2 (72643) - https://sketchapp.com -->
    <title>Chip-icon-logo</title>
    <desc>Created with Sketch.</desc>
    <g id="Chip-icon-logo" stroke="none" stroke-width="1" fill="none" fill-rule="evenodd">
        <g id="CHIP_Magazine-Copy" transform="translate(24.553685, -0.176618)">
            <polyline id="Fill-2" fill="#DA3434" points="71.410436 16.6403081 62.1619576 16.6705385 62.166996 23.139838 0 23.139838 0 0.171809279 71.4003592 0.171809279 71.410436 16.6403081"></polyline>
            <path d="M16.7214263,8.50859003 L18.8244525,8.50859003 C19.1799112,8.50859003 19.4703747,8.22845526 19.4779323,7.87526375 L19.4804515,7.87526375 L19.4804515,4.00224929 C19.4804515,3.28377413 18.8995245,2.70032795 18.176011,2.70032795 L4.39121341,2.70032795 C3.67273824,2.70032795 3.08929207,3.28377413 3.08929207,4.00224929 L3.08929207,18.83856 C3.08929207,19.5570351 3.67273824,20.1404813 4.39121341,20.1404813 L18.176011,20.1404813 C18.8995245,20.1404813 19.4804515,19.5570351 19.4804515,18.83856 L19.4779323,15.2134346 C19.4779323,14.8504182 19.1849496,14.5574355 18.8244525,14.5574355 L16.7214263,14.5574355 C16.3584099,14.5574355 16.0704656,14.8504182 16.0704656,15.2134346 L16.075504,15.9392154 C16.075504,16.5425632 15.5872835,17.0259973 14.9864549,17.0259973 L10.5826455,17.0259973 C9.98685521,17.0259973 9.49863471,16.5425632 9.49863471,15.9392154 L9.49863471,12.6443568 L6.53681404,9.71553762 L6.53681404,6.8587675 C6.53681404,6.26045806 7.02251535,5.77223756 7.62334398,5.77223756 L14.9864549,5.77223756 C15.5872835,5.77223756 16.075504,6.26045806 16.075504,6.8587675 L16.0704656,7.85788128 C16.0704656,8.22089766 16.3584099,8.50859003 16.7214263,8.50859003" id="Fill-3" fill="#FFFFFE"></path>
            <path d="M38.5555641,2.70032795 L36.439942,2.70032795 C36.0791929,2.70032795 35.7915005,2.99079144 35.7915005,3.35128862 L35.7915005,9.15728343 C35.7915005,9.75559287 35.3080665,10.2410423 34.7072378,10.2410423 L27.2917277,10.2410423 C26.690899,10.2410423 26.1926017,9.75559287 26.1926017,9.15728343 L26.1926017,3.35128862 C26.1926017,2.99079144 25.887275,2.70032795 25.5267778,2.70032795 L23.4111556,2.70032795 C23.0506584,2.70032795 22.7601949,2.99079144 22.7601949,3.35128862 L22.785135,18.83856 C22.785135,19.5598062 23.3711004,20.1404813 24.0870563,20.1404813 L27.8900371,20.1404813 C28.6085123,20.1404813 29.1919584,19.5598062 29.1919584,18.83856 L29.1919584,14.4423082 L29.2194177,14.3770609 C29.2194177,13.7812707 29.7025998,13.3557782 30.3009092,13.3557782 L34.6873362,13.3557782 C35.2856456,13.3557782 35.7814237,13.8412276 35.7814237,14.4423082 L35.7889813,14.3770609 L35.7814237,19.4895206 C35.7814237,19.8500178 36.0791929,20.1404813 36.439942,20.1404813 L38.5555641,20.1404813 C38.9158094,20.1404813 39.2065248,19.8500178 39.2065248,19.4895206 L39.2065248,3.35128862 C39.2065248,2.99079144 38.9158094,2.70032795 38.5555641,2.70032795" id="Fill-4" fill="#FFFFFE"></path>
            <path d="M46.1564873,9.75559287 L46.1564873,3.35632702 C46.1564873,2.99331064 45.8657719,2.70536635 45.5055266,2.70536635 L43.3296956,2.70536635 C42.9717176,2.70536635 42.6638717,2.99331064 42.6638717,3.35632702 L42.6638717,18.83856 C42.6638717,19.5598062 43.2299354,20.1455197 43.9506778,20.1455197 L47.7838889,20.1455197 C48.5021122,20.1455197 49.0832911,19.5598062 49.0832911,18.83856 L49.0832911,12.6997792 L46.1564873,9.75559287" id="Fill-5" fill="#FFFFFE"></path>
            <path d="M65.2464632,9.53264388 C65.2464632,9.89566026 64.9559997,10.1861237 64.6005409,10.1861237 L56.3486571,10.1861237 C55.987908,10.1861237 55.6976964,9.89566026 55.6976964,9.53264388 L55.6976964,6.36072213 C55.6976964,5.99997302 55.987908,5.70976145 56.3486571,5.70976145 L64.6005409,5.70976145 C64.9559997,5.70976145 65.2464632,5.99997302 65.2464632,6.36072213 L65.2464632,9.53264388 M67.2643405,2.70032795 L53.6246487,2.70032795 C52.9036543,2.70032795 52.3176889,3.2860414 52.3176889,4.00224929 L52.3176889,18.83856 C52.3176889,19.5598062 52.9036543,20.1404813 53.6246487,20.1404813 L57.4775096,20.1404813 C58.1962366,20.1404813 58.7844693,19.5598062 58.7844693,18.83856 L58.7844693,14.3946953 C58.7844693,13.7938667 59.2777282,13.3053943 59.8785568,13.3053943 L67.2643405,13.3053943 C67.9850829,13.3053943 68.568781,12.7199327 68.568781,12.0034729 L68.568781,4.00224929 C68.568781,3.2860414 67.9850829,2.70032795 67.2643405,2.70032795" id="Fill-6" fill="#FFFFFE"></path>
        </g>
        <polygon id="Fill-2" fill="#DA3434" points="23 23 0 23 0 0 22.9967544 0"></polygon>
        <g id="Group-2-Copy" transform="translate(0.021524, 2.137891)" fill="#FFFFFF">
            <path d="M5.39569509,4.01558761 L7.8170034,1.27143819 C8.32792888,0.692389309 9.21152768,0.637164384 9.79057656,1.14808986 C9.83421984,1.18659864 9.8754161,1.2277949 9.91392488,1.27143819 L12.3352332,4.01558761 C12.910737,4.66782528 13.228312,5.50773857 13.228312,6.37757685 L13.228312,15.0281524 C13.228312,15.8003845 12.6022942,16.4264024 11.8300621,16.4264024 L5.90086617,16.4264024 C5.12863405,16.4264024 4.50261623,15.8003845 4.50261623,15.0281524 L4.50261623,6.37757685 C4.50261623,5.50773857 4.82019126,4.66782528 5.39569509,4.01558761 Z M8.86546414,5.67752013 C9.44375239,5.67752013 9.91254764,5.20872488 9.91254764,4.63043663 C9.91254764,4.05214838 9.44375239,3.58335313 8.86546414,3.58335313 C8.28717589,3.58335313 7.81838064,4.05214838 7.81838064,4.63043663 C7.81838064,5.20872488 8.28717589,5.67752013 8.86546414,5.67752013 Z" id="Combined-Shape" transform="translate(8.865464, 8.612343) rotate(-45.000000) translate(-8.865464, -8.612343) "></path>
            <path d="M9.96838952,2.66716279 L11.5059328,2.77988835 C12.3602457,2.84252262 13.1635569,3.21024921 13.7692688,3.81596102 L20.0787206,10.1254129 C20.6247712,10.6714635 20.6247712,11.5567864 20.0787206,12.1028369 L15.886146,16.2954116 C15.3400954,16.8414622 14.4547725,16.8414622 13.908722,16.2954116 L13.8142687,16.2009583 L17.9123901,12.1028369 C18.4584406,11.5567864 18.4584406,10.6714635 17.9123901,10.1254129 L11.291652,3.50467482 C10.9151586,3.12818145 10.4623346,2.84364528 9.96838952,2.66716279 Z" id="Combined-Shape"></path>
        </g>
    </g>
</svg>