<?xml version="1.0" encoding="UTF-8"?>
<svg width="56px" height="56px" viewBox="0 0 56 56" version="1.1" xmlns="http://www.w3.org/2000/svg" xmlns:xlink="http://www.w3.org/1999/xlink">
    <!-- Generator: Sketch 55 (78076) - https://sketchapp.com -->
    <title>Group 2</title>
    <desc>Created with Sketch.</desc>
    <g id="Page-1" stroke="none" stroke-width="1" fill="none" fill-rule="evenodd">
        <g id="Pop-up-on-client-site-" transform="translate(-15.000000, -55.000000)">
            <g id="Group-2" transform="translate(15.000000, 55.000000)">
                <g id="Floating-button" fill="#00AEF0">
                    <circle id="Oval" cx="28" cy="28" r="28"></circle>
                </g>
                <g id="offers-cc-icon-copy" transform="translate(14.000000, 12.000000)" fill="#FFFFFF" fill-rule="nonzero">
                    <path d="M20.9150602,4.03525308 C20.9150602,3.87307066 20.8178916,3.58925143 20.7227059,3.47919907 C20.2824724,2.94438323 19.4416659,2.87680722 18.8447727,3.32667037 L16.3322685,5.33850468 L19.7232568,5.33850468 C20.3816241,5.33850468 20.9150602,4.81913478 20.9150602,4.17812807 L20.9150602,4.03525308 Z M11.4619369,5.33850468 L8.95141575,3.32860111 C8.69163829,3.13166531 8.37831891,3.0370589 8.0689656,3.0370589 C7.68624002,3.0370589 7.31342962,3.18572612 7.0734825,3.47919907 C6.97829686,3.58925143 6.88311123,3.87307066 6.88311123,4.03525308 L6.88311123,4.17812807 C6.88311123,4.81913478 7.41654739,5.33850468 8.0749147,5.33850468 L11.4619369,5.33850468 Z M23.0666522,1.608309 C23.6000884,2.24159274 23.927289,3.15097274 23.927289,3.98505376 L23.927289,4.12599801 C23.927289,6.35600629 22.0434066,8.16704332 19.7232568,8.16704332 L8.0749147,8.16704332 C5.75674788,8.16704332 3.86889945,6.35600629 3.86889945,4.12599801 L3.86889945,3.98505376 C3.86889945,3.15097274 4.20006614,2.24159274 4.7335023,1.61217049 C6.20887965,-0.140944246 8.94348362,-0.403525308 10.827366,1.0213631 L13.8951197,3.45023792 L16.9708055,1.01943236 C18.8566709,-0.405456052 21.5873088,-0.140944246 23.0666522,1.608309 Z M11.9239838,9.67881517 L15.8662555,9.67881517 L15.8662555,15.399607 L11.9239838,15.399607 L11.9239838,9.67881517 Z M17.8473066,9.67881517 L27.6137493,9.67881517 L27.6137493,15.399607 L17.8473066,15.399607 L17.8473066,9.67881517 Z M17.8473066,17.4017876 L25.6307152,17.4017876 L25.6307152,26.9840656 C25.6307152,29.1175367 23.8558998,30.8455518 21.6646471,30.8455518 L17.8473066,30.8455518 L17.8473066,17.4017876 Z M9.91715334,17.4017876 L2.13374465,17.4017876 L2.13374465,26.9840656 C2.13374465,29.1175367 3.90856014,30.8455518 6.09981277,30.8455518 L9.91715334,30.8455518 L9.91715334,17.4017876 Z M0.150710589,9.67881517 L9.91715334,9.67881517 L9.91715334,15.399607 L0.150710589,15.399607 L0.150710589,9.67881517 Z M11.9239838,17.3766879 L15.8662555,17.3766879 L15.8662555,30.8455518 L11.9239838,30.8455518 L11.9239838,17.3766879 Z" id="path-1"></path>
                </g>
            </g>
        </g>
    </g>
</svg>