<?xml version="1.0" encoding="UTF-8"?>
<svg width="15px" height="14px" viewBox="0 0 15 14" version="1.1" xmlns="http://www.w3.org/2000/svg" xmlns:xlink="http://www.w3.org/1999/xlink">
    <!-- Generator: Sketch 58 (84663) - https://sketch.com -->
    <title>Fill 5</title>
    <desc>Created with Sketch.</desc>
    <g id="New-Offer" stroke="none" stroke-width="1" fill="none" fill-rule="evenodd">
        <g id="Group-36" transform="translate(-215.000000, -67.000000)" fill="#B3B3B3">
            <g id="Group-33">
                <path d="M223.944662,67.3292947 C225.695683,67.8813595 227.018956,68.9874425 227.927128,70.6004159 C228.126523,70.9546419 228.288904,71.3283295 228.421204,71.71442 C228.440334,71.7703113 228.460975,71.8255268 228.494955,71.9201758 C228.665299,71.5531669 228.817862,71.2271261 228.96805,70.9000069 C229.031393,70.7619842 229.113959,70.6418591 229.251254,70.571477 C229.595103,70.3952671 230.014172,70.6717498 229.999632,71.0638782 C229.99662,71.1438701 229.977419,71.2199463 229.944336,71.2920249 L228.940099,73.4729316 L228.940099,73.4729316 C228.880634,73.6014103 228.793117,73.7053007 228.659995,73.7661481 C228.502148,73.8383693 228.34788,73.8271323 228.195628,73.7564055 C227.476349,73.422043 226.756802,73.0880752 226.039257,72.7497561 C225.801813,72.637862 225.681009,72.4296298 225.700732,72.1963108 C225.718508,71.9862138 225.867924,71.8031057 226.071731,71.7425282 C226.215758,71.6996864 226.35232,71.7268728 226.484643,71.7896156 C226.774725,71.9270339 227.064381,72.0653796 227.354956,72.2017279 C227.399234,72.2225201 227.440315,72.2562175 227.51326,72.2494355 C227.440231,72.0460186 227.3797,71.843557 227.296372,71.6511655 C226.951993,70.8556587 226.476303,70.1502962 225.824585,69.5827277 C224.357698,68.3051368 222.664355,67.7818889 220.76129,68.1899749 C218.530261,68.6684467 217.058393,70.0598271 216.333257,72.244045 C216.002865,73.2393306 215.964324,74.2651419 216.206515,75.2896946 C216.646928,77.1528488 217.718795,78.5199432 219.418929,79.3524768 C220.581754,79.9219566 221.815243,80.0787162 223.083914,79.8015604 C224.739556,79.4398255 226.028758,78.5336431 226.921922,77.0681151 C227.236547,76.5518718 227.459975,75.9940119 227.596893,75.4022217 C227.635355,75.236072 227.718921,75.1021345 227.86653,75.0173465 C228.051255,74.9111048 228.237619,74.9196182 228.409925,75.0424609 C228.575996,75.160794 228.652513,75.3304711 228.629084,75.5363769 C228.594269,75.8428938 228.492392,76.1327028 228.386874,76.4188808 C227.798671,78.0144418 226.779165,79.2550085 225.311443,80.076706 C223.366381,81.1656808 221.339133,81.2965474 219.273513,80.4417681 C217.760209,79.8156657 216.599792,78.7631316 215.846337,77.2972564 C214.71647,75.0991567 214.717391,72.8736396 215.852096,70.6721862 C216.503537,69.4083716 217.474234,68.4473883 218.727665,67.7985088 C220.400721,66.9323702 222.147952,66.7627618 223.944662,67.3292947 Z M221.452076,70.2011882 C221.680529,70.1922778 221.862374,70.320633 221.915383,70.5310093 C221.936,70.612665 221.941375,70.6961027 221.941277,70.7803629 C221.940398,71.8730955 221.942401,72.9658737 221.93815,74.058652 C221.93771,74.1672672 221.97318,74.2298684 222.073092,74.2864379 C222.786985,74.6904208 223.498435,75.0981507 224.207833,75.5089878 C224.494768,75.6751778 224.534,75.9640113 224.309993,76.1863595 C224.159905,76.3353685 223.967312,76.3587183 223.767782,76.2447111 C223.208618,75.9251711 222.651164,75.6029352 222.092781,75.2822529 C221.804869,75.1169768 221.517543,74.950741 221.227726,74.7885721 C221.066206,74.6981889 221.007138,74.5626597 221.007187,74.3952816 L221.007236,72.5562247 C221.007187,71.9584524 221.006601,71.3606343 221.008018,70.762862 C221.008164,70.6947319 221.014369,70.6258706 221.026144,70.5586087 C221.063128,70.3475926 221.229485,70.2098244 221.452076,70.2011882 Z" id="Fill-5"></path>
            </g>
        </g>
    </g>
</svg>