<?xml version="1.0" encoding="UTF-8" standalone="no"?>
<svg width="17px" height="18px" viewBox="0 0 17 18" version="1.1" xmlns="http://www.w3.org/2000/svg" xmlns:xlink="http://www.w3.org/1999/xlink">
    <!-- Generator: Sketch 48.1 (47250) - http://www.bohemiancoding.com/sketch -->
    <title>Group 3 Copy 66</title>
    <desc>Created with Sketch.</desc>
    <defs></defs>
    <g id="RewardBox-Feedback" stroke="none" stroke-width="1" fill="none" fill-rule="evenodd" transform="translate(-423.000000, -617.000000)">
        <g id="Group-3-Copy-66" transform="translate(422.742948, 617.923880)">
            <path d="M16.7837342,8.23991616 C16.7837342,12.7909071 13.094809,16.4798323 8.54381803,16.4798323 C3.9928271,16.4798323 0.303901875,12.7909071 0.303901875,8.23991616 C0.303901875,3.68892522 3.9928271,0 8.54381803,0 C13.094809,0 16.7837342,3.68892522 16.7837342,8.23991616" id="Fill-1" fill="#00ADF3"></path>
            <g id="Group-6" transform="translate(4.362974, 6.449414)" fill="#FFFFFF">
                <path d="M0.521157243,1.16183954 C0.51732142,0.530463072 1.04564211,0.0021423782 1.67522854,0.00725680892 C2.30686073,0.0123712396 2.82265107,0.528928742 2.82213962,1.15672511 C2.8218839,1.78503293 2.3053264,2.30184615 1.67420565,2.30568197 C1.04819933,2.30926208 0.524993066,1.79014736 0.521157243,1.16183954" id="Fill-3"></path>
                <path d="M6.72938569,2.30010725 C6.12613859,2.35943464 5.58119599,1.87944532 5.51931138,1.23400416 C5.46433125,0.661955085 5.93818326,0.0863259079 6.49386615,0.0190711439 C7.20272625,-0.0665955707 7.76505791,0.440755957 7.81287784,1.07315532 C7.85967488,1.68765417 7.38991442,2.26942066 6.72938569,2.30010725" id="Fill-5"></path>
            </g>
            <path d="M5.70303591,12.0757392 C5.70303591,12.0757392 6.83957607,13.2122794 8.54438631,13.2122794 C9.15016221,13.2122794 9.68433609,13.0687912 10.1210516,12.8838193" id="Stroke-7" stroke="#FFFFFF" stroke-width="1.13654016" stroke-linecap="round"></path>
        </g>
    </g>
</svg>