<?xml version="1.0" encoding="UTF-8"?>
<svg width="56px" height="56px" viewBox="0 0 56 56" version="1.1" xmlns="http://www.w3.org/2000/svg" xmlns:xlink="http://www.w3.org/1999/xlink">
    <!-- Generator: Sketch 55 (78076) - https://sketchapp.com -->
    <title>Group 2</title>
    <desc>Created with Sketch.</desc>
    <g id="Page-1" stroke="none" stroke-width="1" fill="none" fill-rule="evenodd">
        <g id="Pop-up-on-client-site-" transform="translate(-15.000000, -55.000000)">
            <g id="Group-2" transform="translate(15.000000, 55.000000)">
                <g id="g36">
                    <circle id="Oval" fill="#CD071E" cx="28" cy="28" r="28"></circle>
                    <path d="M42.6517447,43 C43.7925027,42.9728223 43.9086064,42.810955 43.9980698,42.4332648 C44.0386265,41.5567837 43.4346491,40.5899766 42.6966753,40.594373 L42.428285,40.5899766 L33.7276692,40.5987694 C32.4751813,40.4552871 31.2584788,40.1131677 30.39963,39.1419642 C29.3618543,37.9189673 28.7626482,36.8038818 28.6373994,35.1132684 C28.5387909,34.2951394 28.7626482,34.2275948 29.0533049,34.1376685 C30.126866,34.1152869 30.6636465,34.1376685 31.5447618,34.1420649 C31.9384008,34.1152869 32.0636496,33.8183305 32.1352203,33.6025075 C32.1173276,32.9374529 32.0099715,32.1816728 31.4910837,31.7320415 L31.0393928,31.5657779 L28.1809372,31.5701743 C27.9483323,31.5162186 27.7336201,31.3183808 27.626264,31.1025578 C26.1232785,25.5091453 24.7455419,19.8441915 23.2246637,14.2503793 C23.0457369,13.7288071 22.6342051,13.0633529 21.9900685,13.0453676 C20.8270441,13.0453676 19.5566635,12.8835004 18.4294244,13.1712644 C18.1610342,13.3151464 18.0715707,13.5849251 18,13.8187334 C18.2326049,15.4194205 18.8051708,16.8582405 19.1988098,18.3869866 C20.379727,22.5775497 21.6322148,26.7321423 22.6699905,30.9766611 C22.7463326,31.2152654 22.5805271,31.4670589 22.4194929,31.5749704 L21.9586569,31.6333225 C21.0687941,31.6648966 20.6660099,31.6421153 19.6819123,31.6513078 C19.2703806,31.957057 19.413522,32.5865407 19.4850928,33.1169057 C19.5252519,33.3958769 19.5431446,33.9086564 19.9904617,34.0161682 C21.3371844,34.1376685 23.4616424,33.7332003 23.6854997,34.9470048 C23.9984229,35.9361935 24.1328168,36.3858247 24.512937,37.6855587 C25.5105535,41.0947626 29.2187128,42.9728223 32.779357,42.9912072 L42.6517447,43" id="path38" fill="#FFFFFF" fill-rule="nonzero" transform="translate(31.000000, 28.000000) scale(1, -1) translate(-31.000000, -28.000000) "></path>
                </g>
            </g>
        </g>
    </g>
</svg>