<?xml version="1.0" encoding="UTF-8"?>
<svg width="78px" height="23px" viewBox="0 0 78 23" version="1.1" xmlns="http://www.w3.org/2000/svg" xmlns:xlink="http://www.w3.org/1999/xlink">
    <!-- Generator: Sketch 54.1 (76490) - https://sketchapp.com -->
    <title>powered_by</title>
    <desc>Created with Sketch.</desc>
    <g id="powered_by" stroke="none" stroke-width="1" fill="none" fill-rule="evenodd">
        <g id="Group-5" transform="translate(2.000000, 0.000000)" fill="#BEC3C8">
            <g id="Group-8" transform="translate(0.000000, 10.800000)">
                <path d="M22.4851981,8.77200035 L26.7522976,5.92690933 L22.5307561,3.12381831 C22.0930918,3.97690925 21.8438023,4.95545474 21.8438023,5.99618206 C21.8438023,6.99872755 22.0772233,7.94127304 22.4851981,8.77200035" id="Fill-1"></path>
                <polyline id="Fill-3" points="-1.33937306e-12 0.330545468 2.50057353 0.330545468 5.2709121 5.08090929 8.04227445 0.330545468 10.5418242 0.330545468 10.5418242 11.5636368 8.23781571 11.5636368 8.23781571 4.23054562 5.2709121 9.028364 5.21102119 9.028364 2.27431897 4.27854562 2.27431897 11.5636368 -1.33937306e-12 11.5636368 -1.33937306e-12 0.330545468"></polyline>
                <polyline id="Fill-5" points="15.6653125 7.13509119 11.6147417 0.330545468 14.3251894 0.330545468 16.8400958 4.83981837 19.4005602 0.330545468 22.0357603 0.330545468 17.9846776 7.08654574 17.9846776 11.5636368 15.6653125 11.5636368 15.6653125 7.13509119"></polyline>
                <polyline id="Fill-6" points="34.5821384 0.330545468 42.6090562 0.330545468 42.6090562 2.57727283 36.9015036 2.57727283 36.9015036 4.96854565 41.9313164 4.96854565 41.9313164 7.21527301 36.9015036 7.21527301 36.9015036 11.5636368 34.5821384 11.5636368 34.5821384 0.330545468"></polyline>
                <polyline id="Fill-7" points="44.0858535 0.330545468 52.1132832 0.330545468 52.1132832 2.57727283 46.4057305 2.57727283 46.4057305 4.96854565 51.4355433 4.96854565 51.4355433 7.21527301 46.4057305 7.21527301 46.4057305 11.5636368 44.0858535 11.5636368 44.0858535 0.330545468"></polyline>
                <path d="M58.3834009,5.7867275 C59.5126261,5.7867275 60.1601646,5.14472748 60.1601646,4.1983638 L60.1601646,4.16618198 C60.1601646,3.10745467 59.4670681,2.56090919 58.3378429,2.56090919 L56.0338344,2.56090919 L56.0338344,5.7867275 L58.3834009,5.7867275 Z M53.7144693,0.330545468 L58.5333841,0.330545468 C59.8735073,0.330545468 60.9126402,0.732000029 61.6057367,1.47000006 C62.1928724,2.0961819 62.5092193,2.97872739 62.5092193,4.03745471 L62.5092193,4.06963653 C62.5092193,5.88327296 61.5903801,7.02272755 60.2497451,7.55181848 L62.826078,11.5636368 L60.1146066,11.5636368 L57.8561561,7.96909123 L56.0338344,7.96909123 L56.0338344,11.5636368 L53.7144693,11.5636368 L53.7144693,0.330545468 L53.7144693,0.330545468 Z" id="Fill-8"></path>
                <polyline id="Fill-9" points="63.9123046 9.6861822 69.7104615 2.49709101 64.0930011 2.49709101 64.0930011 0.330545468 72.691698 0.330545468 72.691698 2.20854554 66.894053 9.39709128 72.691698 9.39709128 72.691698 11.5636368 63.9123046 11.5636368 63.9123046 9.6861822"></polyline>
                <path d="M31.4447761,1.75636371 C30.3462641,0.585818205 28.9063228,5.15143483e-14 27.4658696,5.15143483e-14 C26.0883787,5.15143483e-14 24.718566,0.552000022 23.6395058,1.62327279 L25.6553213,2.97709103 C26.1917801,2.61054556 26.8132123,2.40872737 27.4658696,2.40872737 C28.3652571,2.40872737 29.2108963,2.78181829 29.8466613,3.45927286 C31.1591425,4.85836383 31.1591425,7.13454574 29.8466613,8.53309125 C29.2108963,9.21109128 28.3652571,9.5841822 27.4658696,9.5841822 C26.754857,9.5841822 26.082236,9.34309128 25.5155758,8.91000035 L23.51051,10.2567277 C24.6064625,11.4120005 26.0356542,11.9923641 27.4658696,11.9923641 C28.9063228,11.9923641 30.3462641,11.4070914 31.4447761,10.2360004 C33.6423118,7.8949094 33.6423118,4.09800016 31.4447761,1.75636371" id="Fill-11"></path>
            </g>
            <text id="POWERED-BY" font-family="SFProText-Medium, SF Pro Text" font-size="7.5600001" font-weight="400">
                <tspan x="24.1586331" y="7">POWERED BY</tspan>
            </text>
        </g>
    </g>
</svg>