<?xml version="1.0" encoding="UTF-8"?>
<svg width="73px" height="18px" viewBox="0 0 73 18" version="1.1" xmlns="http://www.w3.org/2000/svg" xmlns:xlink="http://www.w3.org/1999/xlink">
    <!-- Generator: Sketch 55 (78076) - https://sketchapp.com -->
    <title>Chip-icon-logo</title>
    <desc>Created with Sketch.</desc>
    <g id="Chip-icon-logo" stroke="none" stroke-width="1" fill="none" fill-rule="evenodd">
        <g id="Group" transform="translate(0.000000, 1.000000)" fill="#ED1C24">
            <g id="Group-8" transform="translate(0.000000, 1.361672)">
                <path d="M10.3195656,13.6017525 C10.3090507,12.6139438 11.1138184,11.8120596 12.1264438,11.8013118 C13.1095272,11.7909346 13.9442124,12.6077052 13.9563546,13.5921166 C13.9687472,14.5949351 13.1721787,15.3968193 12.1501024,15.4102849 C11.1334087,15.4235653 10.3305187,14.6304522 10.3195656,13.6017525 M6.11789327,11.8010709 C7.12532376,11.805333 7.94817966,12.6274156 7.93522377,13.6163979 C7.92233046,14.6047008 7.10153999,15.3998522 6.09755189,15.3967637 C5.09638029,15.3935517 4.28535368,14.5751752 4.28960973,13.5724185 C4.293678,12.6006697 5.12335609,11.7968089 6.11789327,11.8010709 Z M3.6436112,1.78100819 L3.85753996,1.78100819 C8.01876114,1.78100819 12.1800449,1.78125526 16.3413287,1.78026696 C16.5232745,1.78020519 16.6898861,1.80725998 16.8360937,1.92937715 C17.0018916,2.06773955 17.0586597,2.23575103 17.0051462,2.43792073 C16.4894139,4.38765692 15.9714284,6.33677542 15.4557587,8.28663515 C15.4081286,8.46662981 15.3369024,8.62976154 15.1625298,8.72056187 C15.096123,8.75515247 15.0159467,8.78047773 14.9419041,8.78103365 C14.5822684,8.78362794 14.2226953,8.77325076 13.8630597,8.77312722 C10.9220712,8.77226246 7.98102005,8.77263307 5.03996894,8.77263307 L4.80826493,8.77263307 C4.90120941,9.12391296 4.87855224,9.48328458 5.08972709,9.78267857 C5.32249511,10.1126482 5.65959877,10.2253765 6.05234395,10.2245117 C7.07435764,10.2222263 8.09643393,10.2237087 9.1185728,10.2237087 C10.8967227,10.2237087 12.6748725,10.2228439 14.453085,10.2256853 C14.5708772,10.2258706 14.6973067,10.2323564 14.8045215,10.2741122 C15.0368514,10.3644801 15.1480718,10.5847481 15.1173407,10.8367653 C15.089739,11.0631484 14.9412156,11.2136175 14.6891076,11.2635268 C14.6181944,11.2775484 14.5447151,11.2848371 14.4724249,11.2848989 C11.6616839,11.2858872 8.85106796,11.2865049 6.04038947,11.285393 C4.99146256,11.2848989 4.13161664,10.6413284 3.89922415,9.66432931 C3.8078444,9.28043542 3.76146604,8.88610259 3.69449595,8.4964642 C3.51023431,7.42390854 3.32403242,6.35159997 3.14196139,5.2786737 C2.95813787,4.19543202 2.77869557,3.11144911 2.59612383,2.02802213 C2.56883508,1.86624931 2.54705416,1.70212927 2.50105134,1.54529796 C2.41336433,1.24621282 2.16563757,1.06905953 1.85012706,1.0671447 C1.42258248,1.0645504 0.994912713,1.06720646 0.567368127,1.06615639 C0.247726756,1.06529163 0.00913797535,0.847370853 0.000312944361,0.551065308 C-0.00888761986,0.242529516 0.200659924,0.00848705061 0.528500437,0.00749874777 C1.08015876,0.00583098674 1.63976586,-0.0251770148 2.18172291,0.0528371404 C2.93072394,0.160685688 3.37260138,0.656381329 3.5631845,1.37043013 C3.59742061,1.49866242 3.61475773,1.63121854 3.6436112,1.78100819 Z" id="Fill-6"></path>
            </g>
            <g id="g26" transform="translate(46.736639, 8.113636) scale(1, -1) translate(-46.736639, -8.113636) translate(21.575349, 0.000000)" fill-rule="nonzero">
                <g id="g32" transform="translate(39.075477, 12.765553)">
                    <path d="M2.36897645,1.58080008 C2.51111503,1.21622806 2.39345587,0.700492034 2.16248067,0.433732021 C1.91373814,0.113620006 1.40736942,0.00474240023 0.989837325,0.102554405 C0.607839873,0.20925841 0.296911714,0.556046427 0.190307774,0.938402446 C0.110354819,1.40078647 0.270260729,1.84538649 0.634490858,2.1210385 C0.927651693,2.32555451 1.44290407,2.37653532 1.78048321,2.22556891 C2.11806236,2.0742073 2.31567448,1.84973369 2.36897645,1.58080008" id="path34"></path>
                </g>
                <g id="g36" transform="translate(0.035337, 0.033394)">
                    <path d="M12.2397116,15.0176007 C12.8060944,15.0041639 12.8637395,14.9241359 12.9081578,14.7374039 C12.9282941,14.3040671 12.6284212,13.8260727 12.2620195,13.8282463 L12.1287646,13.8260727 L7.80893602,13.8304199 C7.18707971,13.7594815 6.58299071,13.5903359 6.15657495,13.1101678 C5.64132258,12.5055118 5.34381862,11.9542078 5.28163299,11.1183597 C5.23267414,10.7138725 5.34381862,10.6804781 5.48812877,10.6360181 C6.02114847,10.6249525 6.28765832,10.6360181 6.7251293,10.6381917 C6.92056986,10.6249525 6.98275549,10.4781357 7.01829013,10.3714317 C7.00940647,10.0426253 6.9561045,9.66896367 6.69847831,9.44666366 L6.47421521,9.36446206 L5.05500091,9.36663566 C4.9395133,9.33995966 4.83290936,9.24214765 4.77960739,9.13544365 C4.03337981,6.37003151 3.34933786,3.56924897 2.59422662,0.803639239 C2.50539001,0.545771227 2.30106579,0.216767211 1.98125397,0.20787521 C1.40381596,0.20787521 0.77307598,0.127847206 0.213405295,0.270119213 C0.0801503697,0.341255217 0.0357320614,0.474635223 0.000197414704,0.590231229 C0.115685016,1.38161927 0.39996219,2.0929793 0.595402747,2.84879934 C1.18172442,4.92063544 1.80358073,6.97468754 2.31883311,9.07319964 C2.35673673,9.19116685 2.2744148,9.31565486 2.19446185,9.36900686 L1.96565821,9.39785646 C1.5238441,9.41346686 1.323863,9.40220366 0.835261612,9.40674846 C0.630937393,9.55791247 0.702006687,9.86913248 0.737541333,10.1313477 C0.757480218,10.2692725 0.76636388,10.5227933 0.988455422,10.5759477 C1.65709902,10.6360181 2.71188579,10.4360469 2.82303026,11.0361581 C2.97839564,11.5252182 3.04512181,11.7475182 3.23385026,12.3901134 C3.72916375,14.0756415 5.57025328,15.0041639 7.33810195,15.0132535 L12.2397116,15.0176007" id="path38"></path>
                </g>
                <g id="g40" transform="translate(25.134840, 2.670959)">
                    <path d="M5.92244111,6.91600034 C6.38439152,6.0979363 6.38439152,5.08424825 6.35774054,4.0705602 C6.33997321,4.0705602 6.37550786,3.22799376 6.3666242,3.21910176 L6.36228107,2.94582094 L6.36228107,0.698318434 C6.36228107,-0.0041496002 5.37382565,0.184756009 4.67872848,0.175864009 C4.50105525,0.184756009 4.2856758,0.262610413 4.23020227,0.547154427 L4.23237383,0.969425647 C4.21894963,1.66300168 4.21894963,1.17394166 4.21677807,2.72352093 L4.22131861,3.15251055 L4.21677807,5.25319626 C4.17235976,5.72447228 3.84366428,6.1690723 3.46166683,6.37358831 C3.15962233,6.48918432 2.7509739,6.50696832 2.45781306,6.35580431 C2.30679081,6.27577631 2.07581561,6.0890443 2.05804829,5.87563629 L2.05804829,0.509215225 C2.0313973,-0.0154128008 1.19850467,0.140296007 0.3168506,0.144643207 C0.0325734261,0.173690408 0.0102655646,0.373661618 0.00592244111,1.01171205 L0.00592244111,7.71628038 C0.265720191,8.1320308 1.16514158,8.03184759 1.74257959,8.00299799 C1.99250661,7.89293479 2.13128914,7.60404357 2.59995165,7.81409238 C3.41014159,8.1772812 4.61654285,8.1697724 5.33611944,7.61846837 C5.59374563,7.41395236 5.74476788,7.18276035 5.92244111,6.91600034" id="path42"></path>
                </g>
                <g id="g44" transform="translate(41.924961, 2.608715)">
                    <path d="M5.92244111,6.91600034 C6.27324704,6.0601947 6.35774054,5.46660427 6.56206475,4.73746023 C6.90852756,3.39476817 7.22833938,2.0431841 7.52150021,0.673816033 C7.53038388,0.495976024 7.45043092,0.353704017 7.29940867,0.255892013 C7.08402923,0.102554405 6.33108955,0.171319208 5.86025548,0.171319208 C5.59374563,0.20688721 5.38053775,0.442624022 5.3005848,0.691600034 C4.93635467,2.54113612 4.44775328,4.32842821 4.00357019,6.1512883 C3.91927411,6.43800591 3.59709332,6.74922593 3.2839936,6.75594433 C2.88422882,6.81818833 2.22012576,6.68263473 2.18913165,6.2224243 L2.18241955,5.95566429 L2.18696009,0.82043524 C2.18696009,0.235934412 1.96486855,0.158080008 1.30076548,0.155906408 C0.587900988,0.169145608 0.121410043,0.0691600034 0.121410043,0.649313632 L0.121410043,0.789412039 L0.117066919,7.57183477 C0.115882431,8.1998076 1.33175959,8.06642759 1.70388631,8.06524199 C1.99704714,8.06524199 2.12023392,7.73287878 2.53895051,7.84195398 C3.32071273,8.215418 4.41221863,8.2231244 5.15844621,7.75184838 C5.48714169,7.52065637 5.73588422,7.26278835 5.92244111,6.91600034" id="path46"></path>
                </g>
                <g id="g48" transform="translate(7.376400, 2.654163)">
                    <path d="M4.14570878,7.70640038 C4.14570878,7.29736836 3.90584991,6.95947234 3.745944,6.64825232 C3.57715443,6.33703231 3.33275503,6.49254352 3.05301839,6.63046832 C2.73320657,6.69271233 2.43116208,6.63046832 2.23572152,6.39038431 L2.23789308,0.801663239 C2.22229732,0.41278642 2.06693195,0.20155201 1.79153844,0.177049609 L0.450105525,0.183768009 C0.21024666,0.254904012 0.130293705,0.512772025 0.0769917345,0.726180035 L0.0769917345,7.73307638 C0.0904159343,8.2377468 1.23403931,8.02651239 1.83595675,7.97316039 C2.00020578,7.74868678 2.34449702,7.80421238 2.68878827,7.91091639 C3.14264467,8.05160759 3.80812964,8.1065404 4.14570878,7.70640038" id="path50"></path>
                </g>
                <g id="g52" transform="translate(18.008762, 2.460911)">
                    <path d="M6.51468523,7.90400039 L6.5103421,7.58823557 L6.5103421,0.82379444 C6.51468523,0.505856025 6.30364891,0.383541619 6.06615902,0.377020818 L4.67142414,0.377020818 C4.28271458,0.772616038 3.64980304,0.316950415 3.09013236,0.228030411 C2.09614932,0.0701480034 1.02023919,0.332363216 0.531637797,1.17710326 C0.0874547138,1.90624729 0.173922354,2.19533611 0.160695569,3.70243138 L0.165038692,7.66826357 C0.173922354,8.00853079 0.387130234,8.1529764 0.573687129,8.1618684 L1.87307071,8.1662156 C2.09516225,8.1419108 2.19505409,7.97513639 2.22170508,7.71509478 C2.21716454,5.79639868 2.20334551,4.77381863 2.22170508,3.20013216 C2.22841718,2.62887053 2.42385773,2.21746731 2.8946918,1.9595993 C3.25003827,1.72840728 3.80082529,1.71082088 4.17393908,1.90624729 C4.30719401,1.9595993 4.39366165,2.0953505 4.39820219,2.35539212 L4.39603062,7.89965319 C4.40491429,8.04172759 4.48249826,8.1529764 4.76026075,8.1885444 C5.47095369,8.1751076 5.57084553,8.1863708 6.12834465,8.1841972 C6.31490154,8.1751076 6.49257478,8.07512199 6.51468523,7.90400039" id="path54"></path>
                </g>
                <g id="g56" transform="translate(39.267956, 2.723323)">
                    <path d="M1.77673233,7.90400039 C2.15655822,7.90182679 2.17866867,7.64613237 2.18972389,7.34834916 L2.19426443,0.641409631 C2.18972389,0.121326406 2.10108469,0.0658008032 1.22377375,0.041298402 C0.179844795,0.0434720021 0.079952955,0.0545376027 0.0777813933,0.628170431 L0.0777813933,7.36158836 C0.079952955,7.79057798 0.31309972,7.87277958 0.490772954,7.89965319 L1.77673233,7.90400039" id="path58"></path>
                </g>
                <g id="g60" transform="translate(31.775476, 2.462689)">
                    <path d="M6.90951463,12.0536006 L6.91287068,11.7257822 L6.91287068,0.708593635 C6.91721381,0.448354422 6.62780385,0.340464817 6.37985098,0.321692816 C5.85117441,0.281777614 5.16278933,0.226054411 4.88068372,0.437288821 C4.60746177,0.448354422 4.37214344,0.348368817 4.15893556,0.277232814 C3.16396546,-0.0962312047 1.98243846,0.188312809 1.28062918,0.881888843 C0.365612031,1.85111689 0.0767943198,2.98040095 0.138979951,4.41201302 C0.24341233,5.82801468 0.8364461,7.40861716 2.09792606,7.92435319 C2.79085167,8.2355732 3.42376321,8.1889396 4.22329276,8.1889396 C4.50756993,8.2067236 4.80744287,8.195658 4.82521019,8.78015883 L4.83409385,9.16251485 L4.83409385,11.9302982 C4.80744287,12.6637894 5.09626058,12.5653846 6.09340225,12.577043 C6.85068505,12.585935 6.89510336,12.5248766 6.90951463,12.0536006 Z M3.84346687,6.89070754 C3.04393732,6.73954353 2.79973533,5.93254509 2.61317843,5.23896906 C2.34666858,4.011873 2.42662154,2.54469292 3.41270798,1.73552088 C3.6881015,1.51322087 4.12340092,1.40651687 4.46098006,1.57546488 C4.66530428,1.65549288 4.80744287,1.82444089 4.83409385,2.0556329 L4.83409385,6.1192771 L4.8052713,6.40836591 C4.60094709,6.89742594 4.29653361,6.93951474 3.84346687,6.89070754 L3.84346687,6.89070754 Z" id="path62"></path>
                </g>
                <g id="g64" transform="translate(10.690993, 2.521771)">
                    <path d="M6.71209993,6.71840033 C6.95195879,6.1670963 7.1118647,5.58911627 7.0674464,4.92221624 C7.03625487,4.57977542 6.86983428,4.25748981 6.52988616,4.23081381 C4.61555577,4.22429301 4.27126453,4.22429301 2.43905867,4.22864021 C2.17254882,4.20196421 2.13918573,4.0241242 2.11036318,3.78404018 C2.06594488,2.93930014 2.47459331,2.25461611 3.1497516,1.80112409 C3.50509807,1.61439208 3.804971,1.52329847 4.36464169,1.72109608 C4.93753916,1.9678985 4.87476128,2.76620254 5.53057293,2.82370414 C6.03694164,2.86816414 6.37452079,2.86816414 6.77428556,2.85927214 C6.94307513,2.83259614 7.04967907,2.73478413 7.1118647,2.58362013 C7.14739935,2.20126411 6.94307513,1.91672009 6.79205288,1.60550008 C6.12577826,0.467324023 4.67774141,-0.119548006 3.27412286,0.138320007 C1.76390038,0.369512018 0.502420421,1.66774408 0.155957616,3.16160015 C-0.297109129,5.00224424 0.360281834,6.85178033 1.79943503,7.88325239 C2.76775415,8.64796442 4.34016226,8.63018042 5.38843434,8.02552439 C5.95698869,7.68762838 6.40117177,7.32305636 6.71209993,6.71840033 Z M4.34904592,6.63837232 C3.96704847,6.88734834 3.40520623,6.88062994 2.96753783,6.63165392 C2.61219136,6.40046191 2.35456517,6.1514859 2.33679785,5.70688588 C2.33916683,5.61361867 2.4167508,5.50236987 2.53006684,5.50019627 L4.82876365,5.50019627 L4.95313492,5.60690027 C5.05973886,5.74028028 4.95313492,5.90033629 4.91760027,6.02482429 C4.77546168,6.27380031 4.58890479,6.49610032 4.34904592,6.63837232 L4.34904592,6.63837232 Z" id="path66"></path>
                </g>
            </g>
        </g>
    </g>
</svg>