<?xml version="1.0" encoding="UTF-8"?>
<svg width="260px" height="91px" viewBox="0 0 260 91" version="1.1" xmlns="http://www.w3.org/2000/svg" xmlns:xlink="http://www.w3.org/1999/xlink">
    <!-- Generator: Sketch 53.2 (72643) - https://sketchapp.com -->
    <title>Artboard</title>
    <desc>Created with Sketch.</desc>
    <g id="Artboard" stroke="none" stroke-width="1" fill="none" fill-rule="evenodd">
        <g id="Group-2" transform="translate(37.500000, 6.000000)">
            <g id="Group" transform="translate(13.217266, 46.148314) rotate(-26.000000) translate(-13.217266, -46.148314) translate(4.000000, 36.613212)" fill="#B6B6B6">
                <path d="M4.00542449,8.27087468 C6.18993486,8.27087468 7.9672314,6.4936216 7.9672314,4.30906778 C7.9672314,2.1245574 6.18997831,0.347304321 4.00542449,0.347304321 C1.82087066,0.347304321 0.0436175778,2.1245574 0.0436175778,4.30906778 C0.0436175778,6.4936216 1.82091411,8.27087468 4.00542449,8.27087468 Z M4.00542449,1.91167291 C5.3273594,1.91167291 6.40286281,2.98717632 6.40286281,4.30906778 C6.40286281,5.63100269 5.3273594,6.70650609 4.00542449,6.70650609 C2.68348957,6.70650609 1.60798617,5.63104614 1.60798617,4.30906778 C1.60798617,2.98717632 2.68348957,1.91167291 4.00542449,1.91167291 Z" id="Shape" fill-rule="nonzero"></path>
                <path d="M14.2397845,18.5052347 C16.4242949,18.5052347 18.2015914,16.7279816 18.2015914,14.5434278 C18.2015914,12.3589174 16.4243384,10.5816644 14.2397845,10.5816644 C12.0552307,10.5816644 10.2779776,12.3589174 10.2779776,14.5434278 C10.2779776,16.7279816 12.0552307,18.5052347 14.2397845,18.5052347 Z M14.2397845,12.146033 C15.5617194,12.146033 16.6372228,13.2215364 16.6372228,14.5434278 C16.6372228,15.8653627 15.5617194,16.9408661 14.2397845,16.9408661 C12.9178496,16.9408661 11.8423462,15.8653627 11.8423462,14.5434278 C11.8423462,13.2215364 12.9178496,12.146033 14.2397845,12.146033 Z" id="Shape" fill-rule="nonzero"></path>
                <path d="M2.06782362,17.263213 C2.26797589,17.263213 2.46817162,17.1868631 2.62091483,17.0341199 L17.1775384,2.47749634 C17.4830248,2.17200992 17.4830248,1.67680035 17.1775384,1.37131393 C16.8720954,1.06587096 16.3768424,1.06587096 16.0713994,1.37131393 L1.51477587,15.9279375 C1.20928945,16.2334239 1.20928945,16.7286335 1.51477587,17.0341199 C1.66747563,17.1868631 1.86767135,17.263213 2.06782362,17.263213 Z" id="Path"></path>
            </g>
            <g id="Group-Copy-4" transform="translate(177.647725, 9.182782) rotate(80.000000) translate(-177.647725, -9.182782) translate(172.117366, 3.461720)" fill="#B6B6B6">
                <path d="M2.40325469,4.96252481 C3.71396092,4.96252481 4.78033884,3.89617296 4.78033884,2.58544067 C4.78033884,1.27473444 3.71398699,0.208382593 2.40325469,0.208382593 C1.0925224,0.208382593 0.0261705467,1.27473444 0.0261705467,2.58544067 C0.0261705467,3.89617296 1.09254847,4.96252481 2.40325469,4.96252481 Z M2.40325469,1.14700375 C3.19641564,1.14700375 3.84171768,1.79230579 3.84171768,2.58544067 C3.84171768,3.37860161 3.19641564,4.02390366 2.40325469,4.02390366 C1.61009374,4.02390366 0.964791701,3.37862769 0.964791701,2.58544067 C0.964791701,1.79230579 1.61009374,1.14700375 2.40325469,1.14700375 Z" id="Shape" fill-rule="nonzero"></path>
                <path d="M8.54387072,11.1031408 C9.85457694,11.1031408 10.9209549,10.036789 10.9209549,8.72605669 C10.9209549,7.41535047 9.85460301,6.34899862 8.54387072,6.34899862 C7.23313842,6.34899862 6.16678657,7.41535047 6.16678657,8.72605669 C6.16678657,10.036789 7.23313842,11.1031408 8.54387072,11.1031408 Z M8.54387072,7.28761977 C9.33703167,7.28761977 9.98233371,7.93292182 9.98233371,8.72605669 C9.98233371,9.51921764 9.33703167,10.1645197 8.54387072,10.1645197 C7.75070977,10.1645197 7.10540773,9.51921764 7.10540773,8.72605669 C7.10540773,7.93292182 7.75070977,7.28761977 8.54387072,7.28761977 Z" id="Shape" fill-rule="nonzero"></path>
                <path d="M1.24069417,10.3579278 C1.36078554,10.3579278 1.48090297,10.3121179 1.5725489,10.2204719 L10.306523,1.4864978 C10.4898149,1.30320595 10.4898149,1.00608021 10.306523,0.822788357 C10.1232572,0.639522576 9.82610543,0.639522576 9.64283965,0.822788357 L0.908865524,9.55676249 C0.72557367,9.74005434 0.72557367,10.0371801 0.908865524,10.2204719 C1.00048538,10.3121179 1.12060281,10.3579278 1.24069417,10.3579278 Z" id="Path"></path>
            </g>
            <g id="noun_Star_2169518_000000" transform="translate(129.087049, 39.224291) scale(-1, -1) translate(-129.087049, -39.224291) translate(122.087049, 32.224291)" stroke="#BDBDBD">
                <path d="M0.109530469,6.90041955 C0.0547652345,6.90041955 0,6.84565431 0,6.79088908 C0,6.70874123 0.0547652345,6.65397599 0.109530469,6.65397599 C3.6418881,6.65397599 6.65397599,3.66927071 6.65397599,0.109530469 C6.65397599,0.0547652345 6.70874123,0 6.79088908,0 C6.84565431,0 6.90041955,0.0547652345 6.90041955,0.109530469 C6.90041955,3.34067931 10.0768032,6.65397599 13.4448651,6.65397599 C13.5270129,6.65397599 13.5817782,6.70874123 13.5817782,6.79088908 C13.5817782,6.84565431 13.5270129,6.90041955 13.4448651,6.90041955 C9.91250745,6.90041955 6.90041955,9.93989007 6.90041955,13.4448651 C6.90041955,13.5270129 6.84565431,13.5817782 6.79088908,13.5817782 C6.70874123,13.5817782 6.65397599,13.5270129 6.65397599,13.4448651 C6.65397599,9.66606389 3.91571427,6.90041955 0.109530469,6.90041955 Z" id="Path"></path>
            </g>
            <g id="noun_Star_2169518_000000-Copy-2" transform="translate(31.594862, 71.615045) scale(-1, -1) translate(-31.594862, -71.615045) translate(24.594862, 64.615045)" stroke="#B8B8B8">
                <path d="M2.42350387,6.74832659 C4.54597661,7.4202104 6.1407372,9.01927118 6.80912053,11.1412372 C7.55137165,9.09764352 9.23687632,7.44514228 11.3028667,6.75233586 C9.28757832,5.99738455 7.56089572,4.26096267 6.80628191,2.25678413 C6.11892643,4.33070007 4.47370335,6.01023875 2.42350387,6.74832659 Z" id="Path"></path>
            </g>
            <g id="noun_Star_2169518_000000-Copy" transform="translate(114.047952, 11.000000) scale(-1, -1) translate(-114.047952, -11.000000) translate(103.047952, -0.000000)" stroke="#BDBDBD">
                <path d="M0.170717035,10.7551732 C0.0853585176,10.7551732 0,10.6698147 0,10.5844562 C0,10.4564184 0.0853585176,10.3710599 0.170717035,10.3710599 C5.67634142,10.3710599 10.3710599,5.71902068 10.3710599,0.170717035 C10.3710599,0.0853585176 10.4564184,0 10.5844562,0 C10.6698147,0 10.7551732,0.0853585176 10.7551732,0.170717035 C10.7551732,5.20686958 15.7059672,10.3710599 20.9555161,10.3710599 C21.0835539,10.3710599 21.1689124,10.4564184 21.1689124,10.5844562 C21.1689124,10.6698147 21.0835539,10.7551732 20.9555161,10.7551732 C15.4498917,10.7551732 10.7551732,15.492571 10.7551732,20.9555161 C10.7551732,21.0835539 10.6698147,21.1689124 10.5844562,21.1689124 C10.4564184,21.1689124 10.3710599,21.0835539 10.3710599,20.9555161 C10.3710599,15.0657784 6.10313401,10.7551732 0.170717035,10.7551732 Z" id="Path"></path>
            </g>
        </g>
    </g>
</svg>