<?xml version="1.0" encoding="UTF-8"?>
<svg width="96px" height="23px" viewBox="0 0 96 23" version="1.1" xmlns="http://www.w3.org/2000/svg" xmlns:xlink="http://www.w3.org/1999/xlink">
    <!-- Generator: Sketch 55 (78076) - https://sketchapp.com -->
    <title>logo_full</title>
    <desc>Created with Sketch.</desc>
    <defs>
        <linearGradient x1="50.0405013%" y1="100.012358%" x2="50.0405013%" y2="-0.0436507937%" id="linearGradient-1">
            <stop stop-color="#136899" offset="0%"></stop>
            <stop stop-color="#06395D" offset="99.51%"></stop>
        </linearGradient>
        <linearGradient x1="50.0577456%" y1="100.012538%" x2="50.0577456%" y2="0.0504224115%" id="linearGradient-2">
            <stop stop-color="#6EB2E3" offset="0%"></stop>
            <stop stop-color="#1488CA" offset="100%"></stop>
        </linearGradient>
        <linearGradient x1="50.001241%" y1="99.9983161%" x2="50.001241%" y2="-0.00628238342%" id="linearGradient-3">
            <stop stop-color="#1488CA" offset="0%"></stop>
            <stop stop-color="#0D5D8B" offset="100%"></stop>
        </linearGradient>
    </defs>
    <g id="logo_full" stroke="none" stroke-width="1" fill="none" fill-rule="evenodd">
        <g id="incent" transform="translate(3.000000, 1.000000)" fill-rule="nonzero">
            <g id="Group" transform="translate(0.000000, 8.129032)" fill="#000000">
                <path d="M5.17734878,0.372580645 L6.33423423,0.372580645 L14.3980695,9.23548387 L14.4782497,9.23548387 L14.4782497,0.372580645 L15.3831403,0.372580645 L15.3831403,12.7919355 L14.9020592,12.7919355 L6.18532819,2.92419355 L6.11660232,2.92419355 L6.11660232,12.5096774 L5.18880309,12.5096774 L5.18880309,0.372580645 L5.17734878,0.372580645 Z M0.0229086229,0.372580645 L2.096139,0.372580645 L2.096139,12.5096774 L0.0229086229,12.5096774 L0.0229086229,0.372580645 Z M20.3772201,6.46935484 C20.3772201,7.32741935 20.5032175,8.08387097 20.7666667,8.76129032 C21.0301158,9.43870968 21.3851995,10.0032258 21.8319176,10.4774194 C22.2900901,10.9403226 22.8284427,11.3016129 23.4469755,11.55 C24.0655084,11.7983871 24.7413127,11.9225806 25.4629344,11.9225806 C25.8981982,11.9225806 26.3105534,11.8435484 26.7114543,11.6741935 C27.1123552,11.5048387 27.4788932,11.2903226 27.8339768,11.0306452 C28.1776062,10.7709677 28.4868726,10.466129 28.7617761,10.1387097 C29.0366795,9.8 29.2543115,9.46129032 29.4375804,9.12258065 L30.3081081,9.67580645 C30.0561133,10.0822581 29.7583012,10.4774194 29.4146718,10.85 C29.0710425,11.2225806 28.6701416,11.5612903 28.2234234,11.8435484 C27.765251,12.1258065 27.2612613,12.3629032 26.6885457,12.5322581 C26.1158301,12.7016129 25.4743887,12.7919355 24.7756757,12.7919355 C24.0998713,12.7919355 23.4584299,12.7129032 22.8628057,12.566129 C22.2671815,12.4080645 21.7059202,12.1935484 21.2019305,11.9225806 C20.6979408,11.6516129 20.2512227,11.3129032 19.8503218,10.9290323 C19.4494208,10.5451613 19.1172458,10.116129 18.8423423,9.64193548 C18.5674389,9.17903226 18.3612613,8.67096774 18.2123552,8.14032258 C18.0634492,7.60967742 17.9947233,7.05645161 17.9947233,6.48064516 C17.9947233,5.91612903 18.0749035,5.36290323 18.2238095,4.82096774 C18.3727156,4.27903226 18.5903475,3.78225806 18.865251,3.30806452 C19.1401544,2.83387097 19.4837838,2.40483871 19.896139,2.00967742 C20.2970399,1.61451613 20.7552124,1.27580645 21.2706564,0.993548387 C21.7746461,0.711290323 22.3359073,0.496774194 22.9429858,0.338709677 C23.5500644,0.180645161 24.2029601,0.101612903 24.8902188,0.101612903 C25.5431145,0.101612903 26.1501931,0.191935484 26.7,0.361290323 C27.2498069,0.530645161 27.7537967,0.767741935 28.2119691,1.05 C28.6701416,1.33225806 29.0710425,1.67096774 29.4261261,2.04354839 C29.7812098,2.41612903 30.0790219,2.81129032 30.3310167,3.21774194 L29.4375804,3.80483871 C28.9221364,2.82258065 28.3379665,2.1 27.7079794,1.6483871 C27.066538,1.18548387 26.3449163,0.959677419 25.5202059,0.959677419 C24.8100386,0.959677419 24.1456885,1.08387097 23.5271557,1.34354839 C22.9086229,1.60322581 22.3702703,1.96451613 21.9120978,2.43870968 C21.4539254,2.91290323 21.0873874,3.48870968 20.8239382,4.17741935 C20.5146718,4.85483871 20.3772201,5.62258065 20.3772201,6.46935484 Z M41.4073359,0.372580645 L41.4073359,1.1516129 L34.9241956,1.1516129 L34.9241956,5.48709677 L39.2653797,5.48709677 L39.2653797,6.27741935 L34.9241956,6.27741935 L34.9241956,11.7193548 L41.4073359,11.7193548 L41.4073359,12.4983871 L32.8509653,12.4983871 L32.8509653,0.372580645 L41.4073359,0.372580645 Z M43.7096525,0.372580645 L44.866538,0.372580645 L52.9303732,9.23548387 L53.0105534,9.23548387 L53.0105534,0.372580645 L53.915444,0.372580645 L53.915444,12.7919355 L53.4343629,12.7919355 L44.6947233,2.92419355 L44.6259974,2.92419355 L44.6259974,12.5096774 L43.6981982,12.5096774 L43.6981982,0.372580645 L43.7096525,0.372580645 Z M66.8129987,0.372580645 L66.8129987,1.1516129 L62.3572716,1.1516129 L62.3572716,12.4983871 L60.2840412,12.4983871 L60.2840412,1.1516129 L55.8168597,1.1516129 L55.8168597,0.372580645 L66.8129987,0.372580645 Z" id="Path-2"></path>
            </g>
            <g id="Group" transform="translate(66.664093, 0.000000)">
                <path d="M22.1870013,5.0016129 C21.992278,4.17741935 20.0221364,2.45 13.9513514,2.25806452 C15.9329472,3.34193548 17.0440154,5.19354839 17.2731017,7.38387097 C17.4449163,9.00967742 16.918018,10.8612903 15.7382239,12.216129 C18.6705277,10.1725806 22.7024453,7.06774194 22.1870013,5.0016129 Z" id="Path" fill="url(#linearGradient-1)"></path>
                <path d="M0.103088803,20.9435484 C0.0572715573,20.9887097 1.35160875,20.4693548 2.95521236,19.1935484 C7.25057915,15.8064516 8.73963964,11.7419355 8.37310167,8.20806452 C8.05238095,5.11451613 6.11660232,2.9016129 4.58172458,1.5016129 C3.25302445,1.41129032 1.74105534,1.21935484 0.103088803,1.21935484 C0.103088803,1.23064516 13.1266409,8.98709677 0.103088803,20.9435484 Z" id="Path" fill="url(#linearGradient-2)"></path>
                <path d="M15.7954955,7.27096774 C15.4747748,4.17741935 12.4050193,2.32580645 12.3706564,2.30322581 L10.7670528,1.34354839 L12.6455598,1.34354839 C13.6879022,1.34354839 14.63861,1.37741935 15.520592,1.43387097 C13.4931789,0.666129032 10.2630631,0.0903225806 5.18880309,3.55271368e-15 C6.88404118,1.37741935 9.62162162,4.15483871 10.0339768,8.09516129 C10.3546976,11.1548387 9.22072072,14.2822581 6.65495495,17.4322581 C9.08326898,15.8290323 12.7142857,13.7741935 14.8791506,11.0080645 C15.7840412,9.84516129 15.9329472,8.49032258 15.7954955,7.27096774 Z" id="Path" fill="url(#linearGradient-3)"></path>
            </g>
        </g>
    </g>
</svg>