<?xml version="1.0" encoding="UTF-8"?>
<svg width="180px" height="200px" viewBox="0 0 180 200" version="1.1" xmlns="http://www.w3.org/2000/svg" xmlns:xlink="http://www.w3.org/1999/xlink">
    <!-- Generator: Sketch 41.2 (35397) - http://www.bohemiancoding.com/sketch -->
    <title>Artboard</title>
    <desc>Created with Sketch.</desc>
    <defs></defs>
    <g id="icon---user-test" stroke="none" stroke-width="1" fill="none" fill-rule="evenodd">
        <g id="Artboard" fill="#3DC2CD">
            <g id="Layer_1" transform="translate(10.000000, 16.000000)">
                <rect id="Rectangle-path" x="85.0342656" y="96.3469167" width="63.1194046" height="68.4458955"></rect>
                <rect id="Rectangle-path" x="10.4048884" y="96.3469167" width="63.1194046" height="68.4458955"></rect>
                <path d="M128.488273,32.4540456 C130.195535,29.3351826 131.167223,25.7612922 131.167223,21.9646995 C131.167568,9.8532011 121.284888,0 109.137924,0 C100.153514,0 90.960564,4.62863315 83.9174618,12.699185 C82.1743517,14.6962883 80.6218566,16.8425471 79.2792793,19.0778181 C77.9367019,16.8425471 76.3842068,14.6962883 74.6410967,12.699185 C67.5979945,4.62863315 58.4053897,0 49.4206345,0 C37.2736702,0 27.390991,9.85354478 27.390991,21.9646995 C27.390991,25.7609485 28.3623345,29.3351826 30.0699412,32.4540456 L0.0689385037,32.4540456 L0.0689385037,84.8712196 L73.524293,84.8712196 L73.524293,32.4540456 L85.0339209,32.4540456 L85.0339209,84.8712196 L158.48962,84.8712196 L158.48962,32.4540456 L128.488273,32.4540456 Z M49.4206345,32.4540456 C43.6201488,32.4540456 38.9006189,27.7484289 38.9006189,21.9646995 C38.9006189,16.1809701 43.6201488,11.4756972 49.4206345,11.4756972 C59.8644732,11.4756972 69.7940306,22.1272584 72.6835879,32.4537019 L49.4206345,32.4537019 L49.4206345,32.4540456 Z M109.137924,32.4540456 L85.8749706,32.4540456 C88.764528,22.1272584 98.6940854,11.4760408 109.137924,11.4760408 C114.93841,11.4760408 119.65794,16.1816575 119.65794,21.9650432 C119.657595,27.7487726 114.93841,32.4540456 109.137924,32.4540456 Z" id="Shape"></path>
            </g>
        </g>
    </g>
</svg>