<?xml version="1.0" encoding="utf-8"?>
<svg width="16px" height="16px" viewBox="0 0 16 16" version="1.1" xmlns="http://www.w3.org/2000/svg">
  <title>Artboard Copy 2</title>
  <desc>Created with Sketch.</desc>
  <path d="M 3.133 9.018 L 5.7 9.005 L 5.992 9.005 L 5.992 15.974 L 5.809 15.974 L 5.452 15.965 C 5.215 15.965 3.037 15.947 3.037 13.966 L 3.047 9.114 C 3.047 9.061 3.086 9.018 3.133 9.018 Z M 10 9 L 12.891 9.009 C 12.938 9.009 12.977 9.052 12.977 9.105 L 12.978 13.97 C 12.978 15.951 10.8 15.969 10.563 15.969 L 10.109 15.969 L 9.988 15.969 L 9.988 9 Z M 1.071 6.443 C 1.071 4.869 2.743 4.991 3.037 4.991 L 5.992 5.013 L 5.992 7.982 L 5.842 7.982 L 1.5 8 C 1.18 8 1.037 7.481 1.071 6.443 Z M 10.142 5.015 L 12.978 4.995 C 13.272 4.995 14.944 4.873 14.944 6.447 C 14.98 7.482 14.832 8 14.5 8 L 10.142 7.968 L 9.988 7.969 L 9.988 5.015 Z M 11.535 2.09 C 11.535 2.006 11.486 1.859 11.438 1.802 C 11.216 1.525 10.791 1.49 10.491 1.723 L 9.224 2.765 L 10.934 2.765 C 11.265 2.765 11.535 2.496 11.535 2.164 Z M 6.767 2.765 L 5.502 1.724 C 5.371 1.622 5.213 1.573 5.057 1.573 C 4.864 1.573 4.676 1.65 4.555 1.802 C 4.507 1.859 4.459 2.006 4.459 2.09 L 4.459 2.164 C 4.459 2.496 4.728 2.765 5.06 2.765 Z M 12.619 0.833 C 12.889 1.161 13.054 1.632 13.054 2.064 L 13.054 2.137 C 13.054 3.292 12.104 4.23 10.934 4.23 L 5.06 4.23 C 3.89 4.23 2.939 3.292 2.939 2.137 L 2.939 2.064 C 2.939 1.632 3.105 1.161 3.374 0.835 C 4.119 -0.073 5.498 -0.209 6.448 0.529 L 7.995 1.787 L 9.546 0.528 C 10.496 -0.21 11.874 -0.073 12.619 0.833 Z M 6.992 9.004 L 8.988 9.001 L 8.988 15.97 L 6.992 15.973 Z M 6.992 5.015 L 8.988 5.015 L 8.988 7.972 L 6.992 7.978 Z" id="path-1" fill-rule="nonzero" stroke="none" stroke-width="1" style="fill: rgb(0, 174, 240);"/>
  <g/>
</svg>
