<?xml version="1.0" encoding="utf-8"?>
<svg width="22px" height="23px" viewBox="0 0 22 23" version="1.1" xmlns="http://www.w3.org/2000/svg">
  <title>Group 2</title>
  <desc>Created with Sketch.</desc>
  <path d="M 4.582 22.984 C 2.922 22.984 2.93 21.485 2.93 21.009 L 2.93 12.236 C 2.93 12.139 2.988 12.064 3.06 12.064 L 7.976 12.064 L 7.976 22.984 L 4.582 22.984 Z M 16.231 3.093 C 16.231 2.969 16.158 2.752 16.088 2.668 C 15.76 2.259 15.132 2.207 14.69 2.551 L 12.819 4.089 L 15.344 4.089 C 15.832 4.089 16.231 3.692 16.231 3.202 L 16.231 3.093 Z M 9.192 4.089 L 7.325 2.552 C 7.131 2.402 6.898 2.329 6.668 2.329 C 6.383 2.329 6.105 2.443 5.927 2.668 C 5.856 2.752 5.785 2.969 5.785 3.093 L 5.785 3.202 C 5.785 3.692 6.182 4.089 6.672 4.089 L 9.192 4.089 Z M 17.831 1.188 C 18.23 1.651 18.473 2.317 18.473 2.928 L 18.473 3.031 C 18.473 4.664 17.071 5.991 15.344 5.991 L 6.672 5.991 C 4.945 5.991 3.541 4.664 3.541 3.031 L 3.541 2.928 C 3.541 2.317 3.786 1.651 4.183 1.191 C 5.283 -0.093 7.319 -0.286 8.721 0.758 L 11.005 2.536 L 13.295 0.757 C 14.697 -0.287 16.731 -0.093 17.831 1.188 Z M 9.927 7.042 L 11.978 7.042 L 11.978 10.95 L 9.927 10.95 L 9.927 7.042 Z M 13.916 7.042 L 21.035 7.042 L 21.035 10.95 L 13.916 10.95 L 13.916 7.042 Z M 0.869 7.042 L 7.988 7.042 L 7.988 10.95 L 0.869 10.95 L 0.869 7.042 Z M 9.927 12.111 L 11.978 12.111 L 11.978 22.959 L 9.927 22.959 L 9.927 12.111 Z M 13.954 22.99 L 13.954 12.07 L 18.87 12.07 C 18.942 12.07 19 12.145 19 12.242 L 19 21.015 C 19 21.491 19.008 22.99 17.348 22.99 L 13.954 22.99 Z" id="Rectangle-Copy" stroke="none" stroke-width="1" fill-rule="evenodd" style="fill: rgb(255, 255, 255);"/>
</svg>
