<?xml version="1.0" encoding="utf-8"?>
<!-- Generator: Adobe Illustrator 21.0.0, SVG Export Plug-In . SVG Version: 6.00 Build 0)  -->
<svg version="1.1" id="Layer_1" xmlns="http://www.w3.org/2000/svg" xmlns:xlink="http://www.w3.org/1999/xlink" x="0px" y="0px"
	 viewBox="0 0 180 200" style="enable-background:new 0 0 180 200;" xml:space="preserve">
<style type="text/css">
	.st0{fill:#fff;}
</style>
<title>Gift offers icon</title>
<desc>Created with Sketch.</desc>
<g id="icon---user-test">
	<g id="Gift-offers-icon">
		<g id="Layer_1_1_" transform="translate(10.000000, 16.000000)">
			<rect id="Rectangle-path" x="86" y="96.3" class="st0" width="62.1" height="68.4"/>
			<rect id="Rectangle-path_1_" x="10.4" y="96.3" class="st0" width="62.1" height="68.4"/>
			<path id="Shape" class="st0" d="M128.5,32.5c1.7-3.1,2.7-6.7,2.7-10.5c0-12.1-9.9-22-22-22c-9,0-18.2,4.6-25.2,12.7
				c-1.7,2-3.3,4.1-4.6,6.4c-1.3-2.2-2.9-4.4-4.6-6.4C67.6,4.6,58.4,0,49.4,0c-12.1,0-22,9.9-22,22c0,3.8,1,7.4,2.7,10.5h-30v51.4
				h72.5V32.5H86v51.4h72.5V32.5H128.5z M49.4,32.5c-5.8,0-10.5-4.7-10.5-10.5s4.7-10.5,10.5-10.5c10.4,0,20.4,10.7,23.3,21
				L49.4,32.5L49.4,32.5z M109.1,32.5H85.9c2.9-10.3,12.8-21,23.3-21c5.8,0,10.5,4.7,10.5,10.5C119.7,27.7,114.9,32.5,109.1,32.5z"
				/>
		</g>
	</g>
</g>
</svg>
