<?xml version="1.0" encoding="utf-8"?>
<svg width="22px" height="23px" viewBox="0 0 22 23" version="1.1" xmlns="http://www.w3.org/2000/svg">
  <title>Group 2</title>
  <desc>Created with Sketch.</desc>
  <path d="M 17.804 12.064 C 17.876 12.064 17.934 12.139 17.934 12.236 L 17.934 21.009 C 17.934 21.485 17.942 22.984 16.282 22.984 L 13.966 22.984 L 13.966 12.064 L 17.804 12.064 Z M 5.661 22.984 C 4.001 22.984 4.009 21.485 4.009 21.009 L 4.009 12.236 C 4.009 12.139 4.067 12.064 4.139 12.064 L 7.976 12.064 L 7.976 22.984 L 5.661 22.984 Z M 0.969 10.851 L 0.952 8.823 C 0.952 7.071 2.32 7.043 2.77 7.043 L 7.976 7.043 L 7.976 11.003 L 1.132 11.003 C 1.041 11.003 0.969 10.935 0.969 10.851 Z M 19.241 7.043 C 19.691 7.043 21.059 7.071 21.059 8.823 L 21.042 10.851 C 21.042 10.935 20.97 11.003 20.879 11.003 L 13.966 11.003 L 13.966 7.043 L 19.241 7.043 Z M 16.435 3.093 C 16.435 2.969 16.362 2.752 16.292 2.668 C 15.964 2.259 15.336 2.207 14.894 2.551 L 13.023 4.089 L 15.548 4.089 C 16.036 4.089 16.435 3.692 16.435 3.202 L 16.435 3.093 Z M 9.396 4.089 L 7.529 2.552 C 7.335 2.402 7.102 2.329 6.872 2.329 C 6.587 2.329 6.309 2.443 6.131 2.668 C 6.06 2.752 5.989 2.969 5.989 3.093 L 5.989 3.202 C 5.989 3.692 6.386 4.089 6.876 4.089 L 9.396 4.089 Z M 18.035 1.188 C 18.434 1.651 18.677 2.317 18.677 2.928 L 18.677 3.031 C 18.677 4.664 17.275 5.991 15.548 5.991 L 6.876 5.991 C 5.149 5.991 3.745 4.664 3.745 3.031 L 3.745 2.928 C 3.745 2.317 3.99 1.651 4.387 1.191 C 5.487 -0.093 7.523 -0.286 8.925 0.758 L 11.209 2.536 L 13.499 0.757 C 14.901 -0.287 16.935 -0.093 18.035 1.188 Z M 9.976 12.1 L 11.966 12.1 L 11.966 22.979 L 9.976 22.979 L 9.976 12.1 Z M 9.976 7.047 L 11.966 7.047 L 11.966 10.982 L 9.976 10.982 L 9.976 7.047 Z" id="Rectangle-Copy" fill="#fff" stroke="none" stroke-width="1" fill-rule="evenodd"/>
</svg>
