<?xml version="1.0" encoding="UTF-8"?>
<svg width="10px" height="12px" viewBox="0 0 10 12" version="1.1" xmlns="http://www.w3.org/2000/svg" xmlns:xlink="http://www.w3.org/1999/xlink">
    <!-- Generator: Sketch 53.2 (72643) - https://sketchapp.com -->
    <title>noun_Fire_1053383_000000 Copy 5</title>
    <desc>Created with Sketch.</desc>
    <g id="Page-1" stroke="none" stroke-width="1" fill="none" fill-rule="evenodd">
        <g id="1-step-stronger-CTA-Specs" transform="translate(-62.000000, -143.000000)" fill="#FF6900" fill-rule="nonzero">
            <g id="noun_Fire_1053383_000000-Copy-5" transform="translate(62.218635, 143.254235)">
                <path d="M9.05869161,7.57253228 C9.49777296,5.51851474 8.7556957,3.58740387 7.2794226,1.7326578 C7.69188234,3.02076795 7.44755906,4.14063452 6.54452618,5.07523736 C5.2179996,2.59405887 4.91816179,1.85061907 6.27954165,0.272563644 C3.47201314,1.44077953 3.05236703,2.2789599 2.38367434,5.14090808 C1.86718017,4.37364509 1.84581283,3.62249854 2.25704657,2.88520912 C0.353251503,4.17964534 0.031340248,5.82954695 0.654671127,7.69197468 C1.23233926,9.21805092 2.24368652,9.78910711 2.83233926,10.0180509 C2.43233926,8.85747939 3.12062322,8.35887472 2.83233926,7.14396635 C3.65077848,7.73726217 4.76175433,10.1335399 4.95843895,10.826848 C5.48684279,9.90504792 5.76146567,8.76198572 5.28420333,7.4646877 C7.05932347,8.41805092 7.05932347,9.65607153 6.83233926,10.826848 C7.62012861,10.508586 8.83233926,8.81805092 9.05869161,7.57253228 Z" id="Path"></path>
            </g>
        </g>
    </g>
</svg>