<?xml version="1.0" encoding="UTF-8" standalone="no"?>
<svg width="154px" height="222px" viewBox="0 0 154 222" version="1.1" xmlns="http://www.w3.org/2000/svg" xmlns:xlink="http://www.w3.org/1999/xlink" xmlns:sketch="http://www.bohemiancoding.com/sketch/ns">
    <!-- Generator: Sketch 3.2.2 (9983) - http://www.bohemiancoding.com/sketch -->
    <title>Artboard</title>
    <desc>Created with Sketch.</desc>
    <defs></defs>
    <g id="Page-1" stroke="none" stroke-width="1" fill="none" fill-rule="evenodd" sketch:type="MSPage">
        <g id="Artboard" sketch:type="MSArtboardGroup" transform="translate(0.889953, 0.948827)" fill="#0A0B09">
            <path d="M106.110223,142.391817 L89.7223605,156.306448 L81.5816679,163.251773 C83.3917862,159.32824 85.1777051,154.637268 86.6151521,149.28438 C86.7748684,148.699208 86.920065,148.08046 87.0797814,147.485694 C90.3951051,146.080321 94.8381228,144.214485 99.2763006,142.339055 C104.033911,140.506794 108.781842,138.684126 112.155244,137.37948 L110.209609,138.909562 L106.110223,142.391817 L106.110223,142.391817 Z M126.742668,131.335896 C124.93255,128.151024 123.969412,128.107855 123.165991,128.774568 L116.980613,133.599842 C116.883815,133.009873 116.743459,132.26162 116.525664,131.254356 C115.770641,127.724136 115.417329,127.14376 115.155975,127.215707 C115.155975,127.215707 105.563316,128.472389 95.9803365,129.724274 C93.9814625,130.050436 91.9825885,130.376597 90.0659926,130.688369 C91.6341165,116.394815 91.2178861,100.091529 88.3962311,84.0568467 C86.3005593,72.2718589 83.0481542,60.5875975 78.2421448,50.0832738 C75.9625572,44.7879435 73.0683039,39.8811293 70.1111319,35.3100697 C66.9119656,30.8589225 63.6740801,26.685972 59.8796074,23.3428151 C56.2738904,19.8797459 52.251943,17.2416737 48.5010293,15.1983669 C46.6376722,14.1575275 44.6678375,13.5052042 42.9593569,12.7521545 C41.2218369,12.0182908 39.4746371,11.7305011 37.9645918,11.2892236 C37.1902097,11.0973638 36.4884258,10.905504 35.7769622,10.7568127 C35.0170997,10.6560863 34.3007962,10.5745459 33.6328915,10.4930055 C32.2922424,10.3635001 31.1500287,10.2435877 30.2352897,10.1572508 C29.7658205,10.1140824 29.3592699,10.0853034 29.0107979,10.0565244 C28.6865254,10.042135 28.5122894,10.0613209 28.3186939,10.0613209 C27.9702219,10.0709139 27.791146,10.0709139 27.791146,10.0709139 C26.4601766,10.1380648 24.7323364,15.4094127 24.2822268,19.0355628 C23.8321171,22.6617129 24.2628672,27.8323343 25.5938366,27.7699799 C25.5938366,27.7699799 26.3246597,27.7172184 27.6943482,27.6116955 C28.0379803,27.5925095 28.4154916,27.5589341 28.831722,27.5349516 C29.2382727,27.5109691 29.79002,27.4390217 30.0271745,27.5157656 C30.6611999,27.5925095 31.3823433,27.654864 32.2051244,27.6980324 C35.7527627,28.0481766 41.4444717,29.5207005 47.2620178,33.8471388 C53.074724,38.2263386 59.027787,45.3731159 63.8192767,54.2802068 C68.6010867,63.2064837 72.5165566,73.6484529 75.0526582,84.4981242 C79.1084848,100.902137 80.1781002,118.059199 79.0407264,132.477462 C77.8307542,132.669322 77.1192906,132.789234 77.1192906,132.789234 C76.9111754,132.846792 77.57908,136.094019 78.3244229,139.178165 C78.0340296,141.331792 77.6855576,143.408674 77.2886867,145.375237 C75.8028409,152.838583 73.6394107,158.843794 71.5921378,162.973576 C71.5727783,162.302067 71.5582586,161.635354 71.5292193,160.968641 C71.1807473,155.145697 70.5370421,149.433071 69.675542,143.749225 C71.7082952,144.502275 73.0053853,144.986721 73.0053853,144.986721 C73.194141,145.087447 73.6636102,144.603001 75.3720908,141.427721 C77.0805715,138.257238 77.2451277,137.604915 77.0805715,137.513782 C77.0805715,137.513782 75.7350825,136.44896 73.7362085,134.851727 C72.7246718,134.098677 71.6066575,133.072227 70.4208848,131.978627 C69.2496318,130.875433 67.9283422,129.753053 66.761929,128.573115 C65.6632743,127.402771 64.5646196,126.232426 63.5288834,125.129232 C63.0110153,124.568042 62.5415462,124.117172 62.0575573,123.541592 C61.5687285,122.937234 61.0992593,122.376044 60.6733492,121.853226 C58.9648685,119.757158 57.8178149,118.361378 57.8178149,118.361378 C57.6677783,118.227076 53.9313843,121.872412 51.4194821,124.481705 C48.9124199,127.086202 45.4277001,130.952177 45.5825765,131.086479 C45.5825765,131.086479 47.1168212,132.074556 49.425448,133.54708 C49.6287234,133.690975 49.8561981,133.839667 50.0885128,133.988358 C49.948156,134.12266 49.8755577,134.247369 49.904597,134.362485 C52.4455385,143.010565 54.5170109,152.219835 55.726983,161.198873 C56.9079158,170.134743 57.290267,179.377589 55.3204324,186.941661 L49.2850913,210.051173 L66.1666227,194.376228 L81.8623814,179.790087 L97.0693114,164.997697 C107.189518,155.208051 117.154849,145.197766 127.52673,136.24271 C128.286593,135.609573 128.557627,134.520769 126.742668,131.335896 L126.742668,131.335896 Z" id="Fill-15" sketch:type="MSShapeGroup" transform="translate(76.110047, 110.051173) rotate(-195.000000) translate(-76.110047, -110.051173) "></path>
        </g>
    </g>
</svg>