<?xml version="1.0" encoding="utf-8"?>
<svg width="16px" height="16px" viewBox="0 0 16 16" version="1.1" xmlns="http://www.w3.org/2000/svg">
  <title>Artboard Copy 5</title>
  <desc>Created with Sketch.</desc>
  <path d="M 11.666 13.778 C 10.407 13.778 9.386 12.757 9.386 11.499 C 9.386 10.24 10.407 9.22 11.666 9.22 C 12.14 9.22 12.581 9.365 12.946 9.613 L 12.946 4.662 L 6.949 6.375 L 6.946 12.37 C 6.95 12.424 6.952 12.479 6.952 12.534 C 6.952 12.59 6.95 12.645 6.946 12.7 L 6.946 12.8 L 6.937 12.8 C 6.805 13.933 5.841 14.813 4.672 14.813 C 3.413 14.813 2.392 13.792 2.392 12.534 C 2.392 11.275 3.413 10.255 4.672 10.255 C 5.144 10.255 5.583 10.399 5.947 10.644 L 5.95 3.4 L 5.965 3.4 C 6 3.221 6.131 3.068 6.318 3.015 L 13.308 1.018 C 13.574 0.942 13.851 1.096 13.927 1.361 C 13.941 1.411 13.947 1.461 13.946 1.51 C 13.946 1.517 13.946 4.003 13.946 4.01 L 13.946 11.499 C 13.946 12.757 12.925 13.778 11.666 13.778 Z M 11.666 12.778 C 12.373 12.778 12.946 12.205 12.946 11.499 C 12.946 10.792 12.373 10.22 11.666 10.22 C 10.959 10.22 10.386 10.792 10.386 11.499 C 10.386 12.205 10.959 12.778 11.666 12.778 Z M 4.672 13.813 C 5.337 13.813 5.884 13.306 5.946 12.658 L 5.946 12.411 C 5.884 11.763 5.337 11.255 4.672 11.255 C 3.965 11.255 3.392 11.828 3.392 12.534 C 3.392 13.24 3.965 13.813 4.672 13.813 Z M 6.949 5.335 L 12.946 3.622 L 12.946 2.162 L 6.95 3.875 Z" id="Oval-Copy-3" fill="#000000" fill-rule="nonzero" stroke="none" stroke-width="1"/>
</svg>
