<?xml version="1.0" encoding="utf-8"?>
<svg width="16px" height="16px" version="1.1" id="Layer_1" x="0px" y="0px" viewBox="0 0 16 16" style="enable-background:new 0 0 16 16;" xmlns="http://www.w3.org/2000/svg">
  <style type="text/css">
	.st0{fill:#00AEF0;}
</style>
  <title>v</title>
  <desc>Created with Sketch.</desc>
  <path class="st0" d="M 2.46 11 C 1.16 11 0.16 9.7 0.16 8.3 L 0.16 4.7 C 0.16 3.3 1.16 2 2.46 2 L 7.96 2 C 8.86 2 9.56 2.9 9.56 3.9 L 9.56 4 C 9.56 4 9.46 4 2.46 4 C 2.06 4 1.76 4.3 1.76 4.7 L 1.76 8.3 C 1.76 8.7 2.06 9 2.46 9 L 7.86 9 C 8.26 9 8.56 8.7 8.56 8.3 L 8.56 8.2 L 10.36 8.2 L 10.36 8.3 C 10.36 9.6 9.76 11 8.06 11 C 7.96 11 2.56 11 2.46 11 Z M 15.86 7.593 C 15.86 7.593 15.86 11.4 15.86 11.4 C 15.86 13 14.76 14 13.46 14 L 7.96 14 C 7.56 14 7.16 13.8 6.86 13.5 C 6.56 13.2 6.36 12.6 6.36 12.1 L 6.36 12 L 13.46 12 C 13.86 12 14.16 11.7 14.16 11.3 C 14.16 11.3 14.18 7.693 14.16 7.7 C 14.18 7.273 13.971 7 13.393 7 C 12.993 7 7.86 7 7.86 7 C 7.46 7 7.26 7.4 7.26 7.7 L 7.26 7.8 L 5.46 7.8 L 5.46 7.7 C 5.46 6.4 6.276 5 7.66 5 C 7.76 5 13.36 5 13.46 5 C 15.105 5 15.86 5.956 15.86 7.593 Z"/>
</svg>
