<?xml version="1.0" encoding="utf-8"?>
<svg id="Layer_1" x="0px" y="0px" width="47px" height="34px" viewBox="0 0 47 34" xmlns="http://www.w3.org/2000/svg">
  <path d="M36.414,11.316h-4.17V9.065c0.001-1.817-0.706-3.525-1.991-4.809c-1.284-1.284-2.992-1.992-4.809-1.992&#10;&#9;h-14.66c-3.749,0-6.8,3.051-6.8,6.8v6.65c0,3.749,3.051,6.8,6.8,6.8h4.17v2.253c0,3.749,3.051,6.8,6.801,6.8h14.659&#10;&#9;c3.75,0,6.801-3.051,6.801-6.8v-6.649C43.215,14.367,40.164,11.316,36.414,11.316z M19.15,22.516h6.295c3.749,0,6.8-3.051,6.8-6.801&#10;&#9;v-0.202h4.17c1.437,0,2.604,1.168,2.604,2.605v6.65c0,1.437-1.168,2.604-2.604,2.604H21.755c-1.437,0-2.605-1.168-2.605-2.604&#10;&#9;V22.516z M21.755,15.513h6.294v0.202c0,1.437-1.167,2.605-2.603,2.605H19.15v-0.202C19.15,16.681,20.319,15.513,21.755,15.513z&#10;&#9; M21.755,11.316c-3.75,0-6.801,3.051-6.801,6.801v0.202h-4.17c-1.437,0-2.604-1.168-2.604-2.605v-6.65&#10;&#9;c0-1.436,1.168-2.604,2.604-2.604h14.66c1.437,0,2.604,1.168,2.604,2.604v2.252H21.755z" style="fill: rgb(181, 181, 181);"/>
</svg>
