<?xml version="1.0" encoding="utf-8"?>
<!-- Generator: Adobe Illustrator 21.0.0, SVG Export Plug-In . SVG Version: 6.00 Build 0)  -->
<svg version="1.1" id="Layer_1" xmlns="http://www.w3.org/2000/svg" xmlns:xlink="http://www.w3.org/1999/xlink" x="0px" y="0px"
	 viewBox="0 0 47 34" style="enable-background:new 0 0 47 34;" xml:space="preserve">
<style type="text/css">
	.st0{fill:#00869F;}
</style>
<title>pair icons link color</title>
<desc>Created with Sketch.</desc>
<g id="Page-1">
	<g id="pair-icons-link-color">
		<path id="Rectangle-13-Copy-4" class="st0" d="M7.1,12.3c0,3.2,2.6,5.7,5.7,5.7h11.6c3.2,0,5.7-2.6,5.7-5.7c0-3.2-2.6-5.7-5.7-5.7
			H12.8C9.7,6.6,7.1,9.2,7.1,12.3z M2.9,12.3c0-5.5,4.4-9.9,9.9-9.9h11.6c5.5,0,9.9,4.4,9.9,9.9c0,5.5-4.4,9.9-9.9,9.9H12.8
			C7.4,22.3,2.9,17.8,2.9,12.3z"/>
		<path id="Rectangle-13-Copy-5" class="st0" d="M17.5,21.6c0,3.2,2.6,5.7,5.7,5.7h11.6c3.2,0,5.7-2.6,5.7-5.7
			c0-3.2-2.6-5.7-5.7-5.7H23.2C20,15.9,17.5,18.4,17.5,21.6z M13.3,21.6c0-5.5,4.4-9.9,9.9-9.9h11.6c5.5,0,9.9,4.4,9.9,9.9
			c0,5.5-4.4,9.9-9.9,9.9H23.2C17.7,31.6,13.3,27.1,13.3,21.6z"/>
	</g>
</g>
</svg>
