<?xml version="1.0" encoding="UTF-8" standalone="no"?>
<svg width="14px" height="15px" viewBox="0 0 14 15" version="1.1" xmlns="http://www.w3.org/2000/svg" xmlns:xlink="http://www.w3.org/1999/xlink">
    <!-- Generator: Sketch 41.2 (35397) - http://www.bohemiancoding.com/sketch -->
    <title>send to mobile</title>
    <desc>Created with Sketch.</desc>
    <defs></defs>
    <g id="Page-1" stroke="none" stroke-width="1" fill="none" fill-rule="evenodd">
        <g id="send-to-mobile" fill="#9B9B9B">
            <polygon id="Line" points="0.509155273 11.4179688 12.5091553 11.4179688 12.5091553 10.4179688 0.509155273 10.4179688"></polygon>
            <path d="M5.61807195,13.1203613 L8.14807195,13.1203613 C8.42421432,13.1203613 8.64807195,12.8965037 8.64807195,12.6203613 C8.64807195,12.344219 8.42421432,12.1203613 8.14807195,12.1203613 L5.61807195,12.1203613 C5.34192957,12.1203613 5.11807195,12.344219 5.11807195,12.6203613 C5.11807195,12.8965037 5.34192957,13.1203613 5.61807195,13.1203613 Z" id="Line-Copy-28"></path>
            <path d="M13.4603271,13.8374023 L12.4603271,14.8374023 L12.4603271,13.8374023 L13.4603271,13.8374023 Z M1.46032715,13.8374023 L12.4603271,13.8374023 L12.4603271,1.21777344 L1.46032715,1.21777344 L1.46032715,13.8374023 Z M0.460327148,0.217773438 L13.4603271,0.217773438 L13.4603271,14.8374023 L0.460327148,14.8374023 L0.460327148,0.217773438 Z" id="Rectangle-12"></path>
            <path d="M4.79926858,2.41853779 L4.79926858,9.31562876 L10.3092274,6.00497 L4.79926858,2.41853779 Z M8.42402295,5.97106718 L5.79926858,7.54815084 L5.79926858,4.26261456 L8.42402295,5.97106718 Z" id="Fill-4"></path>
        </g>
    </g>
</svg>