<?xml version="1.0" encoding="UTF-8"?>
<svg width="49px" height="52px" viewBox="0 0 49 52" version="1.1" xmlns="http://www.w3.org/2000/svg" xmlns:xlink="http://www.w3.org/1999/xlink">
    <!-- Generator: Sketch 48.1 (47250) - http://www.bohemiancoding.com/sketch -->
    <title>icon video sent to mobile</title>
    <desc>Created with Sketch.</desc>
    <defs>
        <path d="M23.257502,20.0651239 L16.9992724,10.8593193 C16.8343261,10.6243447 16.638464,10.4384422 16.4229996,10.31235 C16.2828454,10.2440398 16.1371513,10.2016853 15.9894733,10.1863202 C15.9120191,10.1554506 15.8330934,10.1327048 15.7533248,10.1182641 C15.6735562,10.1327048 15.5946305,10.1554506 15.5171763,10.1863202 C15.3694983,10.2016853 15.2238042,10.2440398 15.08365,10.31235 C14.8660359,10.4423404 14.6688766,10.6334793 14.5038526,10.8744429 L8.25750199,20.0651239 C7.63626315,21.0646674 7.59445182,22.1221304 8.25750199,23.0651239 C8.92055216,24.0081173 10.5621912,23.9593219 11.257502,23.0651239 L13.9910226,18.7260996 L13.9910226,37.8448208 C13.9910226,39.2369076 14.7960294,40.0651239 15.769322,40.0651239 C16.7426146,40.0651239 17.515627,39.2369076 17.515627,37.8448208 L17.515627,18.7260996 L20.257502,23.0651239 C20.9489921,24.0203598 22.5777225,24.037403 23.257502,23.0651239 C23.9372815,22.0928448 23.9253655,21.0541526 23.257502,20.0651239 Z" id="path-1"></path>
    </defs>
    <g id="23-Popup-mobile-success" stroke="none" stroke-width="1" fill="none" fill-rule="evenodd" transform="translate(-1040.000000, -212.000000)" opacity="0.605242301">
        <g id="Overlay" transform="translate(924.761719, 170.265625)" fill-rule="nonzero">
            <g id="Content" transform="translate(116.924377, 42.134375)">
                <g id="icon-video-sent-to-mobile" transform="translate(0.400000, -0.000000)">
                    <path d="M40,0 L14.4,0 C10.8653776,-2.164332e-16 8,2.8653776 8,6.4 L8,44.8 C8,48.3346224 10.8653776,51.2 14.4,51.2 L40,51.2 C43.5346224,51.2 46.4,48.3346224 46.4,44.8 L46.4,6.4 C46.4,2.8653776 43.5346224,2.164332e-16 40,0 Z M30.4,48 L24,48 L24,44.8 L30.4,44.8 L30.4,48 Z M40,40 C40,40.8836556 39.2836556,41.6 38.4,41.6 L16,41.6 C15.1163444,41.6 14.4,40.8836556 14.4,40 L14.4,8 C14.4,7.1163444 15.1163444,6.4 16,6.4 L38.4,6.4 C39.2836556,6.4 40,7.1163444 40,8 L40,40 Z" id="Shape" fill="#9B9B9B"></path>
                    <g id="Shape" transform="translate(15.769322, 25.091694) scale(1, -1) rotate(-271.000000) translate(-15.769322, -25.091694) ">
                        <use fill="#B4B4B4" fill-rule="evenodd" xlink:href="#path-1"></use>
                        <path stroke="#F7F7F7" stroke-width="2" d="M18.515627,22.1805836 L18.515627,37.8448208 C18.515627,39.6979732 17.3858043,41.0651239 15.769322,41.0651239 C14.1520617,41.0651239 12.9910226,39.6949998 12.9910226,37.8448208 L12.9910226,22.183464 L12.0469298,23.6789674 C10.9369573,25.1064373 8.48846105,25.1321772 7.43947606,23.6403052 C6.55168176,22.3776795 6.5670052,20.8906587 7.43043691,19.5030177 L13.6787914,10.3093995 C13.9227081,9.95323891 14.2243134,9.6608433 14.6455257,9.41343555 C14.8471806,9.31515045 15.0589344,9.24671313 15.2762249,9.21033405 C15.3742507,9.17800255 15.4740685,9.15256428 15.5751876,9.13425842 L15.7533248,9.10200975 L15.931462,9.13425842 C16.0328556,9.15261397 16.1329408,9.1781407 16.2312229,9.21059749 C16.4500317,9.24789179 16.6712568,9.32145396 16.9280795,9.44927737 C17.2722861,9.65071099 17.573025,9.93615729 17.8262707,10.2971148 L24.0845002,19.5029194 L24.0862461,19.5054961 C24.9877903,20.8405789 24.9921825,22.3292332 24.0770569,23.6381246 C23.0035365,25.1735658 20.5427193,25.1645049 19.4121397,23.5993172 L18.515627,22.1805836 Z"></path>
                    </g>
                </g>
            </g>
        </g>
    </g>
</svg>