<?xml version="1.0" encoding="utf-8"?>
<svg width="20px" height="15px" viewBox="0 0 20 15" xmlns="http://www.w3.org/2000/svg">
  <title>Video-dr-icon</title>
  <desc>Created with Sketch.</desc>
  <path d="M 0.045 1.567 L 19.952 1.567 L 19.952 0.048 L 0.045 0.048 Z M 0.045 14.942 L 19.952 14.942 L 19.952 13.423 L 0.045 13.423 Z M 16.209 4.074 L 17.888 4.074 L 17.888 2.518 L 16.209 2.518 Z M 16.209 12.161 L 17.888 12.161 L 17.888 10.605 L 16.209 10.605 Z M 2.212 4.074 L 3.891 4.074 L 3.891 2.518 L 2.212 2.518 Z M 2.212 12.161 L 3.891 12.161 L 3.891 10.605 L 2.212 10.605 Z M 16.209 6.769 L 17.888 6.769 L 17.888 5.214 L 16.209 5.214 Z M 16.209 9.465 L 17.888 9.465 L 17.888 7.91 L 16.209 7.91 Z M 2.212 9.465 L 3.891 9.465 L 3.891 7.91 L 2.212 7.91 Z M 2.212 6.769 L 3.891 6.769 L 3.891 5.214 L 2.212 5.214 Z" id="Fill-2" fill="#414141"/>
  <path d="M 13.549 4.625 L 7.639 4.625 L 10.476 9.969 Z" id="Fill-3" style="fill: rgb(0, 174, 240);" transform="matrix(0, -1, 1, 0, 3.297, 17.891)"/>
</svg>
