<?xml version="1.0" encoding="utf-8"?>
<svg width="16px" height="16px" viewBox="0 0 16 16" version="1.1" xmlns="http://www.w3.org/2000/svg">
  <title>Artboard Copy 4</title>
  <desc>Created with Sketch.</desc>
  <path d="M 3 2 C 2.448 2 2 2.448 2 3 L 2 13 C 2 13.552 2.448 14 3 14 L 13 14 C 13.552 14 14 13.552 14 13 L 14 3 C 14 2.448 13.552 2 13 2 Z M 3 1 L 13 1 C 14.105 1 15 1.895 15 3 L 15 13 C 15 14.105 14.105 15 13 15 L 3 15 C 1.895 15 1 14.105 1 13 L 1 3 C 1 1.895 1.895 1 3 1 Z M 5.981 5.49 L 5.982 10.51 L 10.261 7.999 Z M 4.982 3.744 L 12.238 8 L 4.982 12.256 Z" id="Rectangle-Copy-2" fill="#000000" fill-rule="nonzero" stroke="none" stroke-width="1"/>
</svg>
