<?xml version="1.0" encoding="utf-8"?>
<svg width="24px" height="22px" viewBox="0 0 24 22" version="1.1" xmlns="http://www.w3.org/2000/svg">
  <title>Fill-1</title>
  <desc>Created with Sketch.</desc>
  <path d="M 24 6.286 L 24 18.76 C 24 20.495 22.594 21.903 20.857 21.903 L 3.143 21.903 C 1.408 21.903 0 20.495 0 18.76 L 0 6.286 L 24 6.286 Z M 24 4.116 L 16.908 4.116 L 19.901 0 C 19.948 0.001 20.996 0.002 21.042 0.005 C 22.691 0.102 24 1.47 24 3.143 L 24 4.116 Z M 17.824 0 L 14.83 4.116 L 11.7 4.116 L 14.693 0 L 17.824 0 Z M 12.57 0 L 9.577 4.116 L 6.17 4.116 L 9.164 0 L 12.57 0 Z M 7.19 0 L 4.195 4.116 L 0 4.116 L 0 3.143 C 0 1.408 1.408 0 3.143 0 L 7.19 0 Z M 8.348 14.929 C 8.042 15.235 8.042 15.733 8.348 16.04 L 11.491 19.182 C 11.797 19.489 12.295 19.489 12.602 19.182 L 15.745 16.04 C 16.056 15.738 16.065 15.24 15.765 14.929 C 15.462 14.616 14.965 14.606 14.654 14.908 C 14.646 14.916 14.64 14.922 14.634 14.929 L 12.833 16.731 L 12.833 8.571 C 12.833 8.137 12.481 7.785 12.047 7.785 C 12.013 7.785 11.978 7.786 11.943 7.791 C 11.558 7.841 11.261 8.171 11.261 8.571 L 11.261 16.731 L 9.461 14.929 C 9.154 14.621 8.656 14.621 8.35 14.927 L 8.348 14.929 Z" id="Fill-1" stroke="none" stroke-width="1" fill-rule="evenodd" style="fill: rgb(255, 255, 255);"/>
</svg>
