<?xml version="1.0" encoding="utf-8"?>
<svg width="16px" height="14px" viewBox="0 0 16 14" version="1.1" xmlns="http://www.w3.org/2000/svg">
  <title>VideoDownloader</title>
  <path d="M 16 4 L 16 11.938 C 16 13.042 15.105 13.938 14 13.938 L 2 13.938 C 0.896 13.938 0 13.042 0 11.938 L 0 4 Z M 16 2.619 L 11.123 2.619 L 13.028 0 C 13.056 0 14.085 0.001 14.113 0.003 C 15.164 0.061 16 0.933 16 2 Z M 11.706 0 L 9.801 2.619 L 7.809 2.619 L 9.714 0 Z M 8.363 0 L 6.458 2.619 L 4.29 2.619 L 6.195 0 Z M 4.939 0 L 3.033 2.619 L 0 2.619 L 0 2 C 0 0.896 0.896 0 2 0 Z M 5.676 9.5 C 5.481 9.695 5.481 10.012 5.676 10.207 L 7.676 12.207 C 7.871 12.402 8.188 12.402 8.383 12.207 L 10.383 10.207 C 10.581 10.015 10.587 9.698 10.396 9.5 C 10.203 9.301 9.887 9.295 9.689 9.487 C 9.684 9.492 9.68 9.496 9.676 9.5 L 8.53 10.647 L 8.53 5.454 C 8.53 5.178 8.306 4.954 8.03 4.954 C 8.008 4.954 7.986 4.955 7.964 4.958 C 7.719 4.99 7.53 5.2 7.53 5.454 L 7.53 10.647 L 6.384 9.5 C 6.189 9.304 5.872 9.304 5.677 9.499 Z" id="Fill-1" fill="#00aef0" stroke="none" stroke-width="1" fill-rule="evenodd"/>
</svg>
