<?xml version="1.0" encoding="UTF-8" standalone="no"?>
<svg width="20px" height="15px" viewBox="0 0 20 15" version="1.1" xmlns="http://www.w3.org/2000/svg" xmlns:xlink="http://www.w3.org/1999/xlink">
    <!-- Generator: Sketch 41.2 (35397) - http://www.bohemiancoding.com/sketch -->
    <title>Video-dr-icon</title>
    <desc>Created with Sketch.</desc>
    <defs></defs>
    <g id="Page-1" stroke="none" stroke-width="1" fill="none" fill-rule="evenodd">
        <g id="Video-dr-icon">
            <g id="Page-1-Copy" transform="translate(-0.094297, -0.320469)">
                <g id="Group" transform="translate(0.138916, 0.368164)">
                    <polygon id="Fill-1" fill="#414141" points="0 14.8944058 19.9069844 14.8944058 19.9069844 13.374943 0 13.374943"></polygon>
                    <polygon id="Fill-2" fill="#414141" points="0 1.51940059 19.9069844 1.51940059 19.9069844 0.000248837305 0 0.000248837305"></polygon>
                    <polygon id="Fill-3" fill="#45C2CC" transform="translate(10.549308, 7.249535) rotate(-90.000000) translate(-10.549308, -7.249535) " points="13.5042513 4.5776443 7.59436533 4.5776443 10.4314217 9.92142543"></polygon>
                    <polygon id="Fill-4" fill="#414141" points="16.1641603 4.02581435 17.8438121 4.02581435 17.8438121 2.47058119 16.1641603 2.47058119"></polygon>
                    <polygon id="Fill-5" fill="#414141" points="16.1641603 6.72165551 17.8438121 6.72165551 17.8438121 5.16642235 16.1641603 5.16642235"></polygon>
                    <polygon id="Fill-6" fill="#414141" points="16.1641603 9.41718562 17.8438121 9.41718562 17.8438121 7.86195246 16.1641603 7.86195246"></polygon>
                    <polygon id="Fill-7" fill="#414141" points="16.1641603 12.1130268 17.8438121 12.1130268 17.8438121 10.5577936 16.1641603 10.5577936"></polygon>
                    <polygon id="Fill-8" fill="#414141" points="2.16706188 4.02581435 3.8467137 4.02581435 3.8467137 2.47058119 2.16706188 2.47058119"></polygon>
                    <polygon id="Fill-9" fill="#414141" points="2.16706188 6.72165551 3.8467137 6.72165551 3.8467137 5.16642235 2.16706188 5.16642235"></polygon>
                    <polygon id="Fill-10" fill="#414141" points="2.16706188 9.41718562 3.8467137 9.41718562 3.8467137 7.86195246 2.16706188 7.86195246"></polygon>
                    <polygon id="Fill-11" fill="#414141" points="2.16706188 12.1130268 3.8467137 12.1130268 3.8467137 10.5577936 2.16706188 10.5577936"></polygon>
                </g>
            </g>
        </g>
    </g>
</svg>
