<?xml version="1.0" encoding="UTF-8"?>
<svg width="31px" height="23px" viewBox="0 0 31 23" version="1.1" xmlns="http://www.w3.org/2000/svg" xmlns:xlink="http://www.w3.org/1999/xlink">
    <!-- Generator: Sketch 47.1 (45422) - http://www.bohemiancoding.com/sketch -->
    <title>wifi</title>
    <desc>Created with Sketch.</desc>
    <defs></defs>
    <g id="Page-1" stroke="none" stroke-width="1" fill="none" fill-rule="evenodd">
        <g id="22-Popup-mobile" transform="translate(-942.000000, -284.000000)" fill-rule="nonzero" fill="#B4B4B4">
            <path d="M957.38779,301.305958 C955.83295,301.305958 954.571085,302.567823 954.571085,304.122663 C954.571085,305.677503 955.833,306.939368 957.38779,306.939368 C958.942579,306.939368 960.204494,305.677503 960.204494,304.122663 C960.204494,302.567823 958.942579,301.305958 957.38779,301.305958 Z M972.479666,291.457798 C968.712821,286.975474 963.211762,284.405679 957.38779,284.405679 C951.563818,284.405679 946.063666,286.975474 942.295862,291.457798 C941.79539,292.053073 941.872402,292.941272 942.468634,293.441693 C942.732427,293.663252 943.052618,293.772217 943.372759,293.772217 C943.774598,293.772217 944.173666,293.60131 944.452478,293.26988 C947.682312,289.426981 952.397484,287.222434 957.387739,287.222434 C962.377994,287.222434 967.093166,289.426981 970.32295,293.268973 C970.601813,293.600403 971.00083,293.771309 971.402719,293.771309 C971.61618,293.771309 971.917874,293.661135 972.307802,293.440786 C972.756026,292.515005 972.813314,291.854009 972.479666,291.457798 Z M957.38779,290.039089 C953.227522,290.039089 949.299144,291.874606 946.608288,295.075359 C946.107866,295.670633 946.184827,296.558833 946.781059,297.059254 C947.044853,297.280813 947.365951,297.389777 947.686142,297.389777 C948.087982,297.389777 948.487049,297.218871 948.764954,296.887441 C950.917841,294.325205 954.061289,292.855793 957.38784,292.855793 C960.714391,292.855793 963.857789,294.325205 966.011633,296.887441 C966.290496,297.219829 966.689513,297.389777 967.090394,297.389777 C967.410586,297.389777 967.731684,297.28177 967.995528,297.059254 C968.59171,296.558833 968.66867,295.669726 968.168299,295.075359 C965.476435,291.874657 961.548058,290.039089 957.38779,290.039089 Z M957.38779,295.672498 C954.890318,295.672498 952.532707,296.773839 950.919706,298.693877 C950.419234,299.289152 950.496245,300.177351 951.092477,300.677773 C951.35627,300.899331 951.677369,301.008245 951.99756,301.008245 C952.399399,301.008245 952.798466,300.837389 953.076372,300.505959 C954.153319,299.224337 955.724993,298.489153 957.38779,298.489153 C959.050586,298.489153 960.62231,299.224337 961.699207,300.505959 C961.97807,300.838347 962.377087,301.008245 962.778019,301.008245 C963.09821,301.008245 963.419309,300.900289 963.683102,300.677773 C964.279334,300.177301 964.356295,299.289101 963.855874,298.693877 C962.242822,296.773839 959.88521,295.672498 957.38779,295.672498 Z" id="wifi"></path>
        </g>
    </g>
</svg>