<?xml version="1.0" encoding="UTF-8" standalone="no"?>
<svg width="19px" height="16px" viewBox="0 0 19 16" version="1.1" xmlns="http://www.w3.org/2000/svg" xmlns:xlink="http://www.w3.org/1999/xlink">
    <!-- Generator: Sketch 43.1 (39012) - http://www.bohemiancoding.com/sketch -->
    <title>Group 8</title>
    <desc>Created with Sketch.</desc>
    <defs></defs>
    <g id="Final" stroke="none" stroke-width="1" fill="none" fill-rule="evenodd">
        <g id="Porn-data-question" transform="translate(-2303.000000, -243.000000)" fill="#8D2CB1">
            <g id="Group-8" transform="translate(2302.682951, 242.370548)">
                <g id="Group-Copy-4" transform="translate(5.243164, 4.428355)">
                    <path d="M1.78466797,7.3203125 L3.11181641,7.3203125 L3.11181641,0.979003906 L1.7890625,0.979003906 L0.149902344,2.10839844 L0.149902344,3.34326172 L1.70556641,2.27099609 L1.78466797,2.27099609 L1.78466797,7.3203125 Z M6.64814454,7.48291016 C5.1232422,7.48291016 4.09052736,6.73144531 4.09052736,5.62841797 C4.09052736,4.83300781 4.63984376,4.19580078 5.48798829,4.00683594 L5.48798829,3.92773437 C4.79804689,3.76953125 4.34541017,3.22021484 4.34541017,2.54785156 C4.34541017,1.53710938 5.30341798,0.81640625 6.65253907,0.81640625 C7.99726564,0.81640625 8.95527345,1.53710938 8.95527345,2.54785156 C8.95527345,3.22460937 8.50703126,3.76513672 7.81269532,3.92773437 L7.81269532,4.00683594 C8.65644532,4.16503906 9.21455079,4.80664062 9.21455079,5.61523437 C9.21455079,6.72705078 8.17304689,7.48291016 6.64814454,7.48291016 Z M6.64814454,6.48095703 C7.34687501,6.48095703 7.83027345,6.08105469 7.83027345,5.50537109 C7.83027345,4.92529297 7.34687501,4.52539062 6.64814454,4.52539062 C5.95380861,4.52539062 5.47041017,4.92529297 5.47041017,5.50537109 C5.47041017,6.08105469 5.95380861,6.48095703 6.64814454,6.48095703 Z M6.64814454,3.54541016 C7.23701173,3.54541016 7.64570314,3.18505859 7.64570314,2.67529297 C7.64570314,2.16113281 7.23701173,1.80078125 6.64814454,1.80078125 C6.05927736,1.80078125 5.65498048,2.16113281 5.65498048,2.67529297 C5.65498048,3.18505859 6.06367189,3.54541016 6.64814454,3.54541016 Z" id="18"></path>
                </g>
                <path d="M2.15365987,8.65595587 L6.06096007,15.4235983 L13.8755605,15.4235983 L17.7828606,8.65595587 L13.8755605,1.88831341 L6.06096007,1.88831341 L2.15365987,8.65595587 Z M14.5683808,0.688313414 L19.1685013,8.65595587 L14.5683808,16.6235983 L5.36813974,16.6235983 L0.768019229,8.65595587 L5.36813974,0.688313414 L14.5683808,0.688313414 Z" id="Polygon-Copy-4" fill-rule="nonzero"></path>
            </g>
        </g>
    </g>
</svg>