<?xml version="1.0" encoding="UTF-8" standalone="no"?>
<svg width="82px" height="100px" viewBox="0 0 82 100" version="1.1" xmlns="http://www.w3.org/2000/svg" xmlns:xlink="http://www.w3.org/1999/xlink">
    <!-- Generator: Sketch 43.1 (39012) - http://www.bohemiancoding.com/sketch -->
    <title>Page 1</title>
    <desc>Created with Sketch.</desc>
    <defs>
        <polygon id="path-1" points="81.363 99.2199939 81.363 0.0002 0 0.0002 0 99.2199939 81.363 99.2199939"></polygon>
    </defs>
    <g id="Page-1" stroke="none" stroke-width="1" fill="none" fill-rule="evenodd" opacity="0.717292444">
        <g>
            <mask id="mask-2" fill="white">
                <use xlink:href="#path-1"></use>
            </mask>
            <g id="Clip-2"></g>
            <path d="M49.2233,12.4726 L49.2233,29.0926 L66.7483,29.0926 C60.8413,23.4916 55.0993,18.0456 49.2233,12.4726 L49.2233,12.4726 Z M39.9133,9.2816 L9.3343,9.2816 L9.3343,89.9816 L71.9973,89.9816 L71.9973,38.3216 L70.6413,38.3216 C62.0593,38.3216 53.4773,38.3256 44.8963,38.3196 C41.8343,38.3176 39.9143,36.3916 39.9133,33.3476 C39.9123,25.7596 39.9133,18.1706 39.9133,10.5816 L39.9133,9.2816 Z M0.0003,68.9466 L0.0003,5.2216 C0.0003,1.8686 1.8373,0.0196 5.1713,0.0186 C25.6683,0.0186 26.3223,0.0306 46.8193,-0.0004 C48.6403,-0.0034 50.0763,0.5726 51.3913,1.8256 C60.6093,10.6056 69.8483,19.3636 79.1173,28.0896 C80.6353,29.5186 81.3663,31.0916 81.3633,33.2226 C81.3203,66.4146 81.3333,60.9136 81.3333,94.1066 C81.3333,97.3016 79.4443,99.2176 76.2673,99.2186 C45.9113,99.2206 35.3993,99.2206 5.0443,99.2176 C1.9143,99.2176 0.0003,97.3016 0.0003,94.1906 C-0.0007,72.8776 0.0003,90.2586 0.0003,68.9466 L0.0003,68.9466 Z" id="Fill-1" fill="#1D1C1B" mask="url(#mask-2)"></path>
        </g>
    </g>
</svg>