<?xml version="1.0" encoding="UTF-8"?>
<svg width="65px" height="72px" viewBox="0 0 65 72" version="1.1" xmlns="http://www.w3.org/2000/svg" xmlns:xlink="http://www.w3.org/1999/xlink">
    <!-- Generator: Sketch 49.3 (51167) - http://www.bohemiancoding.com/sketch -->
    <title>Icon-offboarding</title>
    <desc>Created with Sketch.</desc>
    <defs></defs>
    <g id="Page-1" stroke="none" stroke-width="1" fill="none" fill-rule="evenodd">
        <g id="PROPOSAL-Chip-version" transform="translate(-202.000000, -191.000000)">
            <g id="Group-4" transform="translate(183.000000, 162.250000)">
                <g id="Icon-offboarding" transform="translate(18.626465, 29.000000)">
                    <g id="New-privacy-shield-active5" transform="translate(0.229492, 0.551697)" fill="#4C4C4C" fill-rule="nonzero">
                        <path d="M56.9150828,11.9830276 C47.6785239,10.8354421 39.0050126,6.91559947 32.0464324,0.743566631 C30.8859526,-0.163326774 29.256983,-0.163326774 28.1008013,0.743566631 C21.1121346,6.93279176 12.4085368,10.8526343 3.14618944,11.9830276 C1.46134482,12.1463543 0.197711358,13.599103 0.2707786,15.2925438 C2.75076673,50.7688384 20.5705774,63.4653461 28.375878,68.2748898 C29.3859252,68.9196007 30.6753471,68.9196007 31.6896923,68.2748898 C39.5766563,63.3879807 57.3491882,50.6914731 59.7990898,15.2151785 C59.8248782,13.5475261 58.5698409,12.1420563 56.9150828,11.9830276 Z M30.0306361,59.0899077 C22.5777775,54.280364 11.5833068,43.3202779 9.25375119,19.663684 C16.8699366,18.1851469 24.0047378,14.8584384 30.0306361,9.96723131 C36.0608326,14.8885249 43.2042299,18.249618 50.8462037,19.7453474 C48.4822636,43.2772971 37.5221774,54.280364 30.0306361,59.0899077 Z" id="Shape"></path>
                        <path d="M30.0306361,51.0868958 L30.0306361,17.0246672 C25.7798419,20.368568 20.7682888,22.6164602 15.4472744,23.5706324 C16.4186389,34.3244111 21.6751822,44.2400655 30.0306361,51.0868958 Z" id="Shape"></path>
                    </g>
                    <circle id="Oval-2" fill="#FEF6E9" cx="40.8735352" cy="43" r="14"></circle>
                    <g id="magnifier" transform="translate(46.819751, 48.456562) rotate(10.000000) translate(-46.819751, -48.456562) translate(25.319751, 27.456562)" fill="#00AFF0" fill-rule="nonzero">
                        <path d="M41.6548475,34.4972651 L31.4734416,24.3150361 C29.9564062,26.6743709 27.9487535,28.6810175 25.5894186,30.1981444 L35.7716476,40.3803734 C37.3971603,42.0055203 40.032719,42.0055203 41.654756,40.3803734 C43.2803601,38.7578791 43.2803601,36.1223205 41.6548475,34.4972651 Z" id="Shape"></path>
                        <path d="M33.2848693,16.6424804 C33.2848693,7.45191286 25.8333223,0 16.6425718,0 C7.45200432,0 9.14648148e-05,7.45191286 9.14648148e-05,16.6424804 C9.14648148e-05,25.8330479 7.45200432,33.2845949 16.6425718,33.2845949 C25.8333223,33.2845949 33.2848693,25.8330479 33.2848693,16.6424804 Z M16.6425718,29.1238605 C9.7596616,29.1238605 4.16082589,23.5254821 4.16082589,16.6425718 C4.16082589,9.7596616 9.7596616,4.16082589 16.6425718,4.16082589 C23.5252992,4.16082589 29.1245922,9.7596616 29.1245922,16.6425718 C29.1245922,23.5254821 23.5252992,29.1238605 16.6425718,29.1238605 Z" id="Shape"></path>
                        <path d="M6.93458786,16.6424804 L9.70798398,16.6424804 C9.70798398,12.8189767 12.8190682,9.70816691 16.6424804,9.70816691 L16.6424804,6.9344964 C11.2902338,6.9344964 6.93458786,11.2901423 6.93458786,16.6424804 Z" id="Shape"></path>
                    </g>
                </g>
            </g>
        </g>
    </g>
</svg>