<?xml version="1.0" encoding="UTF-8"?>
<svg width="10px" height="10px" viewBox="0 0 10 10" version="1.1" xmlns="http://www.w3.org/2000/svg" xmlns:xlink="http://www.w3.org/1999/xlink">
    <!-- Generator: Sketch 49 (51002) - http://www.bohemiancoding.com/sketch -->
    <title>Icons  / Close - Small 16</title>
    <desc>Created with Sketch.</desc>
    <defs>
        <path d="M9.061,8 L12.531,4.53 C12.8150936,4.23558233 12.8108096,3.76780228 12.5213716,3.47863704 C12.2319335,3.1894718 11.7641496,3.18562895 11.47,3.47 L8,6.939 L4.53,3.47 C4.34302942,3.26934682 4.06144446,3.18675082 3.79571109,3.25461446 C3.52997772,3.3224781 3.3224781,3.52997772 3.25461446,3.79571109 C3.18675082,4.06144446 3.26934682,4.34302942 3.47,4.53 L6.939,8 L3.47,11.47 C3.26934682,11.6569706 3.18675082,11.9385555 3.25461446,12.2042889 C3.3224781,12.4700223 3.52997772,12.6775219 3.79571109,12.7453855 C4.06144446,12.8132492 4.34302942,12.7306532 4.53,12.53 L8,9.061 L11.47,12.531 C11.7644177,12.8150936 12.2321977,12.8108096 12.521363,12.5213716 C12.8105282,12.2319335 12.8143711,11.7641496 12.53,11.47 L9.061,8 Z" id="path-1"></path>
    </defs>
    <g id="Page-1" stroke="none" stroke-width="1" fill="none" fill-rule="evenodd">
        <g id="Artboard" transform="translate(-20.000000, -20.000000)">
            <g id="Icons--/-Close---Small-16" transform="translate(17.000000, 17.000000)">
                <rect id="bouding-box" x="0" y="0" width="16" height="16"></rect>
                <mask id="mask-2" fill="white">
                    <use xlink:href="#path-1"></use>
                </mask>
                <g id="Shape" fill-rule="nonzero"></g>
                <g id="Color-/-Photon-/-Primary---Grey-90-80%" mask="url(#mask-2)" fill="#0C0C0D" fill-opacity="0.8" fill-rule="evenodd">
                    <rect id="Rectangle" x="0" y="0" width="16" height="16"></rect>
                </g>
            </g>
        </g>
    </g>
</svg>