<?xml version="1.0" encoding="utf-8"?>
<svg width="15px" height="16px" viewBox="0 0 15 16" xmlns="http://www.w3.org/2000/svg">
  <title>History_Tool</title>
  <g id="History_Tool-Copy-2" fill-rule="nonzero" fill="#B3B3B3">
    <path d="M 3.132 4.187 L 4.83 4.187 L 4.83 5.687 L 0.297 5.687 L 0.23 1.223 L 1.729 1.2 L 1.753 2.736 C 2.239 2.233 2.797 1.797 3.417 1.439 C 4.538 0.792 5.783 0.448 7.05 0.421 C 9.802 0.363 12.397 1.793 13.798 4.221 C 15.897 7.856 14.652 12.504 11.017 14.602 C 7.382 16.701 2.733 15.456 0.635 11.821 L 2.367 10.821 C 3.913 13.499 7.338 14.417 10.017 12.87 C 12.695 11.324 13.613 7.899 12.066 5.221 C 11.033 3.431 9.122 2.378 7.092 2.421 C 6.159 2.44 5.244 2.693 4.417 3.171 C 3.934 3.449 3.503 3.792 3.132 4.187 Z M 6.557 8.779 C 6.521 8.69 6.502 8.595 6.501 8.501 L 6.467 5.178 C 6.462 4.764 6.795 4.425 7.209 4.421 C 7.623 4.416 7.962 4.749 7.967 5.163 L 7.998 8.179 L 9.431 9.613 C 9.724 9.906 9.724 10.381 9.431 10.674 C 9.138 10.967 8.663 10.967 8.371 10.674 L 6.721 9.024 C 6.654 8.957 6.599 8.877 6.561 8.789 Z" id="Combined-Shape"/>
  </g>
</svg>
