<?xml version="1.0" encoding="UTF-8" standalone="no"?>
<svg width="15px" height="16px" viewBox="0 0 15 16" version="1.1" xmlns="http://www.w3.org/2000/svg" xmlns:xlink="http://www.w3.org/1999/xlink">
    <!-- Generator: Sketch 43.1 (39012) - http://www.bohemiancoding.com/sketch -->
    <title>History_Tool Copy 2</title>
    <desc>Created with Sketch.</desc>
    <defs></defs>
    <g id="-Symbols" stroke="none" stroke-width="1" fill="none" fill-rule="evenodd">
        <g id="History_Tool-Copy-2" fill-rule="nonzero" fill="#B3B3B3">
            <path d="M3.13158447,4.18746631 L4.82955265,4.18746631 L4.82955265,5.68746631 L0.297054837,5.68746631 L0.229638276,1.22293246 L1.72946729,1.20028434 L1.75265006,2.73551935 C2.23889313,2.23329783 2.79699942,1.7965146 3.41655273,1.43881533 C4.53771792,0.791510308 5.78255725,0.447961674 7.05017769,0.421197289 C9.80220683,0.363091279 12.3965176,1.79257067 13.7983458,4.2206084 C15.8970279,7.85563234 14.6515767,12.5037194 11.0165527,14.6024015 C7.3815288,16.7010835 2.73344171,15.4556323 0.634759666,11.8206084 L2.36681047,10.8206084 C3.91320777,13.4990471 7.33811404,14.416748 10.0165527,12.8703507 C12.6949914,11.3239534 13.6126923,7.89904709 12.066295,5.2206084 C11.0329567,3.43081392 9.12205676,2.37789763 7.09239604,2.42075164 C6.15937382,2.44045136 5.24421425,2.69301554 4.41655273,3.17086614 C3.93406063,3.44943308 3.50300519,3.79203228 3.13158447,4.18746631 Z M6.55733512,8.7792039 C6.52065691,8.69011081 6.50186586,8.59538601 6.50096199,8.50052243 L6.46659287,5.17836706 C6.46230788,4.76417566 6.79460268,4.42493352 7.20879408,4.42064853 C7.62298548,4.41636354 7.96222761,4.74865834 7.9665126,5.16284974 L7.99772078,8.17946466 L9.43125782,9.6130017 C9.72415104,9.90589492 9.72415104,10.3807687 9.43125782,10.6736619 C9.1383646,10.9665551 8.66349087,10.9665551 8.37059765,10.6736619 L6.72099931,9.02406354 C6.65386279,8.95703665 6.59934203,8.87732858 6.56136109,8.78878301 Z" id="Combined-Shape"></path>
        </g>
    </g>
</svg>