<?xml version="1.0" encoding="utf-8"?>
<svg id="Layer_1" style="enable-background:new 0 0 300 244.2;" x="0px" y="0px" viewBox="0 0 300 244.2" xmlns="http://www.w3.org/2000/svg">
  <path fill="#9f9f9f" d="M 223.9 127.9 C 218.6 122.6 213.3 117.3 207.8 111.8 C 208.2 111.5 208.8 111.1 209.3 110.7 C 218.6 101.4 227.9 92.1 237.2 82.8 C 245.9 74.1 245.9 62 237.3 53.2 C 231.3 47.1 225.3 41.1 219.2 35.1 C 211.9 27.8 198.8 27.8 191.4 35.1 C 171.4 55.1 151.4 75.1 131.5 95.1 C 122.9 103.7 122.9 115.8 131.4 124.4 C 136.8 129.9 142.3 135.3 147.8 140.8 C 148.3 141.3 148.9 141.6 149.4 141.9 C 143.8 147.5 138.6 152.7 133.2 158 C 132.9 157.7 132.4 157.3 132 156.9 C 126.5 151.4 121 145.9 115.5 140.4 C 98.2 123 98.1 96.7 115.4 79.2 C 135.3 59.2 155.3 39.2 175.3 19.3 C 191.8 2.8 218.8 2.9 235.3 19.4 C 241.3 25.4 247.3 31.4 253.3 37.4 C 270.4 54.6 270.8 80.6 253.9 98.1 C 244.3 108 234.4 117.7 224.6 127.4 C 224.3 127.5 224 127.8 223.9 127.9 Z M 152.2 103 C 157.6 97.6 162.8 92.4 168.1 87.1 C 168.1 87.1 168.3 87.1 168.3 87.2 C 174.8 93.7 181.5 99.9 187.6 106.7 C 203.2 123.9 202.6 149 186.2 165.7 C 166.2 186 146 206.1 125.8 226.2 C 109.5 242.4 82.5 242.2 66.2 226 C 60.2 220 54.1 214 48.1 207.9 C 31 190.7 30.7 164.7 47.6 147.2 C 57.3 137.2 67.3 127.5 77.1 117.6 C 77.2 117.5 77.4 117.4 77.3 117.4 C 82.6 122.7 87.8 127.9 93.2 133.3 C 93.1 133.5 92.6 133.9 92.2 134.4 C 82.9 143.7 73.6 153 64.4 162.3 C 55.5 171.2 55.5 183.3 64.4 192.1 C 70.4 198.1 76.3 204.1 82.3 210.1 C 89.6 217.4 102.8 217.3 110.1 210.1 C 129.9 190.3 149.8 170.4 169.6 150.5 C 178.7 141.4 178.7 129.5 169.6 120.4 C 163.8 114.5 158 108.8 152.2 103 Z"/>
</svg>
