<?xml version="1.0" encoding="UTF-8" standalone="no"?>
<svg width="13px" height="16px" viewBox="0 0 13 16" version="1.1" xmlns="http://www.w3.org/2000/svg" xmlns:xlink="http://www.w3.org/1999/xlink">
    <!-- Generator: Sketch 43.1 (39012) - http://www.bohemiancoding.com/sketch -->
    <title>Page 1 Copy 3</title>
    <desc>Created with Sketch.</desc>
    <defs></defs>
    <g id="Final" stroke="none" stroke-width="1" fill="none" fill-rule="evenodd" stroke-linecap="round" stroke-linejoin="round">
        <g id="Location-rich-data-question-1" transform="translate(-2717.000000, -98.000000)" stroke="#FFFFFF" stroke-width="1.370952">
            <g id="Page-1-Copy-3" transform="translate(2717.676115, 99.500000)">
                <path d="M10.6760052,5.3567514 C10.6760052,8.2945134 5.3837352,13.8620214 5.3567352,13.8620214 C5.3297352,13.8620214 0.0374652,8.2945134 0.0374652,5.3567514 C0.0374652,2.4189894 2.4190272,0.0374814 5.3567352,0.0374814 C8.2944432,0.0374814 10.6760052,2.4189894 10.6760052,5.3567514 Z" id="Stroke-1"></path>
                <path d="M7.0577406,5.2487514 C7.0577406,6.1881894 6.2961246,6.9497514 5.3567406,6.9497514 C4.4173566,6.9497514 3.6557406,6.1881894 3.6557406,5.2487514 C3.6557406,4.3093134 4.4173566,3.5477514 5.3567406,3.5477514 C6.2961246,3.5477514 7.0577406,4.3093134 7.0577406,5.2487514 Z" id="Stroke-3"></path>
                <path d="M7.0577406,5.2487514 C7.0577406,6.1881894 6.2961246,6.9497514 5.3567406,6.9497514 C4.4173566,6.9497514 3.6557406,6.1881894 3.6557406,5.2487514 C3.6557406,4.3093134 4.4173566,3.5477514 5.3567406,3.5477514 C6.2961246,3.5477514 7.0577406,4.3093134 7.0577406,5.2487514 Z" id="Stroke-3"></path>
            </g>
        </g>
    </g>
</svg>