<?xml version="1.0" encoding="UTF-8"?>
<svg width="83px" height="63px" viewBox="0 0 83 63" version="1.1" xmlns="http://www.w3.org/2000/svg" xmlns:xlink="http://www.w3.org/1999/xlink">
    <!-- Generator: Sketch 51.3 (57544) - http://www.bohemiancoding.com/sketch -->
    <title>placeholder_icon_news</title>
    <desc>Created with Sketch.</desc>
    <defs></defs>
    <g id="Page-1" stroke="none" stroke-width="1" fill="none" fill-rule="evenodd">
        <g id="smart-cliqz_news_place-holder-image" transform="translate(-1586.000000, -1118.000000)" stroke="#FFFFFF" stroke-width="2.565">
            <g id="Group-4" transform="translate(1508.000000, 1075.000000)">
                <g id="placeholder_icon_news" transform="translate(80.000000, 45.000000)">
                    <polygon id="Stroke-1" points="0 59 79 59 79 0 0 0"></polygon>
                    <polygon id="Stroke-3" points="14 31 35 31 35 10 14 10"></polygon>
                    <polygon id="Stroke-4" points="14 39.969 66 39.969 66 39 14 39"></polygon>
                    <polygon id="Stroke-5" points="14 49.969 66 49.969 66 49 14 49"></polygon>
                    <polygon id="Stroke-6" points="42 19.969 66 19.969 66 19 42 19"></polygon>
                    <polygon id="Stroke-7" points="42 29.969 66 29.969 66 29 42 29"></polygon>
                    <polygon id="Stroke-8" points="42 10.969 66 10.969 66 10 42 10"></polygon>
                </g>
            </g>
        </g>
    </g>
</svg>