<?xml version="1.0" encoding="UTF-8" standalone="no"?>
<svg width="21px" height="19px" viewBox="0 0 21 19" version="1.1" xmlns="http://www.w3.org/2000/svg" xmlns:xlink="http://www.w3.org/1999/xlink">
    <!-- Generator: Sketch 48.2 (47327) - http://www.bohemiancoding.com/sketch -->
    <title>Page 1</title>
    <desc>Created with Sketch.</desc>
    <defs>
        <polygon id="path-1" points="0.177734375 0.574470277 21.5771484 0.574470277 21.5771484 21.7668531 0.177734375 21.7668531"></polygon>
    </defs>
    <g id="Country-Dial-number-SC-Dev" stroke="none" stroke-width="1" fill="none" fill-rule="evenodd" transform="translate(-184.000000, -295.000000)">
        <g id="Page-1" transform="translate(183.192383, 293.817383)">
            <g id="Group-3" transform="translate(0.000000, 0.017815)">
                <mask id="mask-2" fill="white">
                    <use xlink:href="#path-1"></use>
                </mask>
                <g id="Clip-2"></g>
                <path d="M5.51412429,3.28921519 C4.84400261,3.28921519 4.17388093,3.28829799 3.50379453,3.28974435 C3.28172589,3.29020295 3.26698011,3.30145631 3.27989148,3.51703399 C3.30836001,3.99203864 3.33478248,4.46750189 3.37894927,4.94123658 C3.5245374,6.50256082 3.8345163,8.02878446 4.36906851,9.5065728 C5.17927511,11.7462735 6.44483708,13.6747607 8.28770698,15.1996085 C9.99444297,16.6118169 11.963675,17.490602 14.1080221,17.9999312 C15.740112,18.38759 17.3980951,18.5371291 19.0717766,18.5433732 C19.3174456,18.5442904 19.3549097,18.5033691 19.3567794,18.2363928 C19.3647167,17.1254499 19.371631,16.0144717 19.3785453,14.9035288 C19.37978,14.699663 19.3002657,14.617891 19.0973877,14.606179 C18.8451572,14.5916449 18.5882349,14.6004641 18.3417546,14.5542866 C17.4136876,14.3804416 16.4881252,14.1928385 15.5642209,13.9980743 C15.4291806,13.9696058 15.3503718,13.9940174 15.2567819,14.0863726 C14.6082498,14.7262972 13.9547788,15.3612477 13.301837,15.9966568 C13.0708786,16.2214065 12.7684137,16.2705826 12.4937118,16.1122242 C11.269177,15.4063317 10.095441,14.6286857 9.06411822,13.6530653 C8.00041118,12.6468245 7.16713343,11.4612707 6.39954143,10.2250239 C6.15669464,9.83390798 6.19123081,9.57522182 6.52184675,9.25257848 C7.15711476,8.63272651 7.79132447,8.01167512 8.42990852,7.39524502 C8.51168058,7.31629512 8.54110159,7.24997438 8.50032139,7.13701746 C8.43470619,6.95527042 8.38757613,6.76671491 8.33554257,6.58024075 C8.06532084,5.61156992 7.81834664,4.63891278 7.82550787,3.62215941 C7.82734227,3.36223856 7.75347226,3.29006184 7.48921234,3.28960324 C6.83083789,3.28847438 6.17246345,3.28925047 5.51412429,3.28921519 M12.7493641,14.7537779 C13.3929222,14.1298338 14.0427244,13.5082886 14.681767,12.875878 C14.9112438,12.6488353 15.1585355,12.5952848 15.468338,12.6656977 C16.366596,12.8698809 18.171541,13.1491773 18.5175781,13.1491773 C19.5175781,13.1491773 20.6844994,13.8943952 20.6573009,14.855164 C20.6248108,16.0008548 20.635288,17.1478155 20.6279504,18.2942118 C20.6223061,19.1684814 19.9912008,19.8155319 19.1144265,19.814897 C16.8757488,19.8132037 14.67069,19.5603735 12.5283538,18.8794218 C9.49379194,17.9148078 6.96372631,16.2291674 5.09203512,13.6229741 C3.78763318,11.8066677 2.97707381,9.77160881 2.5023161,7.59688829 C2.21720748,6.29086361 2.08181439,4.96600102 2.00244117,3.63217808 C1.96077904,2.93263539 2.45924289,2.25468222 3.13232784,2.07924976 C3.25622062,2.04693603 3.38618105,2.02146605 3.51338987,2.021078 C4.83031514,2.01691532 6.14727568,2.01613922 7.46420095,2.01980803 C7.95472748,2.02114855 8.39001024,2.1762262 8.73039791,2.54194274 C8.97190417,2.80147555 9.21231685,4.86052282 9.38810209,5.53801739 C9.53404299,6.10036787 9.68093637,6.66293001 9.8495251,7.21868369 C9.94389104,7.5297209 9.86582307,7.77030996 9.6447069,7.98444129 C9.04492754,8.5651358 8.44514818,9.14586559 7.84445161,9.72557234 C7.7981682,9.77019773 7.74440607,9.80706219 7.69801683,9.84438524 C8.93214701,11.9795603 10.6229025,13.5853688 12.7493641,14.7537779 Z" id="Fill-1" stroke="#000000" stroke-width="0.6" fill="#000000" mask="url(#mask-2)"></path>
            </g>
        </g>
    </g>
</svg>