<?xml version="1.0" encoding="UTF-8" standalone="no"?>
<svg width="27px" height="25px" viewBox="0 0 27 25" version="1.1" xmlns="http://www.w3.org/2000/svg" xmlns:xlink="http://www.w3.org/1999/xlink">
    <!-- Generator: Sketch 46 (44423) - http://www.bohemiancoding.com/sketch -->
    <title>Fill 1</title>
    <desc>Created with Sketch.</desc>
    <defs></defs>
    <g id="Page-1" stroke="none" stroke-width="1" fill="none" fill-rule="evenodd">
        <g id="The-flight-has-schedule-but-not-take-off-yet" transform="translate(-220.000000, -373.000000)" stroke="#54BF30" fill="#FFFFFF">
            <g id="Rich-Data---Flight" transform="translate(-233.000000, 73.000000)">
                <g id="Flight-Info" transform="translate(338.000000, 273.000000)">
                    <g id="Progress" transform="translate(115.000000, 28.000000)">
                        <g id="flightstatus_plane" transform="translate(0.972656, 0.000000)">
                            <path d="M21.2625971,13.1206839 C21.2595026,13.1206839 21.2566894,13.1201212 21.2533136,13.1201212 L21.2533136,13.1215278 L16.9474562,13.1215278 L8.66854101,23.0003 L7.05686867,23.0003 L11.3658205,13.1139322 C8.85421106,13.0835499 6.60113308,12.9111018 4.91237954,12.6497571 L1.4431627,16.1029388 L0,16.1029388 L1.87976864,11.693275 L1.9160587,11.693275 C1.86767196,11.6299784 1.8344764,11.5658378 1.8344764,11.5000093 C1.8344764,11.4350248 1.86739064,11.3706029 1.91577738,11.3073063 L1.87976864,11.3073063 L0,6.89792385 L1.4431627,6.89792385 L4.91209822,10.3505429 C6.60085176,10.0891982 8.85421106,9.91731278 11.3661018,9.88636777 L7.05686867,0 L8.66854101,0 L16.9477375,9.8790535 L21.2533136,9.8790535 L21.2533136,9.88046009 C21.2566894,9.88046009 21.2595026,9.88017877 21.2625971,9.88017877 C23.5229893,9.88017877 25.3552152,10.6054173 25.3552152,11.5000093 C25.3552152,12.3948827 23.5229893,13.1206839 21.2625971,13.1206839" id="Fill-1"></path>
                        </g>
                    </g>
                </g>
            </g>
        </g>
    </g>
</svg>