<?xml version="1.0" encoding="UTF-8" standalone="no"?>
<svg width="7px" height="9px" viewBox="0 0 7 9" version="1.1" xmlns="http://www.w3.org/2000/svg" xmlns:xlink="http://www.w3.org/1999/xlink">
    <!-- Generator: Sketch 43.1 (39012) - http://www.bohemiancoding.com/sketch -->
    <title>icon_location</title>
    <desc>Created with Sketch.</desc>
    <defs></defs>
    <g id="Final" stroke="none" stroke-width="1" fill="none" fill-rule="evenodd">
        <g id="Rich-Data---Location@2x" transform="translate(-425.000000, -336.000000)" fill="#B3B3B3">
            <g id="Rich-Data---Location" transform="translate(147.000000, 71.000000)">
                <g id="Map" transform="translate(108.000000, 255.000000)">
                    <g id="screen_shot_2017-02-08_at_16.59.32">
                        <g id="icon_location" transform="translate(169.000000, 9.000000)">
                            <path d="M4.1976,6.19046828 C3.2232,6.19046828 2.4336,5.34648973 2.4336,4.30504653 C2.4336,3.26506604 3.2232,2.42108749 4.1976,2.42108749 C5.172,2.42108749 5.9616,3.26506604 5.9616,4.30504653 C5.9616,5.34648973 5.172,6.19046828 4.1976,6.19046828 M7.3959,4.41767452 C7.3959,2.52932737 5.9637,0.999342 4.1983,0.999342 C2.4315,0.999342 0.9993,2.52932737 0.9993,4.41767452 C0.9993,5.1680402 1.2331,5.85697242 1.6181,6.42157506 L1.6027,6.44205287 L4.1983,9.999342 L6.7925,6.44205287 L6.7771,6.42011236 C7.1621,5.85697242 7.3959,5.1680402 7.3959,4.41767452" id="Fill-1"></path>
                        </g>
                    </g>
                </g>
            </g>
        </g>
    </g>
</svg>