<?xml version="1.0" encoding="UTF-8" standalone="no"?>
<svg width="9px" height="9px" viewBox="0 0 9 9" version="1.1" xmlns="http://www.w3.org/2000/svg" xmlns:xlink="http://www.w3.org/1999/xlink">
    <!-- Generator: Sketch 43.1 (39012) - http://www.bohemiancoding.com/sketch -->
    <title>icon_phone</title>
    <desc>Created with Sketch.</desc>
    <defs></defs>
    <g id="Final" stroke="none" stroke-width="1" fill="none" fill-rule="evenodd">
        <g id="Rich-Data---Location@2x" transform="translate(-425.000000, -392.000000)" fill="#B3B3B3">
            <g id="Rich-Data---Location" transform="translate(147.000000, 71.000000)">
                <g id="Map" transform="translate(108.000000, 255.000000)">
                    <g id="screen_shot_2017-02-08_at_16.59.32">
                        <g id="icon_phone" transform="translate(170.000000, 66.000000)">
                            <path d="M8.99966667,8.04996133 C8.54776472,8.43954537 8.05934545,8.75912603 7.54353818,9.00033333 C6.17489913,8.74695153 4.42054579,7.72885887 2.84573598,6.15378278 C1.27168695,4.57946759 0.253766413,2.82633942 -0.000333333333,1.45822985 C0.240833192,0.942335362 0.561120597,0.45231169 0.951399549,0.000333333333 L2.84649676,2.14152373 C2.68445111,2.36446928 2.53305635,2.59045846 2.40676726,2.81949126 C2.19298873,3.31484128 2.70575289,4.37478379 3.6666151,5.33580848 C4.62671654,6.29607226 5.68647985,6.80892312 6.17337757,6.58749938 C6.41074021,6.4695589 6.63669118,6.31737763 6.86035982,6.15530459 L8.99966667,8.04996133 Z" id="Fill-1"></path>
                        </g>
                    </g>
                </g>
            </g>
        </g>
    </g>
</svg>