<?xml version="1.0" encoding="UTF-8"?>
<svg width="56px" height="56px" viewBox="0 0 56 56" version="1.1" xmlns="http://www.w3.org/2000/svg" xmlns:xlink="http://www.w3.org/1999/xlink">
    <!-- Generator: Sketch 55 (78076) - https://sketchapp.com -->
    <title>Group 3</title>
    <desc>Created with Sketch.</desc>
    <g id="Page-1" stroke="none" stroke-width="1" fill="none" fill-rule="evenodd">
        <g id="Pop-up-on-client-site-" transform="translate(-15.000000, -55.000000)">
            <g id="Group-3" transform="translate(15.000000, 55.000000)">
                <g id="Floating-button" fill="#EB443F">
                    <circle id="Oval" cx="28" cy="28" r="28"></circle>
                </g>
                <g id="Group-2" transform="translate(5.000000, 10.000000)" fill="#FFFFFF">
                    <path d="M10.0690908,9.13575735 L16.8424303,1.42650056 C17.3821122,0.812247176 18.3175616,0.751795083 18.931815,1.29147703 C18.9796815,1.33353244 19.0247831,1.37863407 19.0668385,1.42650056 L25.840178,9.13575735 C26.4462555,9.82558054 26.7805077,10.7124351 26.7805077,11.6306866 L26.7805077,31.8831092 C26.7805077,32.7007668 26.1176653,33.3636091 25.3000078,33.3636091 L10.609261,33.3636091 C9.79160349,33.3636091 9.1287611,32.7007668 9.1287611,31.8831092 L9.1287611,11.6306866 C9.1287611,10.7124351 9.46301332,9.82558054 10.0690908,9.13575735 Z M17.9546344,11.5261088 C19.1244893,11.5261088 20.072844,10.5737013 20.072844,9.39884704 C20.072844,8.2239928 19.1244893,7.27158527 17.9546344,7.27158527 C16.7847796,7.27158527 15.8364248,8.2239928 15.8364248,9.39884704 C15.8364248,10.5737013 16.7847796,11.5261088 17.9546344,11.5261088 Z" id="Combined-Shape" transform="translate(17.954634, 17.517121) rotate(-45.000000) translate(-17.954634, -17.517121) "></path>
                    <path d="M20.9001284,5.47270293 L24.5490484,5.74136812 C25.4559563,5.80814256 26.3083957,6.19961885 26.9500399,6.84400503 L41.5784132,21.5348928 C42.1536114,22.1125491 42.1536114,23.0465105 41.5784132,23.6241668 L31.1860365,34.0609554 C30.6090994,34.640358 29.6717008,34.6423567 29.0922982,34.0654196 C29.0908069,34.0639347 29.0893188,34.0624466 29.0878339,34.0609554 L27.9457335,32.9139742 L37.1960098,23.6241668 C37.771208,23.0465105 37.771208,22.1125491 37.1960098,21.5348928 L21.9365409,6.21021241 C21.6327767,5.90515011 21.2817762,5.6567775 20.9001284,5.47270293 Z" id="Combined-Shape"></path>
                </g>
            </g>
        </g>
    </g>
</svg>