<?xml version="1.0" encoding="UTF-8"?>
<svg width="17px" height="15px" viewBox="0 0 17 15" version="1.1" xmlns="http://www.w3.org/2000/svg" xmlns:xlink="http://www.w3.org/1999/xlink">
    <!-- Generator: Sketch 50.2 (55047) - http://www.bohemiancoding.com/sketch -->
    <title>Shape</title>
    <desc>Created with Sketch.</desc>
    <defs></defs>
    <g id="soccer-cliqztab" stroke="none" stroke-width="1" fill="none" fill-rule="evenodd">
        <g id="refresh-icon" fill="#4A4A4A" fill-rule="nonzero">
            <g id="Group-10">
                <g id="noun_800369" transform="translate(8.500000, 7.500000) scale(-1, 1) translate(-8.500000, -7.500000) ">
                    <path d="M15.03,3.42 C14.076,1.818 12.546,0.666 10.728,0.216 C8.91,-0.234 7.02,0.036 5.4,0.99 C3.996,1.836 2.952,3.096 2.394,4.626 L1.728,3.384 C1.494,2.952 0.936,2.79 0.504,3.024 C0.072,3.258 -0.09,3.816 0.144,4.248 L1.836,7.362 C1.854,7.398 1.872,7.434 1.908,7.47 C2.088,7.704 2.358,7.83 2.628,7.83 C2.772,7.83 2.916,7.794 3.06,7.722 L6.174,6.03 C6.606,5.796 6.768,5.238 6.534,4.806 C6.3,4.374 5.742,4.212 5.31,4.446 L4.14,5.076 C4.554,4.014 5.31,3.114 6.318,2.52 C7.524,1.8 8.928,1.602 10.278,1.944 C11.628,2.286 12.762,3.132 13.482,4.338 C14.202,5.544 14.4,6.948 14.058,8.298 C13.68,9.756 12.708,10.998 11.358,11.682 C10.962,11.88 10.548,12.024 10.116,12.132 C9.684,12.222 9.252,12.258 8.82,12.24 C8.46,12.222 8.082,12.168 7.722,12.078 C7.254,11.952 6.786,11.772 6.372,11.52 C5.94,11.268 5.4,11.412 5.148,11.844 C4.896,12.276 5.04,12.816 5.472,13.068 C6.03,13.392 6.642,13.644 7.29,13.806 C7.776,13.932 8.262,14.004 8.766,14.022 C8.856,14.022 8.928,14.022 9.018,14.022 C9.522,14.022 10.026,13.968 10.512,13.86 C11.088,13.734 11.646,13.536 12.186,13.266 C14.004,12.348 15.318,10.692 15.822,8.73 C16.272,6.93 15.984,5.04 15.03,3.42 Z" id="Shape"></path>
                </g>
            </g>
        </g>
    </g>
</svg>