<?xml version="1.0" encoding="UTF-8"?>
<svg width="214px" height="53px" viewBox="0 0 214 53" version="1.1" xmlns="http://www.w3.org/2000/svg" xmlns:xlink="http://www.w3.org/1999/xlink">
    <!-- Generator: Sketch 55 (78076) - https://sketchapp.com -->
    <title>Group 2</title>
    <desc>Created with Sketch.</desc>
    <g id="Page-1" stroke="none" stroke-width="1" fill="none" fill-rule="evenodd">
        <g id="Settings" transform="translate(-291.000000, -74.000000)">
            <g id="Group-2" transform="translate(291.000000, 74.000000)">
                <g id="CHIP_Magazine-Copy" transform="translate(54.676247, 0.000000)">
                    <polyline id="Fill-2" fill="#DA3434" points="159.017053 37.4406932 138.422503 37.5087116 138.433723 52.0646355 0 52.0646355 0 0.386570878 158.994614 0.386570878 159.017053 37.4406932"></polyline>
                    <path d="M37.235341,19.1443276 L41.9183684,19.1443276 C42.7099055,19.1443276 43.3567107,18.5140243 43.37354,17.7193434 L43.3791498,17.7193434 L43.3791498,9.00506091 C43.3791498,7.38849178 42.0855392,6.07573789 40.4744162,6.07573789 L9.77837213,6.07573789 C8.17846866,6.07573789 6.87924832,7.38849178 6.87924832,9.00506091 L6.87924832,42.3867599 C6.87924832,44.003329 8.17846866,45.3160829 9.77837213,45.3160829 L40.4744162,45.3160829 C42.0855392,45.3160829 43.3791498,44.003329 43.3791498,42.3867599 L43.37354,34.2302278 C43.37354,33.4134409 42.721125,32.7542299 41.9183684,32.7542299 L37.235341,32.7542299 C36.4269746,32.7542299 35.7857791,33.4134409 35.7857791,34.2302278 L35.7969986,35.8632346 C35.7969986,37.2207673 34.7098271,38.3084938 33.3718995,38.3084938 L23.5654785,38.3084938 C22.2387704,38.3084938 21.1515989,37.2207673 21.1515989,35.8632346 L21.1515989,28.4498028 L14.5562045,21.8599597 L14.5562045,15.4322269 C14.5562045,14.0860306 15.6377661,12.9875345 16.9756938,12.9875345 L33.3718995,12.9875345 C34.7098271,12.9875345 35.7969986,14.0860306 35.7969986,15.4322269 L35.7857791,17.6802329 C35.7857791,18.4970197 36.4269746,19.1443276 37.235341,19.1443276" id="Fill-3" fill="#FFFFFE"></path>
                    <path d="M85.8556892,6.07573789 L81.144613,6.07573789 C80.3412955,6.07573789 79.7006609,6.72928074 79.7006609,7.5403994 L79.7006609,20.6038877 C79.7006609,21.950084 78.624148,23.0423451 77.2862203,23.0423451 L60.7733317,23.0423451 C59.435404,23.0423451 58.3257935,21.950084 58.3257935,20.6038877 L58.3257935,7.5403994 C58.3257935,6.72928074 57.6458906,6.07573789 56.843134,6.07573789 L52.1320578,6.07573789 C51.3293012,6.07573789 50.6824959,6.72928074 50.6824959,7.5403994 L50.7380326,42.3867599 C50.7380326,44.0095641 52.0428627,45.3160829 53.6371564,45.3160829 L62.1056496,45.3160829 C63.7055531,45.3160829 65.0047734,44.0095641 65.0047734,42.3867599 L65.0047734,32.4951934 L65.0659198,32.3483871 C65.0659198,31.0078591 66.1418717,30.050501 67.4741896,30.050501 L77.2419032,30.050501 C78.5742211,30.050501 79.6782219,31.1427621 79.6782219,32.4951934 L79.6950511,32.3483871 L79.6782219,43.8514214 C79.6782219,44.6625401 80.3412955,45.3160829 81.144613,45.3160829 L85.8556892,45.3160829 C86.6578849,45.3160829 87.3052511,44.6625401 87.3052511,43.8514214 L87.3052511,7.5403994 C87.3052511,6.72928074 86.6578849,6.07573789 85.8556892,6.07573789" id="Fill-4" fill="#FFFFFE"></path>
                    <path d="M102.781456,21.950084 L102.781456,7.55173579 C102.781456,6.73494894 102.13409,6.08707428 101.331894,6.08707428 L96.4867448,6.08707428 C95.689598,6.08707428 95.0040853,6.73494894 95.0040853,7.55173579 L95.0040853,42.3867599 C95.0040853,44.0095641 96.2645984,45.3274193 97.8695506,45.3274193 L106.405361,45.3274193 C108.004703,45.3274193 109.298875,44.0095641 109.298875,42.3867599 L109.298875,28.5745031 L102.781456,21.950084" id="Fill-5" fill="#FFFFFE"></path>
                    <path d="M145.291093,21.4484487 C145.291093,22.2652356 144.644288,22.9187784 143.852751,22.9187784 L125.477422,22.9187784 C124.674104,22.9187784 124.02786,22.2652356 124.02786,21.4484487 L124.02786,14.3116248 C124.02786,13.4999393 124.674104,12.8469633 125.477422,12.8469633 L143.852751,12.8469633 C144.644288,12.8469633 145.291093,13.4999393 145.291093,14.3116248 L145.291093,21.4484487 M149.784511,6.07573789 L119.411589,6.07573789 C117.806076,6.07573789 116.501245,7.39359316 116.501245,9.00506091 L116.501245,42.3867599 C116.501245,44.0095641 117.806076,45.3160829 119.411589,45.3160829 L127.991155,45.3160829 C129.59162,45.3160829 130.901499,44.0095641 130.901499,42.3867599 L130.901499,32.3880645 C130.901499,31.0362 131.99989,29.9371371 133.337817,29.9371371 L149.784511,29.9371371 C151.389463,29.9371371 152.689244,28.6198486 152.689244,27.0078141 L152.689244,9.00506091 C152.689244,7.39359316 151.389463,6.07573789 149.784511,6.07573789" id="Fill-6" fill="#FFFFFE"></path>
                </g>
                <polygon id="Fill-2" fill="#DA3434" points="51.2164948 52.1473912 -1.30562228e-12 52.1473912 -1.30562228e-12 0.397391183 51.2092676 0.397391183"></polygon>
                <g id="Group-2-Copy" transform="translate(0.047931, 5.207647)" fill="#FFFFFF">
                    <path d="M11.9910279,9.06270227 L17.3930165,2.87667496 C18.5257312,1.57955935 20.4954978,1.44628605 21.7926134,2.57900072 C21.8984307,2.67140634 21.9978821,2.77085769 22.0902877,2.87667496 L27.4922763,9.06270227 C28.7588952,10.5131568 29.4568598,12.3735459 29.4568598,14.2991995 L29.4568598,33.8413079 C29.4568598,35.5633855 28.0608401,36.9594053 26.3387624,36.9594053 L13.1445418,36.9594053 C11.4224641,36.9594053 10.0264444,35.5633855 10.0264444,33.8413079 L10.0264444,14.2991995 C10.0264444,12.3735459 10.724409,10.5131568 11.9910279,9.06270227 Z M19.7416521,12.7744203 C21.0293868,12.7744203 22.073302,11.719631 22.073302,10.4184824 C22.073302,9.11733386 21.0293868,8.06254455 19.7416521,8.06254455 C18.4539175,8.06254455 17.4100023,9.11733386 17.4100023,10.4184824 C17.4100023,11.719631 18.4539175,12.7744203 19.7416521,12.7744203 Z" id="Combined-Shape" transform="translate(19.741652, 19.377772) rotate(-45.000000) translate(-19.741652, -19.377772) "></path>
                    <path d="M22.1852443,6.0001972 L25.5973936,6.25296607 C27.514488,6.39498265 29.31545,7.22587687 30.6676937,8.59220647 L44.7422836,22.8134067 C45.9447841,24.0284332 45.9447841,25.9851289 44.7422836,27.2001555 L35.3898894,36.6499704 C34.1785222,37.873956 32.2042786,37.8841853 30.980293,36.6728181 C30.9726377,36.6652417 30.9650217,36.6576257 30.9574454,36.6499704 L30.7616705,36.4521562 L39.9182897,27.2001555 C41.1207902,25.9851289 41.1207902,24.0284332 39.9182897,22.8134067 L25.1505525,7.89183882 C24.3091168,7.0416382 23.2939666,6.39878241 22.1852443,6.0001972 Z" id="Combined-Shape"></path>
                </g>
            </g>
        </g>
    </g>
</svg>