<?xml version="1.0" encoding="UTF-8"?>
<svg width="316px" height="52px" viewBox="0 0 316 52" version="1.1" xmlns="http://www.w3.org/2000/svg" xmlns:xlink="http://www.w3.org/1999/xlink">
    <!-- Generator: Sketch 55 (78076) - https://sketchapp.com -->
    <title>Artboard</title>
    <desc>Created with Sketch.</desc>
    <g id="Artboard" stroke="none" stroke-width="1" fill="none" fill-rule="evenodd">
        <g id="r" transform="translate(1.000000, 0.000000)" fill="#DCE0E6">
            <path d="M97.3331863,38.0120015 L115.804466,25.6832737 L97.5303964,13.536546 C95.6358494,17.2332734 94.5567331,21.4736372 94.5567331,25.9834556 C94.5567331,30.3278194 95.5671582,34.4121832 97.3331863,38.0120015" id="Fill-1"></path>
            <polyline id="Fill-3" points="-1.33937306e-12 1.43236369 10.8244005 1.43236369 22.816551 22.0172736 34.8131332 1.43236369 45.633102 1.43236369 45.633102 50.1090929 35.6595858 50.1090929 35.6595858 18.3323644 22.816551 39.1229106 22.5572972 39.1229106 9.84499719 18.5403644 9.84499719 50.1090929 -1.33937306e-12 50.1090929 -1.33937306e-12 1.43236369"></polyline>
            <polyline id="Fill-5" points="67.8114898 30.9187285 50.2775121 1.43236369 62.0104088 1.43236369 72.8968529 20.9725463 83.9805072 1.43236369 95.3876748 1.43236369 77.8514813 30.7083649 77.8514813 50.1090929 67.8114898 50.1090929 67.8114898 30.9187285"></polyline>
            <polyline id="Fill-6" points="149.698024 1.43236369 184.444682 1.43236369 184.444682 11.1681823 159.738015 11.1681823 159.738015 21.5303645 181.510904 21.5303645 181.510904 31.2661831 159.738015 31.2661831 159.738015 50.1090929 149.698024 50.1090929 149.698024 1.43236369"></polyline>
            <polyline id="Fill-7" points="190.837393 1.43236369 225.586267 1.43236369 225.586267 11.1681823 200.879601 11.1681823 200.879601 21.5303645 222.652489 21.5303645 222.652489 31.2661831 200.879601 31.2661831 200.879601 50.1090929 190.837393 50.1090929 190.837393 1.43236369"></polyline>
            <path d="M252.728146,25.0758192 C257.616299,25.0758192 260.419343,22.2938191 260.419343,18.1929098 L260.419343,18.0534553 C260.419343,13.4656369 257.419089,11.0972732 252.530936,11.0972732 L242.55742,11.0972732 L242.55742,25.0758192 L252.728146,25.0758192 Z M232.517429,1.43236369 L253.377389,1.43236369 C259.17847,1.43236369 263.676634,3.17200013 266.676888,6.37000025 C269.218461,9.08345491 270.587853,12.9078187 270.587853,17.4956371 L270.587853,17.6350916 C270.587853,25.4941828 266.610412,30.4318194 260.807116,32.7245468 L271.959461,50.1090929 L260.222133,50.1090929 L250.445827,34.5327286 L242.55742,34.5327286 L242.55742,50.1090929 L232.517429,50.1090929 L232.517429,1.43236369 L232.517429,1.43236369 Z" id="Fill-8"></path>
            <polyline id="Fill-9" points="276.661483 41.9734562 301.760354 10.8207277 277.443676 10.8207277 277.443676 1.43236369 314.665432 1.43236369 314.665432 9.57036402 289.568777 40.7207289 314.665432 40.7207289 314.665432 50.1090929 276.661483 50.1090929 276.661483 41.9734562"></polyline>
            <path d="M136.117113,7.61090939 C131.361911,2.53854556 125.12874,5.15143483e-14 118.893353,5.15143483e-14 C112.930516,5.15143483e-14 107.000916,2.3920001 102.329916,7.0341821 L111.055911,12.9007278 C113.378116,11.3123641 116.068152,10.4378186 118.893353,10.4378186 C122.786592,10.4378186 126.447167,12.0545459 129.199246,14.9901824 C134.880672,21.0529099 134.880672,30.9163649 129.199246,36.9767287 C126.447167,39.9147289 122.786592,41.5314562 118.893353,41.5314562 C115.815545,41.5314562 112.903926,40.4867289 110.450986,38.6100015 L101.771523,44.4458199 C106.515646,49.452002 112.702284,51.9669112 118.893353,51.9669112 C125.12874,51.9669112 131.361911,49.4307292 136.117113,44.3560018 C145.629733,34.2112741 145.629733,17.7580007 136.117113,7.61090939" id="Fill-11"></path>
        </g>
    </g>
</svg>