<?xml version="1.0" encoding="UTF-8"?>
<svg width="17px" height="21px" viewBox="0 0 17 21" version="1.1" xmlns="http://www.w3.org/2000/svg" xmlns:xlink="http://www.w3.org/1999/xlink">
    <!-- Generator: Sketch 47.1 (45422) - http://www.bohemiancoding.com/sketch -->
    <title>android-logo</title>
    <desc>Created with Sketch.</desc>
    <defs></defs>
    <g id="Page-1" stroke="none" stroke-width="1" fill="none" fill-rule="evenodd">
        <g id="Artboard" transform="translate(-55.000000, -13.000000)" fill-rule="nonzero" fill="#C3C3C3">
            <g id="Send-tab-with-android" transform="translate(15.000000, 13.000000)">
                <g id="android-logo" transform="translate(40.059465, 0.662277)">
                    <path d="M1.251864,6.449076 C0.90882,6.449076 0.61776,6.568704 0.378504,6.80796 C0.139248,7.047216 0.019584,7.334316 0.019584,7.669404 L0.019584,12.814308 C0.019584,13.157784 0.139212,13.448592 0.378504,13.687884 C0.61776,13.92714 0.90882,14.046804 1.251864,14.046804 C1.594656,14.046804 1.883952,13.927176 2.1195,13.687884 C2.35458,13.448628 2.472444,13.157784 2.472444,12.814308 L2.472444,7.669404 C2.472444,7.33428 2.352816,7.047216 2.113524,6.80796 C1.874232,6.568704 1.586952,6.449076 1.251864,6.449076 Z" id="Shape"></path>
                    <path d="M11.158992,1.830492 L12.00852,0.26334 C12.064284,0.159588 12.044448,0.080028 11.948832,0.024084 C11.845044,-0.024156 11.765304,0.000288 11.709576,0.095688 L10.848168,1.675368 C10.090188,1.340244 9.288504,1.172376 8.443116,1.172376 C7.597548,1.172376 6.795792,1.34028 6.0381,1.675368 L5.176656,0.095688 C5.120676,0.000288 5.040936,-0.02394 4.9374,0.024084 C4.841568,0.08028 4.821732,0.159588 4.877712,0.26334 L5.727276,1.830492 C4.865832,2.2698 4.179744,2.88162 3.669264,3.667284 C3.158784,4.45338 2.903436,5.312412 2.903436,6.245892 L13.970772,6.245892 C13.970772,5.312628 13.715388,4.45356 13.204944,3.667284 C12.694428,2.88162 12.0123,2.2698 11.158992,1.830492 Z M6.247404,4.10994 C6.155532,4.202028 6.045804,4.247856 5.918256,4.247856 C5.790456,4.247856 5.68296,4.202028 5.595264,4.10994 C5.507568,4.018284 5.46372,3.908988 5.46372,3.781008 C5.46372,3.65346 5.507568,3.543948 5.595264,3.452076 C5.68296,3.36042 5.790708,3.314592 5.918256,3.314592 C6.045804,3.314592 6.155532,3.36042 6.247404,3.452076 C6.33906,3.544164 6.385104,3.65346 6.385104,3.781008 C6.384852,3.908772 6.338844,4.018284 6.247404,4.10994 Z M11.2905,4.10994 C11.202624,4.202028 11.094876,4.247856 10.967544,4.247856 C10.839708,4.247856 10.730016,4.202028 10.638324,4.10994 C10.546488,4.018284 10.50066,3.908988 10.50066,3.781008 C10.50066,3.65346 10.546488,3.543948 10.638324,3.452076 C10.730016,3.36042 10.839708,3.314592 10.967544,3.314592 C11.095092,3.314592 11.202588,3.36042 11.2905,3.452076 C11.378268,3.544164 11.422044,3.65346 11.422044,3.781008 C11.422044,3.908772 11.378232,4.018284 11.2905,4.10994 Z" id="Shape"></path>
                    <path d="M2.950956,14.644944 C2.950956,15.012216 3.078504,15.323112 3.333636,15.578244 C3.588984,15.833376 3.89988,15.960924 4.2669,15.960924 L5.152356,15.960924 L5.164488,18.677268 C5.164488,19.020276 5.284116,19.311552 5.523372,19.550844 C5.762628,19.790136 6.049944,19.909764 6.384816,19.909764 C6.727644,19.909764 7.018884,19.790136 7.258176,19.550844 C7.497468,19.311552 7.617096,19.020312 7.617096,18.677268 L7.617096,15.961176 L9.2682,15.961176 L9.2682,18.677268 C9.2682,19.020276 9.387792,19.311552 9.627084,19.550844 C9.866376,19.790136 10.157364,19.909764 10.500444,19.909764 C10.843272,19.909764 11.134512,19.790136 11.373804,19.550844 C11.613096,19.311552 11.732688,19.020312 11.732688,18.677268 L11.732688,15.961176 L12.630096,15.961176 C12.98898,15.961176 13.29588,15.833592 13.55148,15.57846 C13.806576,15.323328 13.934196,15.012432 13.934196,14.645196 L13.934196,6.6762 L2.950956,6.6762 L2.950956,14.644944 Z" id="Shape"></path>
                    <path d="M15.6339,6.449076 C15.298776,6.449076 15.011712,6.56694 14.77242,6.80202 C14.533164,7.037532 14.413536,7.326828 14.413536,7.669404 L14.413536,12.814308 C14.413536,13.157784 14.533128,13.448592 14.77242,13.687884 C15.011712,13.927176 15.298992,14.046804 15.6339,14.046804 C15.976728,14.046804 16.267968,13.927176 16.50726,13.687884 C16.746552,13.448592 16.866144,13.157784 16.866144,12.814308 L16.866144,7.669404 C16.866144,7.326792 16.746552,7.037532 16.50726,6.80202 C16.267968,6.56694 15.976728,6.449076 15.6339,6.449076 Z" id="Shape"></path>
                </g>
            </g>
        </g>
    </g>
</svg>