<?xml version="1.0" encoding="UTF-8"?>
<svg width="18px" height="23px" viewBox="0 0 18 23" version="1.1" xmlns="http://www.w3.org/2000/svg" xmlns:xlink="http://www.w3.org/1999/xlink">
    <!-- Generator: Sketch 47.1 (45422) - http://www.bohemiancoding.com/sketch -->
    <title>apple</title>
    <desc>Created with Sketch.</desc>
    <defs></defs>
    <g id="Page-1" stroke="none" stroke-width="1" fill="none" fill-rule="evenodd">
        <g id="Artboard" transform="translate(-55.000000, -11.000000)" fill-rule="nonzero" fill="#C3C3C3">
            <g id="Send-tab-with-android" transform="translate(15.000000, 11.000000)">
                <g id="apple" transform="translate(39.986337, 0.896366)">
                    <path d="M15.0659136,11.7523872 C15.0380064,8.951256 17.3503296,7.6078656 17.4536208,7.5411216 C16.1543808,5.6398896 14.1304608,5.3794368 13.4092368,5.3493264 C11.6868096,5.174928 10.0483632,6.3634032 9.1742112,6.3634032 C8.3022624,6.3634032 6.9533424,5.3751168 5.524848,5.40108 C3.6474624,5.4289872 1.9163952,6.4927008 0.9497088,8.174088 C-1.0008576,11.558808 0.4501872,16.573032 2.3513328,19.3180896 C3.2803056,20.6617824 4.38804,22.1709312 5.8424544,22.1170176 C7.2430416,22.0611168 7.7726736,21.2107248 9.465984,21.2107248 C11.1592512,21.2107248 11.635272,22.1170176 13.1174208,22.0891968 C14.6245824,22.0612032 15.579432,20.7198 16.5020112,19.3720032 C17.568792,17.8131744 18.0080496,16.3039824 18.0339696,16.2265248 C18.0004896,16.211232 15.0950304,15.098184 15.0659136,11.7523872 Z M12.280896,3.5320752 C13.0528368,2.5955424 13.573872,1.296216 13.431744,0 C12.3198192,0.0452736 10.9720224,0.740664 10.174248,1.67508 C9.458424,2.5040016 8.831808,3.8270016 8.9997264,5.0972976 C10.2410352,5.194152 11.5081344,4.4664912 12.280896,3.5320752 Z" id="Shape"></path>
                </g>
            </g>
        </g>
    </g>
</svg>