<?xml version="1.0" encoding="UTF-8"?>
<svg width="44px" height="43px" viewBox="0 0 44 43" version="1.1" xmlns="http://www.w3.org/2000/svg" xmlns:xlink="http://www.w3.org/1999/xlink">
    <!-- Generator: Sketch 47.1 (45422) - http://www.bohemiancoding.com/sketch -->
    <title>video downloader</title>
    <desc>Created with Sketch.</desc>
    <defs></defs>
    <g id="Page-1" stroke="none" stroke-width="1" fill="none" fill-rule="evenodd">
        <g id="Preferences-Connect" transform="translate(-416.000000, -696.000000)" fill-rule="nonzero" fill="#C9C9CA">
            <g id="video-downloader" transform="translate(416.777344, 695.790039)">
                <path d="M0.0128362971,11.6633155 L42.7922688,11.6633155 L42.7922688,36.4713828 C42.7922688,39.7431673 40.2608579,42.3985285 37.1354843,42.3985285 L5.66962076,42.3985285 C2.54707573,42.3985285 0.0128362971,39.7431673 0.0128362971,36.4713828 L0.0128362971,11.6633155 Z M14.9184634,29.166176 C14.3669269,29.7440727 14.3669269,30.6835252 14.9184634,31.261422 L20.5752478,37.1885676 C21.1267843,37.7664641 22.0233846,37.7664641 22.5749211,37.1885676 L28.2317057,31.261422 C28.7945556,30.6924161 28.8086977,29.7559272 28.2656463,29.166176 C27.722595,28.5764251 26.828823,28.5616072 26.265973,29.1306132 C26.2546594,29.1424674 26.2433458,29.1543218 26.2320323,29.166176 L22.9906948,32.5653941 L22.9906948,17.1755608 C22.9906948,16.3576147 22.3571349,15.6937744 21.5764987,15.6937744 C21.514274,15.6937744 21.4520494,15.696738 21.3898248,15.7056287 C20.6996971,15.8034266 20.1623025,16.4257769 20.1623025,17.1755608 L20.1623025,32.5653941 L16.920965,29.166176 C16.3694286,28.5882794 15.4756566,28.5853158 14.9184634,29.166176 C14.9212917,29.1632125 14.9212917,29.166176 14.9184634,29.166176 Z" id="Combined-Shape"></path>
                <path d="M26.4724456,0.970745033 L21.174867,8.65528915 L28.6927334,8.65528915 L33.9903121,0.970745033 L26.4724456,0.970745033 Z M15.9168858,0.970745033 L10.6193072,8.65528915 L17.8713048,8.65528915 L23.1688835,0.970745033 L15.9168858,0.970745033 Z M37.299531,0.985562896 L37.299531,0.973708606 L37.2938743,0.973708606 L31.9962956,8.65825272 L42.8318661,8.65825272 L42.8318661,6.90085408 C42.8346946,3.6705598 40.3655082,1.05372507 37.299531,0.985562896 Z M5.66962076,0.970745033 C2.54707573,0.970745033 0.0128362971,3.62610621 0.0128362971,6.89789052 L0.0128362971,8.65528915 L4.95969431,8.65528915 L4.98514984,8.62268985 L4.98232144,8.65528915 L7.31574503,8.65528915 L12.6133237,0.970745033 L5.66962076,0.970745033 Z" id="Shape"></path>
            </g>
        </g>
    </g>
</svg>