<?xml version="1.0" encoding="utf-8"?>
<svg version="1.1" id="connect-button" fill="#616161" fill-opacity="0.8" x="0px" y="0px" width="32px" height="32px" viewBox="0 0 500 500" xmlns="http://www.w3.org/2000/svg">
  <path d="M 407.09 181.069 L 363.131 181.069 L 363.131 135.915 C 363.138 112.957 354.197 91.362 337.964 75.128 C 321.73 58.895 300.135 49.956 277.172 49.956 L 93.791 49.956 C 46.392 49.956 7.832 88.521 7.832 135.915 L 7.832 232.233 C 7.832 279.634 46.399 318.199 93.791 318.199 L 137.75 318.199 L 137.75 363.36 C 137.75 410.759 176.317 449.319 223.723 449.319 L 407.09 449.319 C 454.489 449.319 493.049 410.759 493.049 363.36 L 493.049 267.04 C 493.049 219.634 454.489 181.069 407.09 181.069 Z M 327.429 232.247 C 327.429 259.966 304.89 282.511 277.189 282.511 L 173.457 282.511 L 173.457 267.04 C 173.457 239.328 196.004 216.783 223.723 216.783 L 327.429 216.783 L 327.429 232.247 Z M 173.457 318.218 L 277.165 318.218 C 324.564 318.218 363.124 279.651 363.124 232.247 L 363.124 216.783 L 407.083 216.783 C 434.797 216.783 457.335 239.328 457.335 267.04 L 457.335 363.365 C 457.335 391.079 434.79 413.617 407.083 413.617 L 223.723 413.617 C 196.004 413.617 173.457 391.072 173.457 363.365 L 173.457 318.218 Z M 43.539 135.915 C 43.539 108.208 66.084 85.663 93.791 85.663 L 277.165 85.663 C 304.871 85.663 327.41 108.208 327.41 135.915 L 327.41 181.069 L 223.723 181.069 C 176.317 181.069 137.75 219.634 137.75 267.04 L 137.75 282.511 L 93.791 282.511 C 66.084 282.511 43.539 259.966 43.539 232.247 L 43.539 135.915 Z"/>
</svg>
