<?xml version="1.0" encoding="UTF-8"?>
<svg width="44px" height="44px" viewBox="0 0 44 44" version="1.1" xmlns="http://www.w3.org/2000/svg" xmlns:xlink="http://www.w3.org/1999/xlink">
    <!-- Generator: Sketch 47.1 (45422) - http://www.bohemiancoding.com/sketch -->
    <title>tab receive</title>
    <desc>Created with Sketch.</desc>
    <defs></defs>
    <g id="Page-1" stroke="none" stroke-width="1" fill="none" fill-rule="evenodd">
        <g id="Preferences-Connected" transform="translate(-558.000000, -699.000000)">
            <g id="tab-receive" transform="translate(558.366888, 699.290039)">
                <path d="M19.6106875,9.21428571 C19.6106875,7.51885714 18.4066875,6.14285714 16.9231875,6.14285714 L8.0625,6.14285714 C6.579,6.14285714 5.375,7.51885714 5.375,9.21428571 L5.375,12.2857143 L19.6106875,12.2857143 L19.6106875,9.21428571 Z" id="Shape"></path>
                <path d="M34.9375,9.25114286 L24.9856875,9.25114286 L24.9856875,9.21428571 C24.9856875,4.12492857 21.376375,0 16.9231875,0 L8.0625,0 C3.6093125,0 0,4.12492857 0,9.21428571 L0,33.7857143 C0,38.8750714 3.6093125,43 8.0625,43 L37.625,43 C40.5946875,43 43,40.2510714 43,36.8571429 L43,22.7070714 L43,22.4214286 L43,18.4654286 C43,13.3760714 39.3906875,9.25114286 34.9375,9.25114286 Z M5.375,9.21428571 C5.375,7.51885714 6.579,6.14285714 8.0625,6.14285714 L16.9231875,6.14285714 C18.4066875,6.14285714 19.6106875,7.51885714 19.6106875,9.21428571 L19.6106875,12.2365714 L5.375,12.2365714 L5.375,9.21428571 Z M37.625,22.4214286 L37.625,22.7070714 L37.625,33.7857143 C37.625,35.4811429 36.421,36.8571429 34.9375,36.8571429 L8.0625,36.8571429 C6.579,36.8571429 5.375,35.4811429 5.375,33.7857143 L5.375,15.3909286 L34.9375,15.3909286 C36.421,15.3909286 37.625,16.7669286 37.625,18.4623571 L37.625,22.4214286 Z" id="Shape" fill="#0C0C0D" fill-rule="nonzero"></path>
                <path d="M16.426,22.5043571 C15.68425,22.5043571 15.08225,23.1923571 15.08225,24.0400714 L15.08225,32.7260714 C15.08225,33.5737857 15.68425,34.2617857 16.426,34.2617857 L24.02625,34.2617857 C24.768,34.2771429 25.38075,33.6014286 25.3941875,32.7537143 C25.407625,31.906 24.816375,31.2057143 24.074625,31.1903571 C24.0585,31.1903571 24.042375,31.1903571 24.0289375,31.1903571 L19.6725,31.1934286 L29.541,19.9151429 C30.0650625,19.3162143 30.0650625,18.3425714 29.541,17.7436429 C29.498,17.6945 29.455,17.6515 29.406625,17.6085 C28.879875,17.1477857 28.122,17.1907857 27.6409375,17.7436429 L17.7724375,29.0219286 L17.775125,24.0431429 C17.775125,23.1954286 17.1758125,22.5074286 16.4340625,22.5043571 C16.4286875,22.5043571 16.426,22.5043571 16.426,22.5043571 Z" id="Shape" fill="#0C0C0D" fill-rule="nonzero"></path>
            </g>
        </g>
    </g>
</svg>