<?xml version="1.0" encoding="UTF-8"?>
<svg width="57px" height="53px" viewBox="0 0 57 53" version="1.1" xmlns="http://www.w3.org/2000/svg" xmlns:xlink="http://www.w3.org/1999/xlink">
    <!-- Generator: Sketch 47.1 (45422) - http://www.bohemiancoding.com/sketch -->
    <title>Send tab with android</title>
    <desc>Created with Sketch.</desc>
    <defs></defs>
    <g id="Page-1" stroke="none" stroke-width="1" fill="none" fill-rule="evenodd">
        <g id="Artboard" transform="translate(-15.000000, -13.000000)">
            <g id="Send-tab-with-android" transform="translate(15.000000, 13.000000)">
                <g id="Send-tab-with-android1" transform="translate(0.000000, 9.000000)">
                    <g id="icon-send-tab-plus-android">
                        <g id="tab-sent" transform="translate(0.939822, 0.596697)">
                            <path d="M19.6,9.2 C19.6,7.5 18.4,6.1 16.9,6.1 L8.1,6.1 C6.6,6.1 5.4,7.5 5.4,9.2 L5.4,12.3 L19.6,12.3 L19.6,9.2 L19.6,9.2 Z" id="Shape"></path>
                            <path d="M34.9,9.3 L25,9.3 L25,9.3 C25,4.1 21.4,0 16.9,0 L8.1,0 C3.6,0 0,4.1 0,9.2 L0,33.8 C0,38.9 3.6,43 8.1,43 L37.7,43 C40.7,43 43.1,40.3 43.1,36.9 L43.1,22.7 L43.1,22.4 L43.1,18.4 C43,13.4 39.4,9.3 34.9,9.3 Z M5.4,9.2 C5.4,7.5 6.6,6.1 8.1,6.1 L17,6.1 C18.5,6.1 19.7,7.5 19.7,9.2 L19.7,12.2 L5.4,12.2 L5.4,9.2 Z M37.6,22.4 L37.6,22.7 L37.6,33.8 C37.6,35.5 36.4,36.9 34.9,36.9 L8.1,36.9 C6.6,36.9 5.4,35.5 5.4,33.8 L5.4,15.4 L35,15.4 C36.5,15.4 37.7,16.8 37.7,18.5 L37.7,22.4 L37.6,22.4 Z" id="Shape_1_" fill="#C3C3C3" fill-rule="nonzero"></path>
                            <path d="M30.2,27.5 L30.2,18.8 C30.2,18 29.6,17.3 28.9,17.3 L21.3,17.3 C20.6,17.3 19.9,18 19.9,18.8 C19.9,19.6 20.5,20.3 21.2,20.4 C21.2,20.4 21.2,20.4 21.2,20.4 L25.6,20.4 L15.8,31.7 C15.3,32.3 15.3,33.3 15.8,33.9 C15.8,33.9 15.9,34 15.9,34 C16.4,34.5 17.2,34.4 17.7,33.9 L27.5,22.6 L27.5,27.6 C27.5,28.4 28.1,29.1 28.8,29.1 C29.6,29 30.2,28.3 30.2,27.5 Z" id="Shape_2_" fill="#C3C3C3" fill-rule="nonzero"></path>
                        </g>
                    </g>
                </g>
            </g>
        </g>
    </g>
</svg>
