<?xml version="1.0" encoding="UTF-8"?>
<svg width="44px" height="44px" viewBox="0 0 44 44" version="1.1" xmlns="http://www.w3.org/2000/svg" xmlns:xlink="http://www.w3.org/1999/xlink">
    <!-- Generator: Sketch 47.1 (45422) - http://www.bohemiancoding.com/sketch -->
    <title>tab sent</title>
    <desc>Created with Sketch.</desc>
    <defs></defs>
    <g id="Page-1" stroke="none" stroke-width="1" fill="none" fill-rule="evenodd">
        <g id="Preferences-Connect" transform="translate(-736.000000, -697.000000)">
            <g id="tab-sent" transform="translate(736.914062, 697.790039)">
                <path d="M19.6106875,9.21428571 C19.6106875,7.51885714 18.4066875,6.14285714 16.9231875,6.14285714 L8.0625,6.14285714 C6.579,6.14285714 5.375,7.51885714 5.375,9.21428571 L5.375,12.2857143 L19.6106875,12.2857143 L19.6106875,9.21428571 Z" id="Shape"></path>
                <path d="M34.9375,9.25114286 L24.9856875,9.25114286 L24.9856875,9.21428571 C24.9856875,4.12492857 21.376375,0 16.9231875,0 L8.0625,0 C3.6093125,0 0,4.12492857 0,9.21428571 L0,33.7857143 C0,38.8750714 3.6093125,43 8.0625,43 L37.625,43 C40.5946875,43 43,40.2510714 43,36.8571429 L43,22.7070714 L43,22.4214286 L43,18.4654286 C43,13.3760714 39.3906875,9.25114286 34.9375,9.25114286 Z M5.375,9.21428571 C5.375,7.51885714 6.579,6.14285714 8.0625,6.14285714 L16.9231875,6.14285714 C18.4066875,6.14285714 19.6106875,7.51885714 19.6106875,9.21428571 L19.6106875,12.2365714 L5.375,12.2365714 L5.375,9.21428571 Z M37.625,22.4214286 L37.625,22.7070714 L37.625,33.7857143 C37.625,35.4811429 36.421,36.8571429 34.9375,36.8571429 L8.0625,36.8571429 C6.579,36.8571429 5.375,35.4811429 5.375,33.7857143 L5.375,15.3909286 L34.9375,15.3909286 C36.421,15.3909286 37.625,16.7669286 37.625,18.4623571 L37.625,22.4214286 Z" id="Shape" fill="#C9C9CA" fill-rule="nonzero"></path>
                <path d="M28.879875,29.0311429 C29.621625,29.0280714 30.2209375,28.337 30.21825,27.4892857 L30.1833125,18.8032857 C30.180625,17.9555714 29.5759375,17.2706429 28.8341875,17.2737143 L21.2339375,17.3136429 C20.4895,17.3013571 19.882125,17.9801429 19.871375,18.8309286 C19.8633125,19.6786429 20.45725,20.3727857 21.199,20.3850714 C21.215125,20.3850714 21.23125,20.3850714 21.2446875,20.3850714 L25.601125,20.3605 L15.7783125,31.691 C15.2569375,32.293 15.259625,33.2666429 15.786375,33.8625 C15.829375,33.9116429 15.8750625,33.9546429 15.92075,33.9945714 C16.4501875,34.4522143 17.2080625,34.4061429 17.6864375,33.8502143 L27.50925,22.5197143 L27.5280625,27.4985 C27.53075,28.3462143 28.1354375,29.0311429 28.8771875,29.0280714 C28.8771875,29.0311429 28.879875,29.0311429 28.879875,29.0311429 Z" id="Shape" fill="#C9C9CA" fill-rule="nonzero"></path>
            </g>
        </g>
    </g>
</svg>