<?xml version="1.0" encoding="UTF-8" standalone="no"?>
<svg width="23px" height="23px" viewBox="0 0 23 23" version="1.1" xmlns="http://www.w3.org/2000/svg" xmlns:xlink="http://www.w3.org/1999/xlink">
    <!-- Generator: Sketch 43.1 (39012) - http://www.bohemiancoding.com/sketch -->
    <title>Page 1 Copy</title>
    <desc>Created with Sketch.</desc>
    <defs>
        <polygon id="path-1" points="1.4149525e-15 21.4687933 1.4149525e-15 0.0415249972 16.9137313 0.0415249972 16.9137313 21.4687933 0 21.4687933"></polygon>
        <polygon id="path-3" points="0 21.9924851 22.3271752 21.9924851 22.3271752 0.564747194 0 0.564747194"></polygon>
    </defs>
    <g id="Welcome" stroke="none" stroke-width="1" fill="none" fill-rule="evenodd">
        <g id="History-Tool-Beta-Feedback-form" transform="translate(-1003.000000, -1111.000000)">
            <g id="Page-1-Copy" transform="translate(1015.040480, 1122.195605) scale(1, -1) translate(-1015.040480, -1122.195605) translate(1003.540480, 1110.695605)">
                <g id="Group-3" transform="translate(0.000000, 0.523504)">
                    <mask id="mask-2" fill="white">
                        <use xlink:href="#path-1"></use>
                    </mask>
                    <g id="Clip-2"></g>
                    <path d="M11.4644358,0.0702261667 C11.4644358,0.258362237 11.4638709,0.431244031 11.4644358,0.604125825 C11.4700856,1.77588021 11.4440968,2.94876454 11.4892947,4.118824 C11.5424021,5.47701953 12.0842114,6.65103381 13.0102025,7.6414318 C14.0288491,8.73070009 15.27518,9.46403529 16.6813982,9.93239805 C16.8604947,9.99172024 16.9062575,10.0685566 16.9062575,10.2482181 C16.9000428,13.2798642 16.8797038,16.3120752 16.9136022,19.3431564 C16.9254666,20.4629332 16.1186849,21.4855347 14.7796985,21.4685855 C12.6779982,21.4431617 10.576298,21.4646307 8.47403278,21.4612408 C6.88645813,21.458416 5.29888349,21.4601109 3.71187381,21.4335571 C3.37910461,21.4279074 3.03334102,21.3476812 2.7197809,21.2307318 C1.90565455,20.9267762 1.53503214,20.2810119 1.42147253,19.4454165 C1.28757388,18.465753 1.13390118,17.4883494 0.982488366,16.5109458 C0.662148571,14.4437089 0.329944339,12.3787319 0.0175141687,10.3103651 C-0.143503189,9.24313077 0.823165928,8.2374785 2.00169999,8.23239375 C3.59661928,8.22617904 5.19153858,8.23069883 6.78758782,8.23069883 C7.19549846,8.23069883 7.60397407,8.23408867 8.01244969,8.23013385 C8.63448516,8.22391915 9.01358217,7.84199728 9.01414714,7.22165672 C9.01471211,5.70187886 8.99945784,4.18210099 9.02262174,2.6628881 C9.02883644,2.21542934 9.10171798,1.75836604 9.21640754,1.32503161 C9.47573023,0.336328536 10.2570881,-0.0761018878 11.4644358,0.0702261667" id="Fill-1" fill="#AFAFAF" mask="url(#mask-2)"></path>
                </g>
                <mask id="mask-4" fill="white">
                    <use xlink:href="#path-3"></use>
                </mask>
                <g id="Clip-5"></g>
                <polygon id="Fill-4" fill="#B1B1B1" mask="url(#mask-4)" points="18.8277313 21.3309015 22.3266103 21.3309015 22.3266103 9.94160712 18.8277313 9.94160712"></polygon>
            </g>
        </g>
    </g>
</svg>