<?xml version="1.0" encoding="utf-8"?>
<svg width="16px" height="18px" viewBox="0 0 16 18" xmlns="http://www.w3.org/2000/svg">
  <title>Group 2</title>
  <desc>Created with Sketch.</desc>
  <path d="M 12.53 1.957 L 12.53 0 L 3.53 0 L 3.53 1.957 L 0.555 1.957 L 0.555 4.957 L 2.545 4.957 L 2.545 17.207 L 13.516 17.207 L 13.516 4.957 L 15.505 4.957 L 15.505 1.957 Z M 1.555 2.957 L 14.505 2.957 L 14.505 3.957 L 1.555 3.957 Z M 7.47 7 L 7.47 14.083 L 8.47 14.083 L 8.47 7 Z M 5.53 7 L 5.53 14.083 L 6.53 14.083 L 6.53 7 Z M 9.53 7 L 9.53 14.083 L 10.53 14.083 L 10.53 7 Z M 11.53 1 L 11.53 1.934 L 4.53 1.934 L 4.53 1 Z M 3.545 4.984 L 12.516 4.984 L 12.516 16.207 L 3.545 16.207 Z" id="Line-Copy-3" style="fill: rgb(161, 161, 161);"/>
</svg>