<?xml version="1.0" encoding="UTF-8" standalone="no"?>
<svg width="181px" height="181px" viewBox="0 0 181 181" version="1.1" xmlns="http://www.w3.org/2000/svg" xmlns:xlink="http://www.w3.org/1999/xlink" xmlns:sketch="http://www.bohemiancoding.com/sketch/ns">
    <!-- Generator: Sketch 3.4.4 (17249) - http://www.bohemiancoding.com/sketch -->
    <title>Artboard</title>
    <desc>Created with Sketch.</desc>
    <defs></defs>
    <g id="Page-1" stroke="none" stroke-width="1" fill="none" fill-rule="evenodd" sketch:type="MSPage">
        <g id="Artboard" sketch:type="MSArtboardGroup">
            <g id="Group" sketch:type="MSLayerGroup" transform="translate(10.000000, 1.000000)">
                <path d="M155.126481,89.5 C155.126481,134.548333 94.7514815,173.033333 80.5894444,173.033333 C66.4274074,173.033333 6.05240741,134.548333 6.05240741,89.5 L6.05240741,8.95 C20.93,17.005 53.0703704,20.2866667 80.5596296,20.2866667 C108.048889,20.2866667 140.248889,17.005 155.126481,8.95 L155.126481,89.5 L155.126481,89.5 Z M159.240926,0.298333333 C158.137778,1.35762235e-12 156.855741,1.35762235e-12 155.991111,0.895 C148.209444,8.65465 117.202037,14.32 80.5596296,14.32 C43.3805556,14.32 13.0887037,8.95 5.18777778,0.895 C4.32314815,1.35762235e-12 3.04111111,1.35762235e-12 1.93796296,0.298333333 C0.805,0.895 0.0894444444,1.78701667 0.0894444444,2.98631667 L0.0894444444,89.5 C0.0894444444,139.921317 64.3105556,179 80.5894444,179 C96.8683333,179 161.089444,139.921317 161.089444,89.5 L161.089444,2.98631667 C161.089444,1.78701667 160.373889,0.895 159.240926,0.298333333 L159.240926,0.298333333 Z" id="Fill-5282" fill="#9B9B9B" sketch:type="MSShapeGroup"></path>
                <path d="M47.7931481,134.25 C47.7931481,136.04 49.1348148,137.233333 50.7746296,137.233333 C52.4144444,137.233333 53.7561111,136.04 53.7561111,134.25 C53.7561111,119.631667 65.8012963,107.4 80.5894444,107.4 C95.3775926,107.4 107.422778,119.631667 107.422778,134.25 C107.422778,136.04 108.764444,137.233333 110.404259,137.233333 C112.044074,137.233333 113.385741,136.04 113.385741,134.25 C113.385741,116.35 98.6572222,101.433333 80.5894444,101.433333 C62.4918519,101.433333 47.7931481,116.35 47.7931481,134.25" id="Fill-5283" fill="#0A0B09" sketch:type="MSShapeGroup"></path>
                <path d="M59.7190741,53.7 C59.7190741,52.2083333 58.3774074,50.7166667 56.7375926,50.7166667 C55.0977778,50.7166667 53.7561111,52.2083333 53.7561111,53.7 C53.7561111,60.2663167 48.4192593,65.6333333 41.8301852,65.6333333 C35.2411111,65.6333333 29.9042593,60.2663167 29.9042593,53.7 C29.9042593,52.2083333 28.5625926,50.7166667 26.9227778,50.7166667 C25.282963,50.7166667 23.9412963,52.2083333 23.9412963,53.7 C23.9412963,63.545 31.9614815,71.6 41.8301852,71.6 C51.6988889,71.6 59.7190741,63.545 59.7190741,53.7" id="Fill-5284" fill="#0A0B09" sketch:type="MSShapeGroup"></path>
                <path d="M119.348704,71.6 C129.217407,71.6 137.237593,63.545 137.237593,53.7 C137.237593,52.2083333 135.895926,50.7166667 134.256111,50.7166667 C132.616296,50.7166667 131.27463,52.2083333 131.27463,53.7 C131.27463,60.2663167 125.937778,65.6333333 119.348704,65.6333333 C112.75963,65.6333333 107.422778,60.2663167 107.422778,53.7 C107.422778,52.2083333 106.081111,50.7166667 104.441296,50.7166667 C102.801481,50.7166667 101.459815,52.2083333 101.459815,53.7 C101.459815,63.545 109.48,71.6 119.348704,71.6" id="Fill-5285" fill="#0A0B09" sketch:type="MSShapeGroup"></path>
            </g>
        </g>
    </g>
</svg>