<?xml version="1.0" encoding="UTF-8" standalone="no"?>
<svg width="14px" height="14px" viewBox="0 0 14 14" version="1.1" xmlns="http://www.w3.org/2000/svg" xmlns:xlink="http://www.w3.org/1999/xlink">
    <!-- Generator: Sketch 41.2 (35397) - http://www.bohemiancoding.com/sketch -->
    <title>Shape</title>
    <desc>Created with Sketch.</desc>
    <defs></defs>
    <g id="Symbols" stroke="none" stroke-width="1" fill="none" fill-rule="evenodd">
        <g id="EZ---Clock" fill="#D8D8D8">
            <path d="M7,0 C3.14084967,0 0,3.14084967 0,7 C0,10.8591503 3.14084967,14 7,14 C10.8591503,14 14,10.8591503 14,7 C14,3.14084967 10.8591503,0 7,0 L7,0 Z M6.65228758,1.3245098 C6.65228758,1.13235294 6.80784314,0.976797386 7,0.976797386 C7.19215686,0.976797386 7.34771242,1.13235294 7.34771242,1.3245098 L7.34771242,2.29673203 C7.34771242,2.48888889 7.19215686,2.64444444 7,2.64444444 C6.80784314,2.64444444 6.65228758,2.48888889 6.65228758,2.29673203 L6.65228758,1.3245098 L6.65228758,1.3245098 Z M2.71993464,2.74738562 C2.85718954,2.61013072 3.07679739,2.61013072 3.21405229,2.74738562 L3.9003268,3.43366013 C4.0375817,3.57091503 4.0375817,3.79052288 3.9003268,3.92777778 C3.83169935,3.99640523 3.74248366,4.03071895 3.65326797,4.03071895 C3.56405229,4.03071895 3.4748366,3.99640523 3.40620915,3.92777778 L2.71993464,3.24150327 C2.58267974,3.10424837 2.58267974,2.88464052 2.71993464,2.74738562 L2.71993464,2.74738562 Z M2.26699346,7.37745098 L1.29477124,7.37745098 C1.10261438,7.37745098 0.947058824,7.22189542 0.947058824,7.02973856 C0.947058824,6.8375817 1.10261438,6.67973856 1.29477124,6.67973856 L2.26699346,6.67973856 C2.45915033,6.67973856 2.61470588,6.83529412 2.61470588,7.02745098 C2.61470588,7.21960784 2.45915033,7.37745098 2.26699346,7.37745098 L2.26699346,7.37745098 Z M3.9003268,10.6212418 L3.21405229,11.3075163 C3.14542484,11.3761438 3.05620915,11.4104575 2.96699346,11.4104575 C2.87777778,11.4104575 2.78856209,11.3761438 2.71993464,11.3075163 C2.58267974,11.1702614 2.58267974,10.9506536 2.71993464,10.8133987 L3.40620915,10.1271242 C3.54346405,9.98986928 3.7630719,9.98986928 3.9003268,10.1271242 C4.03529412,10.2643791 4.03529412,10.4862745 3.9003268,10.6212418 L3.9003268,10.6212418 Z M7.34771242,12.7326797 C7.34771242,12.9248366 7.19215686,13.0803922 7,13.0803922 C6.80784314,13.0803922 6.65228758,12.9248366 6.65228758,12.7326797 L6.65228758,11.7604575 C6.65228758,11.5683007 6.80784314,11.4127451 7,11.4127451 C7.19215686,11.4127451 7.34771242,11.5683007 7.34771242,11.7604575 L7.34771242,12.7326797 L7.34771242,12.7326797 Z M7.74803922,7.31339869 C7.59477124,7.72973856 7.13267974,7.94477124 6.71405229,7.79379085 C6.62712418,7.76176471 6.55163399,7.70915033 6.48300654,7.65196078 L2.92352941,8.30849673 L6.19019608,7.04575163 C6.19019608,6.9496732 6.19934641,6.85588235 6.23366013,6.7620915 C6.35490196,6.42810458 6.6751634,6.23366013 7.00915033,6.24281046 L8.8872549,2.5254902 L7.69542484,6.66601307 C7.80065359,6.85816993 7.83039216,7.08921569 7.74803922,7.31339869 L7.74803922,7.31339869 Z M11.2800654,11.3098039 C11.2114379,11.3784314 11.1222222,11.4127451 11.0330065,11.4127451 C10.9437908,11.4127451 10.8545752,11.3784314 10.7859477,11.3098039 L10.0996732,10.6235294 C9.9624183,10.4862745 9.9624183,10.2666667 10.0996732,10.1294118 C10.2369281,9.99215686 10.4565359,9.99215686 10.5937908,10.1294118 L11.2800654,10.8156863 C11.4173203,10.9529412 11.4173203,11.172549 11.2800654,11.3098039 L11.2800654,11.3098039 Z M11.2800654,3.24150327 L10.5937908,3.92777778 C10.5251634,3.99640523 10.4359477,4.03071895 10.346732,4.03071895 C10.2575163,4.03071895 10.1683007,3.99640523 10.0996732,3.92777778 C9.9624183,3.79052288 9.9624183,3.57091503 10.0996732,3.43366013 L10.7859477,2.74738562 C10.9232026,2.61013072 11.1428105,2.61013072 11.2800654,2.74738562 C11.4173203,2.88464052 11.4173203,3.10424837 11.2800654,3.24150327 L11.2800654,3.24150327 Z M12.7052288,7.37745098 L11.7330065,7.37745098 C11.5408497,7.37745098 11.3852941,7.22189542 11.3852941,7.02973856 C11.3852941,6.8375817 11.5408497,6.68202614 11.7330065,6.68202614 L12.7052288,6.68202614 C12.8973856,6.68202614 13.0529412,6.8375817 13.0529412,7.02973856 C13.0529412,7.22189542 12.8973856,7.37745098 12.7052288,7.37745098 L12.7052288,7.37745098 Z" id="Shape"></path>
        </g>
    </g>
</svg>