<?xml version="1.0" encoding="UTF-8" standalone="no"?>
<svg width="40px" height="40px" viewBox="0 0 40 40" version="1.1" xmlns="http://www.w3.org/2000/svg" xmlns:xlink="http://www.w3.org/1999/xlink" xmlns:sketch="http://www.bohemiancoding.com/sketch/ns">
    <!-- Generator: Sketch 3.4.4 (17249) - http://www.bohemiancoding.com/sketch -->
    <title>Rectangle 3 + anti-tracking-on</title>
    <desc>Created with Sketch.</desc>
    <defs></defs>
    <g id="Page-1" stroke="none" stroke-width="1" fill="none" fill-rule="evenodd" sketch:type="MSPage">
        <g id="Artboard-1" sketch:type="MSArtboardGroup" transform="translate(-418.000000, -336.000000)">
            <g id="Popup" sketch:type="MSLayerGroup" transform="translate(363.000000, 134.000000)">
                <g id="Features" transform="translate(55.000000, 122.000000)" sketch:type="MSShapeGroup">
                    <g id="Rectangle-3-+-anti-tracking-on" transform="translate(0.000000, 80.000000)">
                        <rect id="Rectangle-3" fill="#74D463" x="0" y="0" width="40" height="40" rx="4"></rect>
                        <path d="M20.2921062,7.02101275 C20.2127739,6.99299575 20.1262161,6.99299575 20.0468837,7.02101275 L9.24603354,10.8297033 C9.09864935,10.8816822 9,11.02103 9,11.1773354 C9,15.0317379 10.0199664,19.4874001 11.7984564,23.4019655 C13.2410372,26.5773965 15.8351906,30.8131253 20.0006556,32.9590804 C20.0536668,32.9863601 20.111544,33 20.169495,33 C20.2274459,33 20.2853232,32.9863601 20.3383343,32.9590804 C24.5037256,30.8131253 27.0978053,26.5773965 28.5404598,23.4019655 C30.318876,19.4874001 31.3388425,15.0317379 31.3388425,11.1773354 C31.3388425,11.02103 31.2401931,10.8816822 31.0928089,10.8297033 L20.2921062,7.02101275 Z M21.9199314,24.5098394 L23.0076665,22.3883539 L25.3371522,24.5582646 C25.3371522,24.5582646 26.1168561,23.9218191 25.9772795,23.7604017 C25.2866158,23.0132696 23.6477937,21.590491 23.6477937,21.590491 L25.580208,20.9540455 L19.6433885,18.2076447 L21.9199314,24.5098394 Z M25.5783337,19.7915052 C25.6538432,19.428128 25.6915979,19.0505932 25.6915979,18.6612604 C25.6915979,15.5489579 23.2965318,13.0666667 19.9575972,13.0666667 C16.6186626,13.0666667 14.2,15.589071 14.2,18.6612604 C14.2,21.7735629 16.5950659,24.2558541 19.9340005,24.2558541 C20.1463709,24.2558541 20.361101,24.2440562 20.5734714,24.2181007 C20.3351446,23.5149421 20.0850194,22.7622321 19.8325346,22.0472756 C17.9872719,21.9835666 16.6847334,20.4663486 16.6847334,18.6471028 L16.6847334,18.6211473 C16.6847334,16.7641481 18.0155879,15.2469301 19.9222021,15.2469301 C21.8288164,15.2469301 23.1809079,16.7806652 23.1950659,18.6140686 C23.9973541,19.0269972 24.7878439,19.41633 25.5783337,19.7915052 Z" id="anti-tracking-on" fill="#FFFFFF"></path>
                    </g>
                </g>
            </g>
        </g>
    </g>
</svg>