<?xml version="1.0" encoding="UTF-8" standalone="no"?>
<svg width="24px" height="24px" viewBox="0 0 24 24" version="1.1" xmlns="http://www.w3.org/2000/svg" xmlns:xlink="http://www.w3.org/1999/xlink" xmlns:sketch="http://www.bohemiancoding.com/sketch/ns">
    <!-- Generator: Sketch 3.4 (15575) - http://www.bohemiancoding.com/sketch -->
    <title>question mark</title>
    <desc>Created with Sketch.</desc>
    <defs></defs>
    <g id="mini-onboarding" stroke="none" stroke-width="1" fill="none" fill-rule="evenodd" sketch:type="MSPage">
        <g id="Artboard-3" sketch:type="MSArtboardGroup" transform="translate(-532.000000, -269.000000)">
            <g id="question-mark" sketch:type="MSLayerGroup" transform="translate(533.000000, 270.000000)">
                <g id="question58" transform="translate(7.000000, 5.000000)" fill="#999999" sketch:type="MSShapeGroup">
                    <path d="M3.94805217,13 L3.89013342,12.9990714 C2.99809344,12.9721429 2.36919614,12.3031071 2.39450709,11.4084286 C2.41936199,10.5290714 3.06353707,9.89067857 3.92616162,9.89067857 L3.97792365,9.89160714 C4.89481852,9.91923214 5.516647,10.5815357 5.49087999,11.5019821 C5.46534102,12.3838929 4.8311991,13 3.94805217,13 L3.94805217,13 Z M7.7002295,5.41844643 C7.49044505,5.72185714 7.02914729,6.098625 6.44790754,6.55966071 L5.80783694,7.00955357 C5.45644798,7.28766071 5.24438326,7.54928571 5.16480199,7.80673214 C5.10209468,8.00939286 5.07131109,8.06301786 5.06583845,8.47530357 L5.06492635,8.58 L2.62093748,8.58 L2.62800631,8.36944643 C2.65787779,7.50401786 2.67885624,6.99492857 3.0311573,6.57428571 C3.58389372,5.91360714 4.80315183,5.11433929 4.85491387,5.08044643 C5.02958223,4.9465 5.17688739,4.79398214 5.28656818,4.63101786 C5.54309808,4.27096429 5.65665531,3.98751786 5.65665531,3.70894643 C5.65665531,3.32242857 5.54401019,2.96492857 5.32122822,2.64666071 C5.10711126,2.33953571 4.70031185,2.184 4.11200328,2.184 C3.52848326,2.184 3.1289807,2.3725 2.89000885,2.75925 C2.6441962,3.15691071 2.51992171,3.57453571 2.51992171,4.00121429 L2.51992171,4.10730357 L0,4.10730357 L0.00456053156,3.99657143 C0.0695481062,2.42519643 0.620460318,1.29373214 1.64133531,0.633517857 C2.28277407,0.213107143 3.08086709,0 4.01212764,0 C5.23115772,0 6.26024167,0.301553571 7.0704201,0.896303571 C7.89131578,1.49894643 8.30769231,2.40151786 8.30769231,3.57894643 C8.30769231,4.23753571 8.10338049,4.85619643 7.7002295,5.41844643 L7.7002295,5.41844643 Z" id="Shape"></path>
                </g>
                <circle id="Oval-1" stroke="#999999" stroke-width="2" sketch:type="MSShapeGroup" cx="11" cy="11" r="11"></circle>
            </g>
        </g>
    </g>
</svg>