<?xml version="1.0" encoding="UTF-8" standalone="no"?>
<svg width="40px" height="40px" viewBox="0 0 40 40" version="1.1" xmlns="http://www.w3.org/2000/svg" xmlns:xlink="http://www.w3.org/1999/xlink" xmlns:sketch="http://www.bohemiancoding.com/sketch/ns">
    <!-- Generator: Sketch 3.4.4 (17249) - http://www.bohemiancoding.com/sketch -->
    <title>Rectangle 3 + Shape</title>
    <desc>Created with Sketch.</desc>
    <defs></defs>
    <g id="Page-1" stroke="none" stroke-width="1" fill="none" fill-rule="evenodd" sketch:type="MSPage">
        <g id="Artboard-1" sketch:type="MSArtboardGroup" transform="translate(-418.000000, -258.000000)">
            <g id="Popup" sketch:type="MSLayerGroup" transform="translate(363.000000, 134.000000)">
                <g id="Rectangle-3-+-Shape" transform="translate(55.000000, 124.000000)" sketch:type="MSShapeGroup">
                    <rect id="Rectangle-3" fill="#5EA3F9" x="0" y="0" width="40" height="40" rx="4"></rect>
                    <path d="M23.3190883,12.2649573 C20.2991453,9.24501425 15.3418803,9.24501425 12.2649573,12.2649573 C9.24501425,15.2849003 9.24501425,20.2421652 12.2649573,23.3190883 C15,26.0541311 19.2165242,26.3390313 22.2364672,24.2307692 C22.2934473,24.5156695 22.4643875,24.8005698 22.6923077,25.0854701 L27.1367521,29.5299145 C27.7635328,30.1566952 28.8461538,30.1566952 29.4729345,29.5299145 C30.0997151,28.9031339 30.0997151,27.8205128 29.4729345,27.1937322 L25.02849,22.7492877 C24.8005698,22.5213675 24.5156695,22.3504274 24.1737892,22.2934473 C26.3390313,19.2165242 26.0541311,15 23.3190883,12.2649573 L23.3190883,12.2649573 Z M21.8945869,21.8945869 C19.6153846,24.1737892 15.9116809,24.1737892 13.6324786,21.8945869 C11.3532764,19.6153846 11.3532764,15.9116809 13.6324786,13.6324786 C15.9116809,11.3532764 19.6153846,11.3532764 21.8945869,13.6324786 C24.1737892,15.968661 24.1737892,19.6723647 21.8945869,21.8945869 L21.8945869,21.8945869 Z" id="Shape" fill="#FFFFFF"></path>
                </g>
            </g>
        </g>
    </g>
</svg>