<?xml version="1.0" encoding="UTF-8" standalone="no"?>
<svg width="14px" height="14px" viewBox="0 0 14 14" version="1.1" xmlns="http://www.w3.org/2000/svg" xmlns:xlink="http://www.w3.org/1999/xlink">
    <!-- Generator: Sketch 41.2 (35397) - http://www.bohemiancoding.com/sketch -->
    <title>Shape</title>
    <desc>Created with Sketch.</desc>
    <defs></defs>
    <g id="SmartCLIQZ" stroke="none" stroke-width="1" fill="none" fill-rule="evenodd">
        <g id="Generic-EZ---Telecommunications" transform="translate(-20.000000, -145.000000)" fill="#45C2CC">
            <g id="phone" transform="translate(20.000000, 145.000000)">
                <path d="M13.7565217,10.8956522 C13.7565217,11.1391304 13.6956522,11.3217391 13.573913,11.4434783 L11.626087,13.3913043 C11.5652174,13.5130435 11.4434783,13.573913 11.2608696,13.6347826 C11.1391304,13.6956522 11.0173913,13.7565217 10.8347826,13.7565217 L10.773913,13.7565217 L10.5913043,13.7565217 C10.4086957,13.7565217 10.1043478,13.7565217 9.73913043,13.6347826 C9.31304348,13.573913 8.82608696,13.3913043 8.27826087,13.1478261 C7.66956522,12.9043478 7,12.5391304 6.26956522,12.0521739 C5.53913043,11.5652174 4.74782609,10.8956522 3.89565217,10.0434783 C3.22608696,9.37391304 2.67826087,8.76521739 2.25217391,8.15652174 C1.82608696,7.54782609 1.46086957,7 1.2173913,6.51304348 C0.973913043,6.02608696 0.730434783,5.53913043 0.608695652,5.11304348 C0.426086957,4.74782609 0.365217391,4.3826087 0.304347826,4.07826087 C0.243478261,3.77391304 0.243478261,3.53043478 0.243478261,3.40869565 L0.243478261,3.10434783 C0.243478261,2.9826087 0.304347826,2.86086957 0.365217391,2.67826087 C0.486956522,2.55652174 0.547826087,2.43478261 0.608695652,2.37391304 L2.49565217,0.486956522 C2.6173913,0.365217391 2.8,0.304347826 2.9826087,0.304347826 C3.10434783,0.304347826 3.22608696,0.365217391 3.28695652,0.426086957 C3.40869565,0.426086957 3.53043478,0.486956522 3.59130435,0.608695652 L5.11304348,3.53043478 C5.17391304,3.65217391 5.23478261,3.83478261 5.17391304,4.0173913 C5.11304348,4.2 5.05217391,4.3826087 4.93043478,4.50434783 L4.2,5.17391304 C4.2,5.17391304 4.13913043,5.23478261 4.13913043,5.29565217 L4.13913043,5.4173913 C4.2,5.6 4.26086957,5.84347826 4.44347826,6.08695652 C4.56521739,6.33043478 4.74782609,6.57391304 4.99130435,6.93913043 C5.23478261,7.24347826 5.53913043,7.66956522 6.02608696,8.09565217 C6.45217391,8.52173913 6.8173913,8.88695652 7.1826087,9.13043478 C7.48695652,9.37391304 7.79130435,9.55652174 8.03478261,9.67826087 C8.27826087,9.8 8.4,9.86086957 8.52173913,9.86086957 L8.70434783,9.92173913 L8.82608696,9.92173913 C8.88695652,9.92173913 8.88695652,9.86086957 8.94782609,9.86086957 L9.73913043,9.00869565 C9.92173913,8.88695652 10.1043478,8.76521739 10.3478261,8.76521739 C10.5304348,8.76521739 10.6521739,8.76521739 10.7130435,8.82608696 L10.7130435,8.82608696 L13.4521739,10.4695652 C13.573913,10.5913043 13.6956522,10.7130435 13.7565217,10.8956522 L13.7565217,10.8956522 Z" id="Shape"></path>
            </g>
        </g>
    </g>
</svg>