<svg xmlns="http://www.w3.org/2000/svg" viewBox="-115.5 445.4 612.2 604.7"><path fill="#fff" d="M426.6 789.5c3.2-15.4 4.8-31.4 4.8-47.9 0-131.9-101.5-237.1-243-237.1s-244 106.9-244 237.1c0 131.9 101.5 237.1 243 237.1 9 0 18.1-.5 27.1-1.6-10.1-29.8-20.7-61.7-31.4-92-78.2-2.7-133.4-67-133.4-144.1v-1.1c0-78.7 56.4-143 137.2-143s138.1 65 138.7 142.7c34 17.5 67.5 34 101 49.9z"/><path fill="#fff" d="M267.6 988.9l45.2-92 96.8 94.1s32.4-27.6 26.6-34.6c-28.7-32.4-96.8-94.1-96.8-94.1l80.3-27.6L173 715.6l94.6 273.3z"/></svg>