<?xml version="1.0" encoding="UTF-8" standalone="no"?>
<svg width="10px" height="14px" viewBox="0 0 10 14" version="1.1" xmlns="http://www.w3.org/2000/svg" xmlns:xlink="http://www.w3.org/1999/xlink">
    <!-- Generator: Sketch 41.2 (35397) - http://www.bohemiancoding.com/sketch -->
    <title>Shape</title>
    <desc>Created with Sketch.</desc>
    <defs></defs>
    <g id="Symbols" stroke="none" stroke-width="1" fill="none" fill-rule="evenodd">
        <g id="EZ---Map-Pin" fill="#45C2CC">
            <path d="M5.09090909,13.4272727 C5.6,12.5363636 6.17272727,11.5818182 6.68181818,10.6909091 C6.80909091,10.4363636 7,10.1818182 7.12727273,9.92727273 C7.19090909,9.73636364 7.44545455,9.60909091 7.50909091,9.41818182 C8.4,7.82727273 9.73636364,6.3 9.73636364,4.77272727 L9.73636364,4.2 C9.73636364,3.94545455 9.54545455,3.37272727 9.54545455,3.37272727 C9.48181818,3.18181818 9.35454545,2.99090909 9.35454545,2.86363636 C8.4,0.763636364 6.49090909,0 5.02727273,0 C2.99090909,0 0.763636364,1.4 0.445454545,4.2 L0.445454545,4.77272727 L0.445454545,5.09090909 C0.636363636,6.42727273 1.71818182,7.82727273 2.48181818,9.22727273 C3.30909091,10.6272727 4.2,12.0272727 5.09090909,13.4272727 L5.09090909,13.4272727 Z M3.5,4.32727273 C3.5,3.24545455 4.39090909,2.8 5.15454545,2.8 C6.10909091,2.8 6.80909091,3.56363636 6.80909091,4.51818182 C6.74545455,5.40909091 5.98181818,6.17272727 5.02727273,6.17272727 C4.45454545,6.17272727 3.81818182,5.91818182 3.5,5.09090909 L3.5,4.64545455 L3.5,4.32727273 L3.5,4.32727273 Z" id="Shape"></path>
        </g>
    </g>
</svg>