<?xml version="1.0" encoding="UTF-8" standalone="no"?>
<svg width="111px" height="107px" viewBox="0 0 111 107" version="1.1" xmlns="http://www.w3.org/2000/svg" xmlns:xlink="http://www.w3.org/1999/xlink">
    <!-- Generator: Sketch 41.2 (35397) - http://www.bohemiancoding.com/sketch -->
    <title>Shape</title>
    <desc>Created with Sketch.</desc>
    <defs></defs>
    <g id="Page-1" stroke="none" stroke-width="1" fill="none" fill-rule="evenodd">
        <g id="Android_History" transform="translate(-139.000000, -471.000000)" fill="#45C2CC">
            <g id="maps.$" transform="translate(139.000000, 471.000000)">
                <path d="M61.8487085,54.1125954 C59.9645756,55.9912214 58.5719557,57.7064885 58.7357934,57.8698473 C66.1904059,65.2209924 78.8059041,78.3305344 79.0516605,78.9839695 C79.7479705,80.6992366 79.4612546,78.5755725 78.4782288,75.1450382 C76.6350554,68.4473282 73.399262,61.9946565 68.1154982,54.3984733 C66.6819188,52.3564885 65.4531365,50.6412214 65.4121771,50.6412214 C65.3712177,50.6412214 63.7738007,52.1931298 61.8487085,54.1125954 Z M96.3365314,60.1568702 C92.0357934,67.3854962 89.5372694,74.0015267 88.4723247,81.0667939 C88.1446494,83.190458 87.6940959,84.6198473 87.202583,85.1916031 C86.4243542,86.0083969 86.4243542,86.0492366 92.6501845,92.1343511 L98.9169742,98.2194656 L99.0398524,87.478626 C99.0808118,81.5568702 99.0808118,72.0412214 99.0398524,66.2828244 L98.9169742,55.8278626 L96.3365314,60.1568702 Z M29.2859779,86.5801527 L8.80627306,107 L49.4789668,107 C71.801845,107 90.1107011,106.918321 90.1107011,106.836641 C90.1107011,106.714122 81.0177122,97.5251908 69.9586716,86.3759542 L49.7656827,66.1603053 L29.2859779,86.5801527 Z M59.9645756,9.10725191 C60.5380074,8.4129771 61.0295203,7.71870229 61.0295203,7.59618321 C61.0295203,7.22862595 6.92214022,7.39198473 5.65239852,7.75954198 C3.68634686,8.33129771 2.17084871,9.47480916 1.06494465,11.1492366 L0,12.8236641 L0,98.6278626 L29.2859779,69.4274809 L58.6129151,40.1862595 L57.5479705,37.9400763 C53.9435424,30.0580153 53.9845018,20.0931298 57.7118081,12.7828244 C58.3671587,11.4351145 59.3911439,9.76068702 59.9645756,9.10725191 Z M24.5346863,46.271374 C16.7114391,46.271374 10.5675277,40.1454198 10.5675277,32.3450382 C10.5675277,24.5446565 16.7114391,18.4187023 24.5346863,18.4187023 C28.2210332,18.4187023 31.4158672,19.6438931 33.8324723,22.0942748 L30.1461255,25.7698473 C29.1630996,24.7896947 27.197048,23.5645038 24.4937269,23.5645038 C19.5785978,23.5645038 15.9332103,27.7301527 15.9332103,32.3450382 C15.9332103,37.2458015 19.8653137,41.1255725 24.4937269,41.1255725 C29.900369,41.1255725 31.8254613,37.2049618 32.3169742,35.2446565 L24.4937269,35.2446565 L24.4937269,30.3847328 L37.4778598,30.3847328 C37.7236162,31.3648855 37.7236162,31.8549618 37.7236162,32.8351145 C37.7645756,40.6354962 32.398893,46.271374 24.5346863,46.271374 L24.5346863,46.271374 Z M91.0118081,0.653435115 C87.2845018,-0.245038168 80.5261993,-0.163358779 76.8398524,0.816793893 C63.1594096,4.36984733 54.8856089,18.0103053 58.2442804,31.2832061 C59.2682657,35.3671756 60.701845,38.2259542 64.5929889,44.0660305 C66.2723247,46.6389313 67.6649446,48.7625954 67.6649446,48.8442748 C67.6649446,48.8851145 68.9346863,50.7637405 70.4911439,52.969084 C77.3313653,62.6480916 81.3863469,71.959542 82.2464945,79.8007634 C82.6151292,83.0679389 82.9837638,83.8030534 84.3763838,83.6396947 C85.4413284,83.5171756 85.5232472,83.3538168 86.1785978,79.4332061 C88.0217712,68.8557252 90.5202952,63.669084 100.923985,48.5583969 C107.149815,39.4919847 109.689299,34.509542 110.549446,29.4862595 C112.843173,16.6217557 104.07786,3.71641221 91.0118081,0.653435115 L91.0118081,0.653435115 Z M84.2125461,34.8770992 C78.9697417,34.8770992 74.7509225,30.629771 74.7509225,25.4431298 C74.7509225,20.2156489 79.0107011,15.9683206 84.2125461,15.9683206 C89.4143911,15.9683206 93.7151292,20.2156489 93.7151292,25.4431298 C93.7151292,30.629771 89.4553506,34.8770992 84.2125461,34.8770992 Z" id="Shape"></path>
            </g>
        </g>
    </g>
</svg>