<?xml version="1.0" encoding="utf-8"?>
<!-- Generator: Adobe Illustrator 19.2.0, SVG Export Plug-In . SVG Version: 6.00 Build 0)  -->
<svg version="1.1" id="Layer_1" xmlns="http://www.w3.org/2000/svg" xmlns:xlink="http://www.w3.org/1999/xlink" x="0px" y="0px"
	 viewBox="0 0 281.2 207.6" style="enable-background:new 0 0 281.2 207.6;" xml:space="preserve">
<style type="text/css">
	.st0{fill:#FFFFFF;}
</style>
<g>
	<path class="st0" d="M253.6,164.5c-1,0-1.9,0-2.9,0c-80.4,0-160.8,0-241.2,0c-2.5,0-5,0-7-1.9c-2.1-2-3-4.4-2.1-7.2
		c0.9-2.8,2.9-4.6,5.9-5.1c1.1-0.2,2.2-0.1,3.2-0.1c80.2,0,160.5,0,240.7,0c1.1,0,2.2,0,3.4,0c0.1-0.2,0.1-0.4,0.2-0.6
		c-3.3-2.9-6.6-5.7-9.9-8.6c-8.3-7.1-16.6-14.2-24.8-21.3c-2.8-2.4-3.5-5.7-2.1-8.8c1.3-2.9,4.4-4.6,7.6-4c1.4,0.3,2.9,1,4,1.9
		c16.7,14.2,33.3,28.4,49.9,42.7c3.9,3.4,3.7,8.2-0.6,11.8c-15.4,13.2-30.7,26.3-46.1,39.5c-1.1,1-2.2,2-3.4,2.9
		c-3.3,2.6-7.7,2.3-10.3-0.8c-2.6-3-2.3-7.2,0.9-10.1c6.6-5.8,13.2-11.4,19.9-17.1c5-4.3,10-8.6,14.9-12.8
		C253.7,164.9,253.6,164.7,253.6,164.5z"/>
	<path class="st0" d="M27.6,58.3c3.9,3.3,7.8,6.7,11.7,10c7.5,6.5,15.1,12.9,22.6,19.3c3.6,3.1,4.2,7.5,1.3,10.8
		c-2.7,3.1-7.1,3.2-10.7,0.2C36.2,84.7,20,70.8,3.7,56.8c-4.8-4.1-4.8-8.6-0.1-12.6c16.3-14,32.6-28,48.9-42c3.3-2.8,6.9-3,9.8-0.7
		c2.6,2,3.6,5.7,2.1,8.5c-0.8,1.4-2,2.7-3.2,3.7c-10.8,9.4-21.7,18.7-32.6,28c-0.4,0.3-0.7,0.7-1.6,1.5c1.5,0,2.4,0,3.4,0
		c80.2,0,160.5,0,240.7,0c1.1,0,2.2,0,3.2,0.1c3.6,0.3,6.6,3.4,6.8,6.9c0.2,3.4-2.7,6.8-6.3,7.3c-1.1,0.1-2.2,0.1-3.2,0.1
		c-80.1,0-160.2,0-240.2,0c-1.2,0-2.3,0-3.5,0C27.8,57.9,27.7,58.1,27.6,58.3z"/>
</g>
</svg>
