<?xml version="1.0" encoding="utf-8"?>
<!-- Generator: Adobe Illustrator 16.0.0, SVG Export Plug-In . SVG Version: 6.00 Build 0)  -->
<!DOCTYPE svg PUBLIC "-//W3C//DTD SVG 1.1//EN" "http://www.w3.org/Graphics/SVG/1.1/DTD/svg11.dtd">
<svg version="1.1" id="Layer_1" xmlns="http://www.w3.org/2000/svg" xmlns:xlink="http://www.w3.org/1999/xlink" x="0px" y="0px"
	 width="16px" height="16px" viewBox="298 388 16 16" enable-background="new 298 388 16 16" xml:space="preserve">
<path d="M313.665,397.356c0.104-0.5,0.156-1.021,0.156-1.556c0-4.285-3.298-7.703-7.895-7.703c-4.597,0-7.927,3.473-7.927,7.703
	c0,4.285,3.298,7.703,7.895,7.703c0.292,0,0.588-0.017,0.88-0.052c-0.328-0.969-0.672-2.005-1.02-2.989
	c-2.541-0.088-4.334-2.177-4.334-4.681v-0.036c0-2.557,1.833-4.646,4.458-4.646s4.486,2.112,4.506,4.636
	C311.488,396.304,312.577,396.84,313.665,397.356L313.665,397.356z"/>
<path d="M308.5,403.834l1.468-2.988l3.146,3.057c0,0,1.053-0.896,0.864-1.124c-0.933-1.053-3.146-3.057-3.146-3.057l2.609-0.896
	l-8.015-3.87L308.5,403.834L308.5,403.834z"/>
</svg>
