<?xml version="1.0" encoding="utf-8"?>
<!-- Generator: Adobe Illustrator 18.1.1, SVG Export Plug-In . SVG Version: 6.00 Build 0)  -->
<svg version="1.1" id="Layer_2" xmlns="http://www.w3.org/2000/svg" xmlns:xlink="http://www.w3.org/1999/xlink" x="0px" y="0px"
	 viewBox="0 0 309.4 309.4" enable-background="new 0 0 309.4 309.4" xml:space="preserve">
<path fill="none" stroke="#333333" stroke-width="20" stroke-miterlimit="10" d="M287.4,299.4H22c-6.6,0-12-5.4-12-12V22
	c0-6.6,5.4-12,12-12h265.4c6.6,0,12,5.4,12,12v265.4C299.4,294,294,299.4,287.4,299.4z"/>
<path fill="#333333" d="M256,84.2l-6.1-6.1c-6.7-6.8-17.8-6.8-24.5,0L121.1,182.3l-37-37c-6.7-6.7-17.8-6.7-24.5,0l-6.1,6.1
	c-6.7,6.7-6.7,17.8,0,24.5l55.4,55.4c6.7,6.7,17.8,6.7,24.5,0L256,108.7C262.7,102,262.7,90.9,256,84.2z"/>
</svg>
