<?xml version="1.0" encoding="UTF-8" standalone="no"?>
<svg width="14px" height="13px" viewBox="0 0 14 13" version="1.1" xmlns="http://www.w3.org/2000/svg" xmlns:xlink="http://www.w3.org/1999/xlink">
    <!-- Generator: Sketch 46 (44423) - http://www.bohemiancoding.com/sketch -->
    <title>Group 2</title>
    <desc>Created with Sketch.</desc>
    <defs></defs>
    <g id="Page-1" stroke="none" stroke-width="1" fill="none" fill-rule="evenodd">
        <g id="Artboard-Copy-6" transform="translate(-307.000000, -65.000000)" fill-rule="nonzero" fill="#ACBCC3">
            <g id="Group-2" transform="translate(307.000000, 65.000000)">
                <polygon id="Line-Copy" points="7.94628098 8.61852224 12.1040688 12.7763101 13.0940183 11.7863606 8.93623047 7.62857275"></polygon>
                <path d="M5.90566406,10.511084 C3.08901184,10.511084 0.805664062,8.22773621 0.805664062,5.41108398 C0.805664062,2.59443176 3.08901184,0.311083984 5.90566406,0.311083984 C8.72231629,0.311083984 11.0056641,2.59443176 11.0056641,5.41108398 C11.0056641,8.22773621 8.72231629,10.511084 5.90566406,10.511084 Z M5.90566406,9.11108398 C7.94911764,9.11108398 9.60566406,7.45453756 9.60566406,5.41108398 C9.60566406,3.36763041 7.94911764,1.71108398 5.90566406,1.71108398 C3.86221049,1.71108398 2.20566406,3.36763041 2.20566406,5.41108398 C2.20566406,7.45453756 3.86221049,9.11108398 5.90566406,9.11108398 Z" id="Oval-Copy"></path>
            </g>
        </g>
    </g>
</svg>